G04 #@! TF.FileFunction,Other,Fab,Bot*
%FSLAX46Y46*%
G04 Gerber Fmt 4.6, Leading zero omitted, Abs format (unit mm)*
G04 Created by KiCad (PCBNEW 4.0.7) date 11/22/17 14:23:38*
%MOMM*%
%LPD*%
G01*
G04 APERTURE LIST*
%ADD10C,0.100000*%
%ADD11C,0.150000*%
%ADD12C,0.075000*%
%ADD13C,0.120000*%
G04 APERTURE END LIST*
D10*
D11*
X18034000Y-22352000D02*
X18542000Y-22352000D01*
X18034000Y-23431500D02*
X18034000Y-22352000D01*
X94742000Y-22352000D02*
X94742000Y-23431500D01*
X18034000Y-48831500D02*
X18034000Y-23431500D01*
X39878000Y-48831500D02*
X18034000Y-48831500D01*
X94742000Y-48831500D02*
X39878000Y-48831500D01*
X94742000Y-47307500D02*
X94742000Y-48831500D01*
X94742000Y-23431500D02*
X94742000Y-47307500D01*
X18542000Y-22352000D02*
X94742000Y-22352000D01*
X55169641Y-32757393D02*
X50927000Y-28514753D01*
X50927000Y-28514753D02*
X45977253Y-33464500D01*
X45977253Y-33464500D02*
X50927000Y-38414247D01*
X50927000Y-38414247D02*
X55169641Y-34171607D01*
X55169641Y-34171607D02*
X55169641Y-32757393D01*
D10*
X29703000Y-40529000D02*
X28463000Y-40529000D01*
X29703000Y-42529000D02*
X29703000Y-40529000D01*
X28463000Y-42529000D02*
X29703000Y-42529000D01*
X28463000Y-40529000D02*
X28463000Y-42529000D01*
X40815500Y-44636500D02*
X39575500Y-44636500D01*
X40815500Y-46636500D02*
X40815500Y-44636500D01*
X39575500Y-46636500D02*
X40815500Y-46636500D01*
X39575500Y-44636500D02*
X39575500Y-46636500D01*
X44625287Y-29745401D02*
X45502099Y-30622213D01*
X46039501Y-28331187D02*
X44625287Y-29745401D01*
X46916313Y-29207999D02*
X46039501Y-28331187D01*
X45502099Y-30622213D02*
X46916313Y-29207999D01*
X31119000Y-29639500D02*
X31119000Y-28399500D01*
X29119000Y-29639500D02*
X31119000Y-29639500D01*
X29119000Y-28399500D02*
X29119000Y-29639500D01*
X31119000Y-28399500D02*
X29119000Y-28399500D01*
X35687000Y-35687000D02*
X39497000Y-35687000D01*
X39497000Y-35687000D02*
X39497000Y-28067000D01*
X39497000Y-28067000D02*
X34417000Y-28067000D01*
X34417000Y-28067000D02*
X34417000Y-34417000D01*
X34417000Y-34417000D02*
X35687000Y-35687000D01*
X32893000Y-47244000D02*
X34798000Y-47244000D01*
X34798000Y-47244000D02*
X34798000Y-44704000D01*
X34798000Y-44704000D02*
X32258000Y-44704000D01*
X32258000Y-44704000D02*
X32258000Y-46609000D01*
X32258000Y-46609000D02*
X32893000Y-47244000D01*
X29210000Y-47244000D02*
X31115000Y-47244000D01*
X31115000Y-47244000D02*
X31115000Y-44704000D01*
X31115000Y-44704000D02*
X28575000Y-44704000D01*
X28575000Y-44704000D02*
X28575000Y-46609000D01*
X28575000Y-46609000D02*
X29210000Y-47244000D01*
X36576000Y-47244000D02*
X38481000Y-47244000D01*
X38481000Y-47244000D02*
X38481000Y-44704000D01*
X38481000Y-44704000D02*
X35941000Y-44704000D01*
X35941000Y-44704000D02*
X35941000Y-46609000D01*
X35941000Y-46609000D02*
X36576000Y-47244000D01*
X45783500Y-41592500D02*
X47688500Y-41592500D01*
X47688500Y-41592500D02*
X47688500Y-39052500D01*
X47688500Y-39052500D02*
X45148500Y-39052500D01*
X45148500Y-39052500D02*
X45148500Y-40957500D01*
X45148500Y-40957500D02*
X45783500Y-41592500D01*
X43688000Y-39433500D02*
X45593000Y-39433500D01*
X45593000Y-39433500D02*
X45593000Y-36893500D01*
X45593000Y-36893500D02*
X43053000Y-36893500D01*
X43053000Y-36893500D02*
X43053000Y-38798500D01*
X43053000Y-38798500D02*
X43688000Y-39433500D01*
X40957500Y-38290500D02*
X42862500Y-38290500D01*
X42862500Y-38290500D02*
X42862500Y-35750500D01*
X42862500Y-35750500D02*
X40322500Y-35750500D01*
X40322500Y-35750500D02*
X40322500Y-37655500D01*
X40322500Y-37655500D02*
X40957500Y-38290500D01*
X49452962Y-27436513D02*
X50800000Y-28783551D01*
X50800000Y-28783551D02*
X52596051Y-26987500D01*
X52596051Y-26987500D02*
X50800000Y-25191449D01*
X50800000Y-25191449D02*
X49452962Y-26538487D01*
X49452962Y-26538487D02*
X49452962Y-27436513D01*
X40909000Y-29718500D02*
X42149000Y-29718500D01*
X40909000Y-27718500D02*
X40909000Y-29718500D01*
X42149000Y-27718500D02*
X40909000Y-27718500D01*
X42149000Y-29718500D02*
X42149000Y-27718500D01*
X31146000Y-31290500D02*
X31146000Y-30050500D01*
X29146000Y-31290500D02*
X31146000Y-31290500D01*
X29146000Y-30050500D02*
X29146000Y-31290500D01*
X31146000Y-30050500D02*
X29146000Y-30050500D01*
X31146000Y-33195500D02*
X31146000Y-31955500D01*
X29146000Y-33195500D02*
X31146000Y-33195500D01*
X29146000Y-31955500D02*
X29146000Y-33195500D01*
X31146000Y-31955500D02*
X29146000Y-31955500D01*
X31146000Y-35100500D02*
X31146000Y-33860500D01*
X29146000Y-35100500D02*
X31146000Y-35100500D01*
X29146000Y-33860500D02*
X29146000Y-35100500D01*
X31146000Y-33860500D02*
X29146000Y-33860500D01*
X33062047Y-42803000D02*
X34062047Y-43803000D01*
X33062047Y-42803000D02*
X33062047Y-37103000D01*
X34062047Y-43803000D02*
X36762047Y-43803000D01*
X33062047Y-37103000D02*
X36762047Y-37103000D01*
X36762047Y-43803000D02*
X36762047Y-37103000D01*
X56428000Y-41680500D02*
X50178000Y-41680500D01*
X56428000Y-46330500D02*
X50178000Y-46330500D01*
X56303000Y-42005500D02*
X50303000Y-42005500D01*
X56303000Y-46005500D02*
X50303000Y-46005500D01*
X56428000Y-46330500D02*
G75*
G03X56428000Y-41680500I0J2325000D01*
G01*
X50178000Y-46330500D02*
G75*
G02X50178000Y-41680500I0J2325000D01*
G01*
X56303000Y-46005500D02*
G75*
G03X56303000Y-42005500I0J2000000D01*
G01*
X50303000Y-46005500D02*
G75*
G02X50303000Y-42005500I0J2000000D01*
G01*
X54729370Y-38881818D02*
X55606182Y-39758630D01*
X56143584Y-37467604D02*
X54729370Y-38881818D01*
X57020396Y-38344416D02*
X56143584Y-37467604D01*
X55606182Y-39758630D02*
X57020396Y-38344416D01*
X79551000Y-40134500D02*
X79551000Y-42584500D01*
X79001000Y-39564500D02*
X78151000Y-39564500D01*
X79551000Y-40134500D02*
X79001000Y-39564500D01*
X78151000Y-39564500D02*
X78151000Y-42604500D01*
X79551000Y-42604500D02*
X78151000Y-42604500D01*
X74292500Y-29576500D02*
X71842500Y-29576500D01*
X74862500Y-29026500D02*
X74862500Y-28176500D01*
X74292500Y-29576500D02*
X74862500Y-29026500D01*
X74862500Y-28176500D02*
X71822500Y-28176500D01*
X71822500Y-29576500D02*
X71822500Y-28176500D01*
X70609500Y-29576500D02*
X68159500Y-29576500D01*
X71179500Y-29026500D02*
X71179500Y-28176500D01*
X70609500Y-29576500D02*
X71179500Y-29026500D01*
X71179500Y-28176500D02*
X68139500Y-28176500D01*
X68139500Y-29576500D02*
X68139500Y-28176500D01*
X60784000Y-29461500D02*
X60784000Y-27011500D01*
X61334000Y-30031500D02*
X62184000Y-30031500D01*
X60784000Y-29461500D02*
X61334000Y-30031500D01*
X62184000Y-30031500D02*
X62184000Y-26991500D01*
X60784000Y-26991500D02*
X62184000Y-26991500D01*
X82281000Y-39402500D02*
X81041000Y-39402500D01*
X82281000Y-41402500D02*
X82281000Y-39402500D01*
X81041000Y-41402500D02*
X82281000Y-41402500D01*
X81041000Y-39402500D02*
X81041000Y-41402500D01*
X65517000Y-28480500D02*
X64277000Y-28480500D01*
X65517000Y-30480500D02*
X65517000Y-28480500D01*
X64277000Y-30480500D02*
X65517000Y-30480500D01*
X64277000Y-28480500D02*
X64277000Y-30480500D01*
X67485500Y-28480500D02*
X66245500Y-28480500D01*
X67485500Y-30480500D02*
X67485500Y-28480500D01*
X66245500Y-30480500D02*
X67485500Y-30480500D01*
X66245500Y-28480500D02*
X66245500Y-30480500D01*
X79360000Y-27177500D02*
X78120000Y-27177500D01*
X79360000Y-29177500D02*
X79360000Y-27177500D01*
X78120000Y-29177500D02*
X79360000Y-29177500D01*
X78120000Y-27177500D02*
X78120000Y-29177500D01*
X73040000Y-38989500D02*
X74280000Y-38989500D01*
X73040000Y-36989500D02*
X73040000Y-38989500D01*
X74280000Y-36989500D02*
X73040000Y-36989500D01*
X74280000Y-38989500D02*
X74280000Y-36989500D01*
X71135000Y-38989500D02*
X72375000Y-38989500D01*
X71135000Y-36989500D02*
X71135000Y-38989500D01*
X72375000Y-36989500D02*
X71135000Y-36989500D01*
X72375000Y-38989500D02*
X72375000Y-36989500D01*
X66833000Y-37894500D02*
X66833000Y-36654500D01*
X64833000Y-37894500D02*
X66833000Y-37894500D01*
X64833000Y-36654500D02*
X64833000Y-37894500D01*
X66833000Y-36654500D02*
X64833000Y-36654500D01*
X64610500Y-39863000D02*
X64610500Y-38623000D01*
X62610500Y-39863000D02*
X64610500Y-39863000D01*
X62610500Y-38623000D02*
X62610500Y-39863000D01*
X64610500Y-38623000D02*
X62610500Y-38623000D01*
X63404000Y-44117500D02*
X63404000Y-42877500D01*
X61404000Y-44117500D02*
X63404000Y-44117500D01*
X61404000Y-42877500D02*
X61404000Y-44117500D01*
X63404000Y-42877500D02*
X61404000Y-42877500D01*
X76010000Y-32243000D02*
X76010000Y-31003000D01*
X74010000Y-32243000D02*
X76010000Y-32243000D01*
X74010000Y-31003000D02*
X74010000Y-32243000D01*
X76010000Y-31003000D02*
X74010000Y-31003000D01*
X71184000Y-32243000D02*
X71184000Y-31003000D01*
X69184000Y-32243000D02*
X71184000Y-32243000D01*
X69184000Y-31003000D02*
X69184000Y-32243000D01*
X71184000Y-31003000D02*
X69184000Y-31003000D01*
X58181000Y-28956500D02*
X59421000Y-28956500D01*
X58181000Y-26956500D02*
X58181000Y-28956500D01*
X59421000Y-26956500D02*
X58181000Y-26956500D01*
X59421000Y-28956500D02*
X59421000Y-26956500D01*
X26956500Y-24671500D02*
X32156500Y-24671500D01*
X32156500Y-24671500D02*
X32156500Y-27271500D01*
X32156500Y-27271500D02*
X26956500Y-27271500D01*
X26956500Y-27271500D02*
X26956500Y-24671500D01*
X30205940Y-25972520D02*
X31107640Y-25972520D01*
X29055320Y-25972520D02*
X28057100Y-25972520D01*
X30205940Y-25172420D02*
X30205940Y-26772620D01*
X29055320Y-26721820D02*
X29055320Y-25172420D01*
X30205940Y-25972520D02*
X29055320Y-26721820D01*
X30205940Y-25972520D02*
X29055320Y-25172420D01*
X23426566Y-26670000D02*
G75*
G03X23426566Y-26670000I-2154066J0D01*
G01*
X93784566Y-45720000D02*
G75*
G03X93784566Y-45720000I-2154066J0D01*
G01*
D11*
X50824301Y-42153496D02*
X50487583Y-41816778D01*
X50689614Y-42422870D02*
X51161019Y-41480061D01*
X50218210Y-41951465D01*
X50790630Y-41109671D02*
X50386568Y-40705610D01*
X49881492Y-41614748D02*
X50588599Y-40907641D01*
X49443759Y-41177015D02*
X50150866Y-40469908D01*
X49410087Y-40739282D01*
X49679461Y-39998503D01*
X48972355Y-40705610D01*
X49006027Y-39998503D02*
X48770324Y-39762800D01*
X48298920Y-40032175D02*
X48635637Y-40368893D01*
X49342744Y-39661786D01*
X49006026Y-39325068D01*
X48298920Y-38685305D02*
X48399935Y-38718977D01*
X48500950Y-38819992D01*
X48568294Y-38954679D01*
X48568294Y-39089366D01*
X48534622Y-39190381D01*
X48433607Y-39358740D01*
X48332591Y-39459756D01*
X48164233Y-39560771D01*
X48063218Y-39594443D01*
X47928531Y-39594443D01*
X47793843Y-39527098D01*
X47726500Y-39459755D01*
X47659156Y-39325068D01*
X47659156Y-39257725D01*
X47894858Y-39022023D01*
X48029545Y-39156710D01*
X47524469Y-38853664D02*
X47187751Y-38516946D01*
X47389782Y-39123038D02*
X47861187Y-38180229D01*
X46918378Y-38651633D01*
X47457126Y-37776168D02*
X47019393Y-37338435D01*
X46985722Y-37843511D01*
X46884706Y-37742495D01*
X46783691Y-37708824D01*
X46716347Y-37708824D01*
X46615332Y-37742496D01*
X46446973Y-37910855D01*
X46413301Y-38011870D01*
X46413301Y-38079213D01*
X46446973Y-38180228D01*
X46649004Y-38382259D01*
X46750019Y-38415931D01*
X46817363Y-38415931D01*
X46682676Y-37136404D02*
X46682676Y-37069061D01*
X46649004Y-36968046D01*
X46480645Y-36799686D01*
X46379630Y-36766015D01*
X46312286Y-36766015D01*
X46211271Y-36799686D01*
X46143928Y-36867030D01*
X46076584Y-37001717D01*
X46076584Y-37809839D01*
X45638851Y-37372106D01*
X45638852Y-36563984D02*
X45739867Y-36597656D01*
X45807210Y-36597656D01*
X45908226Y-36563984D01*
X45941897Y-36530313D01*
X45975569Y-36429298D01*
X45975569Y-36361954D01*
X45941897Y-36260939D01*
X45807210Y-36126251D01*
X45706194Y-36092580D01*
X45638851Y-36092580D01*
X45537836Y-36126251D01*
X45504164Y-36159923D01*
X45470492Y-36260938D01*
X45470492Y-36328282D01*
X45504164Y-36429297D01*
X45638852Y-36563984D01*
X45672523Y-36665000D01*
X45672523Y-36732343D01*
X45638851Y-36833359D01*
X45504164Y-36968046D01*
X45403149Y-37001718D01*
X45335806Y-37001718D01*
X45234790Y-36968046D01*
X45100103Y-36833358D01*
X45066431Y-36732343D01*
X45066431Y-36665000D01*
X45100103Y-36563984D01*
X45234790Y-36429298D01*
X45335806Y-36395625D01*
X45403149Y-36395625D01*
X45504164Y-36429297D01*
X44662371Y-36395626D02*
X45369477Y-35688519D01*
X45100103Y-35419145D01*
X44999088Y-35385473D01*
X44931744Y-35385473D01*
X44830729Y-35419145D01*
X44729714Y-35520160D01*
X44696042Y-35621175D01*
X44696042Y-35688518D01*
X44729714Y-35789534D01*
X44999088Y-36058908D01*
X44224637Y-35419145D02*
X43685889Y-34880397D01*
X43315500Y-34644695D02*
X42978783Y-34307977D01*
X43180814Y-34914069D02*
X43652218Y-33971260D01*
X42709409Y-34442664D01*
X43180814Y-33499855D02*
X42608394Y-34072275D01*
X42507378Y-34105947D01*
X42440035Y-34105947D01*
X42339020Y-34072275D01*
X42204332Y-33937588D01*
X42170661Y-33836572D01*
X42170661Y-33769229D01*
X42204332Y-33668214D01*
X42776752Y-33095794D01*
X51852973Y-33616023D02*
X51280553Y-34188443D01*
X51179538Y-34222115D01*
X51112195Y-34222115D01*
X51011180Y-34188443D01*
X50876492Y-34053755D01*
X50842820Y-33952740D01*
X50842820Y-33885397D01*
X50876492Y-33784382D01*
X51448912Y-33211962D01*
X51078523Y-32976260D02*
X51078523Y-32908916D01*
X51044851Y-32807901D01*
X50876492Y-32639542D01*
X50775477Y-32605870D01*
X50708133Y-32605870D01*
X50607118Y-32639542D01*
X50539775Y-32706885D01*
X50472431Y-32841572D01*
X50472431Y-33649695D01*
X50034698Y-33211962D01*
X31285381Y-41290905D02*
X31285381Y-40719476D01*
X31285381Y-41005190D02*
X30285381Y-41005190D01*
X30428238Y-40909952D01*
X30523476Y-40814714D01*
X30571095Y-40719476D01*
X30285381Y-41719476D02*
X31094905Y-41719476D01*
X31190143Y-41767095D01*
X31237762Y-41814714D01*
X31285381Y-41909952D01*
X31285381Y-42100429D01*
X31237762Y-42195667D01*
X31190143Y-42243286D01*
X31094905Y-42290905D01*
X30285381Y-42290905D01*
X27690143Y-41362334D02*
X27737762Y-41314715D01*
X27785381Y-41171858D01*
X27785381Y-41076620D01*
X27737762Y-40933762D01*
X27642524Y-40838524D01*
X27547286Y-40790905D01*
X27356810Y-40743286D01*
X27213952Y-40743286D01*
X27023476Y-40790905D01*
X26928238Y-40838524D01*
X26833000Y-40933762D01*
X26785381Y-41076620D01*
X26785381Y-41171858D01*
X26833000Y-41314715D01*
X26880619Y-41362334D01*
X27785381Y-42314715D02*
X27785381Y-41743286D01*
X27785381Y-42029000D02*
X26785381Y-42029000D01*
X26928238Y-41933762D01*
X27023476Y-41838524D01*
X27071095Y-41743286D01*
X41397881Y-44422214D02*
X41397881Y-44517453D01*
X41445500Y-44612691D01*
X41493119Y-44660310D01*
X41588357Y-44707929D01*
X41778833Y-44755548D01*
X42016929Y-44755548D01*
X42207405Y-44707929D01*
X42302643Y-44660310D01*
X42350262Y-44612691D01*
X42397881Y-44517453D01*
X42397881Y-44422214D01*
X42350262Y-44326976D01*
X42302643Y-44279357D01*
X42207405Y-44231738D01*
X42016929Y-44184119D01*
X41778833Y-44184119D01*
X41588357Y-44231738D01*
X41493119Y-44279357D01*
X41445500Y-44326976D01*
X41397881Y-44422214D01*
X42302643Y-45184119D02*
X42350262Y-45231738D01*
X42397881Y-45184119D01*
X42350262Y-45136500D01*
X42302643Y-45184119D01*
X42397881Y-45184119D01*
X42397881Y-46184119D02*
X42397881Y-45612690D01*
X42397881Y-45898404D02*
X41397881Y-45898404D01*
X41540738Y-45803166D01*
X41635976Y-45707928D01*
X41683595Y-45612690D01*
X41731214Y-47041262D02*
X42397881Y-47041262D01*
X41731214Y-46612690D02*
X42255024Y-46612690D01*
X42350262Y-46660309D01*
X42397881Y-46755547D01*
X42397881Y-46898405D01*
X42350262Y-46993643D01*
X42302643Y-47041262D01*
X38802643Y-45469834D02*
X38850262Y-45422215D01*
X38897881Y-45279358D01*
X38897881Y-45184120D01*
X38850262Y-45041262D01*
X38755024Y-44946024D01*
X38659786Y-44898405D01*
X38469310Y-44850786D01*
X38326452Y-44850786D01*
X38135976Y-44898405D01*
X38040738Y-44946024D01*
X37945500Y-45041262D01*
X37897881Y-45184120D01*
X37897881Y-45279358D01*
X37945500Y-45422215D01*
X37993119Y-45469834D01*
X37897881Y-45803167D02*
X37897881Y-46422215D01*
X38278833Y-46088881D01*
X38278833Y-46231739D01*
X38326452Y-46326977D01*
X38374071Y-46374596D01*
X38469310Y-46422215D01*
X38707405Y-46422215D01*
X38802643Y-46374596D01*
X38850262Y-46326977D01*
X38897881Y-46231739D01*
X38897881Y-45946024D01*
X38850262Y-45850786D01*
X38802643Y-45803167D01*
X45004768Y-26993408D02*
X44937424Y-27060752D01*
X44903752Y-27161767D01*
X44903752Y-27229111D01*
X44937424Y-27330126D01*
X45038439Y-27498485D01*
X45206798Y-27666844D01*
X45375157Y-27767859D01*
X45476172Y-27801531D01*
X45543515Y-27801531D01*
X45644530Y-27767859D01*
X45711875Y-27700515D01*
X45745546Y-27599500D01*
X45745546Y-27532156D01*
X45711875Y-27431141D01*
X45610859Y-27262782D01*
X45442500Y-27094423D01*
X45274141Y-26993408D01*
X45173126Y-26959736D01*
X45105783Y-26959736D01*
X45004768Y-26993408D01*
X45105783Y-28171920D02*
X45105783Y-28239263D01*
X45173126Y-28239263D01*
X45173126Y-28171920D01*
X45105783Y-28171920D01*
X45173126Y-28239263D01*
X44466020Y-28946370D02*
X44870081Y-28542308D01*
X44668051Y-28744339D02*
X43960944Y-28037232D01*
X44129302Y-28070904D01*
X44263989Y-28070904D01*
X44365004Y-28037232D01*
X43388523Y-29081057D02*
X43859928Y-29552461D01*
X43691569Y-28778010D02*
X44061959Y-29148400D01*
X44095631Y-29249415D01*
X44061959Y-29350430D01*
X43960943Y-29451446D01*
X43859928Y-29485118D01*
X43792585Y-29485118D01*
X47378626Y-30848825D02*
X47445969Y-30848825D01*
X47580656Y-30781481D01*
X47648000Y-30714138D01*
X47715344Y-30579450D01*
X47715344Y-30444763D01*
X47681672Y-30343748D01*
X47580657Y-30175390D01*
X47479641Y-30074374D01*
X47311282Y-29973359D01*
X47210267Y-29939687D01*
X47075580Y-29939687D01*
X46940893Y-30007031D01*
X46873549Y-30074374D01*
X46806206Y-30209061D01*
X46806206Y-30276405D01*
X46368473Y-31050855D02*
X46839878Y-31522260D01*
X46267459Y-30613122D02*
X46940894Y-30949840D01*
X46503161Y-31387573D01*
X31333286Y-30221881D02*
X31238047Y-30221881D01*
X31142809Y-30269500D01*
X31095190Y-30317119D01*
X31047571Y-30412357D01*
X30999952Y-30602833D01*
X30999952Y-30840929D01*
X31047571Y-31031405D01*
X31095190Y-31126643D01*
X31142809Y-31174262D01*
X31238047Y-31221881D01*
X31333286Y-31221881D01*
X31428524Y-31174262D01*
X31476143Y-31126643D01*
X31523762Y-31031405D01*
X31571381Y-30840929D01*
X31571381Y-30602833D01*
X31523762Y-30412357D01*
X31476143Y-30317119D01*
X31428524Y-30269500D01*
X31333286Y-30221881D01*
X30571381Y-31126643D02*
X30523762Y-31174262D01*
X30571381Y-31221881D01*
X30619000Y-31174262D01*
X30571381Y-31126643D01*
X30571381Y-31221881D01*
X29571381Y-31221881D02*
X30142810Y-31221881D01*
X29857096Y-31221881D02*
X29857096Y-30221881D01*
X29952334Y-30364738D01*
X30047572Y-30459976D01*
X30142810Y-30507595D01*
X28714238Y-30555214D02*
X28714238Y-31221881D01*
X29142810Y-30555214D02*
X29142810Y-31079024D01*
X29095191Y-31174262D01*
X28999953Y-31221881D01*
X28857095Y-31221881D01*
X28761857Y-31174262D01*
X28714238Y-31126643D01*
X30285666Y-27626643D02*
X30333285Y-27674262D01*
X30476142Y-27721881D01*
X30571380Y-27721881D01*
X30714238Y-27674262D01*
X30809476Y-27579024D01*
X30857095Y-27483786D01*
X30904714Y-27293310D01*
X30904714Y-27150452D01*
X30857095Y-26959976D01*
X30809476Y-26864738D01*
X30714238Y-26769500D01*
X30571380Y-26721881D01*
X30476142Y-26721881D01*
X30333285Y-26769500D01*
X30285666Y-26817119D01*
X29380904Y-26721881D02*
X29857095Y-26721881D01*
X29904714Y-27198071D01*
X29857095Y-27150452D01*
X29761857Y-27102833D01*
X29523761Y-27102833D01*
X29428523Y-27150452D01*
X29380904Y-27198071D01*
X29333285Y-27293310D01*
X29333285Y-27531405D01*
X29380904Y-27626643D01*
X29428523Y-27674262D01*
X29523761Y-27721881D01*
X29761857Y-27721881D01*
X29857095Y-27674262D01*
X29904714Y-27626643D01*
X41052238Y-27173667D02*
X40576047Y-27173667D01*
X41147476Y-27459381D02*
X40814143Y-26459381D01*
X40480809Y-27459381D01*
X40290333Y-26459381D02*
X39957000Y-27459381D01*
X39623666Y-26459381D01*
X38718904Y-27459381D02*
X39052238Y-26983190D01*
X39290333Y-27459381D02*
X39290333Y-26459381D01*
X38909380Y-26459381D01*
X38814142Y-26507000D01*
X38766523Y-26554619D01*
X38718904Y-26649857D01*
X38718904Y-26792714D01*
X38766523Y-26887952D01*
X38814142Y-26935571D01*
X38909380Y-26983190D01*
X39290333Y-26983190D01*
X38290333Y-27078429D02*
X37528428Y-27078429D01*
X37052238Y-27459381D02*
X37052238Y-26459381D01*
X36623667Y-27411762D02*
X36480810Y-27459381D01*
X36242714Y-27459381D01*
X36147476Y-27411762D01*
X36099857Y-27364143D01*
X36052238Y-27268905D01*
X36052238Y-27173667D01*
X36099857Y-27078429D01*
X36147476Y-27030810D01*
X36242714Y-26983190D01*
X36433191Y-26935571D01*
X36528429Y-26887952D01*
X36576048Y-26840333D01*
X36623667Y-26745095D01*
X36623667Y-26649857D01*
X36576048Y-26554619D01*
X36528429Y-26507000D01*
X36433191Y-26459381D01*
X36195095Y-26459381D01*
X36052238Y-26507000D01*
X35623667Y-27459381D02*
X35623667Y-26459381D01*
X35242714Y-26459381D01*
X35147476Y-26507000D01*
X35099857Y-26554619D01*
X35052238Y-26649857D01*
X35052238Y-26792714D01*
X35099857Y-26887952D01*
X35147476Y-26935571D01*
X35242714Y-26983190D01*
X35623667Y-26983190D01*
X34623667Y-27078429D02*
X33861762Y-27078429D01*
X32957000Y-26459381D02*
X33147477Y-26459381D01*
X33242715Y-26507000D01*
X33290334Y-26554619D01*
X33385572Y-26697476D01*
X33433191Y-26887952D01*
X33433191Y-27268905D01*
X33385572Y-27364143D01*
X33337953Y-27411762D01*
X33242715Y-27459381D01*
X33052238Y-27459381D01*
X32957000Y-27411762D01*
X32909381Y-27364143D01*
X32861762Y-27268905D01*
X32861762Y-27030810D01*
X32909381Y-26935571D01*
X32957000Y-26887952D01*
X33052238Y-26840333D01*
X33242715Y-26840333D01*
X33337953Y-26887952D01*
X33385572Y-26935571D01*
X33433191Y-27030810D01*
X37314143Y-30662715D02*
X37361762Y-30615096D01*
X37409381Y-30472239D01*
X37409381Y-30377001D01*
X37361762Y-30234143D01*
X37266524Y-30138905D01*
X37171286Y-30091286D01*
X36980810Y-30043667D01*
X36837952Y-30043667D01*
X36647476Y-30091286D01*
X36552238Y-30138905D01*
X36457000Y-30234143D01*
X36409381Y-30377001D01*
X36409381Y-30472239D01*
X36457000Y-30615096D01*
X36504619Y-30662715D01*
X36409381Y-31281762D02*
X36409381Y-31472239D01*
X36457000Y-31567477D01*
X36552238Y-31662715D01*
X36742714Y-31710334D01*
X37076048Y-31710334D01*
X37266524Y-31662715D01*
X37361762Y-31567477D01*
X37409381Y-31472239D01*
X37409381Y-31281762D01*
X37361762Y-31186524D01*
X37266524Y-31091286D01*
X37076048Y-31043667D01*
X36742714Y-31043667D01*
X36552238Y-31091286D01*
X36457000Y-31186524D01*
X36409381Y-31281762D01*
X37409381Y-32138905D02*
X36409381Y-32138905D01*
X37409381Y-32710334D01*
X36409381Y-32710334D01*
X37409381Y-33710334D02*
X37409381Y-33138905D01*
X37409381Y-33424619D02*
X36409381Y-33424619D01*
X36552238Y-33329381D01*
X36647476Y-33234143D01*
X36695095Y-33138905D01*
X37266095Y-44001143D02*
X37313714Y-44048762D01*
X37456571Y-44096381D01*
X37551809Y-44096381D01*
X37694667Y-44048762D01*
X37789905Y-43953524D01*
X37837524Y-43858286D01*
X37885143Y-43667810D01*
X37885143Y-43524952D01*
X37837524Y-43334476D01*
X37789905Y-43239238D01*
X37694667Y-43144000D01*
X37551809Y-43096381D01*
X37456571Y-43096381D01*
X37313714Y-43144000D01*
X37266095Y-43191619D01*
X36694667Y-44096381D02*
X36789905Y-44048762D01*
X36837524Y-44001143D01*
X36885143Y-43905905D01*
X36885143Y-43620190D01*
X36837524Y-43524952D01*
X36789905Y-43477333D01*
X36694667Y-43429714D01*
X36551809Y-43429714D01*
X36456571Y-43477333D01*
X36408952Y-43524952D01*
X36361333Y-43620190D01*
X36361333Y-43905905D01*
X36408952Y-44001143D01*
X36456571Y-44048762D01*
X36551809Y-44096381D01*
X36694667Y-44096381D01*
X35932762Y-43429714D02*
X35932762Y-44096381D01*
X35932762Y-43524952D02*
X35885143Y-43477333D01*
X35789905Y-43429714D01*
X35647047Y-43429714D01*
X35551809Y-43477333D01*
X35504190Y-43572571D01*
X35504190Y-44096381D01*
X35028000Y-43429714D02*
X35028000Y-44096381D01*
X35028000Y-43524952D02*
X34980381Y-43477333D01*
X34885143Y-43429714D01*
X34742285Y-43429714D01*
X34647047Y-43477333D01*
X34599428Y-43572571D01*
X34599428Y-44096381D01*
X34361333Y-44191619D02*
X33599428Y-44191619D01*
X33170857Y-43096381D02*
X33075618Y-43096381D01*
X32980380Y-43144000D01*
X32932761Y-43191619D01*
X32885142Y-43286857D01*
X32837523Y-43477333D01*
X32837523Y-43715429D01*
X32885142Y-43905905D01*
X32932761Y-44001143D01*
X32980380Y-44048762D01*
X33075618Y-44096381D01*
X33170857Y-44096381D01*
X33266095Y-44048762D01*
X33313714Y-44001143D01*
X33361333Y-43905905D01*
X33408952Y-43715429D01*
X33408952Y-43477333D01*
X33361333Y-43286857D01*
X33313714Y-43191619D01*
X33266095Y-43144000D01*
X33170857Y-43096381D01*
X31885142Y-44096381D02*
X32456571Y-44096381D01*
X32170857Y-44096381D02*
X32170857Y-43096381D01*
X32266095Y-43239238D01*
X32361333Y-43334476D01*
X32456571Y-43382095D01*
X31551809Y-44096381D02*
X31027999Y-43429714D01*
X31551809Y-43429714D02*
X31027999Y-44096381D01*
X30456571Y-43096381D02*
X30361332Y-43096381D01*
X30266094Y-43144000D01*
X30218475Y-43191619D01*
X30170856Y-43286857D01*
X30123237Y-43477333D01*
X30123237Y-43715429D01*
X30170856Y-43905905D01*
X30218475Y-44001143D01*
X30266094Y-44048762D01*
X30361332Y-44096381D01*
X30456571Y-44096381D01*
X30551809Y-44048762D01*
X30599428Y-44001143D01*
X30647047Y-43905905D01*
X30694666Y-43715429D01*
X30694666Y-43477333D01*
X30647047Y-43286857D01*
X30599428Y-43191619D01*
X30551809Y-43144000D01*
X30456571Y-43096381D01*
X29170856Y-44096381D02*
X29742285Y-44096381D01*
X29456571Y-44096381D02*
X29456571Y-43096381D01*
X29551809Y-43239238D01*
X29647047Y-43334476D01*
X29742285Y-43382095D01*
X32980381Y-45640667D02*
X33694667Y-45640667D01*
X33837524Y-45593047D01*
X33932762Y-45497809D01*
X33980381Y-45354952D01*
X33980381Y-45259714D01*
X32980381Y-46021619D02*
X32980381Y-46640667D01*
X33361333Y-46307333D01*
X33361333Y-46450191D01*
X33408952Y-46545429D01*
X33456571Y-46593048D01*
X33551810Y-46640667D01*
X33789905Y-46640667D01*
X33885143Y-46593048D01*
X33932762Y-46545429D01*
X33980381Y-46450191D01*
X33980381Y-46164476D01*
X33932762Y-46069238D01*
X33885143Y-46021619D01*
X33583095Y-44001143D02*
X33630714Y-44048762D01*
X33773571Y-44096381D01*
X33868809Y-44096381D01*
X34011667Y-44048762D01*
X34106905Y-43953524D01*
X34154524Y-43858286D01*
X34202143Y-43667810D01*
X34202143Y-43524952D01*
X34154524Y-43334476D01*
X34106905Y-43239238D01*
X34011667Y-43144000D01*
X33868809Y-43096381D01*
X33773571Y-43096381D01*
X33630714Y-43144000D01*
X33583095Y-43191619D01*
X33011667Y-44096381D02*
X33106905Y-44048762D01*
X33154524Y-44001143D01*
X33202143Y-43905905D01*
X33202143Y-43620190D01*
X33154524Y-43524952D01*
X33106905Y-43477333D01*
X33011667Y-43429714D01*
X32868809Y-43429714D01*
X32773571Y-43477333D01*
X32725952Y-43524952D01*
X32678333Y-43620190D01*
X32678333Y-43905905D01*
X32725952Y-44001143D01*
X32773571Y-44048762D01*
X32868809Y-44096381D01*
X33011667Y-44096381D01*
X32249762Y-43429714D02*
X32249762Y-44096381D01*
X32249762Y-43524952D02*
X32202143Y-43477333D01*
X32106905Y-43429714D01*
X31964047Y-43429714D01*
X31868809Y-43477333D01*
X31821190Y-43572571D01*
X31821190Y-44096381D01*
X31345000Y-43429714D02*
X31345000Y-44096381D01*
X31345000Y-43524952D02*
X31297381Y-43477333D01*
X31202143Y-43429714D01*
X31059285Y-43429714D01*
X30964047Y-43477333D01*
X30916428Y-43572571D01*
X30916428Y-44096381D01*
X30678333Y-44191619D02*
X29916428Y-44191619D01*
X29487857Y-43096381D02*
X29392618Y-43096381D01*
X29297380Y-43144000D01*
X29249761Y-43191619D01*
X29202142Y-43286857D01*
X29154523Y-43477333D01*
X29154523Y-43715429D01*
X29202142Y-43905905D01*
X29249761Y-44001143D01*
X29297380Y-44048762D01*
X29392618Y-44096381D01*
X29487857Y-44096381D01*
X29583095Y-44048762D01*
X29630714Y-44001143D01*
X29678333Y-43905905D01*
X29725952Y-43715429D01*
X29725952Y-43477333D01*
X29678333Y-43286857D01*
X29630714Y-43191619D01*
X29583095Y-43144000D01*
X29487857Y-43096381D01*
X28202142Y-44096381D02*
X28773571Y-44096381D01*
X28487857Y-44096381D02*
X28487857Y-43096381D01*
X28583095Y-43239238D01*
X28678333Y-43334476D01*
X28773571Y-43382095D01*
X27868809Y-44096381D02*
X27344999Y-43429714D01*
X27868809Y-43429714D02*
X27344999Y-44096381D01*
X26773571Y-43096381D02*
X26678332Y-43096381D01*
X26583094Y-43144000D01*
X26535475Y-43191619D01*
X26487856Y-43286857D01*
X26440237Y-43477333D01*
X26440237Y-43715429D01*
X26487856Y-43905905D01*
X26535475Y-44001143D01*
X26583094Y-44048762D01*
X26678332Y-44096381D01*
X26773571Y-44096381D01*
X26868809Y-44048762D01*
X26916428Y-44001143D01*
X26964047Y-43905905D01*
X27011666Y-43715429D01*
X27011666Y-43477333D01*
X26964047Y-43286857D01*
X26916428Y-43191619D01*
X26868809Y-43144000D01*
X26773571Y-43096381D01*
X25487856Y-44096381D02*
X26059285Y-44096381D01*
X25773571Y-44096381D02*
X25773571Y-43096381D01*
X25868809Y-43239238D01*
X25964047Y-43334476D01*
X26059285Y-43382095D01*
X29297381Y-45640667D02*
X30011667Y-45640667D01*
X30154524Y-45593047D01*
X30249762Y-45497809D01*
X30297381Y-45354952D01*
X30297381Y-45259714D01*
X29630714Y-46545429D02*
X30297381Y-46545429D01*
X29249762Y-46307333D02*
X29964048Y-46069238D01*
X29964048Y-46688286D01*
X40949095Y-44001143D02*
X40996714Y-44048762D01*
X41139571Y-44096381D01*
X41234809Y-44096381D01*
X41377667Y-44048762D01*
X41472905Y-43953524D01*
X41520524Y-43858286D01*
X41568143Y-43667810D01*
X41568143Y-43524952D01*
X41520524Y-43334476D01*
X41472905Y-43239238D01*
X41377667Y-43144000D01*
X41234809Y-43096381D01*
X41139571Y-43096381D01*
X40996714Y-43144000D01*
X40949095Y-43191619D01*
X40377667Y-44096381D02*
X40472905Y-44048762D01*
X40520524Y-44001143D01*
X40568143Y-43905905D01*
X40568143Y-43620190D01*
X40520524Y-43524952D01*
X40472905Y-43477333D01*
X40377667Y-43429714D01*
X40234809Y-43429714D01*
X40139571Y-43477333D01*
X40091952Y-43524952D01*
X40044333Y-43620190D01*
X40044333Y-43905905D01*
X40091952Y-44001143D01*
X40139571Y-44048762D01*
X40234809Y-44096381D01*
X40377667Y-44096381D01*
X39615762Y-43429714D02*
X39615762Y-44096381D01*
X39615762Y-43524952D02*
X39568143Y-43477333D01*
X39472905Y-43429714D01*
X39330047Y-43429714D01*
X39234809Y-43477333D01*
X39187190Y-43572571D01*
X39187190Y-44096381D01*
X38711000Y-43429714D02*
X38711000Y-44096381D01*
X38711000Y-43524952D02*
X38663381Y-43477333D01*
X38568143Y-43429714D01*
X38425285Y-43429714D01*
X38330047Y-43477333D01*
X38282428Y-43572571D01*
X38282428Y-44096381D01*
X38044333Y-44191619D02*
X37282428Y-44191619D01*
X36853857Y-43096381D02*
X36758618Y-43096381D01*
X36663380Y-43144000D01*
X36615761Y-43191619D01*
X36568142Y-43286857D01*
X36520523Y-43477333D01*
X36520523Y-43715429D01*
X36568142Y-43905905D01*
X36615761Y-44001143D01*
X36663380Y-44048762D01*
X36758618Y-44096381D01*
X36853857Y-44096381D01*
X36949095Y-44048762D01*
X36996714Y-44001143D01*
X37044333Y-43905905D01*
X37091952Y-43715429D01*
X37091952Y-43477333D01*
X37044333Y-43286857D01*
X36996714Y-43191619D01*
X36949095Y-43144000D01*
X36853857Y-43096381D01*
X35568142Y-44096381D02*
X36139571Y-44096381D01*
X35853857Y-44096381D02*
X35853857Y-43096381D01*
X35949095Y-43239238D01*
X36044333Y-43334476D01*
X36139571Y-43382095D01*
X35234809Y-44096381D02*
X34710999Y-43429714D01*
X35234809Y-43429714D02*
X34710999Y-44096381D01*
X34139571Y-43096381D02*
X34044332Y-43096381D01*
X33949094Y-43144000D01*
X33901475Y-43191619D01*
X33853856Y-43286857D01*
X33806237Y-43477333D01*
X33806237Y-43715429D01*
X33853856Y-43905905D01*
X33901475Y-44001143D01*
X33949094Y-44048762D01*
X34044332Y-44096381D01*
X34139571Y-44096381D01*
X34234809Y-44048762D01*
X34282428Y-44001143D01*
X34330047Y-43905905D01*
X34377666Y-43715429D01*
X34377666Y-43477333D01*
X34330047Y-43286857D01*
X34282428Y-43191619D01*
X34234809Y-43144000D01*
X34139571Y-43096381D01*
X32853856Y-44096381D02*
X33425285Y-44096381D01*
X33139571Y-44096381D02*
X33139571Y-43096381D01*
X33234809Y-43239238D01*
X33330047Y-43334476D01*
X33425285Y-43382095D01*
X36663381Y-45640667D02*
X37377667Y-45640667D01*
X37520524Y-45593047D01*
X37615762Y-45497809D01*
X37663381Y-45354952D01*
X37663381Y-45259714D01*
X36663381Y-46593048D02*
X36663381Y-46116857D01*
X37139571Y-46069238D01*
X37091952Y-46116857D01*
X37044333Y-46212095D01*
X37044333Y-46450191D01*
X37091952Y-46545429D01*
X37139571Y-46593048D01*
X37234810Y-46640667D01*
X37472905Y-46640667D01*
X37568143Y-46593048D01*
X37615762Y-46545429D01*
X37663381Y-46450191D01*
X37663381Y-46212095D01*
X37615762Y-46116857D01*
X37568143Y-46069238D01*
X50156595Y-38349643D02*
X50204214Y-38397262D01*
X50347071Y-38444881D01*
X50442309Y-38444881D01*
X50585167Y-38397262D01*
X50680405Y-38302024D01*
X50728024Y-38206786D01*
X50775643Y-38016310D01*
X50775643Y-37873452D01*
X50728024Y-37682976D01*
X50680405Y-37587738D01*
X50585167Y-37492500D01*
X50442309Y-37444881D01*
X50347071Y-37444881D01*
X50204214Y-37492500D01*
X50156595Y-37540119D01*
X49585167Y-38444881D02*
X49680405Y-38397262D01*
X49728024Y-38349643D01*
X49775643Y-38254405D01*
X49775643Y-37968690D01*
X49728024Y-37873452D01*
X49680405Y-37825833D01*
X49585167Y-37778214D01*
X49442309Y-37778214D01*
X49347071Y-37825833D01*
X49299452Y-37873452D01*
X49251833Y-37968690D01*
X49251833Y-38254405D01*
X49299452Y-38349643D01*
X49347071Y-38397262D01*
X49442309Y-38444881D01*
X49585167Y-38444881D01*
X48823262Y-37778214D02*
X48823262Y-38444881D01*
X48823262Y-37873452D02*
X48775643Y-37825833D01*
X48680405Y-37778214D01*
X48537547Y-37778214D01*
X48442309Y-37825833D01*
X48394690Y-37921071D01*
X48394690Y-38444881D01*
X47918500Y-37778214D02*
X47918500Y-38444881D01*
X47918500Y-37873452D02*
X47870881Y-37825833D01*
X47775643Y-37778214D01*
X47632785Y-37778214D01*
X47537547Y-37825833D01*
X47489928Y-37921071D01*
X47489928Y-38444881D01*
X47251833Y-38540119D02*
X46489928Y-38540119D01*
X46061357Y-37444881D02*
X45966118Y-37444881D01*
X45870880Y-37492500D01*
X45823261Y-37540119D01*
X45775642Y-37635357D01*
X45728023Y-37825833D01*
X45728023Y-38063929D01*
X45775642Y-38254405D01*
X45823261Y-38349643D01*
X45870880Y-38397262D01*
X45966118Y-38444881D01*
X46061357Y-38444881D01*
X46156595Y-38397262D01*
X46204214Y-38349643D01*
X46251833Y-38254405D01*
X46299452Y-38063929D01*
X46299452Y-37825833D01*
X46251833Y-37635357D01*
X46204214Y-37540119D01*
X46156595Y-37492500D01*
X46061357Y-37444881D01*
X44775642Y-38444881D02*
X45347071Y-38444881D01*
X45061357Y-38444881D02*
X45061357Y-37444881D01*
X45156595Y-37587738D01*
X45251833Y-37682976D01*
X45347071Y-37730595D01*
X44442309Y-38444881D02*
X43918499Y-37778214D01*
X44442309Y-37778214D02*
X43918499Y-38444881D01*
X43347071Y-37444881D02*
X43251832Y-37444881D01*
X43156594Y-37492500D01*
X43108975Y-37540119D01*
X43061356Y-37635357D01*
X43013737Y-37825833D01*
X43013737Y-38063929D01*
X43061356Y-38254405D01*
X43108975Y-38349643D01*
X43156594Y-38397262D01*
X43251832Y-38444881D01*
X43347071Y-38444881D01*
X43442309Y-38397262D01*
X43489928Y-38349643D01*
X43537547Y-38254405D01*
X43585166Y-38063929D01*
X43585166Y-37825833D01*
X43537547Y-37635357D01*
X43489928Y-37540119D01*
X43442309Y-37492500D01*
X43347071Y-37444881D01*
X42061356Y-38444881D02*
X42632785Y-38444881D01*
X42347071Y-38444881D02*
X42347071Y-37444881D01*
X42442309Y-37587738D01*
X42537547Y-37682976D01*
X42632785Y-37730595D01*
X45870881Y-39989167D02*
X46585167Y-39989167D01*
X46728024Y-39941547D01*
X46823262Y-39846309D01*
X46870881Y-39703452D01*
X46870881Y-39608214D01*
X45870881Y-40893929D02*
X45870881Y-40703452D01*
X45918500Y-40608214D01*
X45966119Y-40560595D01*
X46108976Y-40465357D01*
X46299452Y-40417738D01*
X46680405Y-40417738D01*
X46775643Y-40465357D01*
X46823262Y-40512976D01*
X46870881Y-40608214D01*
X46870881Y-40798691D01*
X46823262Y-40893929D01*
X46775643Y-40941548D01*
X46680405Y-40989167D01*
X46442310Y-40989167D01*
X46347071Y-40941548D01*
X46299452Y-40893929D01*
X46251833Y-40798691D01*
X46251833Y-40608214D01*
X46299452Y-40512976D01*
X46347071Y-40465357D01*
X46442310Y-40417738D01*
X48061095Y-36190643D02*
X48108714Y-36238262D01*
X48251571Y-36285881D01*
X48346809Y-36285881D01*
X48489667Y-36238262D01*
X48584905Y-36143024D01*
X48632524Y-36047786D01*
X48680143Y-35857310D01*
X48680143Y-35714452D01*
X48632524Y-35523976D01*
X48584905Y-35428738D01*
X48489667Y-35333500D01*
X48346809Y-35285881D01*
X48251571Y-35285881D01*
X48108714Y-35333500D01*
X48061095Y-35381119D01*
X47489667Y-36285881D02*
X47584905Y-36238262D01*
X47632524Y-36190643D01*
X47680143Y-36095405D01*
X47680143Y-35809690D01*
X47632524Y-35714452D01*
X47584905Y-35666833D01*
X47489667Y-35619214D01*
X47346809Y-35619214D01*
X47251571Y-35666833D01*
X47203952Y-35714452D01*
X47156333Y-35809690D01*
X47156333Y-36095405D01*
X47203952Y-36190643D01*
X47251571Y-36238262D01*
X47346809Y-36285881D01*
X47489667Y-36285881D01*
X46727762Y-35619214D02*
X46727762Y-36285881D01*
X46727762Y-35714452D02*
X46680143Y-35666833D01*
X46584905Y-35619214D01*
X46442047Y-35619214D01*
X46346809Y-35666833D01*
X46299190Y-35762071D01*
X46299190Y-36285881D01*
X45823000Y-35619214D02*
X45823000Y-36285881D01*
X45823000Y-35714452D02*
X45775381Y-35666833D01*
X45680143Y-35619214D01*
X45537285Y-35619214D01*
X45442047Y-35666833D01*
X45394428Y-35762071D01*
X45394428Y-36285881D01*
X45156333Y-36381119D02*
X44394428Y-36381119D01*
X43965857Y-35285881D02*
X43870618Y-35285881D01*
X43775380Y-35333500D01*
X43727761Y-35381119D01*
X43680142Y-35476357D01*
X43632523Y-35666833D01*
X43632523Y-35904929D01*
X43680142Y-36095405D01*
X43727761Y-36190643D01*
X43775380Y-36238262D01*
X43870618Y-36285881D01*
X43965857Y-36285881D01*
X44061095Y-36238262D01*
X44108714Y-36190643D01*
X44156333Y-36095405D01*
X44203952Y-35904929D01*
X44203952Y-35666833D01*
X44156333Y-35476357D01*
X44108714Y-35381119D01*
X44061095Y-35333500D01*
X43965857Y-35285881D01*
X42680142Y-36285881D02*
X43251571Y-36285881D01*
X42965857Y-36285881D02*
X42965857Y-35285881D01*
X43061095Y-35428738D01*
X43156333Y-35523976D01*
X43251571Y-35571595D01*
X42346809Y-36285881D02*
X41822999Y-35619214D01*
X42346809Y-35619214D02*
X41822999Y-36285881D01*
X41251571Y-35285881D02*
X41156332Y-35285881D01*
X41061094Y-35333500D01*
X41013475Y-35381119D01*
X40965856Y-35476357D01*
X40918237Y-35666833D01*
X40918237Y-35904929D01*
X40965856Y-36095405D01*
X41013475Y-36190643D01*
X41061094Y-36238262D01*
X41156332Y-36285881D01*
X41251571Y-36285881D01*
X41346809Y-36238262D01*
X41394428Y-36190643D01*
X41442047Y-36095405D01*
X41489666Y-35904929D01*
X41489666Y-35666833D01*
X41442047Y-35476357D01*
X41394428Y-35381119D01*
X41346809Y-35333500D01*
X41251571Y-35285881D01*
X39965856Y-36285881D02*
X40537285Y-36285881D01*
X40251571Y-36285881D02*
X40251571Y-35285881D01*
X40346809Y-35428738D01*
X40442047Y-35523976D01*
X40537285Y-35571595D01*
X43775381Y-37830167D02*
X44489667Y-37830167D01*
X44632524Y-37782547D01*
X44727762Y-37687309D01*
X44775381Y-37544452D01*
X44775381Y-37449214D01*
X43775381Y-38211119D02*
X43775381Y-38877786D01*
X44775381Y-38449214D01*
X45330595Y-35047643D02*
X45378214Y-35095262D01*
X45521071Y-35142881D01*
X45616309Y-35142881D01*
X45759167Y-35095262D01*
X45854405Y-35000024D01*
X45902024Y-34904786D01*
X45949643Y-34714310D01*
X45949643Y-34571452D01*
X45902024Y-34380976D01*
X45854405Y-34285738D01*
X45759167Y-34190500D01*
X45616309Y-34142881D01*
X45521071Y-34142881D01*
X45378214Y-34190500D01*
X45330595Y-34238119D01*
X44759167Y-35142881D02*
X44854405Y-35095262D01*
X44902024Y-35047643D01*
X44949643Y-34952405D01*
X44949643Y-34666690D01*
X44902024Y-34571452D01*
X44854405Y-34523833D01*
X44759167Y-34476214D01*
X44616309Y-34476214D01*
X44521071Y-34523833D01*
X44473452Y-34571452D01*
X44425833Y-34666690D01*
X44425833Y-34952405D01*
X44473452Y-35047643D01*
X44521071Y-35095262D01*
X44616309Y-35142881D01*
X44759167Y-35142881D01*
X43997262Y-34476214D02*
X43997262Y-35142881D01*
X43997262Y-34571452D02*
X43949643Y-34523833D01*
X43854405Y-34476214D01*
X43711547Y-34476214D01*
X43616309Y-34523833D01*
X43568690Y-34619071D01*
X43568690Y-35142881D01*
X43092500Y-34476214D02*
X43092500Y-35142881D01*
X43092500Y-34571452D02*
X43044881Y-34523833D01*
X42949643Y-34476214D01*
X42806785Y-34476214D01*
X42711547Y-34523833D01*
X42663928Y-34619071D01*
X42663928Y-35142881D01*
X42425833Y-35238119D02*
X41663928Y-35238119D01*
X41235357Y-34142881D02*
X41140118Y-34142881D01*
X41044880Y-34190500D01*
X40997261Y-34238119D01*
X40949642Y-34333357D01*
X40902023Y-34523833D01*
X40902023Y-34761929D01*
X40949642Y-34952405D01*
X40997261Y-35047643D01*
X41044880Y-35095262D01*
X41140118Y-35142881D01*
X41235357Y-35142881D01*
X41330595Y-35095262D01*
X41378214Y-35047643D01*
X41425833Y-34952405D01*
X41473452Y-34761929D01*
X41473452Y-34523833D01*
X41425833Y-34333357D01*
X41378214Y-34238119D01*
X41330595Y-34190500D01*
X41235357Y-34142881D01*
X39949642Y-35142881D02*
X40521071Y-35142881D01*
X40235357Y-35142881D02*
X40235357Y-34142881D01*
X40330595Y-34285738D01*
X40425833Y-34380976D01*
X40521071Y-34428595D01*
X39616309Y-35142881D02*
X39092499Y-34476214D01*
X39616309Y-34476214D02*
X39092499Y-35142881D01*
X38521071Y-34142881D02*
X38425832Y-34142881D01*
X38330594Y-34190500D01*
X38282975Y-34238119D01*
X38235356Y-34333357D01*
X38187737Y-34523833D01*
X38187737Y-34761929D01*
X38235356Y-34952405D01*
X38282975Y-35047643D01*
X38330594Y-35095262D01*
X38425832Y-35142881D01*
X38521071Y-35142881D01*
X38616309Y-35095262D01*
X38663928Y-35047643D01*
X38711547Y-34952405D01*
X38759166Y-34761929D01*
X38759166Y-34523833D01*
X38711547Y-34333357D01*
X38663928Y-34238119D01*
X38616309Y-34190500D01*
X38521071Y-34142881D01*
X37235356Y-35142881D02*
X37806785Y-35142881D01*
X37521071Y-35142881D02*
X37521071Y-34142881D01*
X37616309Y-34285738D01*
X37711547Y-34380976D01*
X37806785Y-34428595D01*
X41044881Y-36687167D02*
X41759167Y-36687167D01*
X41902024Y-36639547D01*
X41997262Y-36544309D01*
X42044881Y-36401452D01*
X42044881Y-36306214D01*
X41473452Y-37306214D02*
X41425833Y-37210976D01*
X41378214Y-37163357D01*
X41282976Y-37115738D01*
X41235357Y-37115738D01*
X41140119Y-37163357D01*
X41092500Y-37210976D01*
X41044881Y-37306214D01*
X41044881Y-37496691D01*
X41092500Y-37591929D01*
X41140119Y-37639548D01*
X41235357Y-37687167D01*
X41282976Y-37687167D01*
X41378214Y-37639548D01*
X41425833Y-37591929D01*
X41473452Y-37496691D01*
X41473452Y-37306214D01*
X41521071Y-37210976D01*
X41568690Y-37163357D01*
X41663929Y-37115738D01*
X41854405Y-37115738D01*
X41949643Y-37163357D01*
X41997262Y-37210976D01*
X42044881Y-37306214D01*
X42044881Y-37496691D01*
X41997262Y-37591929D01*
X41949643Y-37639548D01*
X41854405Y-37687167D01*
X41663929Y-37687167D01*
X41568690Y-37639548D01*
X41521071Y-37591929D01*
X41473452Y-37496691D01*
X54838253Y-28235712D02*
X54838253Y-28303055D01*
X54905597Y-28437742D01*
X54972940Y-28505085D01*
X55107628Y-28572429D01*
X55242314Y-28572429D01*
X55343330Y-28538758D01*
X55511688Y-28437743D01*
X55612704Y-28336727D01*
X55713719Y-28168368D01*
X55747391Y-28067353D01*
X55747391Y-27932666D01*
X55680047Y-27797979D01*
X55612703Y-27730635D01*
X55478016Y-27663292D01*
X55410673Y-27663292D01*
X54366849Y-27898994D02*
X54467864Y-27932666D01*
X54535208Y-27932666D01*
X54636223Y-27898994D01*
X54838254Y-27696963D01*
X54871926Y-27595948D01*
X54871926Y-27528605D01*
X54838254Y-27427590D01*
X54737238Y-27326574D01*
X54636223Y-27292902D01*
X54568879Y-27292902D01*
X54467864Y-27326574D01*
X54265833Y-27528605D01*
X54232161Y-27629620D01*
X54232161Y-27696963D01*
X54265833Y-27797979D01*
X54366849Y-27898994D01*
X54299506Y-26888841D02*
X53828101Y-27360246D01*
X54232162Y-26956185D02*
X54232162Y-26888841D01*
X54198490Y-26787826D01*
X54097475Y-26686810D01*
X53996459Y-26653139D01*
X53895444Y-26686810D01*
X53525055Y-27057200D01*
X53659742Y-26249078D02*
X53188337Y-26720483D01*
X53592399Y-26316422D02*
X53592399Y-26249078D01*
X53558727Y-26148063D01*
X53457711Y-26047047D01*
X53356696Y-26013375D01*
X53255681Y-26047047D01*
X52885291Y-26417437D01*
X52649589Y-26316422D02*
X52110841Y-25777673D01*
X52582246Y-24700178D02*
X52514902Y-24632834D01*
X52413887Y-24599162D01*
X52346543Y-24599162D01*
X52245528Y-24632834D01*
X52077169Y-24733849D01*
X51908810Y-24902208D01*
X51807795Y-25070567D01*
X51774123Y-25171582D01*
X51774123Y-25238925D01*
X51807795Y-25339940D01*
X51875139Y-25407284D01*
X51976154Y-25440956D01*
X52043498Y-25440956D01*
X52144513Y-25407284D01*
X52312871Y-25306269D01*
X52481231Y-25137910D01*
X52582246Y-24969551D01*
X52615918Y-24868536D01*
X52615918Y-24801193D01*
X52582246Y-24700178D01*
X50966001Y-24498147D02*
X51370063Y-24902208D01*
X51168032Y-24700178D02*
X51875139Y-23993071D01*
X51841467Y-24161429D01*
X51841467Y-24296116D01*
X51875139Y-24397131D01*
X50730299Y-24262445D02*
X50831314Y-23420650D01*
X51201704Y-23791040D02*
X50359910Y-23892055D01*
X50662956Y-22780888D02*
X50595612Y-22713543D01*
X50494597Y-22679872D01*
X50427253Y-22679872D01*
X50326238Y-22713543D01*
X50157879Y-22814559D01*
X49989520Y-22982918D01*
X49888505Y-23151277D01*
X49854833Y-23252292D01*
X49854833Y-23319635D01*
X49888505Y-23420650D01*
X49955849Y-23487994D01*
X50056864Y-23521666D01*
X50124208Y-23521666D01*
X50225223Y-23487994D01*
X50393581Y-23386979D01*
X50561941Y-23218620D01*
X50662956Y-23050261D01*
X50696628Y-22949246D01*
X50696628Y-22881903D01*
X50662956Y-22780888D01*
X49046711Y-22578857D02*
X49450773Y-22982918D01*
X49248742Y-22780888D02*
X49955849Y-22073781D01*
X49922177Y-22242139D01*
X49922177Y-22376826D01*
X49955849Y-22477841D01*
X50648477Y-26364573D02*
X51153553Y-26869649D01*
X51288241Y-26936992D01*
X51422928Y-26936992D01*
X51557615Y-26869649D01*
X51624958Y-26802305D01*
X50985195Y-27442069D02*
X50850508Y-27576755D01*
X50749492Y-27610428D01*
X50682149Y-27610428D01*
X50513790Y-27576756D01*
X50345431Y-27475741D01*
X50076057Y-27206367D01*
X50042385Y-27105351D01*
X50042385Y-27038008D01*
X50076057Y-26936993D01*
X50210745Y-26802305D01*
X50311760Y-26768633D01*
X50379103Y-26768633D01*
X50480118Y-26802305D01*
X50648477Y-26970664D01*
X50682149Y-27071679D01*
X50682149Y-27139023D01*
X50648478Y-27240038D01*
X50513790Y-27374726D01*
X50412775Y-27408398D01*
X50345431Y-27408397D01*
X50244416Y-27374725D01*
X40231381Y-28028024D02*
X40231381Y-27456595D01*
X40231381Y-27742309D02*
X39231381Y-27742309D01*
X39374238Y-27647071D01*
X39469476Y-27551833D01*
X39517095Y-27456595D01*
X39231381Y-28647071D02*
X39231381Y-28742310D01*
X39279000Y-28837548D01*
X39326619Y-28885167D01*
X39421857Y-28932786D01*
X39612333Y-28980405D01*
X39850429Y-28980405D01*
X40040905Y-28932786D01*
X40136143Y-28885167D01*
X40183762Y-28837548D01*
X40231381Y-28742310D01*
X40231381Y-28647071D01*
X40183762Y-28551833D01*
X40136143Y-28504214D01*
X40040905Y-28456595D01*
X39850429Y-28408976D01*
X39612333Y-28408976D01*
X39421857Y-28456595D01*
X39326619Y-28504214D01*
X39279000Y-28551833D01*
X39231381Y-28647071D01*
X40231381Y-29408976D02*
X39231381Y-29408976D01*
X40231381Y-29980405D02*
X39659952Y-29551833D01*
X39231381Y-29980405D02*
X39802810Y-29408976D01*
D12*
X41755190Y-28635167D02*
X41517095Y-28468500D01*
X41755190Y-28349453D02*
X41255190Y-28349453D01*
X41255190Y-28539929D01*
X41279000Y-28587548D01*
X41302810Y-28611357D01*
X41350429Y-28635167D01*
X41421857Y-28635167D01*
X41469476Y-28611357D01*
X41493286Y-28587548D01*
X41517095Y-28539929D01*
X41517095Y-28349453D01*
X41755190Y-29111357D02*
X41755190Y-28825643D01*
X41755190Y-28968500D02*
X41255190Y-28968500D01*
X41326619Y-28920881D01*
X41374238Y-28873262D01*
X41398048Y-28825643D01*
D11*
X30360285Y-32872881D02*
X30931714Y-32872881D01*
X30646000Y-32872881D02*
X30646000Y-31872881D01*
X30741238Y-32015738D01*
X30836476Y-32110976D01*
X30931714Y-32158595D01*
X29931714Y-32872881D02*
X29931714Y-31872881D01*
X29360285Y-32872881D02*
X29788857Y-32301452D01*
X29360285Y-31872881D02*
X29931714Y-32444310D01*
D12*
X30229333Y-30896690D02*
X30396000Y-30658595D01*
X30515047Y-30896690D02*
X30515047Y-30396690D01*
X30324571Y-30396690D01*
X30276952Y-30420500D01*
X30253143Y-30444310D01*
X30229333Y-30491929D01*
X30229333Y-30563357D01*
X30253143Y-30610976D01*
X30276952Y-30634786D01*
X30324571Y-30658595D01*
X30515047Y-30658595D01*
X30062666Y-30396690D02*
X29753143Y-30396690D01*
X29919809Y-30587167D01*
X29848381Y-30587167D01*
X29800762Y-30610976D01*
X29776952Y-30634786D01*
X29753143Y-30682405D01*
X29753143Y-30801452D01*
X29776952Y-30849071D01*
X29800762Y-30872881D01*
X29848381Y-30896690D01*
X29991238Y-30896690D01*
X30038857Y-30872881D01*
X30062666Y-30849071D01*
D11*
X31407905Y-33873119D02*
X31360286Y-33825500D01*
X31265048Y-33777881D01*
X31026952Y-33777881D01*
X30931714Y-33825500D01*
X30884095Y-33873119D01*
X30836476Y-33968357D01*
X30836476Y-34063595D01*
X30884095Y-34206452D01*
X31455524Y-34777881D01*
X30836476Y-34777881D01*
X30407905Y-34777881D02*
X30407905Y-33777881D01*
X29836476Y-34777881D02*
X30265048Y-34206452D01*
X29836476Y-33777881D02*
X30407905Y-34349310D01*
X29455524Y-33873119D02*
X29407905Y-33825500D01*
X29312667Y-33777881D01*
X29074571Y-33777881D01*
X28979333Y-33825500D01*
X28931714Y-33873119D01*
X28884095Y-33968357D01*
X28884095Y-34063595D01*
X28931714Y-34206452D01*
X29503143Y-34777881D01*
X28884095Y-34777881D01*
D12*
X30229333Y-32801690D02*
X30396000Y-32563595D01*
X30515047Y-32801690D02*
X30515047Y-32301690D01*
X30324571Y-32301690D01*
X30276952Y-32325500D01*
X30253143Y-32349310D01*
X30229333Y-32396929D01*
X30229333Y-32468357D01*
X30253143Y-32515976D01*
X30276952Y-32539786D01*
X30324571Y-32563595D01*
X30515047Y-32563595D01*
X29776952Y-32301690D02*
X30015047Y-32301690D01*
X30038857Y-32539786D01*
X30015047Y-32515976D01*
X29967428Y-32492167D01*
X29848381Y-32492167D01*
X29800762Y-32515976D01*
X29776952Y-32539786D01*
X29753143Y-32587405D01*
X29753143Y-32706452D01*
X29776952Y-32754071D01*
X29800762Y-32777881D01*
X29848381Y-32801690D01*
X29967428Y-32801690D01*
X30015047Y-32777881D01*
X30038857Y-32754071D01*
D11*
X31407905Y-35778119D02*
X31360286Y-35730500D01*
X31265048Y-35682881D01*
X31026952Y-35682881D01*
X30931714Y-35730500D01*
X30884095Y-35778119D01*
X30836476Y-35873357D01*
X30836476Y-35968595D01*
X30884095Y-36111452D01*
X31455524Y-36682881D01*
X30836476Y-36682881D01*
X30455524Y-35778119D02*
X30407905Y-35730500D01*
X30312667Y-35682881D01*
X30074571Y-35682881D01*
X29979333Y-35730500D01*
X29931714Y-35778119D01*
X29884095Y-35873357D01*
X29884095Y-35968595D01*
X29931714Y-36111452D01*
X30503143Y-36682881D01*
X29884095Y-36682881D01*
X29455524Y-36682881D02*
X29455524Y-35682881D01*
X28884095Y-36682881D02*
X29312667Y-36111452D01*
X28884095Y-35682881D02*
X29455524Y-36254310D01*
D12*
X30229333Y-34706690D02*
X30396000Y-34468595D01*
X30515047Y-34706690D02*
X30515047Y-34206690D01*
X30324571Y-34206690D01*
X30276952Y-34230500D01*
X30253143Y-34254310D01*
X30229333Y-34301929D01*
X30229333Y-34373357D01*
X30253143Y-34420976D01*
X30276952Y-34444786D01*
X30324571Y-34468595D01*
X30515047Y-34468595D01*
X29800762Y-34206690D02*
X29896000Y-34206690D01*
X29943619Y-34230500D01*
X29967428Y-34254310D01*
X30015047Y-34325738D01*
X30038857Y-34420976D01*
X30038857Y-34611452D01*
X30015047Y-34659071D01*
X29991238Y-34682881D01*
X29943619Y-34706690D01*
X29848381Y-34706690D01*
X29800762Y-34682881D01*
X29776952Y-34659071D01*
X29753143Y-34611452D01*
X29753143Y-34492405D01*
X29776952Y-34444786D01*
X29800762Y-34420976D01*
X29848381Y-34397167D01*
X29943619Y-34397167D01*
X29991238Y-34420976D01*
X30015047Y-34444786D01*
X30038857Y-34492405D01*
D11*
X39340618Y-36119667D02*
X38864427Y-36119667D01*
X39435856Y-36405381D02*
X39102523Y-35405381D01*
X38769189Y-36405381D01*
X38531094Y-35405381D02*
X37864427Y-35405381D01*
X38531094Y-36405381D01*
X37864427Y-36405381D01*
X36959665Y-36405381D02*
X37531094Y-36405381D01*
X37245380Y-36405381D02*
X37245380Y-35405381D01*
X37340618Y-35548238D01*
X37435856Y-35643476D01*
X37531094Y-35691095D01*
X36007284Y-36405381D02*
X36578713Y-36405381D01*
X36292999Y-36405381D02*
X36292999Y-35405381D01*
X36388237Y-35548238D01*
X36483475Y-35643476D01*
X36578713Y-35691095D01*
X35054903Y-36405381D02*
X35626332Y-36405381D01*
X35340618Y-36405381D02*
X35340618Y-35405381D01*
X35435856Y-35548238D01*
X35531094Y-35643476D01*
X35626332Y-35691095D01*
X34721570Y-35405381D02*
X34054903Y-35405381D01*
X34483475Y-36405381D01*
X33673951Y-36024429D02*
X32912046Y-36024429D01*
X32531094Y-35405381D02*
X31912046Y-35405381D01*
X32245380Y-35786333D01*
X32102522Y-35786333D01*
X32007284Y-35833952D01*
X31959665Y-35881571D01*
X31912046Y-35976810D01*
X31912046Y-36214905D01*
X31959665Y-36310143D01*
X32007284Y-36357762D01*
X32102522Y-36405381D01*
X32388237Y-36405381D01*
X32483475Y-36357762D01*
X32531094Y-36310143D01*
X31483475Y-36310143D02*
X31435856Y-36357762D01*
X31483475Y-36405381D01*
X31531094Y-36357762D01*
X31483475Y-36310143D01*
X31483475Y-36405381D01*
X31102523Y-35405381D02*
X30483475Y-35405381D01*
X30816809Y-35786333D01*
X30673951Y-35786333D01*
X30578713Y-35833952D01*
X30531094Y-35881571D01*
X30483475Y-35976810D01*
X30483475Y-36214905D01*
X30531094Y-36310143D01*
X30578713Y-36357762D01*
X30673951Y-36405381D01*
X30959666Y-36405381D01*
X31054904Y-36357762D01*
X31102523Y-36310143D01*
D13*
X34473952Y-39843476D02*
X35121571Y-39843476D01*
X35197761Y-39881571D01*
X35235857Y-39919667D01*
X35273952Y-39995857D01*
X35273952Y-40148238D01*
X35235857Y-40224429D01*
X35197761Y-40262524D01*
X35121571Y-40300619D01*
X34473952Y-40300619D01*
X35273952Y-41100619D02*
X35273952Y-40643476D01*
X35273952Y-40872047D02*
X34473952Y-40872047D01*
X34588237Y-40795857D01*
X34664428Y-40719666D01*
X34702523Y-40643476D01*
D11*
X54064904Y-47982881D02*
X54636333Y-47982881D01*
X54350619Y-47982881D02*
X54350619Y-46982881D01*
X54445857Y-47125738D01*
X54541095Y-47220976D01*
X54636333Y-47268595D01*
X53207761Y-46982881D02*
X53398238Y-46982881D01*
X53493476Y-47030500D01*
X53541095Y-47078119D01*
X53636333Y-47220976D01*
X53683952Y-47411452D01*
X53683952Y-47792405D01*
X53636333Y-47887643D01*
X53588714Y-47935262D01*
X53493476Y-47982881D01*
X53302999Y-47982881D01*
X53207761Y-47935262D01*
X53160142Y-47887643D01*
X53112523Y-47792405D01*
X53112523Y-47554310D01*
X53160142Y-47459071D01*
X53207761Y-47411452D01*
X53302999Y-47363833D01*
X53493476Y-47363833D01*
X53588714Y-47411452D01*
X53636333Y-47459071D01*
X53683952Y-47554310D01*
X52683952Y-47982881D02*
X52683952Y-46982881D01*
X52350618Y-47697167D01*
X52017285Y-46982881D01*
X52017285Y-47982881D01*
X54343337Y-42275441D02*
X54343337Y-42751632D01*
X54676670Y-41751632D02*
X54343337Y-42275441D01*
X54010003Y-41751632D01*
X53152860Y-42751632D02*
X53724289Y-42751632D01*
X53438575Y-42751632D02*
X53438575Y-41751632D01*
X53533813Y-41894489D01*
X53629051Y-41989727D01*
X53724289Y-42037346D01*
X55075178Y-37577711D02*
X55479240Y-37173650D01*
X55277209Y-37375680D02*
X54570103Y-36668573D01*
X54738461Y-36702245D01*
X54873148Y-36702245D01*
X54974163Y-36668573D01*
X53997682Y-37712398D02*
X54469087Y-38183803D01*
X54300728Y-37409352D02*
X54671118Y-37779741D01*
X54704789Y-37880756D01*
X54671118Y-37981772D01*
X54570102Y-38082787D01*
X54469087Y-38116459D01*
X54401743Y-38116459D01*
X57482709Y-39985242D02*
X57550052Y-39985242D01*
X57684739Y-39917898D01*
X57752083Y-39850555D01*
X57819427Y-39715867D01*
X57819427Y-39581180D01*
X57785755Y-39480165D01*
X57684740Y-39311807D01*
X57583724Y-39210791D01*
X57415365Y-39109776D01*
X57314350Y-39076104D01*
X57179663Y-39076104D01*
X57044976Y-39143448D01*
X56977632Y-39210791D01*
X56910289Y-39345478D01*
X56910289Y-39412822D01*
X56640915Y-39682195D02*
X56573572Y-39682195D01*
X56472557Y-39715867D01*
X56304197Y-39884226D01*
X56270526Y-39985242D01*
X56270526Y-40052585D01*
X56304197Y-40153600D01*
X56371541Y-40220944D01*
X56506228Y-40288287D01*
X57314350Y-40288287D01*
X56876617Y-40726020D01*
X81565286Y-43132119D02*
X81517667Y-43084500D01*
X81422429Y-43036881D01*
X81184333Y-43036881D01*
X81089095Y-43084500D01*
X81041476Y-43132119D01*
X80993857Y-43227357D01*
X80993857Y-43322595D01*
X81041476Y-43465452D01*
X81612905Y-44036881D01*
X80993857Y-44036881D01*
X80565286Y-44036881D02*
X80565286Y-43036881D01*
X79993857Y-44036881D01*
X79993857Y-43036881D01*
X79612905Y-43036881D02*
X78946238Y-43036881D01*
X79374810Y-44036881D01*
X78374810Y-43036881D02*
X78279571Y-43036881D01*
X78184333Y-43084500D01*
X78136714Y-43132119D01*
X78089095Y-43227357D01*
X78041476Y-43417833D01*
X78041476Y-43655929D01*
X78089095Y-43846405D01*
X78136714Y-43941643D01*
X78184333Y-43989262D01*
X78279571Y-44036881D01*
X78374810Y-44036881D01*
X78470048Y-43989262D01*
X78517667Y-43941643D01*
X78565286Y-43846405D01*
X78612905Y-43655929D01*
X78612905Y-43417833D01*
X78565286Y-43227357D01*
X78517667Y-43132119D01*
X78470048Y-43084500D01*
X78374810Y-43036881D01*
X77422429Y-43036881D02*
X77327190Y-43036881D01*
X77231952Y-43084500D01*
X77184333Y-43132119D01*
X77136714Y-43227357D01*
X77089095Y-43417833D01*
X77089095Y-43655929D01*
X77136714Y-43846405D01*
X77184333Y-43941643D01*
X77231952Y-43989262D01*
X77327190Y-44036881D01*
X77422429Y-44036881D01*
X77517667Y-43989262D01*
X77565286Y-43941643D01*
X77612905Y-43846405D01*
X77660524Y-43655929D01*
X77660524Y-43417833D01*
X77612905Y-43227357D01*
X77565286Y-43132119D01*
X77517667Y-43084500D01*
X77422429Y-43036881D01*
X76708143Y-43132119D02*
X76660524Y-43084500D01*
X76565286Y-43036881D01*
X76327190Y-43036881D01*
X76231952Y-43084500D01*
X76184333Y-43132119D01*
X76136714Y-43227357D01*
X76136714Y-43322595D01*
X76184333Y-43465452D01*
X76755762Y-44036881D01*
X76136714Y-44036881D01*
D12*
X79124810Y-41036881D02*
X79101000Y-40989262D01*
X79053381Y-40941643D01*
X78981952Y-40870214D01*
X78958143Y-40822595D01*
X78958143Y-40774976D01*
X79077190Y-40798786D02*
X79053381Y-40751167D01*
X79005762Y-40703548D01*
X78910524Y-40679738D01*
X78743857Y-40679738D01*
X78648619Y-40703548D01*
X78601000Y-40751167D01*
X78577190Y-40798786D01*
X78577190Y-40894024D01*
X78601000Y-40941643D01*
X78648619Y-40989262D01*
X78743857Y-41013071D01*
X78910524Y-41013071D01*
X79005762Y-40989262D01*
X79053381Y-40941643D01*
X79077190Y-40894024D01*
X79077190Y-40798786D01*
X79077190Y-41489262D02*
X79077190Y-41203548D01*
X79077190Y-41346405D02*
X78577190Y-41346405D01*
X78648619Y-41298786D01*
X78696238Y-41251167D01*
X78720048Y-41203548D01*
D11*
X70390119Y-26162214D02*
X70342500Y-26209833D01*
X70294881Y-26305071D01*
X70294881Y-26543167D01*
X70342500Y-26638405D01*
X70390119Y-26686024D01*
X70485357Y-26733643D01*
X70580595Y-26733643D01*
X70723452Y-26686024D01*
X71294881Y-26114595D01*
X71294881Y-26733643D01*
X71294881Y-27162214D02*
X70294881Y-27162214D01*
X71294881Y-27733643D01*
X70294881Y-27733643D01*
X70294881Y-28114595D02*
X70294881Y-28781262D01*
X71294881Y-28352690D01*
X70294881Y-29352690D02*
X70294881Y-29447929D01*
X70342500Y-29543167D01*
X70390119Y-29590786D01*
X70485357Y-29638405D01*
X70675833Y-29686024D01*
X70913929Y-29686024D01*
X71104405Y-29638405D01*
X71199643Y-29590786D01*
X71247262Y-29543167D01*
X71294881Y-29447929D01*
X71294881Y-29352690D01*
X71247262Y-29257452D01*
X71199643Y-29209833D01*
X71104405Y-29162214D01*
X70913929Y-29114595D01*
X70675833Y-29114595D01*
X70485357Y-29162214D01*
X70390119Y-29209833D01*
X70342500Y-29257452D01*
X70294881Y-29352690D01*
X70294881Y-30305071D02*
X70294881Y-30400310D01*
X70342500Y-30495548D01*
X70390119Y-30543167D01*
X70485357Y-30590786D01*
X70675833Y-30638405D01*
X70913929Y-30638405D01*
X71104405Y-30590786D01*
X71199643Y-30543167D01*
X71247262Y-30495548D01*
X71294881Y-30400310D01*
X71294881Y-30305071D01*
X71247262Y-30209833D01*
X71199643Y-30162214D01*
X71104405Y-30114595D01*
X70913929Y-30066976D01*
X70675833Y-30066976D01*
X70485357Y-30114595D01*
X70390119Y-30162214D01*
X70342500Y-30209833D01*
X70294881Y-30305071D01*
X70390119Y-31019357D02*
X70342500Y-31066976D01*
X70294881Y-31162214D01*
X70294881Y-31400310D01*
X70342500Y-31495548D01*
X70390119Y-31543167D01*
X70485357Y-31590786D01*
X70580595Y-31590786D01*
X70723452Y-31543167D01*
X71294881Y-30971738D01*
X71294881Y-31590786D01*
D12*
X73390119Y-29150310D02*
X73437738Y-29126500D01*
X73485357Y-29078881D01*
X73556786Y-29007452D01*
X73604405Y-28983643D01*
X73652024Y-28983643D01*
X73628214Y-29102690D02*
X73675833Y-29078881D01*
X73723452Y-29031262D01*
X73747262Y-28936024D01*
X73747262Y-28769357D01*
X73723452Y-28674119D01*
X73675833Y-28626500D01*
X73628214Y-28602690D01*
X73532976Y-28602690D01*
X73485357Y-28626500D01*
X73437738Y-28674119D01*
X73413929Y-28769357D01*
X73413929Y-28936024D01*
X73437738Y-29031262D01*
X73485357Y-29078881D01*
X73532976Y-29102690D01*
X73628214Y-29102690D01*
X73223452Y-28650310D02*
X73199642Y-28626500D01*
X73152023Y-28602690D01*
X73032976Y-28602690D01*
X72985357Y-28626500D01*
X72961547Y-28650310D01*
X72937738Y-28697929D01*
X72937738Y-28745548D01*
X72961547Y-28816976D01*
X73247261Y-29102690D01*
X72937738Y-29102690D01*
D11*
X66707119Y-26162214D02*
X66659500Y-26209833D01*
X66611881Y-26305071D01*
X66611881Y-26543167D01*
X66659500Y-26638405D01*
X66707119Y-26686024D01*
X66802357Y-26733643D01*
X66897595Y-26733643D01*
X67040452Y-26686024D01*
X67611881Y-26114595D01*
X67611881Y-26733643D01*
X67611881Y-27162214D02*
X66611881Y-27162214D01*
X67611881Y-27733643D01*
X66611881Y-27733643D01*
X66611881Y-28114595D02*
X66611881Y-28781262D01*
X67611881Y-28352690D01*
X66611881Y-29352690D02*
X66611881Y-29447929D01*
X66659500Y-29543167D01*
X66707119Y-29590786D01*
X66802357Y-29638405D01*
X66992833Y-29686024D01*
X67230929Y-29686024D01*
X67421405Y-29638405D01*
X67516643Y-29590786D01*
X67564262Y-29543167D01*
X67611881Y-29447929D01*
X67611881Y-29352690D01*
X67564262Y-29257452D01*
X67516643Y-29209833D01*
X67421405Y-29162214D01*
X67230929Y-29114595D01*
X66992833Y-29114595D01*
X66802357Y-29162214D01*
X66707119Y-29209833D01*
X66659500Y-29257452D01*
X66611881Y-29352690D01*
X66611881Y-30305071D02*
X66611881Y-30400310D01*
X66659500Y-30495548D01*
X66707119Y-30543167D01*
X66802357Y-30590786D01*
X66992833Y-30638405D01*
X67230929Y-30638405D01*
X67421405Y-30590786D01*
X67516643Y-30543167D01*
X67564262Y-30495548D01*
X67611881Y-30400310D01*
X67611881Y-30305071D01*
X67564262Y-30209833D01*
X67516643Y-30162214D01*
X67421405Y-30114595D01*
X67230929Y-30066976D01*
X66992833Y-30066976D01*
X66802357Y-30114595D01*
X66707119Y-30162214D01*
X66659500Y-30209833D01*
X66611881Y-30305071D01*
X66707119Y-31019357D02*
X66659500Y-31066976D01*
X66611881Y-31162214D01*
X66611881Y-31400310D01*
X66659500Y-31495548D01*
X66707119Y-31543167D01*
X66802357Y-31590786D01*
X66897595Y-31590786D01*
X67040452Y-31543167D01*
X67611881Y-30971738D01*
X67611881Y-31590786D01*
D12*
X69707119Y-29150310D02*
X69754738Y-29126500D01*
X69802357Y-29078881D01*
X69873786Y-29007452D01*
X69921405Y-28983643D01*
X69969024Y-28983643D01*
X69945214Y-29102690D02*
X69992833Y-29078881D01*
X70040452Y-29031262D01*
X70064262Y-28936024D01*
X70064262Y-28769357D01*
X70040452Y-28674119D01*
X69992833Y-28626500D01*
X69945214Y-28602690D01*
X69849976Y-28602690D01*
X69802357Y-28626500D01*
X69754738Y-28674119D01*
X69730929Y-28769357D01*
X69730929Y-28936024D01*
X69754738Y-29031262D01*
X69802357Y-29078881D01*
X69849976Y-29102690D01*
X69945214Y-29102690D01*
X69564261Y-28602690D02*
X69254738Y-28602690D01*
X69421404Y-28793167D01*
X69349976Y-28793167D01*
X69302357Y-28816976D01*
X69278547Y-28840786D01*
X69254738Y-28888405D01*
X69254738Y-29007452D01*
X69278547Y-29055071D01*
X69302357Y-29078881D01*
X69349976Y-29102690D01*
X69492833Y-29102690D01*
X69540452Y-29078881D01*
X69564261Y-29055071D01*
D11*
X64198286Y-25559119D02*
X64150667Y-25511500D01*
X64055429Y-25463881D01*
X63817333Y-25463881D01*
X63722095Y-25511500D01*
X63674476Y-25559119D01*
X63626857Y-25654357D01*
X63626857Y-25749595D01*
X63674476Y-25892452D01*
X64245905Y-26463881D01*
X63626857Y-26463881D01*
X63198286Y-26463881D02*
X63198286Y-25463881D01*
X62626857Y-26463881D01*
X62626857Y-25463881D01*
X62245905Y-25463881D02*
X61579238Y-25463881D01*
X62007810Y-26463881D01*
X61007810Y-25463881D02*
X60912571Y-25463881D01*
X60817333Y-25511500D01*
X60769714Y-25559119D01*
X60722095Y-25654357D01*
X60674476Y-25844833D01*
X60674476Y-26082929D01*
X60722095Y-26273405D01*
X60769714Y-26368643D01*
X60817333Y-26416262D01*
X60912571Y-26463881D01*
X61007810Y-26463881D01*
X61103048Y-26416262D01*
X61150667Y-26368643D01*
X61198286Y-26273405D01*
X61245905Y-26082929D01*
X61245905Y-25844833D01*
X61198286Y-25654357D01*
X61150667Y-25559119D01*
X61103048Y-25511500D01*
X61007810Y-25463881D01*
X60055429Y-25463881D02*
X59960190Y-25463881D01*
X59864952Y-25511500D01*
X59817333Y-25559119D01*
X59769714Y-25654357D01*
X59722095Y-25844833D01*
X59722095Y-26082929D01*
X59769714Y-26273405D01*
X59817333Y-26368643D01*
X59864952Y-26416262D01*
X59960190Y-26463881D01*
X60055429Y-26463881D01*
X60150667Y-26416262D01*
X60198286Y-26368643D01*
X60245905Y-26273405D01*
X60293524Y-26082929D01*
X60293524Y-25844833D01*
X60245905Y-25654357D01*
X60198286Y-25559119D01*
X60150667Y-25511500D01*
X60055429Y-25463881D01*
X59341143Y-25559119D02*
X59293524Y-25511500D01*
X59198286Y-25463881D01*
X58960190Y-25463881D01*
X58864952Y-25511500D01*
X58817333Y-25559119D01*
X58769714Y-25654357D01*
X58769714Y-25749595D01*
X58817333Y-25892452D01*
X59388762Y-26463881D01*
X58769714Y-26463881D01*
D12*
X61757810Y-28463881D02*
X61734000Y-28416262D01*
X61686381Y-28368643D01*
X61614952Y-28297214D01*
X61591143Y-28249595D01*
X61591143Y-28201976D01*
X61710190Y-28225786D02*
X61686381Y-28178167D01*
X61638762Y-28130548D01*
X61543524Y-28106738D01*
X61376857Y-28106738D01*
X61281619Y-28130548D01*
X61234000Y-28178167D01*
X61210190Y-28225786D01*
X61210190Y-28321024D01*
X61234000Y-28368643D01*
X61281619Y-28416262D01*
X61376857Y-28440071D01*
X61543524Y-28440071D01*
X61638762Y-28416262D01*
X61686381Y-28368643D01*
X61710190Y-28321024D01*
X61710190Y-28225786D01*
X61376857Y-28868643D02*
X61710190Y-28868643D01*
X61186381Y-28749596D02*
X61543524Y-28630548D01*
X61543524Y-28940072D01*
D11*
X83196714Y-39616786D02*
X83863381Y-39616786D01*
X82815762Y-39378690D02*
X83530048Y-39140595D01*
X83530048Y-39759643D01*
X83863381Y-40140595D02*
X82863381Y-40140595D01*
X83863381Y-40712024D02*
X83291952Y-40283452D01*
X82863381Y-40712024D02*
X83434810Y-40140595D01*
X82863381Y-41045357D02*
X82863381Y-41712024D01*
X83863381Y-41283452D01*
D12*
X81887190Y-40319167D02*
X81649095Y-40152500D01*
X81887190Y-40033453D02*
X81387190Y-40033453D01*
X81387190Y-40223929D01*
X81411000Y-40271548D01*
X81434810Y-40295357D01*
X81482429Y-40319167D01*
X81553857Y-40319167D01*
X81601476Y-40295357D01*
X81625286Y-40271548D01*
X81649095Y-40223929D01*
X81649095Y-40033453D01*
X81434810Y-40509643D02*
X81411000Y-40533453D01*
X81387190Y-40581072D01*
X81387190Y-40700119D01*
X81411000Y-40747738D01*
X81434810Y-40771548D01*
X81482429Y-40795357D01*
X81530048Y-40795357D01*
X81601476Y-40771548D01*
X81887190Y-40485834D01*
X81887190Y-40795357D01*
D11*
X67099381Y-28813834D02*
X67099381Y-28242405D01*
X67099381Y-28528119D02*
X66099381Y-28528119D01*
X66242238Y-28432881D01*
X66337476Y-28337643D01*
X66385095Y-28242405D01*
X66099381Y-29432881D02*
X66099381Y-29528120D01*
X66147000Y-29623358D01*
X66194619Y-29670977D01*
X66289857Y-29718596D01*
X66480333Y-29766215D01*
X66718429Y-29766215D01*
X66908905Y-29718596D01*
X67004143Y-29670977D01*
X67051762Y-29623358D01*
X67099381Y-29528120D01*
X67099381Y-29432881D01*
X67051762Y-29337643D01*
X67004143Y-29290024D01*
X66908905Y-29242405D01*
X66718429Y-29194786D01*
X66480333Y-29194786D01*
X66289857Y-29242405D01*
X66194619Y-29290024D01*
X66147000Y-29337643D01*
X66099381Y-29432881D01*
X66099381Y-30385262D02*
X66099381Y-30480501D01*
X66147000Y-30575739D01*
X66194619Y-30623358D01*
X66289857Y-30670977D01*
X66480333Y-30718596D01*
X66718429Y-30718596D01*
X66908905Y-30670977D01*
X67004143Y-30623358D01*
X67051762Y-30575739D01*
X67099381Y-30480501D01*
X67099381Y-30385262D01*
X67051762Y-30290024D01*
X67004143Y-30242405D01*
X66908905Y-30194786D01*
X66718429Y-30147167D01*
X66480333Y-30147167D01*
X66289857Y-30194786D01*
X66194619Y-30242405D01*
X66147000Y-30290024D01*
X66099381Y-30385262D01*
D12*
X65123190Y-29397167D02*
X64885095Y-29230500D01*
X65123190Y-29111453D02*
X64623190Y-29111453D01*
X64623190Y-29301929D01*
X64647000Y-29349548D01*
X64670810Y-29373357D01*
X64718429Y-29397167D01*
X64789857Y-29397167D01*
X64837476Y-29373357D01*
X64861286Y-29349548D01*
X64885095Y-29301929D01*
X64885095Y-29111453D01*
X64789857Y-29825738D02*
X65123190Y-29825738D01*
X64599381Y-29706691D02*
X64956524Y-29587643D01*
X64956524Y-29897167D01*
D11*
X69067881Y-28813834D02*
X69067881Y-28242405D01*
X69067881Y-28528119D02*
X68067881Y-28528119D01*
X68210738Y-28432881D01*
X68305976Y-28337643D01*
X68353595Y-28242405D01*
X68067881Y-29432881D02*
X68067881Y-29528120D01*
X68115500Y-29623358D01*
X68163119Y-29670977D01*
X68258357Y-29718596D01*
X68448833Y-29766215D01*
X68686929Y-29766215D01*
X68877405Y-29718596D01*
X68972643Y-29670977D01*
X69020262Y-29623358D01*
X69067881Y-29528120D01*
X69067881Y-29432881D01*
X69020262Y-29337643D01*
X68972643Y-29290024D01*
X68877405Y-29242405D01*
X68686929Y-29194786D01*
X68448833Y-29194786D01*
X68258357Y-29242405D01*
X68163119Y-29290024D01*
X68115500Y-29337643D01*
X68067881Y-29432881D01*
X68067881Y-30385262D02*
X68067881Y-30480501D01*
X68115500Y-30575739D01*
X68163119Y-30623358D01*
X68258357Y-30670977D01*
X68448833Y-30718596D01*
X68686929Y-30718596D01*
X68877405Y-30670977D01*
X68972643Y-30623358D01*
X69020262Y-30575739D01*
X69067881Y-30480501D01*
X69067881Y-30385262D01*
X69020262Y-30290024D01*
X68972643Y-30242405D01*
X68877405Y-30194786D01*
X68686929Y-30147167D01*
X68448833Y-30147167D01*
X68258357Y-30194786D01*
X68163119Y-30242405D01*
X68115500Y-30290024D01*
X68067881Y-30385262D01*
D12*
X67091690Y-29397167D02*
X66853595Y-29230500D01*
X67091690Y-29111453D02*
X66591690Y-29111453D01*
X66591690Y-29301929D01*
X66615500Y-29349548D01*
X66639310Y-29373357D01*
X66686929Y-29397167D01*
X66758357Y-29397167D01*
X66805976Y-29373357D01*
X66829786Y-29349548D01*
X66853595Y-29301929D01*
X66853595Y-29111453D01*
X66591690Y-29563834D02*
X66591690Y-29897167D01*
X67091690Y-29682881D01*
D11*
X80942381Y-27510834D02*
X80942381Y-26939405D01*
X80942381Y-27225119D02*
X79942381Y-27225119D01*
X80085238Y-27129881D01*
X80180476Y-27034643D01*
X80228095Y-26939405D01*
X79942381Y-28129881D02*
X79942381Y-28225120D01*
X79990000Y-28320358D01*
X80037619Y-28367977D01*
X80132857Y-28415596D01*
X80323333Y-28463215D01*
X80561429Y-28463215D01*
X80751905Y-28415596D01*
X80847143Y-28367977D01*
X80894762Y-28320358D01*
X80942381Y-28225120D01*
X80942381Y-28129881D01*
X80894762Y-28034643D01*
X80847143Y-27987024D01*
X80751905Y-27939405D01*
X80561429Y-27891786D01*
X80323333Y-27891786D01*
X80132857Y-27939405D01*
X80037619Y-27987024D01*
X79990000Y-28034643D01*
X79942381Y-28129881D01*
X79942381Y-29082262D02*
X79942381Y-29177501D01*
X79990000Y-29272739D01*
X80037619Y-29320358D01*
X80132857Y-29367977D01*
X80323333Y-29415596D01*
X80561429Y-29415596D01*
X80751905Y-29367977D01*
X80847143Y-29320358D01*
X80894762Y-29272739D01*
X80942381Y-29177501D01*
X80942381Y-29082262D01*
X80894762Y-28987024D01*
X80847143Y-28939405D01*
X80751905Y-28891786D01*
X80561429Y-28844167D01*
X80323333Y-28844167D01*
X80132857Y-28891786D01*
X80037619Y-28939405D01*
X79990000Y-28987024D01*
X79942381Y-29082262D01*
D12*
X78966190Y-28094167D02*
X78728095Y-27927500D01*
X78966190Y-27808453D02*
X78466190Y-27808453D01*
X78466190Y-27998929D01*
X78490000Y-28046548D01*
X78513810Y-28070357D01*
X78561429Y-28094167D01*
X78632857Y-28094167D01*
X78680476Y-28070357D01*
X78704286Y-28046548D01*
X78728095Y-27998929D01*
X78728095Y-27808453D01*
X78680476Y-28379881D02*
X78656667Y-28332262D01*
X78632857Y-28308453D01*
X78585238Y-28284643D01*
X78561429Y-28284643D01*
X78513810Y-28308453D01*
X78490000Y-28332262D01*
X78466190Y-28379881D01*
X78466190Y-28475119D01*
X78490000Y-28522738D01*
X78513810Y-28546548D01*
X78561429Y-28570357D01*
X78585238Y-28570357D01*
X78632857Y-28546548D01*
X78656667Y-28522738D01*
X78680476Y-28475119D01*
X78680476Y-28379881D01*
X78704286Y-28332262D01*
X78728095Y-28308453D01*
X78775714Y-28284643D01*
X78870952Y-28284643D01*
X78918571Y-28308453D01*
X78942381Y-28332262D01*
X78966190Y-28379881D01*
X78966190Y-28475119D01*
X78942381Y-28522738D01*
X78918571Y-28546548D01*
X78870952Y-28570357D01*
X78775714Y-28570357D01*
X78728095Y-28546548D01*
X78704286Y-28522738D01*
X78680476Y-28475119D01*
D11*
X72362381Y-37322834D02*
X72362381Y-36751405D01*
X72362381Y-37037119D02*
X71362381Y-37037119D01*
X71505238Y-36941881D01*
X71600476Y-36846643D01*
X71648095Y-36751405D01*
X71362381Y-37941881D02*
X71362381Y-38037120D01*
X71410000Y-38132358D01*
X71457619Y-38179977D01*
X71552857Y-38227596D01*
X71743333Y-38275215D01*
X71981429Y-38275215D01*
X72171905Y-38227596D01*
X72267143Y-38179977D01*
X72314762Y-38132358D01*
X72362381Y-38037120D01*
X72362381Y-37941881D01*
X72314762Y-37846643D01*
X72267143Y-37799024D01*
X72171905Y-37751405D01*
X71981429Y-37703786D01*
X71743333Y-37703786D01*
X71552857Y-37751405D01*
X71457619Y-37799024D01*
X71410000Y-37846643D01*
X71362381Y-37941881D01*
X71362381Y-38894262D02*
X71362381Y-38989501D01*
X71410000Y-39084739D01*
X71457619Y-39132358D01*
X71552857Y-39179977D01*
X71743333Y-39227596D01*
X71981429Y-39227596D01*
X72171905Y-39179977D01*
X72267143Y-39132358D01*
X72314762Y-39084739D01*
X72362381Y-38989501D01*
X72362381Y-38894262D01*
X72314762Y-38799024D01*
X72267143Y-38751405D01*
X72171905Y-38703786D01*
X71981429Y-38656167D01*
X71743333Y-38656167D01*
X71552857Y-38703786D01*
X71457619Y-38751405D01*
X71410000Y-38799024D01*
X71362381Y-38894262D01*
D12*
X73886190Y-37906167D02*
X73648095Y-37739500D01*
X73886190Y-37620453D02*
X73386190Y-37620453D01*
X73386190Y-37810929D01*
X73410000Y-37858548D01*
X73433810Y-37882357D01*
X73481429Y-37906167D01*
X73552857Y-37906167D01*
X73600476Y-37882357D01*
X73624286Y-37858548D01*
X73648095Y-37810929D01*
X73648095Y-37620453D01*
X73886190Y-38144262D02*
X73886190Y-38239500D01*
X73862381Y-38287119D01*
X73838571Y-38310929D01*
X73767143Y-38358548D01*
X73671905Y-38382357D01*
X73481429Y-38382357D01*
X73433810Y-38358548D01*
X73410000Y-38334738D01*
X73386190Y-38287119D01*
X73386190Y-38191881D01*
X73410000Y-38144262D01*
X73433810Y-38120453D01*
X73481429Y-38096643D01*
X73600476Y-38096643D01*
X73648095Y-38120453D01*
X73671905Y-38144262D01*
X73695714Y-38191881D01*
X73695714Y-38287119D01*
X73671905Y-38334738D01*
X73648095Y-38358548D01*
X73600476Y-38382357D01*
D11*
X70457381Y-37322834D02*
X70457381Y-36751405D01*
X70457381Y-37037119D02*
X69457381Y-37037119D01*
X69600238Y-36941881D01*
X69695476Y-36846643D01*
X69743095Y-36751405D01*
X69457381Y-37941881D02*
X69457381Y-38037120D01*
X69505000Y-38132358D01*
X69552619Y-38179977D01*
X69647857Y-38227596D01*
X69838333Y-38275215D01*
X70076429Y-38275215D01*
X70266905Y-38227596D01*
X70362143Y-38179977D01*
X70409762Y-38132358D01*
X70457381Y-38037120D01*
X70457381Y-37941881D01*
X70409762Y-37846643D01*
X70362143Y-37799024D01*
X70266905Y-37751405D01*
X70076429Y-37703786D01*
X69838333Y-37703786D01*
X69647857Y-37751405D01*
X69552619Y-37799024D01*
X69505000Y-37846643D01*
X69457381Y-37941881D01*
X69457381Y-38894262D02*
X69457381Y-38989501D01*
X69505000Y-39084739D01*
X69552619Y-39132358D01*
X69647857Y-39179977D01*
X69838333Y-39227596D01*
X70076429Y-39227596D01*
X70266905Y-39179977D01*
X70362143Y-39132358D01*
X70409762Y-39084739D01*
X70457381Y-38989501D01*
X70457381Y-38894262D01*
X70409762Y-38799024D01*
X70362143Y-38751405D01*
X70266905Y-38703786D01*
X70076429Y-38656167D01*
X69838333Y-38656167D01*
X69647857Y-38703786D01*
X69552619Y-38751405D01*
X69505000Y-38799024D01*
X69457381Y-38894262D01*
D12*
X71981190Y-37668072D02*
X71743095Y-37501405D01*
X71981190Y-37382358D02*
X71481190Y-37382358D01*
X71481190Y-37572834D01*
X71505000Y-37620453D01*
X71528810Y-37644262D01*
X71576429Y-37668072D01*
X71647857Y-37668072D01*
X71695476Y-37644262D01*
X71719286Y-37620453D01*
X71743095Y-37572834D01*
X71743095Y-37382358D01*
X71981190Y-38144262D02*
X71981190Y-37858548D01*
X71981190Y-38001405D02*
X71481190Y-38001405D01*
X71552619Y-37953786D01*
X71600238Y-37906167D01*
X71624048Y-37858548D01*
X71481190Y-38453786D02*
X71481190Y-38501405D01*
X71505000Y-38549024D01*
X71528810Y-38572833D01*
X71576429Y-38596643D01*
X71671667Y-38620452D01*
X71790714Y-38620452D01*
X71885952Y-38596643D01*
X71933571Y-38572833D01*
X71957381Y-38549024D01*
X71981190Y-38501405D01*
X71981190Y-38453786D01*
X71957381Y-38406167D01*
X71933571Y-38382357D01*
X71885952Y-38358548D01*
X71790714Y-38334738D01*
X71671667Y-38334738D01*
X71576429Y-38358548D01*
X71528810Y-38382357D01*
X71505000Y-38406167D01*
X71481190Y-38453786D01*
D11*
X66499666Y-39476881D02*
X67071095Y-39476881D01*
X66785381Y-39476881D02*
X66785381Y-38476881D01*
X66880619Y-38619738D01*
X66975857Y-38714976D01*
X67071095Y-38762595D01*
X65880619Y-38476881D02*
X65785380Y-38476881D01*
X65690142Y-38524500D01*
X65642523Y-38572119D01*
X65594904Y-38667357D01*
X65547285Y-38857833D01*
X65547285Y-39095929D01*
X65594904Y-39286405D01*
X65642523Y-39381643D01*
X65690142Y-39429262D01*
X65785380Y-39476881D01*
X65880619Y-39476881D01*
X65975857Y-39429262D01*
X66023476Y-39381643D01*
X66071095Y-39286405D01*
X66118714Y-39095929D01*
X66118714Y-38857833D01*
X66071095Y-38667357D01*
X66023476Y-38572119D01*
X65975857Y-38524500D01*
X65880619Y-38476881D01*
X64928238Y-38476881D02*
X64832999Y-38476881D01*
X64737761Y-38524500D01*
X64690142Y-38572119D01*
X64642523Y-38667357D01*
X64594904Y-38857833D01*
X64594904Y-39095929D01*
X64642523Y-39286405D01*
X64690142Y-39381643D01*
X64737761Y-39429262D01*
X64832999Y-39476881D01*
X64928238Y-39476881D01*
X65023476Y-39429262D01*
X65071095Y-39381643D01*
X65118714Y-39286405D01*
X65166333Y-39095929D01*
X65166333Y-38857833D01*
X65118714Y-38667357D01*
X65071095Y-38572119D01*
X65023476Y-38524500D01*
X64928238Y-38476881D01*
D12*
X66154428Y-37500690D02*
X66321095Y-37262595D01*
X66440142Y-37500690D02*
X66440142Y-37000690D01*
X66249666Y-37000690D01*
X66202047Y-37024500D01*
X66178238Y-37048310D01*
X66154428Y-37095929D01*
X66154428Y-37167357D01*
X66178238Y-37214976D01*
X66202047Y-37238786D01*
X66249666Y-37262595D01*
X66440142Y-37262595D01*
X65678238Y-37500690D02*
X65963952Y-37500690D01*
X65821095Y-37500690D02*
X65821095Y-37000690D01*
X65868714Y-37072119D01*
X65916333Y-37119738D01*
X65963952Y-37143548D01*
X65202048Y-37500690D02*
X65487762Y-37500690D01*
X65344905Y-37500690D02*
X65344905Y-37000690D01*
X65392524Y-37072119D01*
X65440143Y-37119738D01*
X65487762Y-37143548D01*
D11*
X64277166Y-41445381D02*
X64848595Y-41445381D01*
X64562881Y-41445381D02*
X64562881Y-40445381D01*
X64658119Y-40588238D01*
X64753357Y-40683476D01*
X64848595Y-40731095D01*
X63658119Y-40445381D02*
X63562880Y-40445381D01*
X63467642Y-40493000D01*
X63420023Y-40540619D01*
X63372404Y-40635857D01*
X63324785Y-40826333D01*
X63324785Y-41064429D01*
X63372404Y-41254905D01*
X63420023Y-41350143D01*
X63467642Y-41397762D01*
X63562880Y-41445381D01*
X63658119Y-41445381D01*
X63753357Y-41397762D01*
X63800976Y-41350143D01*
X63848595Y-41254905D01*
X63896214Y-41064429D01*
X63896214Y-40826333D01*
X63848595Y-40635857D01*
X63800976Y-40540619D01*
X63753357Y-40493000D01*
X63658119Y-40445381D01*
X62705738Y-40445381D02*
X62610499Y-40445381D01*
X62515261Y-40493000D01*
X62467642Y-40540619D01*
X62420023Y-40635857D01*
X62372404Y-40826333D01*
X62372404Y-41064429D01*
X62420023Y-41254905D01*
X62467642Y-41350143D01*
X62515261Y-41397762D01*
X62610499Y-41445381D01*
X62705738Y-41445381D01*
X62800976Y-41397762D01*
X62848595Y-41350143D01*
X62896214Y-41254905D01*
X62943833Y-41064429D01*
X62943833Y-40826333D01*
X62896214Y-40635857D01*
X62848595Y-40540619D01*
X62800976Y-40493000D01*
X62705738Y-40445381D01*
D12*
X63931928Y-39469190D02*
X64098595Y-39231095D01*
X64217642Y-39469190D02*
X64217642Y-38969190D01*
X64027166Y-38969190D01*
X63979547Y-38993000D01*
X63955738Y-39016810D01*
X63931928Y-39064429D01*
X63931928Y-39135857D01*
X63955738Y-39183476D01*
X63979547Y-39207286D01*
X64027166Y-39231095D01*
X64217642Y-39231095D01*
X63455738Y-39469190D02*
X63741452Y-39469190D01*
X63598595Y-39469190D02*
X63598595Y-38969190D01*
X63646214Y-39040619D01*
X63693833Y-39088238D01*
X63741452Y-39112048D01*
X63265262Y-39016810D02*
X63241452Y-38993000D01*
X63193833Y-38969190D01*
X63074786Y-38969190D01*
X63027167Y-38993000D01*
X63003357Y-39016810D01*
X62979548Y-39064429D01*
X62979548Y-39112048D01*
X63003357Y-39183476D01*
X63289071Y-39469190D01*
X62979548Y-39469190D01*
D11*
X63070666Y-45699881D02*
X63642095Y-45699881D01*
X63356381Y-45699881D02*
X63356381Y-44699881D01*
X63451619Y-44842738D01*
X63546857Y-44937976D01*
X63642095Y-44985595D01*
X62451619Y-44699881D02*
X62356380Y-44699881D01*
X62261142Y-44747500D01*
X62213523Y-44795119D01*
X62165904Y-44890357D01*
X62118285Y-45080833D01*
X62118285Y-45318929D01*
X62165904Y-45509405D01*
X62213523Y-45604643D01*
X62261142Y-45652262D01*
X62356380Y-45699881D01*
X62451619Y-45699881D01*
X62546857Y-45652262D01*
X62594476Y-45604643D01*
X62642095Y-45509405D01*
X62689714Y-45318929D01*
X62689714Y-45080833D01*
X62642095Y-44890357D01*
X62594476Y-44795119D01*
X62546857Y-44747500D01*
X62451619Y-44699881D01*
X61499238Y-44699881D02*
X61403999Y-44699881D01*
X61308761Y-44747500D01*
X61261142Y-44795119D01*
X61213523Y-44890357D01*
X61165904Y-45080833D01*
X61165904Y-45318929D01*
X61213523Y-45509405D01*
X61261142Y-45604643D01*
X61308761Y-45652262D01*
X61403999Y-45699881D01*
X61499238Y-45699881D01*
X61594476Y-45652262D01*
X61642095Y-45604643D01*
X61689714Y-45509405D01*
X61737333Y-45318929D01*
X61737333Y-45080833D01*
X61689714Y-44890357D01*
X61642095Y-44795119D01*
X61594476Y-44747500D01*
X61499238Y-44699881D01*
D12*
X62725428Y-43723690D02*
X62892095Y-43485595D01*
X63011142Y-43723690D02*
X63011142Y-43223690D01*
X62820666Y-43223690D01*
X62773047Y-43247500D01*
X62749238Y-43271310D01*
X62725428Y-43318929D01*
X62725428Y-43390357D01*
X62749238Y-43437976D01*
X62773047Y-43461786D01*
X62820666Y-43485595D01*
X63011142Y-43485595D01*
X62249238Y-43723690D02*
X62534952Y-43723690D01*
X62392095Y-43723690D02*
X62392095Y-43223690D01*
X62439714Y-43295119D01*
X62487333Y-43342738D01*
X62534952Y-43366548D01*
X62082571Y-43223690D02*
X61773048Y-43223690D01*
X61939714Y-43414167D01*
X61868286Y-43414167D01*
X61820667Y-43437976D01*
X61796857Y-43461786D01*
X61773048Y-43509405D01*
X61773048Y-43628452D01*
X61796857Y-43676071D01*
X61820667Y-43699881D01*
X61868286Y-43723690D01*
X62011143Y-43723690D01*
X62058762Y-43699881D01*
X62082571Y-43676071D01*
D11*
X75795714Y-33158714D02*
X75795714Y-33825381D01*
X76033810Y-32777762D02*
X76271905Y-33492048D01*
X75652857Y-33492048D01*
X75271905Y-33825381D02*
X75271905Y-32825381D01*
X74700476Y-33825381D02*
X75129048Y-33253952D01*
X74700476Y-32825381D02*
X75271905Y-33396810D01*
X74367143Y-32825381D02*
X73700476Y-32825381D01*
X74129048Y-33825381D01*
D12*
X75331428Y-31849190D02*
X75498095Y-31611095D01*
X75617142Y-31849190D02*
X75617142Y-31349190D01*
X75426666Y-31349190D01*
X75379047Y-31373000D01*
X75355238Y-31396810D01*
X75331428Y-31444429D01*
X75331428Y-31515857D01*
X75355238Y-31563476D01*
X75379047Y-31587286D01*
X75426666Y-31611095D01*
X75617142Y-31611095D01*
X74855238Y-31849190D02*
X75140952Y-31849190D01*
X74998095Y-31849190D02*
X74998095Y-31349190D01*
X75045714Y-31420619D01*
X75093333Y-31468238D01*
X75140952Y-31492048D01*
X74426667Y-31515857D02*
X74426667Y-31849190D01*
X74545714Y-31325381D02*
X74664762Y-31682524D01*
X74355238Y-31682524D01*
D11*
X70969714Y-33158714D02*
X70969714Y-33825381D01*
X71207810Y-32777762D02*
X71445905Y-33492048D01*
X70826857Y-33492048D01*
X70445905Y-33825381D02*
X70445905Y-32825381D01*
X69874476Y-33825381D02*
X70303048Y-33253952D01*
X69874476Y-32825381D02*
X70445905Y-33396810D01*
X69541143Y-32825381D02*
X68874476Y-32825381D01*
X69303048Y-33825381D01*
D12*
X70505428Y-31849190D02*
X70672095Y-31611095D01*
X70791142Y-31849190D02*
X70791142Y-31349190D01*
X70600666Y-31349190D01*
X70553047Y-31373000D01*
X70529238Y-31396810D01*
X70505428Y-31444429D01*
X70505428Y-31515857D01*
X70529238Y-31563476D01*
X70553047Y-31587286D01*
X70600666Y-31611095D01*
X70791142Y-31611095D01*
X70029238Y-31849190D02*
X70314952Y-31849190D01*
X70172095Y-31849190D02*
X70172095Y-31349190D01*
X70219714Y-31420619D01*
X70267333Y-31468238D01*
X70314952Y-31492048D01*
X69576857Y-31349190D02*
X69814952Y-31349190D01*
X69838762Y-31587286D01*
X69814952Y-31563476D01*
X69767333Y-31539667D01*
X69648286Y-31539667D01*
X69600667Y-31563476D01*
X69576857Y-31587286D01*
X69553048Y-31634905D01*
X69553048Y-31753952D01*
X69576857Y-31801571D01*
X69600667Y-31825381D01*
X69648286Y-31849190D01*
X69767333Y-31849190D01*
X69814952Y-31825381D01*
X69838762Y-31801571D01*
D11*
X56836714Y-27170786D02*
X57503381Y-27170786D01*
X56455762Y-26932690D02*
X57170048Y-26694595D01*
X57170048Y-27313643D01*
X57503381Y-27694595D02*
X56503381Y-27694595D01*
X57503381Y-28266024D02*
X56931952Y-27837452D01*
X56503381Y-28266024D02*
X57074810Y-27694595D01*
X56503381Y-28599357D02*
X56503381Y-29266024D01*
X57503381Y-28837452D01*
D12*
X59027190Y-27635072D02*
X58789095Y-27468405D01*
X59027190Y-27349358D02*
X58527190Y-27349358D01*
X58527190Y-27539834D01*
X58551000Y-27587453D01*
X58574810Y-27611262D01*
X58622429Y-27635072D01*
X58693857Y-27635072D01*
X58741476Y-27611262D01*
X58765286Y-27587453D01*
X58789095Y-27539834D01*
X58789095Y-27349358D01*
X59027190Y-28111262D02*
X59027190Y-27825548D01*
X59027190Y-27968405D02*
X58527190Y-27968405D01*
X58598619Y-27920786D01*
X58646238Y-27873167D01*
X58670048Y-27825548D01*
X58527190Y-28539833D02*
X58527190Y-28444595D01*
X58551000Y-28396976D01*
X58574810Y-28373167D01*
X58646238Y-28325548D01*
X58741476Y-28301738D01*
X58931952Y-28301738D01*
X58979571Y-28325548D01*
X59003381Y-28349357D01*
X59027190Y-28396976D01*
X59027190Y-28492214D01*
X59003381Y-28539833D01*
X58979571Y-28563643D01*
X58931952Y-28587452D01*
X58812905Y-28587452D01*
X58765286Y-28563643D01*
X58741476Y-28539833D01*
X58717667Y-28492214D01*
X58717667Y-28396976D01*
X58741476Y-28349357D01*
X58765286Y-28325548D01*
X58812905Y-28301738D01*
D11*
X30746976Y-27673881D02*
X30127928Y-27673881D01*
X30461262Y-28054833D01*
X30318404Y-28054833D01*
X30223166Y-28102452D01*
X30175547Y-28150071D01*
X30127928Y-28245310D01*
X30127928Y-28483405D01*
X30175547Y-28578643D01*
X30223166Y-28626262D01*
X30318404Y-28673881D01*
X30604119Y-28673881D01*
X30699357Y-28626262D01*
X30746976Y-28578643D01*
X29794595Y-28007214D02*
X29556500Y-28673881D01*
X29318404Y-28007214D01*
X28508880Y-27673881D02*
X28699357Y-27673881D01*
X28794595Y-27721500D01*
X28842214Y-27769119D01*
X28937452Y-27911976D01*
X28985071Y-28102452D01*
X28985071Y-28483405D01*
X28937452Y-28578643D01*
X28889833Y-28626262D01*
X28794595Y-28673881D01*
X28604118Y-28673881D01*
X28508880Y-28626262D01*
X28461261Y-28578643D01*
X28413642Y-28483405D01*
X28413642Y-28245310D01*
X28461261Y-28150071D01*
X28508880Y-28102452D01*
X28604118Y-28054833D01*
X28794595Y-28054833D01*
X28889833Y-28102452D01*
X28937452Y-28150071D01*
X28985071Y-28245310D01*
X30294595Y-24173881D02*
X30294595Y-23173881D01*
X30056500Y-23173881D01*
X29913642Y-23221500D01*
X29818404Y-23316738D01*
X29770785Y-23411976D01*
X29723166Y-23602452D01*
X29723166Y-23745310D01*
X29770785Y-23935786D01*
X29818404Y-24031024D01*
X29913642Y-24126262D01*
X30056500Y-24173881D01*
X30294595Y-24173881D01*
X28770785Y-24173881D02*
X29342214Y-24173881D01*
X29056500Y-24173881D02*
X29056500Y-23173881D01*
X29151738Y-23316738D01*
X29246976Y-23411976D01*
X29342214Y-23459595D01*
X22129642Y-24122381D02*
X22701071Y-24122381D01*
X22415357Y-24122381D02*
X22415357Y-23122381D01*
X22510595Y-23265238D01*
X22605833Y-23360476D01*
X22701071Y-23408095D01*
X21701071Y-23455714D02*
X21701071Y-24455714D01*
X21701071Y-23503333D02*
X21605833Y-23455714D01*
X21415356Y-23455714D01*
X21320118Y-23503333D01*
X21272499Y-23550952D01*
X21224880Y-23646190D01*
X21224880Y-23931905D01*
X21272499Y-24027143D01*
X21320118Y-24074762D01*
X21415356Y-24122381D01*
X21605833Y-24122381D01*
X21701071Y-24074762D01*
X20796309Y-24122381D02*
X20796309Y-23455714D01*
X20796309Y-23122381D02*
X20843928Y-23170000D01*
X20796309Y-23217619D01*
X20748690Y-23170000D01*
X20796309Y-23122381D01*
X20796309Y-23217619D01*
X20320119Y-23455714D02*
X20320119Y-24122381D01*
X20320119Y-23550952D02*
X20272500Y-23503333D01*
X20177262Y-23455714D01*
X20034404Y-23455714D01*
X19939166Y-23503333D01*
X19891547Y-23598571D01*
X19891547Y-24122381D01*
X92487642Y-43172381D02*
X93059071Y-43172381D01*
X92773357Y-43172381D02*
X92773357Y-42172381D01*
X92868595Y-42315238D01*
X92963833Y-42410476D01*
X93059071Y-42458095D01*
X92059071Y-42505714D02*
X92059071Y-43505714D01*
X92059071Y-42553333D02*
X91963833Y-42505714D01*
X91773356Y-42505714D01*
X91678118Y-42553333D01*
X91630499Y-42600952D01*
X91582880Y-42696190D01*
X91582880Y-42981905D01*
X91630499Y-43077143D01*
X91678118Y-43124762D01*
X91773356Y-43172381D01*
X91963833Y-43172381D01*
X92059071Y-43124762D01*
X91154309Y-43172381D02*
X91154309Y-42505714D01*
X91154309Y-42172381D02*
X91201928Y-42220000D01*
X91154309Y-42267619D01*
X91106690Y-42220000D01*
X91154309Y-42172381D01*
X91154309Y-42267619D01*
X90678119Y-42505714D02*
X90678119Y-43172381D01*
X90678119Y-42600952D02*
X90630500Y-42553333D01*
X90535262Y-42505714D01*
X90392404Y-42505714D01*
X90297166Y-42553333D01*
X90249547Y-42648571D01*
X90249547Y-43172381D01*
M02*
