G04 #@! TF.FileFunction,Copper,L2,Bot,Signal*
%FSLAX46Y46*%
G04 Gerber Fmt 4.6, Leading zero omitted, Abs format (unit mm)*
G04 Created by KiCad (PCBNEW 4.0.7) date 11/22/17 14:23:38*
%MOMM*%
%LPD*%
G01*
G04 APERTURE LIST*
%ADD10C,0.100000*%
%ADD11C,0.150000*%
%ADD12R,1.500000X1.500000*%
%ADD13C,1.500000*%
%ADD14R,1.250000X1.500000*%
%ADD15R,1.500000X1.250000*%
%ADD16R,1.700000X1.700000*%
%ADD17O,1.700000X1.700000*%
%ADD18O,3.500120X1.998980*%
%ADD19R,1.300000X1.500000*%
%ADD20R,1.500000X1.300000*%
%ADD21R,2.000000X3.800000*%
%ADD22R,2.000000X1.500000*%
%ADD23R,0.900000X0.800000*%
%ADD24R,0.800000X0.900000*%
%ADD25R,3.500000X2.700000*%
%ADD26C,4.064000*%
%ADD27C,1.600000*%
%ADD28C,0.609600*%
%ADD29C,0.406400*%
%ADD30C,0.304800*%
%ADD31C,0.254000*%
G04 APERTURE END LIST*
D10*
D11*
X18034000Y-22352000D02*
X18542000Y-22352000D01*
X18034000Y-23431500D02*
X18034000Y-22352000D01*
X94742000Y-22352000D02*
X94742000Y-23431500D01*
X18034000Y-48831500D02*
X18034000Y-23431500D01*
X39878000Y-48831500D02*
X18034000Y-48831500D01*
X94742000Y-48831500D02*
X39878000Y-48831500D01*
X94742000Y-47307500D02*
X94742000Y-48831500D01*
X94742000Y-23431500D02*
X94742000Y-47307500D01*
X18542000Y-22352000D02*
X94742000Y-22352000D01*
D12*
X62801500Y-41338500D03*
D13*
X65341500Y-41338500D03*
X67881500Y-41338500D03*
X70421500Y-41338500D03*
X72961500Y-41338500D03*
X75501500Y-41338500D03*
X75501500Y-26098500D03*
X72961500Y-26098500D03*
X70421500Y-26098500D03*
X67881500Y-26098500D03*
X65341500Y-26098500D03*
X62801500Y-26098500D03*
D10*
G36*
X56672243Y-34861036D02*
X56283334Y-35249945D01*
X55151963Y-34118574D01*
X55540872Y-33729665D01*
X56672243Y-34861036D01*
X56672243Y-34861036D01*
G37*
G36*
X56106557Y-35426721D02*
X55717648Y-35815630D01*
X54586277Y-34684259D01*
X54975186Y-34295350D01*
X56106557Y-35426721D01*
X56106557Y-35426721D01*
G37*
G36*
X55540872Y-35992407D02*
X55151963Y-36381316D01*
X54020592Y-35249945D01*
X54409501Y-34861036D01*
X55540872Y-35992407D01*
X55540872Y-35992407D01*
G37*
G36*
X54975187Y-36558092D02*
X54586278Y-36947001D01*
X53454907Y-35815630D01*
X53843816Y-35426721D01*
X54975187Y-36558092D01*
X54975187Y-36558092D01*
G37*
G36*
X54409501Y-37123778D02*
X54020592Y-37512687D01*
X52889221Y-36381316D01*
X53278130Y-35992407D01*
X54409501Y-37123778D01*
X54409501Y-37123778D01*
G37*
G36*
X53843816Y-37689463D02*
X53454907Y-38078372D01*
X52323536Y-36947001D01*
X52712445Y-36558092D01*
X53843816Y-37689463D01*
X53843816Y-37689463D01*
G37*
G36*
X53278130Y-38255148D02*
X52889221Y-38644057D01*
X51757850Y-37512686D01*
X52146759Y-37123777D01*
X53278130Y-38255148D01*
X53278130Y-38255148D01*
G37*
G36*
X52712445Y-38820834D02*
X52323536Y-39209743D01*
X51192165Y-38078372D01*
X51581074Y-37689463D01*
X52712445Y-38820834D01*
X52712445Y-38820834D01*
G37*
G36*
X49530464Y-39209743D02*
X49141555Y-38820834D01*
X50272926Y-37689463D01*
X50661835Y-38078372D01*
X49530464Y-39209743D01*
X49530464Y-39209743D01*
G37*
G36*
X48964779Y-38644057D02*
X48575870Y-38255148D01*
X49707241Y-37123777D01*
X50096150Y-37512686D01*
X48964779Y-38644057D01*
X48964779Y-38644057D01*
G37*
G36*
X48399093Y-38078372D02*
X48010184Y-37689463D01*
X49141555Y-36558092D01*
X49530464Y-36947001D01*
X48399093Y-38078372D01*
X48399093Y-38078372D01*
G37*
G36*
X47833408Y-37512687D02*
X47444499Y-37123778D01*
X48575870Y-35992407D01*
X48964779Y-36381316D01*
X47833408Y-37512687D01*
X47833408Y-37512687D01*
G37*
G36*
X47267722Y-36947001D02*
X46878813Y-36558092D01*
X48010184Y-35426721D01*
X48399093Y-35815630D01*
X47267722Y-36947001D01*
X47267722Y-36947001D01*
G37*
G36*
X46702037Y-36381316D02*
X46313128Y-35992407D01*
X47444499Y-34861036D01*
X47833408Y-35249945D01*
X46702037Y-36381316D01*
X46702037Y-36381316D01*
G37*
G36*
X46136352Y-35815630D02*
X45747443Y-35426721D01*
X46878814Y-34295350D01*
X47267723Y-34684259D01*
X46136352Y-35815630D01*
X46136352Y-35815630D01*
G37*
G36*
X45570666Y-35249945D02*
X45181757Y-34861036D01*
X46313128Y-33729665D01*
X46702037Y-34118574D01*
X45570666Y-35249945D01*
X45570666Y-35249945D01*
G37*
G36*
X46702037Y-32810426D02*
X46313128Y-33199335D01*
X45181757Y-32067964D01*
X45570666Y-31679055D01*
X46702037Y-32810426D01*
X46702037Y-32810426D01*
G37*
G36*
X47267723Y-32244741D02*
X46878814Y-32633650D01*
X45747443Y-31502279D01*
X46136352Y-31113370D01*
X47267723Y-32244741D01*
X47267723Y-32244741D01*
G37*
G36*
X47833408Y-31679055D02*
X47444499Y-32067964D01*
X46313128Y-30936593D01*
X46702037Y-30547684D01*
X47833408Y-31679055D01*
X47833408Y-31679055D01*
G37*
G36*
X48399093Y-31113370D02*
X48010184Y-31502279D01*
X46878813Y-30370908D01*
X47267722Y-29981999D01*
X48399093Y-31113370D01*
X48399093Y-31113370D01*
G37*
G36*
X48964779Y-30547684D02*
X48575870Y-30936593D01*
X47444499Y-29805222D01*
X47833408Y-29416313D01*
X48964779Y-30547684D01*
X48964779Y-30547684D01*
G37*
G36*
X49530464Y-29981999D02*
X49141555Y-30370908D01*
X48010184Y-29239537D01*
X48399093Y-28850628D01*
X49530464Y-29981999D01*
X49530464Y-29981999D01*
G37*
G36*
X50096150Y-29416314D02*
X49707241Y-29805223D01*
X48575870Y-28673852D01*
X48964779Y-28284943D01*
X50096150Y-29416314D01*
X50096150Y-29416314D01*
G37*
G36*
X50661835Y-28850628D02*
X50272926Y-29239537D01*
X49141555Y-28108166D01*
X49530464Y-27719257D01*
X50661835Y-28850628D01*
X50661835Y-28850628D01*
G37*
G36*
X51581074Y-29239537D02*
X51192165Y-28850628D01*
X52323536Y-27719257D01*
X52712445Y-28108166D01*
X51581074Y-29239537D01*
X51581074Y-29239537D01*
G37*
G36*
X52146759Y-29805223D02*
X51757850Y-29416314D01*
X52889221Y-28284943D01*
X53278130Y-28673852D01*
X52146759Y-29805223D01*
X52146759Y-29805223D01*
G37*
G36*
X52712445Y-30370908D02*
X52323536Y-29981999D01*
X53454907Y-28850628D01*
X53843816Y-29239537D01*
X52712445Y-30370908D01*
X52712445Y-30370908D01*
G37*
G36*
X53278130Y-30936593D02*
X52889221Y-30547684D01*
X54020592Y-29416313D01*
X54409501Y-29805222D01*
X53278130Y-30936593D01*
X53278130Y-30936593D01*
G37*
G36*
X53843816Y-31502279D02*
X53454907Y-31113370D01*
X54586278Y-29981999D01*
X54975187Y-30370908D01*
X53843816Y-31502279D01*
X53843816Y-31502279D01*
G37*
G36*
X54409501Y-32067964D02*
X54020592Y-31679055D01*
X55151963Y-30547684D01*
X55540872Y-30936593D01*
X54409501Y-32067964D01*
X54409501Y-32067964D01*
G37*
G36*
X54975186Y-32633650D02*
X54586277Y-32244741D01*
X55717648Y-31113370D01*
X56106557Y-31502279D01*
X54975186Y-32633650D01*
X54975186Y-32633650D01*
G37*
G36*
X55540872Y-33199335D02*
X55151963Y-32810426D01*
X56283334Y-31679055D01*
X56672243Y-32067964D01*
X55540872Y-33199335D01*
X55540872Y-33199335D01*
G37*
D14*
X29083000Y-40279000D03*
X29083000Y-42779000D03*
X40195500Y-44386500D03*
X40195500Y-46886500D03*
D10*
G36*
X44798529Y-31332855D02*
X43914645Y-30448971D01*
X44975305Y-29388311D01*
X45859189Y-30272195D01*
X44798529Y-31332855D01*
X44798529Y-31332855D01*
G37*
G36*
X46566295Y-29565089D02*
X45682411Y-28681205D01*
X46743071Y-27620545D01*
X47626955Y-28504429D01*
X46566295Y-29565089D01*
X46566295Y-29565089D01*
G37*
D15*
X31369000Y-29019500D03*
X28869000Y-29019500D03*
D16*
X35687000Y-34417000D03*
D17*
X38227000Y-34417000D03*
X35687000Y-31877000D03*
X38227000Y-31877000D03*
X35687000Y-29337000D03*
X38227000Y-29337000D03*
D18*
X23114000Y-41683940D03*
X23114000Y-45184060D03*
X23114000Y-31965900D03*
X23114000Y-35466020D03*
D16*
X33528000Y-45974000D03*
X29845000Y-45974000D03*
X37211000Y-45974000D03*
X46418500Y-40322500D03*
X44323000Y-38163500D03*
X41592500Y-37020500D03*
D10*
G36*
X49597918Y-26987500D02*
X50800000Y-25785418D01*
X52002082Y-26987500D01*
X50800000Y-28189582D01*
X49597918Y-26987500D01*
X49597918Y-26987500D01*
G37*
D19*
X41529000Y-30068500D03*
X41529000Y-27368500D03*
D20*
X31496000Y-30670500D03*
X28796000Y-30670500D03*
X31496000Y-32575500D03*
X28796000Y-32575500D03*
X31496000Y-34480500D03*
X28796000Y-34480500D03*
D21*
X38062047Y-40453000D03*
D22*
X31762047Y-40453000D03*
X31762047Y-38153000D03*
X31762047Y-42753000D03*
D13*
X55753000Y-44005500D03*
X50853000Y-44005500D03*
D10*
G36*
X54902612Y-40469272D02*
X54018728Y-39585388D01*
X55079388Y-38524728D01*
X55963272Y-39408612D01*
X54902612Y-40469272D01*
X54902612Y-40469272D01*
G37*
G36*
X56670378Y-38701506D02*
X55786494Y-37817622D01*
X56847154Y-36756962D01*
X57731038Y-37640846D01*
X56670378Y-38701506D01*
X56670378Y-38701506D01*
G37*
D23*
X79851000Y-40134500D03*
X79851000Y-42034500D03*
X77851000Y-41084500D03*
D24*
X74292500Y-29876500D03*
X72392500Y-29876500D03*
X73342500Y-27876500D03*
X70609500Y-29876500D03*
X68709500Y-29876500D03*
X69659500Y-27876500D03*
D23*
X60484000Y-29461500D03*
X60484000Y-27561500D03*
X62484000Y-28511500D03*
D19*
X81661000Y-39052500D03*
X81661000Y-41752500D03*
X64897000Y-28130500D03*
X64897000Y-30830500D03*
X66865500Y-28130500D03*
X66865500Y-30830500D03*
X78740000Y-26827500D03*
X78740000Y-29527500D03*
X73660000Y-39339500D03*
X73660000Y-36639500D03*
X71755000Y-39339500D03*
X71755000Y-36639500D03*
D20*
X67183000Y-37274500D03*
X64483000Y-37274500D03*
X64960500Y-39243000D03*
X62260500Y-39243000D03*
X63754000Y-43497500D03*
X61054000Y-43497500D03*
X76360000Y-31623000D03*
X73660000Y-31623000D03*
X71534000Y-31623000D03*
X68834000Y-31623000D03*
D19*
X58801000Y-29306500D03*
X58801000Y-26606500D03*
D25*
X32956500Y-25971500D03*
X26156500Y-25971500D03*
D26*
X21272500Y-26670000D03*
X91630500Y-45720000D03*
D27*
X43915729Y-28270334D03*
X56747472Y-29094371D03*
D28*
X31762047Y-38153000D02*
X30143348Y-38153000D01*
X30143348Y-38153000D02*
X29083000Y-39213348D01*
X29083000Y-39213348D02*
X29083000Y-40279000D01*
X26197560Y-41683940D02*
X27602500Y-40279000D01*
X27602500Y-40279000D02*
X29083000Y-40279000D01*
X23114000Y-41683940D02*
X26197560Y-41683940D01*
D29*
X44005500Y-25844500D02*
X39052500Y-25844500D01*
X38227000Y-29337000D02*
X38227000Y-26670000D01*
X38227000Y-26670000D02*
X39052500Y-25844500D01*
D30*
X67437000Y-29527500D02*
X62009918Y-29527500D01*
D29*
X68675000Y-29876500D02*
X68326000Y-29527500D01*
X68326000Y-29527500D02*
X67437000Y-29527500D01*
X68709500Y-29876500D02*
X68675000Y-29876500D01*
D30*
X72392500Y-29876500D02*
X72392500Y-30049132D01*
X72392500Y-30049132D02*
X73660000Y-31316632D01*
X73660000Y-31316632D02*
X73660000Y-31623000D01*
X59630542Y-26708042D02*
X60484000Y-27561500D01*
X68934000Y-31623000D02*
X68834000Y-31623000D01*
X70124743Y-32813743D02*
X68934000Y-31623000D01*
X73424057Y-32813743D02*
X70124743Y-32813743D01*
X73660000Y-32577800D02*
X73424057Y-32813743D01*
X73660000Y-32577800D02*
X73895943Y-32813743D01*
X62009918Y-29527500D02*
X61238800Y-28756382D01*
X61238800Y-28756382D02*
X61238800Y-28266300D01*
X61238800Y-28266300D02*
X60534000Y-27561500D01*
X60534000Y-27561500D02*
X60484000Y-27561500D01*
X73660000Y-31623000D02*
X73660000Y-32577800D01*
D28*
X29845000Y-45974000D02*
X33528000Y-45974000D01*
X29083000Y-42779000D02*
X31736047Y-42779000D01*
X31736047Y-42779000D02*
X31762047Y-42753000D01*
X31762047Y-42753000D02*
X31762047Y-44208047D01*
X29083000Y-42779000D02*
X29083000Y-45212000D01*
X29083000Y-45212000D02*
X29845000Y-45974000D01*
X26797000Y-43860720D02*
X26797000Y-43830400D01*
X26797000Y-43830400D02*
X27848400Y-42779000D01*
X27848400Y-42779000D02*
X29083000Y-42779000D01*
X23114000Y-45184060D02*
X25473660Y-45184060D01*
X25473660Y-45184060D02*
X26797000Y-43860720D01*
D29*
X46355000Y-28194000D02*
X44005500Y-25844500D01*
X46355000Y-28194000D02*
X46355000Y-28326814D01*
X46355000Y-28326814D02*
X48204639Y-30176453D01*
D30*
X58801000Y-27114500D02*
X59207458Y-26708042D01*
X59207458Y-26708042D02*
X59630542Y-26708042D01*
D29*
X48204639Y-30176453D02*
X52950441Y-34922255D01*
X52950441Y-34922255D02*
X53014579Y-34922255D01*
X53014579Y-34922255D02*
X52832000Y-35104834D01*
X52832000Y-35104834D02*
X52832000Y-35115500D01*
X53340000Y-34607500D02*
X53767056Y-34607500D01*
X53767056Y-34607500D02*
X54780732Y-35621176D01*
X52832000Y-35115500D02*
X53340000Y-34607500D01*
X52832000Y-35935186D02*
X52832000Y-35115500D01*
X53649361Y-36752547D02*
X52832000Y-35935186D01*
X54780732Y-35621176D02*
X54780732Y-35751200D01*
X54780732Y-35751200D02*
X56758766Y-37729234D01*
D30*
X68709500Y-29876500D02*
X68709500Y-31498500D01*
X68709500Y-31498500D02*
X68834000Y-31623000D01*
X41529000Y-31115000D02*
X41529000Y-30068500D01*
X38227000Y-34417000D02*
X41529000Y-31115000D01*
D29*
X54991000Y-39497000D02*
X55795961Y-40301961D01*
X57454189Y-40301961D02*
X61808689Y-35947461D01*
X55795961Y-40301961D02*
X57454189Y-40301961D01*
X61808689Y-35947461D02*
X68652562Y-35947461D01*
X57093538Y-47238263D02*
X48663234Y-47238263D01*
X68652562Y-35947461D02*
X69150702Y-36445601D01*
X69150702Y-36445601D02*
X69150702Y-43389841D01*
X48663234Y-47238263D02*
X47064954Y-45639983D01*
X69150702Y-43389841D02*
X67428515Y-45112028D01*
X41571383Y-45639983D02*
X41036400Y-45105000D01*
X67428515Y-45112028D02*
X59219773Y-45112028D01*
X59219773Y-45112028D02*
X57093538Y-47238263D01*
X47064954Y-45639983D02*
X41571383Y-45639983D01*
X41036400Y-45105000D02*
X40005000Y-45105000D01*
X41529000Y-30068500D02*
X42936714Y-30068500D01*
X43228797Y-30360583D02*
X44886917Y-30360583D01*
X42936714Y-30068500D02*
X43228797Y-30360583D01*
X44886917Y-30360583D02*
X44994656Y-30360583D01*
X44994656Y-30360583D02*
X46507583Y-31873510D01*
X46507583Y-31873510D02*
X46399844Y-31873510D01*
X54892862Y-36864676D02*
X54215047Y-36186861D01*
X54892862Y-38642638D02*
X54892862Y-36864676D01*
X54817944Y-38717556D02*
X54892862Y-38642638D01*
X54483000Y-38717556D02*
X54817944Y-38717556D01*
D28*
X38062047Y-40453000D02*
X38062047Y-45122953D01*
X31762047Y-40453000D02*
X33371647Y-40453000D01*
X33371647Y-40453000D02*
X38062047Y-40453000D01*
X40005000Y-45105000D02*
X38080000Y-45105000D01*
D29*
X53083676Y-37318232D02*
X51308000Y-35542556D01*
X51308000Y-35542556D02*
X50176629Y-35542556D01*
X50176629Y-35542556D02*
X47143978Y-32509905D01*
X47143978Y-32509905D02*
X46507583Y-31873510D01*
X54483000Y-38717556D02*
X53083676Y-37318232D01*
X54991000Y-39225556D02*
X54483000Y-38717556D01*
X54991000Y-39497000D02*
X54991000Y-39225556D01*
X31369000Y-27559000D02*
X32956500Y-25971500D01*
X31369000Y-29019500D02*
X31369000Y-27559000D01*
X49336010Y-29045083D02*
X45466000Y-25175073D01*
X45466000Y-25175073D02*
X36380385Y-25175073D01*
X36380385Y-25175073D02*
X35583958Y-25971500D01*
X35583958Y-25971500D02*
X32956500Y-25971500D01*
X31496000Y-32575500D02*
X31496000Y-30670500D01*
X31496000Y-30670500D02*
X31496000Y-29146500D01*
X31496000Y-29146500D02*
X31369000Y-29019500D01*
D30*
X45941897Y-34489805D02*
X45373114Y-35058588D01*
X35687000Y-35571800D02*
X35687000Y-34417000D01*
X45373114Y-35058588D02*
X40335848Y-35058588D01*
X40335848Y-35058588D02*
X38818426Y-36576010D01*
X38818426Y-36576010D02*
X36691210Y-36576010D01*
X36691210Y-36576010D02*
X35687000Y-35571800D01*
X35687000Y-31877000D02*
X36962595Y-33152595D01*
X36962595Y-33152595D02*
X36962595Y-35180592D01*
X36962595Y-35180592D02*
X37596003Y-35814000D01*
X37596003Y-35814000D02*
X38798500Y-35814000D01*
X38798500Y-35814000D02*
X42862500Y-31750000D01*
X42862500Y-31750000D02*
X45252702Y-31750000D01*
X45252702Y-31750000D02*
X45305502Y-31802800D01*
X45305502Y-31802800D02*
X45941897Y-32439195D01*
X45941897Y-32439195D02*
X45409628Y-31906926D01*
X46507583Y-35055490D02*
X45871188Y-35691885D01*
X45871188Y-35691885D02*
X40420987Y-35691885D01*
X34244433Y-31287567D02*
X34925000Y-30607000D01*
X40420987Y-35691885D02*
X38902004Y-37210868D01*
X38902004Y-37210868D02*
X36168576Y-37210868D01*
X36468072Y-30607000D02*
X37738072Y-31877000D01*
X36168576Y-37210868D02*
X34244433Y-35286725D01*
X34244433Y-35286725D02*
X34244433Y-31287567D01*
X34925000Y-30607000D02*
X36468072Y-30607000D01*
X37738072Y-31877000D02*
X38227000Y-31877000D01*
X35687000Y-29337000D02*
X36185198Y-29337000D01*
X36185198Y-29337000D02*
X37445047Y-30596849D01*
X37445047Y-30596849D02*
X39253151Y-30596849D01*
X40496098Y-27368500D02*
X41529000Y-27368500D01*
X39253151Y-30596849D02*
X39895316Y-29954684D01*
X39895316Y-29954684D02*
X39895316Y-27969282D01*
X39895316Y-27969282D02*
X40496098Y-27368500D01*
X43115730Y-27470335D02*
X43915729Y-28270334D01*
X41529000Y-27368500D02*
X43013895Y-27368500D01*
X43013895Y-27368500D02*
X43115730Y-27470335D01*
D31*
X55862815Y-29094371D02*
X56747472Y-29094371D01*
X54215047Y-30742139D02*
X55862815Y-29094371D01*
D29*
X31496000Y-34480500D02*
X31496000Y-35536900D01*
X31496000Y-35536900D02*
X31155400Y-35877500D01*
X31155400Y-35877500D02*
X27019902Y-35877500D01*
X27019902Y-35877500D02*
X26602361Y-35459959D01*
X26596300Y-35466020D02*
X23114000Y-35466020D01*
X26602361Y-35459959D02*
X26596300Y-35466020D01*
D30*
X46418500Y-39179500D02*
X46418500Y-40322500D01*
X48204639Y-36752547D02*
X46418500Y-38538686D01*
X46418500Y-38538686D02*
X46418500Y-39179500D01*
X47638953Y-36186861D02*
X45662314Y-38163500D01*
X45662314Y-38163500D02*
X44323000Y-38163500D01*
X41592500Y-37020500D02*
X42747300Y-37020500D01*
X42747300Y-37020500D02*
X43201147Y-36566653D01*
X43201147Y-36566653D02*
X46127791Y-36566653D01*
X46127791Y-36566653D02*
X47073268Y-35621176D01*
X50800000Y-26987500D02*
X50800000Y-27581092D01*
X50800000Y-27581092D02*
X49901695Y-28479397D01*
X51952305Y-28479397D02*
X56841937Y-23589765D01*
X56841937Y-23589765D02*
X70783467Y-23589765D01*
X70783467Y-23589765D02*
X71170579Y-23976877D01*
X71170579Y-23976877D02*
X80555377Y-23976877D01*
X80555377Y-23976877D02*
X81661000Y-25082500D01*
X81661000Y-25082500D02*
X81661000Y-37997700D01*
X81661000Y-37997700D02*
X81661000Y-39052500D01*
X81661000Y-39052500D02*
X80567875Y-39052500D01*
X80567875Y-39052500D02*
X79851000Y-39769375D01*
X79851000Y-39769375D02*
X79851000Y-40134500D01*
X74292500Y-29826500D02*
X73310180Y-28844180D01*
X71666243Y-28168743D02*
X71666243Y-25190977D01*
X74292500Y-29876500D02*
X74292500Y-29826500D01*
X73310180Y-28844180D02*
X72341680Y-28844180D01*
X72341680Y-28844180D02*
X71666243Y-28168743D01*
X71666243Y-25190977D02*
X70693319Y-24218053D01*
X70693319Y-24218053D02*
X57345020Y-24218053D01*
X57345020Y-24218053D02*
X53154385Y-28408688D01*
X53154385Y-28408688D02*
X52517990Y-29045083D01*
X74292500Y-29876500D02*
X75293825Y-29876500D01*
X75293825Y-29876500D02*
X76360000Y-30942675D01*
X76360000Y-30942675D02*
X76360000Y-31623000D01*
X68515151Y-24726064D02*
X69203223Y-25414136D01*
X69203223Y-25414136D02*
X69203223Y-26842695D01*
X68707000Y-27338918D02*
X68707000Y-28521526D01*
X69137101Y-28951627D02*
X70242567Y-28951627D01*
X53083676Y-29610768D02*
X57968380Y-24726064D01*
X57968380Y-24726064D02*
X68515151Y-24726064D01*
X69203223Y-26842695D02*
X68707000Y-27338918D01*
X68707000Y-28521526D02*
X69137101Y-28951627D01*
X70242567Y-28951627D02*
X70609500Y-29318560D01*
X70609500Y-29318560D02*
X70609500Y-29876500D01*
X71534000Y-31623000D02*
X71534000Y-30801000D01*
X71534000Y-30801000D02*
X70609500Y-29876500D01*
X57702477Y-27830246D02*
X55995568Y-27830246D01*
X58701000Y-29306500D02*
X58701000Y-28828769D01*
X58701000Y-28828769D02*
X57702477Y-27830246D01*
X54285756Y-29540058D02*
X53649361Y-30176453D01*
X55995568Y-27830246D02*
X54285756Y-29540058D01*
X58801000Y-29306500D02*
X60329000Y-29306500D01*
X60329000Y-29306500D02*
X60484000Y-29461500D01*
X64897000Y-30830500D02*
X63942200Y-30830500D01*
X59231390Y-30671429D02*
X55417127Y-30671429D01*
X63942200Y-30830500D02*
X62585173Y-32187527D01*
X62585173Y-32187527D02*
X60747488Y-32187527D01*
X60747488Y-32187527D02*
X59231390Y-30671429D01*
X55417127Y-30671429D02*
X54780732Y-31307824D01*
D29*
X28796000Y-34480500D02*
X28796000Y-32575500D01*
D30*
X55346417Y-31873510D02*
X55995521Y-31224406D01*
X55995521Y-31224406D02*
X58949094Y-31224406D01*
X58949094Y-31224406D02*
X60543744Y-32819056D01*
X60543744Y-32819056D02*
X64976944Y-32819056D01*
X64976944Y-32819056D02*
X66865500Y-30930500D01*
X66865500Y-30930500D02*
X66865500Y-30830500D01*
X72423822Y-33371322D02*
X74104500Y-35052000D01*
X60100793Y-33371322D02*
X72423822Y-33371322D01*
X78740000Y-30582300D02*
X78740000Y-29527500D01*
X55912103Y-32439195D02*
X56618882Y-31732416D01*
X56618882Y-31732416D02*
X58461887Y-31732416D01*
X58461887Y-31732416D02*
X60100793Y-33371322D01*
X74104500Y-35052000D02*
X77406500Y-35052000D01*
X77406500Y-35052000D02*
X78740000Y-33718500D01*
X78740000Y-33718500D02*
X78740000Y-30582300D01*
X55753000Y-44005500D02*
X55753000Y-42944840D01*
X55753000Y-42944840D02*
X53594000Y-40785840D01*
X53594000Y-40785840D02*
X53594000Y-38959927D01*
X53594000Y-38959927D02*
X52517990Y-37883917D01*
X50853000Y-44005500D02*
X50853000Y-43011950D01*
X50853000Y-43011950D02*
X52705000Y-41159950D01*
X52705000Y-41159950D02*
X52705000Y-39202298D01*
X52705000Y-39202298D02*
X51952305Y-38449603D01*
X77851000Y-41084500D02*
X75755500Y-41084500D01*
X75755500Y-41084500D02*
X75501500Y-41338500D01*
X75758000Y-41082000D02*
X75501500Y-41338500D01*
X73342500Y-27876500D02*
X73342500Y-26479500D01*
X73342500Y-26479500D02*
X72961500Y-26098500D01*
X69659500Y-27876500D02*
X70089491Y-27876500D01*
X70089491Y-27876500D02*
X70413657Y-27552334D01*
X70413657Y-27552334D02*
X70413657Y-26106343D01*
X70413657Y-26106343D02*
X70421500Y-26098500D01*
X62801500Y-26098500D02*
X62801500Y-28194000D01*
X62801500Y-28194000D02*
X62484000Y-28511500D01*
D31*
X64897000Y-28130500D02*
X64897000Y-26543000D01*
X64897000Y-26543000D02*
X65341500Y-26098500D01*
D30*
X66865500Y-28130500D02*
X66865500Y-27268000D01*
X66865500Y-27268000D02*
X67881500Y-26252000D01*
X67881500Y-26252000D02*
X67881500Y-26098500D01*
D31*
X76581000Y-26098500D02*
X77310000Y-26827500D01*
X77310000Y-26827500D02*
X78740000Y-26827500D01*
X75501500Y-26098500D02*
X76581000Y-26098500D01*
D30*
X73660000Y-39339500D02*
X73660000Y-40640000D01*
X73660000Y-40640000D02*
X72961500Y-41338500D01*
X72961500Y-41338500D02*
X72961500Y-41150398D01*
X58964172Y-33879332D02*
X72042832Y-33879332D01*
X57714824Y-35128680D02*
X58964172Y-33879332D01*
X55912103Y-34489805D02*
X56550978Y-35128680D01*
X56550978Y-35128680D02*
X57714824Y-35128680D01*
X72042832Y-33879332D02*
X73660000Y-35496500D01*
X73660000Y-35496500D02*
X73660000Y-36639500D01*
X73660000Y-36639500D02*
X73660000Y-36539500D01*
X71755000Y-39339500D02*
X71755000Y-40005000D01*
X71755000Y-40005000D02*
X70421500Y-41338500D01*
X70421500Y-41338500D02*
X70421500Y-41308000D01*
X55346417Y-35055490D02*
X55982812Y-35691885D01*
X55982812Y-35691885D02*
X57970615Y-35691885D01*
X57970615Y-35691885D02*
X59156654Y-34505846D01*
X59156654Y-34505846D02*
X71018346Y-34505846D01*
X71018346Y-34505846D02*
X71755000Y-35242500D01*
X71755000Y-35242500D02*
X71755000Y-35584700D01*
X71755000Y-35584700D02*
X71755000Y-36639500D01*
X67881500Y-39560500D02*
X67183000Y-38862000D01*
X67183000Y-38862000D02*
X67183000Y-37274500D01*
X67881500Y-41338500D02*
X67881500Y-39560500D01*
D31*
X67945000Y-41275000D02*
X67881500Y-41338500D01*
D30*
X49265300Y-44121800D02*
X49265300Y-39085998D01*
X49265300Y-39085998D02*
X49901695Y-38449603D01*
X58382362Y-40487138D02*
X61595000Y-37274500D01*
X61595000Y-37274500D02*
X64483000Y-37274500D01*
X58382362Y-43192260D02*
X58382362Y-40487138D01*
X56341757Y-45232865D02*
X50376365Y-45232865D01*
X58382362Y-43192260D02*
X56341757Y-45232865D01*
X50376365Y-45232865D02*
X49265300Y-44121800D01*
X65341500Y-41338500D02*
X65341500Y-39624000D01*
X65341500Y-39624000D02*
X64960500Y-39243000D01*
X48601618Y-44488772D02*
X48601618Y-38618309D01*
X62260500Y-39243000D02*
X61205700Y-39243000D01*
X48601618Y-38618309D02*
X49336010Y-37883917D01*
X61205700Y-39243000D02*
X59245500Y-41203200D01*
X59245500Y-41203200D02*
X59245500Y-43138744D01*
X59245500Y-43138744D02*
X56477766Y-45906478D01*
X56477766Y-45906478D02*
X50019324Y-45906478D01*
X50019324Y-45906478D02*
X48601618Y-44488772D01*
X62801500Y-41338500D02*
X62801500Y-42545000D01*
X62801500Y-42545000D02*
X63754000Y-43497500D01*
X62801500Y-41338500D02*
X62822580Y-41338500D01*
X47942885Y-44975660D02*
X47942885Y-38145671D01*
X48770324Y-37318232D02*
X47942885Y-38145671D01*
X59817000Y-43497500D02*
X61054000Y-43497500D01*
X47942885Y-44975660D02*
X49460834Y-46493609D01*
X49460834Y-46493609D02*
X56820891Y-46493609D01*
X56820891Y-46493609D02*
X59817000Y-43497500D01*
D31*
G36*
X94240000Y-44983008D02*
X94119317Y-44617429D01*
X93929967Y-44263180D01*
X93553823Y-44041336D01*
X91875159Y-45720000D01*
X93553823Y-47398664D01*
X93929967Y-47176820D01*
X94169995Y-46700224D01*
X94240000Y-46447472D01*
X94240000Y-48329500D01*
X92367492Y-48329500D01*
X92733071Y-48208817D01*
X93087320Y-48019467D01*
X93309164Y-47643323D01*
X91630500Y-45964659D01*
X89951836Y-47643323D01*
X90173680Y-48019467D01*
X90650276Y-48259495D01*
X90903028Y-48329500D01*
X18536000Y-48329500D01*
X18536000Y-45615791D01*
X20743483Y-45615791D01*
X20748351Y-45665793D01*
X20873366Y-45971623D01*
X21055643Y-46247187D01*
X21288178Y-46481896D01*
X21562034Y-46666730D01*
X21866687Y-46794586D01*
X22190430Y-46860550D01*
X22941000Y-46860550D01*
X22941000Y-45357060D01*
X23287000Y-45357060D01*
X23287000Y-46860550D01*
X24037570Y-46860550D01*
X24361313Y-46794586D01*
X24665966Y-46666730D01*
X24939822Y-46481896D01*
X25103933Y-46316250D01*
X28318000Y-46316250D01*
X28318000Y-46890678D01*
X28344017Y-47021473D01*
X28395050Y-47144679D01*
X28469140Y-47255562D01*
X28563437Y-47349860D01*
X28674320Y-47423949D01*
X28797526Y-47474983D01*
X28928321Y-47501000D01*
X29502750Y-47501000D01*
X29672000Y-47331750D01*
X29672000Y-46147000D01*
X30018000Y-46147000D01*
X30018000Y-47331750D01*
X30187250Y-47501000D01*
X30761679Y-47501000D01*
X30892474Y-47474983D01*
X31015680Y-47423949D01*
X31126563Y-47349860D01*
X31220860Y-47255562D01*
X31294950Y-47144679D01*
X31345983Y-47021473D01*
X31372000Y-46890678D01*
X31372000Y-46316250D01*
X32001000Y-46316250D01*
X32001000Y-46890678D01*
X32027017Y-47021473D01*
X32078050Y-47144679D01*
X32152140Y-47255562D01*
X32246437Y-47349860D01*
X32357320Y-47423949D01*
X32480526Y-47474983D01*
X32611321Y-47501000D01*
X33185750Y-47501000D01*
X33355000Y-47331750D01*
X33355000Y-46147000D01*
X32170250Y-46147000D01*
X32001000Y-46316250D01*
X31372000Y-46316250D01*
X31202750Y-46147000D01*
X30018000Y-46147000D01*
X29672000Y-46147000D01*
X28487250Y-46147000D01*
X28318000Y-46316250D01*
X25103933Y-46316250D01*
X25172357Y-46247187D01*
X25354634Y-45971623D01*
X25479649Y-45665793D01*
X25484517Y-45615791D01*
X25361849Y-45357060D01*
X23287000Y-45357060D01*
X22941000Y-45357060D01*
X20866151Y-45357060D01*
X20743483Y-45615791D01*
X18536000Y-45615791D01*
X18536000Y-45057322D01*
X28318000Y-45057322D01*
X28318000Y-45631750D01*
X28487250Y-45801000D01*
X29672000Y-45801000D01*
X29672000Y-44616250D01*
X30018000Y-44616250D01*
X30018000Y-45801000D01*
X31202750Y-45801000D01*
X31372000Y-45631750D01*
X31372000Y-45057322D01*
X31345983Y-44926527D01*
X31294950Y-44803321D01*
X31220860Y-44692438D01*
X31126563Y-44598140D01*
X31015680Y-44524051D01*
X30892474Y-44473017D01*
X30761679Y-44447000D01*
X30187250Y-44447000D01*
X30018000Y-44616250D01*
X29672000Y-44616250D01*
X29502750Y-44447000D01*
X28928321Y-44447000D01*
X28797526Y-44473017D01*
X28674320Y-44524051D01*
X28563437Y-44598140D01*
X28469140Y-44692438D01*
X28395050Y-44803321D01*
X28344017Y-44926527D01*
X28318000Y-45057322D01*
X18536000Y-45057322D01*
X18536000Y-44752329D01*
X20743483Y-44752329D01*
X20866151Y-45011060D01*
X22941000Y-45011060D01*
X22941000Y-43507570D01*
X23287000Y-43507570D01*
X23287000Y-45011060D01*
X25361849Y-45011060D01*
X25484517Y-44752329D01*
X25479649Y-44702327D01*
X25354634Y-44396497D01*
X25172357Y-44120933D01*
X24939822Y-43886224D01*
X24665966Y-43701390D01*
X24361313Y-43573534D01*
X24037570Y-43507570D01*
X23287000Y-43507570D01*
X22941000Y-43507570D01*
X22190430Y-43507570D01*
X21866687Y-43573534D01*
X21562034Y-43701390D01*
X21288178Y-43886224D01*
X21055643Y-44120933D01*
X20873366Y-44396497D01*
X20748351Y-44702327D01*
X20743483Y-44752329D01*
X18536000Y-44752329D01*
X18536000Y-43121250D01*
X27781000Y-43121250D01*
X27781000Y-43595679D01*
X27807017Y-43726474D01*
X27858051Y-43849680D01*
X27932140Y-43960563D01*
X28026438Y-44054860D01*
X28137321Y-44128950D01*
X28260527Y-44179983D01*
X28391322Y-44206000D01*
X28740750Y-44206000D01*
X28910000Y-44036750D01*
X28910000Y-42952000D01*
X29256000Y-42952000D01*
X29256000Y-44036750D01*
X29425250Y-44206000D01*
X29774678Y-44206000D01*
X29905473Y-44179983D01*
X30028679Y-44128950D01*
X30139562Y-44054860D01*
X30233860Y-43960563D01*
X30245207Y-43943582D01*
X30330484Y-44028860D01*
X30441367Y-44102949D01*
X30564573Y-44153983D01*
X30695368Y-44180000D01*
X31419797Y-44180000D01*
X31589047Y-44010750D01*
X31589047Y-42926000D01*
X30254297Y-42926000D01*
X30222024Y-42958274D01*
X30215750Y-42952000D01*
X29256000Y-42952000D01*
X28910000Y-42952000D01*
X27950250Y-42952000D01*
X27781000Y-43121250D01*
X18536000Y-43121250D01*
X18536000Y-41673981D01*
X20926441Y-41673981D01*
X20951673Y-41951238D01*
X21030278Y-42218313D01*
X21159260Y-42465033D01*
X21333708Y-42682003D01*
X21546976Y-42860956D01*
X21790942Y-42995077D01*
X22056312Y-43079258D01*
X22332979Y-43110291D01*
X22352896Y-43110430D01*
X23875104Y-43110430D01*
X24152177Y-43083263D01*
X24418697Y-43002796D01*
X24664512Y-42872094D01*
X24880258Y-42696136D01*
X25057718Y-42481623D01*
X25093341Y-42415740D01*
X26197560Y-42415740D01*
X26264838Y-42409143D01*
X26332175Y-42403252D01*
X26335869Y-42402179D01*
X26339701Y-42401803D01*
X26404431Y-42382260D01*
X26469327Y-42363406D01*
X26472743Y-42361635D01*
X26476427Y-42360523D01*
X26536143Y-42328771D01*
X26596126Y-42297679D01*
X26599130Y-42295281D01*
X26602532Y-42293472D01*
X26654929Y-42250738D01*
X26707745Y-42208576D01*
X26713105Y-42203291D01*
X26713211Y-42203204D01*
X26713292Y-42203106D01*
X26715021Y-42201401D01*
X27905622Y-41010800D01*
X28028934Y-41010800D01*
X28028934Y-41029000D01*
X28034356Y-41096998D01*
X28070073Y-41212330D01*
X28136506Y-41313146D01*
X28228287Y-41391371D01*
X28137321Y-41429050D01*
X28026438Y-41503140D01*
X27932140Y-41597437D01*
X27858051Y-41708320D01*
X27807017Y-41831526D01*
X27781000Y-41962321D01*
X27781000Y-42436750D01*
X27950250Y-42606000D01*
X28910000Y-42606000D01*
X28910000Y-42586000D01*
X29256000Y-42586000D01*
X29256000Y-42606000D01*
X30215750Y-42606000D01*
X30248024Y-42573727D01*
X30254297Y-42580000D01*
X31589047Y-42580000D01*
X31589047Y-42560000D01*
X31935047Y-42560000D01*
X31935047Y-42580000D01*
X31955047Y-42580000D01*
X31955047Y-42926000D01*
X31935047Y-42926000D01*
X31935047Y-44010750D01*
X32104297Y-44180000D01*
X32655579Y-44180000D01*
X32662068Y-44211825D01*
X32780546Y-44384235D01*
X32878659Y-44447000D01*
X32611321Y-44447000D01*
X32480526Y-44473017D01*
X32357320Y-44524051D01*
X32246437Y-44598140D01*
X32152140Y-44692438D01*
X32078050Y-44803321D01*
X32027017Y-44926527D01*
X32001000Y-45057322D01*
X32001000Y-45631750D01*
X32170250Y-45801000D01*
X33355000Y-45801000D01*
X33355000Y-45781000D01*
X33701000Y-45781000D01*
X33701000Y-45801000D01*
X33721000Y-45801000D01*
X33721000Y-46147000D01*
X33701000Y-46147000D01*
X33701000Y-47331750D01*
X33870250Y-47501000D01*
X34444679Y-47501000D01*
X34575474Y-47474983D01*
X34698680Y-47423949D01*
X34809563Y-47349860D01*
X34903860Y-47255562D01*
X34977950Y-47144679D01*
X35028983Y-47021473D01*
X35055000Y-46890678D01*
X35055000Y-46336031D01*
X35242500Y-46374000D01*
X35931934Y-46374000D01*
X35931934Y-46824000D01*
X35937356Y-46891998D01*
X35973073Y-47007330D01*
X36039506Y-47108146D01*
X36131395Y-47186463D01*
X36241465Y-47236079D01*
X36361000Y-47253066D01*
X38061000Y-47253066D01*
X38128998Y-47247644D01*
X38190007Y-47228750D01*
X38893500Y-47228750D01*
X38893500Y-47703179D01*
X38919517Y-47833974D01*
X38970551Y-47957180D01*
X39044640Y-48068063D01*
X39138938Y-48162360D01*
X39249821Y-48236450D01*
X39373027Y-48287483D01*
X39503822Y-48313500D01*
X39853250Y-48313500D01*
X40022500Y-48144250D01*
X40022500Y-47059500D01*
X40368500Y-47059500D01*
X40368500Y-48144250D01*
X40537750Y-48313500D01*
X40887178Y-48313500D01*
X41017973Y-48287483D01*
X41141179Y-48236450D01*
X41252062Y-48162360D01*
X41346360Y-48068063D01*
X41420449Y-47957180D01*
X41471483Y-47833974D01*
X41497500Y-47703179D01*
X41497500Y-47228750D01*
X41328250Y-47059500D01*
X40368500Y-47059500D01*
X40022500Y-47059500D01*
X39062750Y-47059500D01*
X38893500Y-47228750D01*
X38190007Y-47228750D01*
X38244330Y-47211927D01*
X38345146Y-47145494D01*
X38423463Y-47053605D01*
X38473079Y-46943535D01*
X38490066Y-46824000D01*
X38490066Y-46374000D01*
X38893500Y-46374000D01*
X38893500Y-46544250D01*
X39062750Y-46713500D01*
X40022500Y-46713500D01*
X40022500Y-46693500D01*
X40368500Y-46693500D01*
X40368500Y-46713500D01*
X41328250Y-46713500D01*
X41497500Y-46544250D01*
X41497500Y-46374000D01*
X46907733Y-46374000D01*
X48217615Y-47683882D01*
X48262594Y-47720828D01*
X48307192Y-47758250D01*
X48310097Y-47759847D01*
X48312656Y-47761949D01*
X48363948Y-47789452D01*
X48414972Y-47817502D01*
X48418130Y-47818504D01*
X48421051Y-47820070D01*
X48476673Y-47837075D01*
X48532208Y-47854692D01*
X48535507Y-47855062D01*
X48538670Y-47856029D01*
X48596453Y-47861898D01*
X48654435Y-47868402D01*
X48660926Y-47868447D01*
X48661034Y-47868458D01*
X48661135Y-47868448D01*
X48663234Y-47868463D01*
X57093538Y-47868463D01*
X57151437Y-47862786D01*
X57209465Y-47857709D01*
X57212648Y-47856784D01*
X57215944Y-47856461D01*
X57271651Y-47839642D01*
X57327574Y-47823395D01*
X57330516Y-47821870D01*
X57333689Y-47820912D01*
X57385085Y-47793584D01*
X57436770Y-47766793D01*
X57439361Y-47764725D01*
X57442285Y-47763170D01*
X57487349Y-47726417D01*
X57532892Y-47690060D01*
X57537512Y-47685504D01*
X57537598Y-47685434D01*
X57537664Y-47685354D01*
X57539157Y-47683882D01*
X59436824Y-45786214D01*
X88909197Y-45786214D01*
X88974404Y-46315841D01*
X89141683Y-46822571D01*
X89331033Y-47176820D01*
X89707177Y-47398664D01*
X91385841Y-45720000D01*
X89707177Y-44041336D01*
X89331033Y-44263180D01*
X89091005Y-44739776D01*
X88948568Y-45254042D01*
X88909197Y-45786214D01*
X59436824Y-45786214D01*
X59480810Y-45742228D01*
X67428515Y-45742228D01*
X67486414Y-45736551D01*
X67544442Y-45731474D01*
X67547625Y-45730549D01*
X67550921Y-45730226D01*
X67606628Y-45713407D01*
X67662551Y-45697160D01*
X67665493Y-45695635D01*
X67668666Y-45694677D01*
X67720062Y-45667349D01*
X67771747Y-45640558D01*
X67774338Y-45638490D01*
X67777262Y-45636935D01*
X67822326Y-45600182D01*
X67867869Y-45563825D01*
X67872489Y-45559269D01*
X67872575Y-45559199D01*
X67872641Y-45559119D01*
X67874134Y-45557647D01*
X69596321Y-43835460D01*
X69628177Y-43796677D01*
X89951836Y-43796677D01*
X91630500Y-45475341D01*
X93309164Y-43796677D01*
X93087320Y-43420533D01*
X92610724Y-43180505D01*
X92096458Y-43038068D01*
X91564286Y-42998697D01*
X91034659Y-43063904D01*
X90527929Y-43231183D01*
X90173680Y-43420533D01*
X89951836Y-43796677D01*
X69628177Y-43796677D01*
X69633267Y-43790481D01*
X69670689Y-43745883D01*
X69672286Y-43742978D01*
X69674388Y-43740419D01*
X69701891Y-43689127D01*
X69729941Y-43638103D01*
X69730943Y-43634945D01*
X69732509Y-43632024D01*
X69749527Y-43576361D01*
X69767131Y-43520867D01*
X69767501Y-43517573D01*
X69768469Y-43514405D01*
X69774343Y-43456573D01*
X69780841Y-43398640D01*
X69780886Y-43392149D01*
X69780897Y-43392041D01*
X69780887Y-43391940D01*
X69780902Y-43389841D01*
X69780902Y-42326692D01*
X69844511Y-42370901D01*
X70056027Y-42463310D01*
X70281464Y-42512875D01*
X70512235Y-42517709D01*
X70739550Y-42477628D01*
X70954751Y-42394157D01*
X71149640Y-42270476D01*
X71316794Y-42111297D01*
X71449847Y-41922683D01*
X71543731Y-41711817D01*
X71594869Y-41486731D01*
X71598550Y-41223089D01*
X71558513Y-41020883D01*
X72060830Y-40518566D01*
X72116479Y-40518566D01*
X72055503Y-40578278D01*
X71925096Y-40768732D01*
X71834166Y-40980889D01*
X71786176Y-41206666D01*
X71782953Y-41437465D01*
X71824621Y-41664495D01*
X71909592Y-41879107D01*
X72034630Y-42073128D01*
X72194972Y-42239168D01*
X72384511Y-42370901D01*
X72596027Y-42463310D01*
X72821464Y-42512875D01*
X73052235Y-42517709D01*
X73279550Y-42477628D01*
X73494751Y-42394157D01*
X73689640Y-42270476D01*
X73856794Y-42111297D01*
X73989847Y-41922683D01*
X74083731Y-41711817D01*
X74134869Y-41486731D01*
X74135556Y-41437465D01*
X74322953Y-41437465D01*
X74364621Y-41664495D01*
X74449592Y-41879107D01*
X74574630Y-42073128D01*
X74734972Y-42239168D01*
X74924511Y-42370901D01*
X75136027Y-42463310D01*
X75361464Y-42512875D01*
X75592235Y-42517709D01*
X75819550Y-42477628D01*
X76034751Y-42394157D01*
X76062179Y-42376750D01*
X78724000Y-42376750D01*
X78724000Y-42501178D01*
X78750017Y-42631973D01*
X78801050Y-42755179D01*
X78875140Y-42866062D01*
X78969437Y-42960360D01*
X79080320Y-43034449D01*
X79203526Y-43085483D01*
X79334321Y-43111500D01*
X79508750Y-43111500D01*
X79678000Y-42942250D01*
X79678000Y-42207500D01*
X78893250Y-42207500D01*
X78724000Y-42376750D01*
X76062179Y-42376750D01*
X76229640Y-42270476D01*
X76396794Y-42111297D01*
X76529847Y-41922683D01*
X76623731Y-41711817D01*
X76634617Y-41663900D01*
X77011856Y-41663900D01*
X77013073Y-41667830D01*
X77079506Y-41768646D01*
X77171395Y-41846963D01*
X77281465Y-41896579D01*
X77401000Y-41913566D01*
X78301000Y-41913566D01*
X78368998Y-41908144D01*
X78484330Y-41872427D01*
X78585146Y-41805994D01*
X78663463Y-41714105D01*
X78713079Y-41604035D01*
X78730066Y-41484500D01*
X78730066Y-40684500D01*
X78724644Y-40616502D01*
X78688927Y-40501170D01*
X78622494Y-40400354D01*
X78530605Y-40322037D01*
X78420535Y-40272421D01*
X78301000Y-40255434D01*
X77401000Y-40255434D01*
X77333002Y-40260856D01*
X77217670Y-40296573D01*
X77116854Y-40363006D01*
X77038537Y-40454895D01*
X77015906Y-40505100D01*
X76332718Y-40505100D01*
X76255378Y-40427218D01*
X76064018Y-40298144D01*
X75851232Y-40208697D01*
X75625125Y-40162284D01*
X75394309Y-40160673D01*
X75167576Y-40203924D01*
X74953562Y-40290391D01*
X74760419Y-40416781D01*
X74595503Y-40578278D01*
X74465096Y-40768732D01*
X74374166Y-40980889D01*
X74326176Y-41206666D01*
X74322953Y-41437465D01*
X74135556Y-41437465D01*
X74138550Y-41223089D01*
X74097513Y-41015835D01*
X74103680Y-41008328D01*
X74138071Y-40967342D01*
X74139540Y-40964670D01*
X74141472Y-40962318D01*
X74166755Y-40915165D01*
X74192547Y-40868250D01*
X74193468Y-40865346D01*
X74194908Y-40862661D01*
X74210553Y-40811488D01*
X74226739Y-40760464D01*
X74227079Y-40757435D01*
X74227969Y-40754523D01*
X74233371Y-40701342D01*
X74239344Y-40648090D01*
X74239385Y-40642128D01*
X74239396Y-40642022D01*
X74239387Y-40641923D01*
X74239400Y-40640000D01*
X74239400Y-40518566D01*
X74310000Y-40518566D01*
X74377998Y-40513144D01*
X74493330Y-40477427D01*
X74594146Y-40410994D01*
X74672463Y-40319105D01*
X74722079Y-40209035D01*
X74739066Y-40089500D01*
X74739066Y-38589500D01*
X74733644Y-38521502D01*
X74697927Y-38406170D01*
X74631494Y-38305354D01*
X74539605Y-38227037D01*
X74429535Y-38177421D01*
X74310000Y-38160434D01*
X73010000Y-38160434D01*
X72942002Y-38165856D01*
X72826670Y-38201573D01*
X72725854Y-38268006D01*
X72707685Y-38289323D01*
X72634605Y-38227037D01*
X72524535Y-38177421D01*
X72405000Y-38160434D01*
X71105000Y-38160434D01*
X71037002Y-38165856D01*
X70921670Y-38201573D01*
X70820854Y-38268006D01*
X70742537Y-38359895D01*
X70692921Y-38469965D01*
X70675934Y-38589500D01*
X70675934Y-40089500D01*
X70681356Y-40157498D01*
X70692187Y-40192471D01*
X70545125Y-40162284D01*
X70314309Y-40160673D01*
X70087576Y-40203924D01*
X69873562Y-40290391D01*
X69780902Y-40351026D01*
X69780902Y-36445601D01*
X69775225Y-36387702D01*
X69770148Y-36329674D01*
X69769223Y-36326491D01*
X69768900Y-36323195D01*
X69752067Y-36267442D01*
X69735833Y-36211565D01*
X69734310Y-36208627D01*
X69733351Y-36205450D01*
X69706004Y-36154019D01*
X69679232Y-36102369D01*
X69677164Y-36099778D01*
X69675609Y-36096854D01*
X69638856Y-36051790D01*
X69602499Y-36006247D01*
X69597947Y-36001631D01*
X69597873Y-36001541D01*
X69597789Y-36001472D01*
X69596320Y-35999982D01*
X69098181Y-35501842D01*
X69053202Y-35464896D01*
X69008604Y-35427474D01*
X69005699Y-35425877D01*
X69003140Y-35423775D01*
X68951848Y-35396272D01*
X68900824Y-35368222D01*
X68897666Y-35367220D01*
X68894745Y-35365654D01*
X68839082Y-35348636D01*
X68783588Y-35331032D01*
X68780294Y-35330662D01*
X68777126Y-35329694D01*
X68719294Y-35323820D01*
X68661361Y-35317322D01*
X68654870Y-35317277D01*
X68654762Y-35317266D01*
X68654661Y-35317276D01*
X68652562Y-35317261D01*
X61808689Y-35317261D01*
X61750790Y-35322938D01*
X61692762Y-35328015D01*
X61689579Y-35328940D01*
X61686283Y-35329263D01*
X61630576Y-35346082D01*
X61574653Y-35362329D01*
X61571711Y-35363854D01*
X61568538Y-35364812D01*
X61517182Y-35392119D01*
X61465457Y-35418930D01*
X61462863Y-35421001D01*
X61459942Y-35422554D01*
X61414906Y-35459285D01*
X61369335Y-35495664D01*
X61364715Y-35500220D01*
X61364629Y-35500290D01*
X61364563Y-35500370D01*
X61363070Y-35501842D01*
X57193151Y-39671761D01*
X56300969Y-39671761D01*
X56310915Y-39660091D01*
X56367212Y-39553284D01*
X56391524Y-39435021D01*
X56381938Y-39314810D01*
X56472903Y-39352489D01*
X56603699Y-39378505D01*
X56737056Y-39378506D01*
X56867851Y-39352489D01*
X56991057Y-39301456D01*
X57101940Y-39227366D01*
X57437412Y-38891894D01*
X57437412Y-38652539D01*
X56758766Y-37973893D01*
X56744624Y-37988035D01*
X56499965Y-37743376D01*
X56514107Y-37729234D01*
X57003425Y-37729234D01*
X57682071Y-38407880D01*
X57921426Y-38407880D01*
X58256898Y-38072408D01*
X58330988Y-37961525D01*
X58382021Y-37838319D01*
X58408038Y-37707524D01*
X58408037Y-37574167D01*
X58382021Y-37443371D01*
X58330987Y-37320166D01*
X58256898Y-37209283D01*
X58009815Y-36962200D01*
X57770459Y-36962200D01*
X57003425Y-37729234D01*
X56514107Y-37729234D01*
X55835461Y-37050588D01*
X55596106Y-37050588D01*
X55523062Y-37123632D01*
X55523062Y-36947576D01*
X55583526Y-36907176D01*
X55608224Y-36882478D01*
X55608224Y-36643122D01*
X55372272Y-36407170D01*
X55351095Y-36351232D01*
X55278582Y-36254697D01*
X54147211Y-35123326D01*
X54095295Y-35079078D01*
X53988488Y-35022781D01*
X53987726Y-35022624D01*
X53758786Y-34793684D01*
X53519430Y-34793684D01*
X53494732Y-34818382D01*
X53420643Y-34929265D01*
X53369609Y-35052471D01*
X53343593Y-35183266D01*
X53343592Y-35315407D01*
X53211451Y-35315408D01*
X53080656Y-35341424D01*
X52957450Y-35392458D01*
X52846567Y-35466547D01*
X52821869Y-35491245D01*
X52821869Y-35730601D01*
X53057823Y-35966555D01*
X53078999Y-36022490D01*
X53151512Y-36119025D01*
X53853669Y-36821182D01*
X53717997Y-36956854D01*
X53015840Y-36254697D01*
X52963924Y-36210449D01*
X52857117Y-36154152D01*
X52856355Y-36153995D01*
X52627415Y-35925055D01*
X52581737Y-35925055D01*
X51753619Y-35096937D01*
X51708640Y-35059991D01*
X51664042Y-35022569D01*
X51661137Y-35020972D01*
X51658578Y-35018870D01*
X51607286Y-34991367D01*
X51556262Y-34963317D01*
X51553104Y-34962315D01*
X51550183Y-34960749D01*
X51494520Y-34943731D01*
X51439026Y-34926127D01*
X51435732Y-34925757D01*
X51432564Y-34924789D01*
X51374732Y-34918915D01*
X51316799Y-34912417D01*
X51310308Y-34912372D01*
X51310200Y-34912361D01*
X51310099Y-34912371D01*
X51308000Y-34912356D01*
X50437667Y-34912356D01*
X47822282Y-32296971D01*
X48136803Y-31982450D01*
X48181051Y-31930534D01*
X48206548Y-31882160D01*
X48217044Y-31878187D01*
X48313579Y-31805674D01*
X48506246Y-31613007D01*
X48509192Y-31613593D01*
X48642549Y-31613592D01*
X48773344Y-31587576D01*
X48896550Y-31536542D01*
X49007433Y-31462453D01*
X49032131Y-31437755D01*
X49032131Y-31198399D01*
X48796177Y-30962445D01*
X48775001Y-30906510D01*
X48702488Y-30809975D01*
X47571117Y-29678604D01*
X47519201Y-29634356D01*
X47412394Y-29578059D01*
X47411635Y-29577903D01*
X47182693Y-29348961D01*
X47166168Y-29348961D01*
X46654683Y-28837476D01*
X46640541Y-28851618D01*
X46395882Y-28606959D01*
X46410024Y-28592817D01*
X45731378Y-27914171D01*
X45492023Y-27914171D01*
X45156551Y-28249643D01*
X45141067Y-28272816D01*
X45142782Y-28150020D01*
X45096044Y-27913976D01*
X45004348Y-27691505D01*
X44871187Y-27491082D01*
X44701633Y-27320340D01*
X44502144Y-27185783D01*
X44280318Y-27092536D01*
X44044606Y-27044151D01*
X43803985Y-27042471D01*
X43567620Y-27087560D01*
X43556745Y-27091954D01*
X43525428Y-27060637D01*
X43525422Y-27060632D01*
X43423593Y-26958802D01*
X43382223Y-26924820D01*
X43341237Y-26890429D01*
X43338565Y-26888960D01*
X43336213Y-26887028D01*
X43289060Y-26861745D01*
X43242145Y-26835953D01*
X43239241Y-26835032D01*
X43236556Y-26833592D01*
X43185383Y-26817947D01*
X43134359Y-26801761D01*
X43131330Y-26801421D01*
X43128418Y-26800531D01*
X43075237Y-26795129D01*
X43021985Y-26789156D01*
X43016023Y-26789115D01*
X43015917Y-26789104D01*
X43015818Y-26789113D01*
X43013895Y-26789100D01*
X42608066Y-26789100D01*
X42608066Y-26618500D01*
X42602644Y-26550502D01*
X42566927Y-26435170D01*
X42500494Y-26334354D01*
X42408605Y-26256037D01*
X42298535Y-26206421D01*
X42179000Y-26189434D01*
X40879000Y-26189434D01*
X40811002Y-26194856D01*
X40695670Y-26230573D01*
X40594854Y-26297006D01*
X40516537Y-26388895D01*
X40466921Y-26498965D01*
X40449934Y-26618500D01*
X40449934Y-26793627D01*
X40442860Y-26794320D01*
X40389516Y-26798987D01*
X40386586Y-26799838D01*
X40383559Y-26800135D01*
X40332387Y-26815585D01*
X40280927Y-26830535D01*
X40278220Y-26831938D01*
X40275306Y-26832818D01*
X40228072Y-26857932D01*
X40180534Y-26882574D01*
X40178153Y-26884475D01*
X40175463Y-26885905D01*
X40134039Y-26919690D01*
X40092160Y-26953121D01*
X40087913Y-26957310D01*
X40087833Y-26957375D01*
X40087772Y-26957449D01*
X40086400Y-26958802D01*
X39485618Y-27559584D01*
X39451636Y-27600954D01*
X39417245Y-27641940D01*
X39415776Y-27644612D01*
X39413844Y-27646964D01*
X39388561Y-27694117D01*
X39362769Y-27741032D01*
X39361848Y-27743936D01*
X39360408Y-27746621D01*
X39344763Y-27797794D01*
X39328577Y-27848818D01*
X39328237Y-27851847D01*
X39327347Y-27854759D01*
X39321945Y-27907940D01*
X39315972Y-27961192D01*
X39315931Y-27967154D01*
X39315920Y-27967260D01*
X39315929Y-27967359D01*
X39315916Y-27969282D01*
X39315916Y-28275530D01*
X39167229Y-28133788D01*
X38914428Y-27973478D01*
X38635209Y-27865567D01*
X38400000Y-27989075D01*
X38400000Y-29164000D01*
X38420000Y-29164000D01*
X38420000Y-29510000D01*
X38400000Y-29510000D01*
X38400000Y-29530000D01*
X38054000Y-29530000D01*
X38054000Y-29510000D01*
X38034000Y-29510000D01*
X38034000Y-29164000D01*
X38054000Y-29164000D01*
X38054000Y-27989075D01*
X37818791Y-27865567D01*
X37539572Y-27973478D01*
X37286771Y-28133788D01*
X37070102Y-28340337D01*
X36897892Y-28585187D01*
X36822872Y-28754721D01*
X36761727Y-28637762D01*
X36605561Y-28443530D01*
X36414642Y-28283330D01*
X36196243Y-28163264D01*
X35958682Y-28087906D01*
X35711009Y-28060124D01*
X35693179Y-28060000D01*
X35680821Y-28060000D01*
X35432784Y-28084320D01*
X35194194Y-28156355D01*
X34974140Y-28273360D01*
X34781003Y-28430878D01*
X34622140Y-28622911D01*
X34503602Y-28842143D01*
X34429903Y-29080223D01*
X34403852Y-29328085D01*
X34426440Y-29576286D01*
X34496807Y-29815373D01*
X34612273Y-30036238D01*
X34659563Y-30095056D01*
X34656974Y-30096432D01*
X34609436Y-30121074D01*
X34607055Y-30122975D01*
X34604365Y-30124405D01*
X34562941Y-30158190D01*
X34521062Y-30191621D01*
X34516815Y-30195810D01*
X34516735Y-30195875D01*
X34516674Y-30195949D01*
X34515302Y-30197302D01*
X33834735Y-30877869D01*
X33800753Y-30919239D01*
X33766362Y-30960225D01*
X33764893Y-30962897D01*
X33762961Y-30965249D01*
X33737687Y-31012385D01*
X33711886Y-31059317D01*
X33710965Y-31062221D01*
X33709525Y-31064906D01*
X33693880Y-31116079D01*
X33677694Y-31167103D01*
X33677354Y-31170132D01*
X33676464Y-31173044D01*
X33671062Y-31226225D01*
X33665089Y-31279477D01*
X33665048Y-31285439D01*
X33665037Y-31285545D01*
X33665046Y-31285644D01*
X33665033Y-31287567D01*
X33665033Y-35286725D01*
X33670254Y-35339967D01*
X33674920Y-35393306D01*
X33675771Y-35396235D01*
X33676068Y-35399264D01*
X33691525Y-35450462D01*
X33706468Y-35501895D01*
X33707871Y-35504601D01*
X33708751Y-35507517D01*
X33733875Y-35554769D01*
X33758507Y-35602289D01*
X33760408Y-35604670D01*
X33761838Y-35607360D01*
X33795623Y-35648784D01*
X33829054Y-35690663D01*
X33833243Y-35694910D01*
X33833308Y-35694990D01*
X33833382Y-35695051D01*
X33834735Y-35696423D01*
X34441312Y-36303000D01*
X33210500Y-36303000D01*
X33018958Y-36339041D01*
X32843038Y-36452242D01*
X32725020Y-36624967D01*
X32683500Y-36830000D01*
X32683500Y-36973934D01*
X30762047Y-36973934D01*
X30694049Y-36979356D01*
X30578717Y-37015073D01*
X30477901Y-37081506D01*
X30399584Y-37173395D01*
X30349968Y-37283465D01*
X30332981Y-37403000D01*
X30332981Y-37421200D01*
X30143348Y-37421200D01*
X30076070Y-37427797D01*
X30008733Y-37433688D01*
X30005039Y-37434761D01*
X30001207Y-37435137D01*
X29936464Y-37454684D01*
X29871582Y-37473534D01*
X29868167Y-37475304D01*
X29864481Y-37476417D01*
X29804746Y-37508178D01*
X29744782Y-37539261D01*
X29741778Y-37541659D01*
X29738376Y-37543468D01*
X29685979Y-37586202D01*
X29633163Y-37628364D01*
X29627808Y-37633646D01*
X29627697Y-37633736D01*
X29627612Y-37633838D01*
X29625888Y-37635539D01*
X28565539Y-38695887D01*
X28522619Y-38748139D01*
X28479182Y-38799905D01*
X28477329Y-38803276D01*
X28474885Y-38806251D01*
X28442928Y-38865851D01*
X28410377Y-38925061D01*
X28409214Y-38928728D01*
X28407395Y-38932120D01*
X28387616Y-38996812D01*
X28367192Y-39061198D01*
X28366764Y-39065017D01*
X28365637Y-39068702D01*
X28361002Y-39114337D01*
X28274670Y-39141073D01*
X28173854Y-39207506D01*
X28095537Y-39299395D01*
X28045921Y-39409465D01*
X28028934Y-39529000D01*
X28028934Y-39547200D01*
X27602500Y-39547200D01*
X27535227Y-39553796D01*
X27467884Y-39559688D01*
X27464189Y-39560761D01*
X27460359Y-39561137D01*
X27395641Y-39580676D01*
X27330733Y-39599534D01*
X27327317Y-39601305D01*
X27323633Y-39602417D01*
X27263937Y-39634158D01*
X27203933Y-39665261D01*
X27200927Y-39667661D01*
X27197528Y-39669468D01*
X27145153Y-39712184D01*
X27092315Y-39754364D01*
X27086955Y-39759649D01*
X27086849Y-39759736D01*
X27086768Y-39759834D01*
X27085039Y-39761539D01*
X25894438Y-40952140D01*
X25094510Y-40952140D01*
X25068740Y-40902847D01*
X24894292Y-40685877D01*
X24681024Y-40506924D01*
X24437058Y-40372803D01*
X24171688Y-40288622D01*
X23895021Y-40257589D01*
X23875104Y-40257450D01*
X22352896Y-40257450D01*
X22075823Y-40284617D01*
X21809303Y-40365084D01*
X21563488Y-40495786D01*
X21347742Y-40671744D01*
X21170282Y-40886257D01*
X21037867Y-41131153D01*
X20955542Y-41397104D01*
X20926441Y-41673981D01*
X18536000Y-41673981D01*
X18536000Y-35456061D01*
X20926441Y-35456061D01*
X20951673Y-35733318D01*
X21030278Y-36000393D01*
X21159260Y-36247113D01*
X21333708Y-36464083D01*
X21546976Y-36643036D01*
X21790942Y-36777157D01*
X22056312Y-36861338D01*
X22332979Y-36892371D01*
X22352896Y-36892510D01*
X23875104Y-36892510D01*
X24152177Y-36865343D01*
X24418697Y-36784876D01*
X24664512Y-36654174D01*
X24880258Y-36478216D01*
X25057718Y-36263703D01*
X25148276Y-36096220D01*
X26347384Y-36096220D01*
X26574283Y-36323119D01*
X26619262Y-36360065D01*
X26663860Y-36397487D01*
X26666765Y-36399084D01*
X26669324Y-36401186D01*
X26720616Y-36428689D01*
X26771640Y-36456739D01*
X26774798Y-36457741D01*
X26777719Y-36459307D01*
X26833382Y-36476325D01*
X26888876Y-36493929D01*
X26892170Y-36494299D01*
X26895338Y-36495267D01*
X26953170Y-36501141D01*
X27011103Y-36507639D01*
X27017594Y-36507684D01*
X27017702Y-36507695D01*
X27017803Y-36507685D01*
X27019902Y-36507700D01*
X31155400Y-36507700D01*
X31213299Y-36502023D01*
X31271327Y-36496946D01*
X31274510Y-36496021D01*
X31277806Y-36495698D01*
X31333513Y-36478879D01*
X31389436Y-36462632D01*
X31392378Y-36461107D01*
X31395551Y-36460149D01*
X31446947Y-36432821D01*
X31498632Y-36406030D01*
X31501223Y-36403962D01*
X31504147Y-36402407D01*
X31549211Y-36365654D01*
X31594754Y-36329297D01*
X31599374Y-36324741D01*
X31599460Y-36324671D01*
X31599526Y-36324591D01*
X31601019Y-36323119D01*
X31941619Y-35982519D01*
X31978565Y-35937540D01*
X32015987Y-35892942D01*
X32017584Y-35890037D01*
X32019686Y-35887478D01*
X32047189Y-35836186D01*
X32075239Y-35785162D01*
X32076241Y-35782004D01*
X32077807Y-35779083D01*
X32094825Y-35723420D01*
X32112429Y-35667926D01*
X32112799Y-35664632D01*
X32113767Y-35661464D01*
X32119641Y-35603632D01*
X32124584Y-35559566D01*
X32246000Y-35559566D01*
X32313998Y-35554144D01*
X32429330Y-35518427D01*
X32530146Y-35451994D01*
X32608463Y-35360105D01*
X32658079Y-35250035D01*
X32675066Y-35130500D01*
X32675066Y-33830500D01*
X32669644Y-33762502D01*
X32633927Y-33647170D01*
X32567494Y-33546354D01*
X32546177Y-33528185D01*
X32608463Y-33455105D01*
X32658079Y-33345035D01*
X32675066Y-33225500D01*
X32675066Y-31925500D01*
X32669644Y-31857502D01*
X32633927Y-31742170D01*
X32567494Y-31641354D01*
X32546177Y-31623185D01*
X32608463Y-31550105D01*
X32658079Y-31440035D01*
X32675066Y-31320500D01*
X32675066Y-30020500D01*
X32669644Y-29952502D01*
X32633927Y-29837170D01*
X32567494Y-29736354D01*
X32538522Y-29711661D01*
X32548066Y-29644500D01*
X32548066Y-28394500D01*
X32542644Y-28326502D01*
X32506927Y-28211170D01*
X32440494Y-28110354D01*
X32348605Y-28032037D01*
X32238535Y-27982421D01*
X32119000Y-27965434D01*
X31999200Y-27965434D01*
X31999200Y-27820038D01*
X32068672Y-27750566D01*
X34706500Y-27750566D01*
X34774498Y-27745144D01*
X34889830Y-27709427D01*
X34990646Y-27642994D01*
X35068963Y-27551105D01*
X35118579Y-27441035D01*
X35135566Y-27321500D01*
X35135566Y-26601700D01*
X35583958Y-26601700D01*
X35641857Y-26596023D01*
X35699885Y-26590946D01*
X35703068Y-26590021D01*
X35706364Y-26589698D01*
X35762071Y-26572879D01*
X35817994Y-26556632D01*
X35820936Y-26555107D01*
X35824109Y-26554149D01*
X35875505Y-26526821D01*
X35927190Y-26500030D01*
X35929781Y-26497962D01*
X35932705Y-26496407D01*
X35977769Y-26459654D01*
X36023312Y-26423297D01*
X36027932Y-26418741D01*
X36028018Y-26418671D01*
X36028084Y-26418591D01*
X36029577Y-26417119D01*
X36641423Y-25805273D01*
X45204962Y-25805273D01*
X46421129Y-27021439D01*
X46311509Y-27094685D01*
X45976037Y-27430157D01*
X45976037Y-27669512D01*
X46654683Y-28348158D01*
X46668825Y-28334016D01*
X46913484Y-28578675D01*
X46899342Y-28592817D01*
X47377147Y-29070622D01*
X47377147Y-29154507D01*
X47613099Y-29390459D01*
X47634276Y-29446397D01*
X47706789Y-29542932D01*
X48838160Y-30674303D01*
X48890076Y-30718551D01*
X48996883Y-30774848D01*
X48997645Y-30775005D01*
X49226585Y-31003945D01*
X49465941Y-31003945D01*
X49490639Y-30979247D01*
X49564728Y-30868364D01*
X49615762Y-30745158D01*
X49641778Y-30614363D01*
X49641779Y-30481006D01*
X49641193Y-30478060D01*
X49833859Y-30285394D01*
X49878107Y-30233478D01*
X49903604Y-30185105D01*
X49914101Y-30181131D01*
X50010636Y-30108618D01*
X50399545Y-29719709D01*
X50443793Y-29667793D01*
X50469291Y-29619418D01*
X50479786Y-29615445D01*
X50576321Y-29542932D01*
X50927000Y-29192253D01*
X51277679Y-29542932D01*
X51329595Y-29587180D01*
X51377968Y-29612677D01*
X51381942Y-29623174D01*
X51454455Y-29719709D01*
X51843364Y-30108618D01*
X51895280Y-30152866D01*
X51943655Y-30178364D01*
X51947628Y-30188859D01*
X52020141Y-30285394D01*
X52409050Y-30674303D01*
X52460966Y-30718551D01*
X52509340Y-30744048D01*
X52513313Y-30754544D01*
X52585826Y-30851079D01*
X52974735Y-31239988D01*
X53026651Y-31284236D01*
X53075025Y-31309734D01*
X53078999Y-31320230D01*
X53151512Y-31416765D01*
X53540421Y-31805674D01*
X53592337Y-31849922D01*
X53640711Y-31875419D01*
X53644684Y-31885915D01*
X53717197Y-31982450D01*
X54106106Y-32371359D01*
X54158022Y-32415607D01*
X54206395Y-32441104D01*
X54210369Y-32451601D01*
X54282882Y-32548136D01*
X54671791Y-32937045D01*
X54723707Y-32981293D01*
X54772082Y-33006791D01*
X54776055Y-33017286D01*
X54848568Y-33113821D01*
X55199247Y-33464500D01*
X54848568Y-33815179D01*
X54804320Y-33867095D01*
X54778823Y-33915468D01*
X54768326Y-33919442D01*
X54671791Y-33991955D01*
X54479124Y-34184622D01*
X54476179Y-34184036D01*
X54342822Y-34184037D01*
X54212027Y-34210053D01*
X54088821Y-34261087D01*
X53977938Y-34335176D01*
X53953240Y-34359874D01*
X53953240Y-34599230D01*
X54189193Y-34835182D01*
X54210369Y-34891119D01*
X54282882Y-34987654D01*
X55414253Y-36119025D01*
X55466169Y-36163273D01*
X55572976Y-36219570D01*
X55573737Y-36219726D01*
X55802678Y-36448668D01*
X56042034Y-36448668D01*
X56066732Y-36423970D01*
X56140821Y-36313087D01*
X56158136Y-36271285D01*
X56375409Y-36271285D01*
X56080120Y-36566574D01*
X56080120Y-36805929D01*
X56758766Y-37484575D01*
X57525800Y-36717541D01*
X57525800Y-36478185D01*
X57318900Y-36271285D01*
X57970615Y-36271285D01*
X58023857Y-36266064D01*
X58077196Y-36261398D01*
X58080125Y-36260547D01*
X58083154Y-36260250D01*
X58134352Y-36244793D01*
X58185785Y-36229850D01*
X58188491Y-36228447D01*
X58191407Y-36227567D01*
X58238659Y-36202443D01*
X58286179Y-36177811D01*
X58288560Y-36175910D01*
X58291250Y-36174480D01*
X58332674Y-36140695D01*
X58374553Y-36107264D01*
X58378800Y-36103075D01*
X58378880Y-36103010D01*
X58378941Y-36102936D01*
X58380313Y-36101583D01*
X59396649Y-35085246D01*
X70778350Y-35085246D01*
X71153538Y-35460434D01*
X71105000Y-35460434D01*
X71037002Y-35465856D01*
X70921670Y-35501573D01*
X70820854Y-35568006D01*
X70742537Y-35659895D01*
X70692921Y-35769965D01*
X70675934Y-35889500D01*
X70675934Y-37389500D01*
X70681356Y-37457498D01*
X70717073Y-37572830D01*
X70783506Y-37673646D01*
X70875395Y-37751963D01*
X70985465Y-37801579D01*
X71105000Y-37818566D01*
X72405000Y-37818566D01*
X72472998Y-37813144D01*
X72588330Y-37777427D01*
X72689146Y-37710994D01*
X72707315Y-37689677D01*
X72780395Y-37751963D01*
X72890465Y-37801579D01*
X73010000Y-37818566D01*
X74310000Y-37818566D01*
X74377998Y-37813144D01*
X74493330Y-37777427D01*
X74594146Y-37710994D01*
X74672463Y-37619105D01*
X74722079Y-37509035D01*
X74739066Y-37389500D01*
X74739066Y-35889500D01*
X74733644Y-35821502D01*
X74697927Y-35706170D01*
X74648657Y-35631400D01*
X77406500Y-35631400D01*
X77459742Y-35626179D01*
X77513081Y-35621513D01*
X77516010Y-35620662D01*
X77519039Y-35620365D01*
X77570237Y-35604908D01*
X77621670Y-35589965D01*
X77624376Y-35588562D01*
X77627292Y-35587682D01*
X77674544Y-35562558D01*
X77722064Y-35537926D01*
X77724445Y-35536025D01*
X77727135Y-35534595D01*
X77768559Y-35500810D01*
X77810438Y-35467379D01*
X77814685Y-35463190D01*
X77814765Y-35463125D01*
X77814826Y-35463051D01*
X77816198Y-35461698D01*
X79149698Y-34128198D01*
X79183680Y-34086828D01*
X79218071Y-34045842D01*
X79219540Y-34043170D01*
X79221472Y-34040818D01*
X79246755Y-33993665D01*
X79272547Y-33946750D01*
X79273468Y-33943846D01*
X79274908Y-33941161D01*
X79290566Y-33889947D01*
X79306739Y-33838964D01*
X79307078Y-33835940D01*
X79307970Y-33833023D01*
X79313376Y-33779792D01*
X79319344Y-33726590D01*
X79319385Y-33720628D01*
X79319396Y-33720522D01*
X79319387Y-33720423D01*
X79319400Y-33718500D01*
X79319400Y-30706566D01*
X79390000Y-30706566D01*
X79457998Y-30701144D01*
X79573330Y-30665427D01*
X79674146Y-30598994D01*
X79752463Y-30507105D01*
X79802079Y-30397035D01*
X79819066Y-30277500D01*
X79819066Y-28777500D01*
X79813644Y-28709502D01*
X79777927Y-28594170D01*
X79711494Y-28493354D01*
X79619605Y-28415037D01*
X79509535Y-28365421D01*
X79390000Y-28348434D01*
X78090000Y-28348434D01*
X78022002Y-28353856D01*
X77906670Y-28389573D01*
X77805854Y-28456006D01*
X77727537Y-28547895D01*
X77677921Y-28657965D01*
X77660934Y-28777500D01*
X77660934Y-30277500D01*
X77666356Y-30345498D01*
X77702073Y-30460830D01*
X77768506Y-30561646D01*
X77860395Y-30639963D01*
X77970465Y-30689579D01*
X78090000Y-30706566D01*
X78160600Y-30706566D01*
X78160600Y-33478504D01*
X77166504Y-34472600D01*
X74344495Y-34472600D01*
X72833520Y-32961624D01*
X72811715Y-32943713D01*
X72843321Y-32950000D01*
X73317750Y-32950000D01*
X73487000Y-32780750D01*
X73487000Y-31796000D01*
X73833000Y-31796000D01*
X73833000Y-32780750D01*
X74002250Y-32950000D01*
X74476679Y-32950000D01*
X74607474Y-32923983D01*
X74730680Y-32872949D01*
X74841563Y-32798860D01*
X74935860Y-32704562D01*
X75009950Y-32593679D01*
X75060983Y-32470473D01*
X75087000Y-32339678D01*
X75087000Y-31965250D01*
X74917750Y-31796000D01*
X73833000Y-31796000D01*
X73487000Y-31796000D01*
X73467000Y-31796000D01*
X73467000Y-31450000D01*
X73487000Y-31450000D01*
X73487000Y-31430000D01*
X73833000Y-31430000D01*
X73833000Y-31450000D01*
X74917750Y-31450000D01*
X75087000Y-31280750D01*
X75087000Y-30906322D01*
X75060983Y-30775527D01*
X75009950Y-30652321D01*
X74993694Y-30627992D01*
X75054963Y-30556105D01*
X75085745Y-30487816D01*
X75290691Y-30692762D01*
X75247537Y-30743395D01*
X75197921Y-30853465D01*
X75180934Y-30973000D01*
X75180934Y-32273000D01*
X75186356Y-32340998D01*
X75222073Y-32456330D01*
X75288506Y-32557146D01*
X75380395Y-32635463D01*
X75490465Y-32685079D01*
X75610000Y-32702066D01*
X77110000Y-32702066D01*
X77177998Y-32696644D01*
X77293330Y-32660927D01*
X77394146Y-32594494D01*
X77472463Y-32502605D01*
X77522079Y-32392535D01*
X77539066Y-32273000D01*
X77539066Y-30973000D01*
X77533644Y-30905002D01*
X77497927Y-30789670D01*
X77431494Y-30688854D01*
X77339605Y-30610537D01*
X77229535Y-30560921D01*
X77110000Y-30543934D01*
X76779527Y-30543934D01*
X76775378Y-30538737D01*
X76771191Y-30534492D01*
X76771125Y-30534410D01*
X76771050Y-30534348D01*
X76769698Y-30532977D01*
X75703523Y-29466802D01*
X75662153Y-29432820D01*
X75621167Y-29398429D01*
X75618495Y-29396960D01*
X75616143Y-29395028D01*
X75568990Y-29369745D01*
X75522075Y-29343953D01*
X75519171Y-29343032D01*
X75516486Y-29341592D01*
X75465313Y-29325947D01*
X75414289Y-29309761D01*
X75411260Y-29309421D01*
X75408348Y-29308531D01*
X75355167Y-29303129D01*
X75301915Y-29297156D01*
X75295953Y-29297115D01*
X75295847Y-29297104D01*
X75295748Y-29297113D01*
X75293825Y-29297100D01*
X75097129Y-29297100D01*
X75080427Y-29243170D01*
X75013994Y-29142354D01*
X74922105Y-29064037D01*
X74812035Y-29014421D01*
X74692500Y-28997434D01*
X74282829Y-28997434D01*
X73970432Y-28685036D01*
X74026646Y-28647994D01*
X74104963Y-28556105D01*
X74154579Y-28446035D01*
X74171566Y-28326500D01*
X74171566Y-27426500D01*
X74166144Y-27358502D01*
X74130427Y-27243170D01*
X74063994Y-27142354D01*
X73972105Y-27064037D01*
X73921900Y-27041406D01*
X73921900Y-26779004D01*
X73989847Y-26682683D01*
X74083731Y-26471817D01*
X74134869Y-26246731D01*
X74135556Y-26197465D01*
X74322953Y-26197465D01*
X74364621Y-26424495D01*
X74449592Y-26639107D01*
X74574630Y-26833128D01*
X74734972Y-26999168D01*
X74924511Y-27130901D01*
X75136027Y-27223310D01*
X75361464Y-27272875D01*
X75592235Y-27277709D01*
X75819550Y-27237628D01*
X76034751Y-27154157D01*
X76229640Y-27030476D01*
X76396794Y-26871297D01*
X76468572Y-26769546D01*
X76918263Y-27219237D01*
X76957797Y-27251711D01*
X76997008Y-27284613D01*
X76999562Y-27286017D01*
X77001813Y-27287866D01*
X77046931Y-27312058D01*
X77091756Y-27336701D01*
X77094530Y-27337581D01*
X77097100Y-27338959D01*
X77146044Y-27353922D01*
X77194817Y-27369394D01*
X77197714Y-27369719D01*
X77200498Y-27370570D01*
X77251361Y-27375736D01*
X77302265Y-27381446D01*
X77307966Y-27381486D01*
X77308066Y-27381496D01*
X77308160Y-27381487D01*
X77310000Y-27381500D01*
X77660934Y-27381500D01*
X77660934Y-27577500D01*
X77666356Y-27645498D01*
X77702073Y-27760830D01*
X77768506Y-27861646D01*
X77860395Y-27939963D01*
X77970465Y-27989579D01*
X78090000Y-28006566D01*
X79390000Y-28006566D01*
X79457998Y-28001144D01*
X79573330Y-27965427D01*
X79674146Y-27898994D01*
X79752463Y-27807105D01*
X79802079Y-27697035D01*
X79819066Y-27577500D01*
X79819066Y-26077500D01*
X79813644Y-26009502D01*
X79777927Y-25894170D01*
X79711494Y-25793354D01*
X79619605Y-25715037D01*
X79509535Y-25665421D01*
X79390000Y-25648434D01*
X78090000Y-25648434D01*
X78022002Y-25653856D01*
X77906670Y-25689573D01*
X77805854Y-25756006D01*
X77727537Y-25847895D01*
X77677921Y-25957965D01*
X77660934Y-26077500D01*
X77660934Y-26273500D01*
X77539474Y-26273500D01*
X76972737Y-25706763D01*
X76933208Y-25674293D01*
X76893992Y-25641387D01*
X76891437Y-25639982D01*
X76889188Y-25638135D01*
X76844087Y-25613951D01*
X76799244Y-25589299D01*
X76796470Y-25588419D01*
X76793900Y-25587041D01*
X76744956Y-25572078D01*
X76696183Y-25556606D01*
X76693286Y-25556281D01*
X76690502Y-25555430D01*
X76639639Y-25550264D01*
X76588735Y-25544554D01*
X76583034Y-25544514D01*
X76582934Y-25544504D01*
X76582840Y-25544513D01*
X76581000Y-25544500D01*
X76546270Y-25544500D01*
X76545758Y-25543258D01*
X76418023Y-25351002D01*
X76255378Y-25187218D01*
X76064018Y-25058144D01*
X75851232Y-24968697D01*
X75625125Y-24922284D01*
X75394309Y-24920673D01*
X75167576Y-24963924D01*
X74953562Y-25050391D01*
X74760419Y-25176781D01*
X74595503Y-25338278D01*
X74465096Y-25528732D01*
X74374166Y-25740889D01*
X74326176Y-25966666D01*
X74322953Y-26197465D01*
X74135556Y-26197465D01*
X74138550Y-25983089D01*
X74093717Y-25756664D01*
X74005758Y-25543258D01*
X73878023Y-25351002D01*
X73715378Y-25187218D01*
X73524018Y-25058144D01*
X73311232Y-24968697D01*
X73085125Y-24922284D01*
X72854309Y-24920673D01*
X72627576Y-24963924D01*
X72413562Y-25050391D01*
X72242814Y-25162126D01*
X72240423Y-25137739D01*
X72235756Y-25084395D01*
X72234905Y-25081465D01*
X72234608Y-25078438D01*
X72219145Y-25027220D01*
X72204207Y-24975806D01*
X72202806Y-24973103D01*
X72201925Y-24970185D01*
X72176792Y-24922916D01*
X72152169Y-24875413D01*
X72150268Y-24873032D01*
X72148838Y-24870342D01*
X72115028Y-24828888D01*
X72081621Y-24787039D01*
X72077438Y-24782798D01*
X72077368Y-24782712D01*
X72077288Y-24782646D01*
X72075940Y-24781279D01*
X71850938Y-24556277D01*
X80315381Y-24556277D01*
X81081600Y-25322496D01*
X81081600Y-37873434D01*
X81011000Y-37873434D01*
X80943002Y-37878856D01*
X80827670Y-37914573D01*
X80726854Y-37981006D01*
X80648537Y-38072895D01*
X80598921Y-38182965D01*
X80581934Y-38302500D01*
X80581934Y-38473100D01*
X80567875Y-38473100D01*
X80514637Y-38478320D01*
X80461293Y-38482987D01*
X80458363Y-38483838D01*
X80455336Y-38484135D01*
X80404118Y-38499598D01*
X80352704Y-38514536D01*
X80350001Y-38515937D01*
X80347083Y-38516818D01*
X80299814Y-38541951D01*
X80252311Y-38566574D01*
X80249930Y-38568475D01*
X80247240Y-38569905D01*
X80205786Y-38603715D01*
X80163937Y-38637122D01*
X80159696Y-38641305D01*
X80159610Y-38641375D01*
X80159544Y-38641455D01*
X80158177Y-38642803D01*
X79495545Y-39305434D01*
X79401000Y-39305434D01*
X79333002Y-39310856D01*
X79217670Y-39346573D01*
X79116854Y-39413006D01*
X79038537Y-39504895D01*
X78988921Y-39614965D01*
X78971934Y-39734500D01*
X78971934Y-40534500D01*
X78977356Y-40602498D01*
X79013073Y-40717830D01*
X79079506Y-40818646D01*
X79171395Y-40896963D01*
X79281465Y-40946579D01*
X79358314Y-40957500D01*
X79334321Y-40957500D01*
X79203526Y-40983517D01*
X79080320Y-41034551D01*
X78969437Y-41108640D01*
X78875140Y-41202938D01*
X78801050Y-41313821D01*
X78750017Y-41437027D01*
X78724000Y-41567822D01*
X78724000Y-41692250D01*
X78893250Y-41861500D01*
X79678000Y-41861500D01*
X79678000Y-41841500D01*
X80024000Y-41841500D01*
X80024000Y-41861500D01*
X80044000Y-41861500D01*
X80044000Y-42207500D01*
X80024000Y-42207500D01*
X80024000Y-42942250D01*
X80193250Y-43111500D01*
X80367679Y-43111500D01*
X80498474Y-43085483D01*
X80601229Y-43042920D01*
X80690321Y-43102450D01*
X80813527Y-43153483D01*
X80944322Y-43179500D01*
X81318750Y-43179500D01*
X81488000Y-43010250D01*
X81488000Y-41925500D01*
X81834000Y-41925500D01*
X81834000Y-43010250D01*
X82003250Y-43179500D01*
X82377678Y-43179500D01*
X82508473Y-43153483D01*
X82631679Y-43102450D01*
X82742562Y-43028360D01*
X82836860Y-42934063D01*
X82910949Y-42823180D01*
X82961983Y-42699974D01*
X82988000Y-42569179D01*
X82988000Y-42094750D01*
X82818750Y-41925500D01*
X81834000Y-41925500D01*
X81488000Y-41925500D01*
X81468000Y-41925500D01*
X81468000Y-41579500D01*
X81488000Y-41579500D01*
X81488000Y-40494750D01*
X81834000Y-40494750D01*
X81834000Y-41579500D01*
X82818750Y-41579500D01*
X82988000Y-41410250D01*
X82988000Y-40935821D01*
X82961983Y-40805026D01*
X82910949Y-40681820D01*
X82836860Y-40570937D01*
X82742562Y-40476640D01*
X82631679Y-40402550D01*
X82508473Y-40351517D01*
X82377678Y-40325500D01*
X82003250Y-40325500D01*
X81834000Y-40494750D01*
X81488000Y-40494750D01*
X81318750Y-40325500D01*
X80944322Y-40325500D01*
X80813527Y-40351517D01*
X80730066Y-40386087D01*
X80730066Y-40121215D01*
X80781395Y-40164963D01*
X80891465Y-40214579D01*
X81011000Y-40231566D01*
X82311000Y-40231566D01*
X82378998Y-40226144D01*
X82494330Y-40190427D01*
X82595146Y-40123994D01*
X82673463Y-40032105D01*
X82723079Y-39922035D01*
X82740066Y-39802500D01*
X82740066Y-38302500D01*
X82734644Y-38234502D01*
X82698927Y-38119170D01*
X82632494Y-38018354D01*
X82540605Y-37940037D01*
X82430535Y-37890421D01*
X82311000Y-37873434D01*
X82240400Y-37873434D01*
X82240400Y-25082500D01*
X82235180Y-25029262D01*
X82230513Y-24975918D01*
X82229662Y-24972988D01*
X82229365Y-24969961D01*
X82213915Y-24918789D01*
X82198965Y-24867329D01*
X82197562Y-24864622D01*
X82196682Y-24861708D01*
X82171568Y-24814474D01*
X82146926Y-24766936D01*
X82145025Y-24764555D01*
X82143595Y-24761865D01*
X82109810Y-24720441D01*
X82076379Y-24678562D01*
X82072190Y-24674315D01*
X82072125Y-24674235D01*
X82072051Y-24674174D01*
X82070698Y-24672802D01*
X80965075Y-23567179D01*
X80923705Y-23533197D01*
X80882719Y-23498806D01*
X80880047Y-23497337D01*
X80877695Y-23495405D01*
X80830542Y-23470122D01*
X80783627Y-23444330D01*
X80780723Y-23443409D01*
X80778038Y-23441969D01*
X80726865Y-23426324D01*
X80675841Y-23410138D01*
X80672812Y-23409798D01*
X80669900Y-23408908D01*
X80616719Y-23403506D01*
X80563467Y-23397533D01*
X80557505Y-23397492D01*
X80557399Y-23397481D01*
X80557300Y-23397490D01*
X80555377Y-23397477D01*
X71410575Y-23397477D01*
X71193165Y-23180067D01*
X71151795Y-23146085D01*
X71110809Y-23111694D01*
X71108137Y-23110225D01*
X71105785Y-23108293D01*
X71058632Y-23083010D01*
X71011717Y-23057218D01*
X71008813Y-23056297D01*
X71006128Y-23054857D01*
X70954955Y-23039212D01*
X70903931Y-23023026D01*
X70900902Y-23022686D01*
X70897990Y-23021796D01*
X70844809Y-23016394D01*
X70791557Y-23010421D01*
X70785595Y-23010380D01*
X70785489Y-23010369D01*
X70785390Y-23010378D01*
X70783467Y-23010365D01*
X56841937Y-23010365D01*
X56788695Y-23015586D01*
X56735356Y-23020252D01*
X56732427Y-23021103D01*
X56729398Y-23021400D01*
X56678200Y-23036857D01*
X56626767Y-23051800D01*
X56624061Y-23053203D01*
X56621145Y-23054083D01*
X56573893Y-23079207D01*
X56526373Y-23103839D01*
X56523992Y-23105740D01*
X56521302Y-23107170D01*
X56479854Y-23140975D01*
X56438000Y-23174386D01*
X56433754Y-23178574D01*
X56433672Y-23178640D01*
X56433610Y-23178715D01*
X56432239Y-23180067D01*
X52318819Y-27293487D01*
X52301504Y-27294868D01*
X52305477Y-27290895D01*
X52349725Y-27238979D01*
X52406022Y-27132172D01*
X52430334Y-27013909D01*
X52420737Y-26893555D01*
X52377990Y-26780640D01*
X52305477Y-26684105D01*
X51103395Y-25482023D01*
X51051479Y-25437775D01*
X50944672Y-25381478D01*
X50826409Y-25357166D01*
X50706055Y-25366763D01*
X50593140Y-25409510D01*
X50496605Y-25482023D01*
X49294523Y-26684105D01*
X49250275Y-26736021D01*
X49193978Y-26842828D01*
X49169666Y-26961091D01*
X49179263Y-27081445D01*
X49222010Y-27194360D01*
X49294523Y-27290895D01*
X49340558Y-27336930D01*
X49323604Y-27343349D01*
X49227069Y-27415862D01*
X48912548Y-27730383D01*
X45911619Y-24729454D01*
X45866640Y-24692508D01*
X45822042Y-24655086D01*
X45819137Y-24653489D01*
X45816578Y-24651387D01*
X45765286Y-24623884D01*
X45714262Y-24595834D01*
X45711104Y-24594832D01*
X45708183Y-24593266D01*
X45652520Y-24576248D01*
X45597026Y-24558644D01*
X45593732Y-24558274D01*
X45590564Y-24557306D01*
X45532732Y-24551432D01*
X45474799Y-24544934D01*
X45468308Y-24544889D01*
X45468200Y-24544878D01*
X45468099Y-24544888D01*
X45466000Y-24544873D01*
X36380385Y-24544873D01*
X36322483Y-24550550D01*
X36264458Y-24555627D01*
X36261275Y-24556552D01*
X36257979Y-24556875D01*
X36202272Y-24573694D01*
X36146349Y-24589941D01*
X36143407Y-24591466D01*
X36140234Y-24592424D01*
X36088878Y-24619731D01*
X36037153Y-24646542D01*
X36034559Y-24648613D01*
X36031638Y-24650166D01*
X35986602Y-24686897D01*
X35941031Y-24723276D01*
X35936411Y-24727832D01*
X35936325Y-24727902D01*
X35936259Y-24727982D01*
X35934766Y-24729454D01*
X35322920Y-25341300D01*
X35135566Y-25341300D01*
X35135566Y-24621500D01*
X35130144Y-24553502D01*
X35094427Y-24438170D01*
X35027994Y-24337354D01*
X34936105Y-24259037D01*
X34826035Y-24209421D01*
X34706500Y-24192434D01*
X31206500Y-24192434D01*
X31138502Y-24197856D01*
X31023170Y-24233573D01*
X30922354Y-24300006D01*
X30844037Y-24391895D01*
X30794421Y-24501965D01*
X30777434Y-24621500D01*
X30777434Y-27321500D01*
X30779157Y-27343103D01*
X30770175Y-27372480D01*
X30752571Y-27427974D01*
X30752201Y-27431268D01*
X30751233Y-27434436D01*
X30745359Y-27492268D01*
X30738861Y-27550201D01*
X30738816Y-27556692D01*
X30738805Y-27556800D01*
X30738815Y-27556901D01*
X30738800Y-27559000D01*
X30738800Y-27965434D01*
X30619000Y-27965434D01*
X30551002Y-27970856D01*
X30435670Y-28006573D01*
X30334854Y-28073006D01*
X30256629Y-28164787D01*
X30218950Y-28073821D01*
X30144860Y-27962938D01*
X30050563Y-27868640D01*
X29939680Y-27794551D01*
X29816474Y-27743517D01*
X29685679Y-27717500D01*
X29211250Y-27717500D01*
X29042000Y-27886750D01*
X29042000Y-28846500D01*
X29062000Y-28846500D01*
X29062000Y-29192500D01*
X29042000Y-29192500D01*
X29042000Y-29439750D01*
X28969000Y-29512750D01*
X28969000Y-30497500D01*
X30053750Y-30497500D01*
X30223000Y-30328250D01*
X30223000Y-29955401D01*
X30258562Y-29869546D01*
X30297506Y-29928646D01*
X30326478Y-29953339D01*
X30316934Y-30020500D01*
X30316934Y-31320500D01*
X30322356Y-31388498D01*
X30358073Y-31503830D01*
X30424506Y-31604646D01*
X30445823Y-31622815D01*
X30383537Y-31695895D01*
X30333921Y-31805965D01*
X30316934Y-31925500D01*
X30316934Y-33225500D01*
X30322356Y-33293498D01*
X30358073Y-33408830D01*
X30424506Y-33509646D01*
X30445823Y-33527815D01*
X30383537Y-33600895D01*
X30333921Y-33710965D01*
X30316934Y-33830500D01*
X30316934Y-35130500D01*
X30322356Y-35198498D01*
X30337469Y-35247300D01*
X29958468Y-35247300D01*
X29975066Y-35130500D01*
X29975066Y-33830500D01*
X29969644Y-33762502D01*
X29933927Y-33647170D01*
X29867494Y-33546354D01*
X29846177Y-33528185D01*
X29908463Y-33455105D01*
X29958079Y-33345035D01*
X29975066Y-33225500D01*
X29975066Y-31925500D01*
X29969644Y-31857502D01*
X29968143Y-31852654D01*
X29977563Y-31846360D01*
X30071860Y-31752062D01*
X30145950Y-31641179D01*
X30196983Y-31517973D01*
X30223000Y-31387178D01*
X30223000Y-31012750D01*
X30053750Y-30843500D01*
X28969000Y-30843500D01*
X28969000Y-30863500D01*
X28623000Y-30863500D01*
X28623000Y-30843500D01*
X27538250Y-30843500D01*
X27369000Y-31012750D01*
X27369000Y-31387178D01*
X27395017Y-31517973D01*
X27446050Y-31641179D01*
X27520140Y-31752062D01*
X27614437Y-31846360D01*
X27626989Y-31854747D01*
X27616934Y-31925500D01*
X27616934Y-33225500D01*
X27622356Y-33293498D01*
X27658073Y-33408830D01*
X27724506Y-33509646D01*
X27745823Y-33527815D01*
X27683537Y-33600895D01*
X27633921Y-33710965D01*
X27616934Y-33830500D01*
X27616934Y-35130500D01*
X27622356Y-35198498D01*
X27637469Y-35247300D01*
X27280940Y-35247300D01*
X27047980Y-35014340D01*
X27002167Y-34976709D01*
X26956586Y-34938733D01*
X26954647Y-34937676D01*
X26952939Y-34936273D01*
X26900671Y-34908247D01*
X26848600Y-34879857D01*
X26846491Y-34879196D01*
X26844544Y-34878152D01*
X26787810Y-34860807D01*
X26731235Y-34843077D01*
X26729040Y-34842838D01*
X26726925Y-34842192D01*
X26668023Y-34836210D01*
X26608961Y-34829793D01*
X26606751Y-34829986D01*
X26604561Y-34829764D01*
X26545677Y-34835330D01*
X26540074Y-34835820D01*
X25147625Y-34835820D01*
X25068740Y-34684927D01*
X24894292Y-34467957D01*
X24681024Y-34289004D01*
X24437058Y-34154883D01*
X24171688Y-34070702D01*
X23895021Y-34039669D01*
X23875104Y-34039530D01*
X22352896Y-34039530D01*
X22075823Y-34066697D01*
X21809303Y-34147164D01*
X21563488Y-34277866D01*
X21347742Y-34453824D01*
X21170282Y-34668337D01*
X21037867Y-34913233D01*
X20955542Y-35179184D01*
X20926441Y-35456061D01*
X18536000Y-35456061D01*
X18536000Y-32397631D01*
X20743483Y-32397631D01*
X20748351Y-32447633D01*
X20873366Y-32753463D01*
X21055643Y-33029027D01*
X21288178Y-33263736D01*
X21562034Y-33448570D01*
X21866687Y-33576426D01*
X22190430Y-33642390D01*
X22941000Y-33642390D01*
X22941000Y-32138900D01*
X23287000Y-32138900D01*
X23287000Y-33642390D01*
X24037570Y-33642390D01*
X24361313Y-33576426D01*
X24665966Y-33448570D01*
X24939822Y-33263736D01*
X25172357Y-33029027D01*
X25354634Y-32753463D01*
X25479649Y-32447633D01*
X25484517Y-32397631D01*
X25361849Y-32138900D01*
X23287000Y-32138900D01*
X22941000Y-32138900D01*
X20866151Y-32138900D01*
X20743483Y-32397631D01*
X18536000Y-32397631D01*
X18536000Y-31534169D01*
X20743483Y-31534169D01*
X20866151Y-31792900D01*
X22941000Y-31792900D01*
X22941000Y-30289410D01*
X23287000Y-30289410D01*
X23287000Y-31792900D01*
X25361849Y-31792900D01*
X25484517Y-31534169D01*
X25479649Y-31484167D01*
X25354634Y-31178337D01*
X25172357Y-30902773D01*
X24939822Y-30668064D01*
X24665966Y-30483230D01*
X24361313Y-30355374D01*
X24037570Y-30289410D01*
X23287000Y-30289410D01*
X22941000Y-30289410D01*
X22190430Y-30289410D01*
X21866687Y-30355374D01*
X21562034Y-30483230D01*
X21288178Y-30668064D01*
X21055643Y-30902773D01*
X20873366Y-31178337D01*
X20748351Y-31484167D01*
X20743483Y-31534169D01*
X18536000Y-31534169D01*
X18536000Y-29953822D01*
X27369000Y-29953822D01*
X27369000Y-30328250D01*
X27538250Y-30497500D01*
X28623000Y-30497500D01*
X28623000Y-30225250D01*
X28696000Y-30152250D01*
X28696000Y-29192500D01*
X27611250Y-29192500D01*
X27442000Y-29361750D01*
X27442000Y-29709599D01*
X27395017Y-29823027D01*
X27369000Y-29953822D01*
X18536000Y-29953822D01*
X18536000Y-28593323D01*
X19593836Y-28593323D01*
X19815680Y-28969467D01*
X20292276Y-29209495D01*
X20806542Y-29351932D01*
X21338714Y-29391303D01*
X21868341Y-29326096D01*
X22375071Y-29158817D01*
X22729320Y-28969467D01*
X22951164Y-28593323D01*
X21272500Y-26914659D01*
X19593836Y-28593323D01*
X18536000Y-28593323D01*
X18536000Y-26736214D01*
X18551197Y-26736214D01*
X18616404Y-27265841D01*
X18783683Y-27772571D01*
X18973033Y-28126820D01*
X19349177Y-28348664D01*
X21027841Y-26670000D01*
X21517159Y-26670000D01*
X23195823Y-28348664D01*
X23571967Y-28126820D01*
X23811965Y-27650283D01*
X23880640Y-27753062D01*
X23974937Y-27847360D01*
X24085820Y-27921449D01*
X24209026Y-27972483D01*
X24339821Y-27998500D01*
X25814250Y-27998500D01*
X25983500Y-27829250D01*
X25983500Y-26144500D01*
X26329500Y-26144500D01*
X26329500Y-27829250D01*
X26498750Y-27998500D01*
X27569378Y-27998500D01*
X27519050Y-28073821D01*
X27468017Y-28197027D01*
X27442000Y-28327822D01*
X27442000Y-28677250D01*
X27611250Y-28846500D01*
X28696000Y-28846500D01*
X28696000Y-27886750D01*
X28526750Y-27717500D01*
X28456122Y-27717500D01*
X28506450Y-27642179D01*
X28557483Y-27518973D01*
X28583500Y-27388178D01*
X28583500Y-26313750D01*
X28414250Y-26144500D01*
X26329500Y-26144500D01*
X25983500Y-26144500D01*
X25963500Y-26144500D01*
X25963500Y-25798500D01*
X25983500Y-25798500D01*
X25983500Y-24113750D01*
X26329500Y-24113750D01*
X26329500Y-25798500D01*
X28414250Y-25798500D01*
X28583500Y-25629250D01*
X28583500Y-24554822D01*
X28557483Y-24424027D01*
X28506450Y-24300821D01*
X28432360Y-24189938D01*
X28338063Y-24095640D01*
X28227180Y-24021551D01*
X28103974Y-23970517D01*
X27973179Y-23944500D01*
X26498750Y-23944500D01*
X26329500Y-24113750D01*
X25983500Y-24113750D01*
X25814250Y-23944500D01*
X24339821Y-23944500D01*
X24209026Y-23970517D01*
X24085820Y-24021551D01*
X23974937Y-24095640D01*
X23880640Y-24189938D01*
X23806550Y-24300821D01*
X23755517Y-24424027D01*
X23729500Y-24554822D01*
X23729500Y-25507904D01*
X23571967Y-25213180D01*
X23195823Y-24991336D01*
X21517159Y-26670000D01*
X21027841Y-26670000D01*
X19349177Y-24991336D01*
X18973033Y-25213180D01*
X18733005Y-25689776D01*
X18590568Y-26204042D01*
X18551197Y-26736214D01*
X18536000Y-26736214D01*
X18536000Y-24746677D01*
X19593836Y-24746677D01*
X21272500Y-26425341D01*
X22951164Y-24746677D01*
X22729320Y-24370533D01*
X22252724Y-24130505D01*
X21738458Y-23988068D01*
X21206286Y-23948697D01*
X20676659Y-24013904D01*
X20169929Y-24181183D01*
X19815680Y-24370533D01*
X19593836Y-24746677D01*
X18536000Y-24746677D01*
X18536000Y-22854000D01*
X94240000Y-22854000D01*
X94240000Y-44983008D01*
X94240000Y-44983008D01*
G37*
X94240000Y-44983008D02*
X94119317Y-44617429D01*
X93929967Y-44263180D01*
X93553823Y-44041336D01*
X91875159Y-45720000D01*
X93553823Y-47398664D01*
X93929967Y-47176820D01*
X94169995Y-46700224D01*
X94240000Y-46447472D01*
X94240000Y-48329500D01*
X92367492Y-48329500D01*
X92733071Y-48208817D01*
X93087320Y-48019467D01*
X93309164Y-47643323D01*
X91630500Y-45964659D01*
X89951836Y-47643323D01*
X90173680Y-48019467D01*
X90650276Y-48259495D01*
X90903028Y-48329500D01*
X18536000Y-48329500D01*
X18536000Y-45615791D01*
X20743483Y-45615791D01*
X20748351Y-45665793D01*
X20873366Y-45971623D01*
X21055643Y-46247187D01*
X21288178Y-46481896D01*
X21562034Y-46666730D01*
X21866687Y-46794586D01*
X22190430Y-46860550D01*
X22941000Y-46860550D01*
X22941000Y-45357060D01*
X23287000Y-45357060D01*
X23287000Y-46860550D01*
X24037570Y-46860550D01*
X24361313Y-46794586D01*
X24665966Y-46666730D01*
X24939822Y-46481896D01*
X25103933Y-46316250D01*
X28318000Y-46316250D01*
X28318000Y-46890678D01*
X28344017Y-47021473D01*
X28395050Y-47144679D01*
X28469140Y-47255562D01*
X28563437Y-47349860D01*
X28674320Y-47423949D01*
X28797526Y-47474983D01*
X28928321Y-47501000D01*
X29502750Y-47501000D01*
X29672000Y-47331750D01*
X29672000Y-46147000D01*
X30018000Y-46147000D01*
X30018000Y-47331750D01*
X30187250Y-47501000D01*
X30761679Y-47501000D01*
X30892474Y-47474983D01*
X31015680Y-47423949D01*
X31126563Y-47349860D01*
X31220860Y-47255562D01*
X31294950Y-47144679D01*
X31345983Y-47021473D01*
X31372000Y-46890678D01*
X31372000Y-46316250D01*
X32001000Y-46316250D01*
X32001000Y-46890678D01*
X32027017Y-47021473D01*
X32078050Y-47144679D01*
X32152140Y-47255562D01*
X32246437Y-47349860D01*
X32357320Y-47423949D01*
X32480526Y-47474983D01*
X32611321Y-47501000D01*
X33185750Y-47501000D01*
X33355000Y-47331750D01*
X33355000Y-46147000D01*
X32170250Y-46147000D01*
X32001000Y-46316250D01*
X31372000Y-46316250D01*
X31202750Y-46147000D01*
X30018000Y-46147000D01*
X29672000Y-46147000D01*
X28487250Y-46147000D01*
X28318000Y-46316250D01*
X25103933Y-46316250D01*
X25172357Y-46247187D01*
X25354634Y-45971623D01*
X25479649Y-45665793D01*
X25484517Y-45615791D01*
X25361849Y-45357060D01*
X23287000Y-45357060D01*
X22941000Y-45357060D01*
X20866151Y-45357060D01*
X20743483Y-45615791D01*
X18536000Y-45615791D01*
X18536000Y-45057322D01*
X28318000Y-45057322D01*
X28318000Y-45631750D01*
X28487250Y-45801000D01*
X29672000Y-45801000D01*
X29672000Y-44616250D01*
X30018000Y-44616250D01*
X30018000Y-45801000D01*
X31202750Y-45801000D01*
X31372000Y-45631750D01*
X31372000Y-45057322D01*
X31345983Y-44926527D01*
X31294950Y-44803321D01*
X31220860Y-44692438D01*
X31126563Y-44598140D01*
X31015680Y-44524051D01*
X30892474Y-44473017D01*
X30761679Y-44447000D01*
X30187250Y-44447000D01*
X30018000Y-44616250D01*
X29672000Y-44616250D01*
X29502750Y-44447000D01*
X28928321Y-44447000D01*
X28797526Y-44473017D01*
X28674320Y-44524051D01*
X28563437Y-44598140D01*
X28469140Y-44692438D01*
X28395050Y-44803321D01*
X28344017Y-44926527D01*
X28318000Y-45057322D01*
X18536000Y-45057322D01*
X18536000Y-44752329D01*
X20743483Y-44752329D01*
X20866151Y-45011060D01*
X22941000Y-45011060D01*
X22941000Y-43507570D01*
X23287000Y-43507570D01*
X23287000Y-45011060D01*
X25361849Y-45011060D01*
X25484517Y-44752329D01*
X25479649Y-44702327D01*
X25354634Y-44396497D01*
X25172357Y-44120933D01*
X24939822Y-43886224D01*
X24665966Y-43701390D01*
X24361313Y-43573534D01*
X24037570Y-43507570D01*
X23287000Y-43507570D01*
X22941000Y-43507570D01*
X22190430Y-43507570D01*
X21866687Y-43573534D01*
X21562034Y-43701390D01*
X21288178Y-43886224D01*
X21055643Y-44120933D01*
X20873366Y-44396497D01*
X20748351Y-44702327D01*
X20743483Y-44752329D01*
X18536000Y-44752329D01*
X18536000Y-43121250D01*
X27781000Y-43121250D01*
X27781000Y-43595679D01*
X27807017Y-43726474D01*
X27858051Y-43849680D01*
X27932140Y-43960563D01*
X28026438Y-44054860D01*
X28137321Y-44128950D01*
X28260527Y-44179983D01*
X28391322Y-44206000D01*
X28740750Y-44206000D01*
X28910000Y-44036750D01*
X28910000Y-42952000D01*
X29256000Y-42952000D01*
X29256000Y-44036750D01*
X29425250Y-44206000D01*
X29774678Y-44206000D01*
X29905473Y-44179983D01*
X30028679Y-44128950D01*
X30139562Y-44054860D01*
X30233860Y-43960563D01*
X30245207Y-43943582D01*
X30330484Y-44028860D01*
X30441367Y-44102949D01*
X30564573Y-44153983D01*
X30695368Y-44180000D01*
X31419797Y-44180000D01*
X31589047Y-44010750D01*
X31589047Y-42926000D01*
X30254297Y-42926000D01*
X30222024Y-42958274D01*
X30215750Y-42952000D01*
X29256000Y-42952000D01*
X28910000Y-42952000D01*
X27950250Y-42952000D01*
X27781000Y-43121250D01*
X18536000Y-43121250D01*
X18536000Y-41673981D01*
X20926441Y-41673981D01*
X20951673Y-41951238D01*
X21030278Y-42218313D01*
X21159260Y-42465033D01*
X21333708Y-42682003D01*
X21546976Y-42860956D01*
X21790942Y-42995077D01*
X22056312Y-43079258D01*
X22332979Y-43110291D01*
X22352896Y-43110430D01*
X23875104Y-43110430D01*
X24152177Y-43083263D01*
X24418697Y-43002796D01*
X24664512Y-42872094D01*
X24880258Y-42696136D01*
X25057718Y-42481623D01*
X25093341Y-42415740D01*
X26197560Y-42415740D01*
X26264838Y-42409143D01*
X26332175Y-42403252D01*
X26335869Y-42402179D01*
X26339701Y-42401803D01*
X26404431Y-42382260D01*
X26469327Y-42363406D01*
X26472743Y-42361635D01*
X26476427Y-42360523D01*
X26536143Y-42328771D01*
X26596126Y-42297679D01*
X26599130Y-42295281D01*
X26602532Y-42293472D01*
X26654929Y-42250738D01*
X26707745Y-42208576D01*
X26713105Y-42203291D01*
X26713211Y-42203204D01*
X26713292Y-42203106D01*
X26715021Y-42201401D01*
X27905622Y-41010800D01*
X28028934Y-41010800D01*
X28028934Y-41029000D01*
X28034356Y-41096998D01*
X28070073Y-41212330D01*
X28136506Y-41313146D01*
X28228287Y-41391371D01*
X28137321Y-41429050D01*
X28026438Y-41503140D01*
X27932140Y-41597437D01*
X27858051Y-41708320D01*
X27807017Y-41831526D01*
X27781000Y-41962321D01*
X27781000Y-42436750D01*
X27950250Y-42606000D01*
X28910000Y-42606000D01*
X28910000Y-42586000D01*
X29256000Y-42586000D01*
X29256000Y-42606000D01*
X30215750Y-42606000D01*
X30248024Y-42573727D01*
X30254297Y-42580000D01*
X31589047Y-42580000D01*
X31589047Y-42560000D01*
X31935047Y-42560000D01*
X31935047Y-42580000D01*
X31955047Y-42580000D01*
X31955047Y-42926000D01*
X31935047Y-42926000D01*
X31935047Y-44010750D01*
X32104297Y-44180000D01*
X32655579Y-44180000D01*
X32662068Y-44211825D01*
X32780546Y-44384235D01*
X32878659Y-44447000D01*
X32611321Y-44447000D01*
X32480526Y-44473017D01*
X32357320Y-44524051D01*
X32246437Y-44598140D01*
X32152140Y-44692438D01*
X32078050Y-44803321D01*
X32027017Y-44926527D01*
X32001000Y-45057322D01*
X32001000Y-45631750D01*
X32170250Y-45801000D01*
X33355000Y-45801000D01*
X33355000Y-45781000D01*
X33701000Y-45781000D01*
X33701000Y-45801000D01*
X33721000Y-45801000D01*
X33721000Y-46147000D01*
X33701000Y-46147000D01*
X33701000Y-47331750D01*
X33870250Y-47501000D01*
X34444679Y-47501000D01*
X34575474Y-47474983D01*
X34698680Y-47423949D01*
X34809563Y-47349860D01*
X34903860Y-47255562D01*
X34977950Y-47144679D01*
X35028983Y-47021473D01*
X35055000Y-46890678D01*
X35055000Y-46336031D01*
X35242500Y-46374000D01*
X35931934Y-46374000D01*
X35931934Y-46824000D01*
X35937356Y-46891998D01*
X35973073Y-47007330D01*
X36039506Y-47108146D01*
X36131395Y-47186463D01*
X36241465Y-47236079D01*
X36361000Y-47253066D01*
X38061000Y-47253066D01*
X38128998Y-47247644D01*
X38190007Y-47228750D01*
X38893500Y-47228750D01*
X38893500Y-47703179D01*
X38919517Y-47833974D01*
X38970551Y-47957180D01*
X39044640Y-48068063D01*
X39138938Y-48162360D01*
X39249821Y-48236450D01*
X39373027Y-48287483D01*
X39503822Y-48313500D01*
X39853250Y-48313500D01*
X40022500Y-48144250D01*
X40022500Y-47059500D01*
X40368500Y-47059500D01*
X40368500Y-48144250D01*
X40537750Y-48313500D01*
X40887178Y-48313500D01*
X41017973Y-48287483D01*
X41141179Y-48236450D01*
X41252062Y-48162360D01*
X41346360Y-48068063D01*
X41420449Y-47957180D01*
X41471483Y-47833974D01*
X41497500Y-47703179D01*
X41497500Y-47228750D01*
X41328250Y-47059500D01*
X40368500Y-47059500D01*
X40022500Y-47059500D01*
X39062750Y-47059500D01*
X38893500Y-47228750D01*
X38190007Y-47228750D01*
X38244330Y-47211927D01*
X38345146Y-47145494D01*
X38423463Y-47053605D01*
X38473079Y-46943535D01*
X38490066Y-46824000D01*
X38490066Y-46374000D01*
X38893500Y-46374000D01*
X38893500Y-46544250D01*
X39062750Y-46713500D01*
X40022500Y-46713500D01*
X40022500Y-46693500D01*
X40368500Y-46693500D01*
X40368500Y-46713500D01*
X41328250Y-46713500D01*
X41497500Y-46544250D01*
X41497500Y-46374000D01*
X46907733Y-46374000D01*
X48217615Y-47683882D01*
X48262594Y-47720828D01*
X48307192Y-47758250D01*
X48310097Y-47759847D01*
X48312656Y-47761949D01*
X48363948Y-47789452D01*
X48414972Y-47817502D01*
X48418130Y-47818504D01*
X48421051Y-47820070D01*
X48476673Y-47837075D01*
X48532208Y-47854692D01*
X48535507Y-47855062D01*
X48538670Y-47856029D01*
X48596453Y-47861898D01*
X48654435Y-47868402D01*
X48660926Y-47868447D01*
X48661034Y-47868458D01*
X48661135Y-47868448D01*
X48663234Y-47868463D01*
X57093538Y-47868463D01*
X57151437Y-47862786D01*
X57209465Y-47857709D01*
X57212648Y-47856784D01*
X57215944Y-47856461D01*
X57271651Y-47839642D01*
X57327574Y-47823395D01*
X57330516Y-47821870D01*
X57333689Y-47820912D01*
X57385085Y-47793584D01*
X57436770Y-47766793D01*
X57439361Y-47764725D01*
X57442285Y-47763170D01*
X57487349Y-47726417D01*
X57532892Y-47690060D01*
X57537512Y-47685504D01*
X57537598Y-47685434D01*
X57537664Y-47685354D01*
X57539157Y-47683882D01*
X59436824Y-45786214D01*
X88909197Y-45786214D01*
X88974404Y-46315841D01*
X89141683Y-46822571D01*
X89331033Y-47176820D01*
X89707177Y-47398664D01*
X91385841Y-45720000D01*
X89707177Y-44041336D01*
X89331033Y-44263180D01*
X89091005Y-44739776D01*
X88948568Y-45254042D01*
X88909197Y-45786214D01*
X59436824Y-45786214D01*
X59480810Y-45742228D01*
X67428515Y-45742228D01*
X67486414Y-45736551D01*
X67544442Y-45731474D01*
X67547625Y-45730549D01*
X67550921Y-45730226D01*
X67606628Y-45713407D01*
X67662551Y-45697160D01*
X67665493Y-45695635D01*
X67668666Y-45694677D01*
X67720062Y-45667349D01*
X67771747Y-45640558D01*
X67774338Y-45638490D01*
X67777262Y-45636935D01*
X67822326Y-45600182D01*
X67867869Y-45563825D01*
X67872489Y-45559269D01*
X67872575Y-45559199D01*
X67872641Y-45559119D01*
X67874134Y-45557647D01*
X69596321Y-43835460D01*
X69628177Y-43796677D01*
X89951836Y-43796677D01*
X91630500Y-45475341D01*
X93309164Y-43796677D01*
X93087320Y-43420533D01*
X92610724Y-43180505D01*
X92096458Y-43038068D01*
X91564286Y-42998697D01*
X91034659Y-43063904D01*
X90527929Y-43231183D01*
X90173680Y-43420533D01*
X89951836Y-43796677D01*
X69628177Y-43796677D01*
X69633267Y-43790481D01*
X69670689Y-43745883D01*
X69672286Y-43742978D01*
X69674388Y-43740419D01*
X69701891Y-43689127D01*
X69729941Y-43638103D01*
X69730943Y-43634945D01*
X69732509Y-43632024D01*
X69749527Y-43576361D01*
X69767131Y-43520867D01*
X69767501Y-43517573D01*
X69768469Y-43514405D01*
X69774343Y-43456573D01*
X69780841Y-43398640D01*
X69780886Y-43392149D01*
X69780897Y-43392041D01*
X69780887Y-43391940D01*
X69780902Y-43389841D01*
X69780902Y-42326692D01*
X69844511Y-42370901D01*
X70056027Y-42463310D01*
X70281464Y-42512875D01*
X70512235Y-42517709D01*
X70739550Y-42477628D01*
X70954751Y-42394157D01*
X71149640Y-42270476D01*
X71316794Y-42111297D01*
X71449847Y-41922683D01*
X71543731Y-41711817D01*
X71594869Y-41486731D01*
X71598550Y-41223089D01*
X71558513Y-41020883D01*
X72060830Y-40518566D01*
X72116479Y-40518566D01*
X72055503Y-40578278D01*
X71925096Y-40768732D01*
X71834166Y-40980889D01*
X71786176Y-41206666D01*
X71782953Y-41437465D01*
X71824621Y-41664495D01*
X71909592Y-41879107D01*
X72034630Y-42073128D01*
X72194972Y-42239168D01*
X72384511Y-42370901D01*
X72596027Y-42463310D01*
X72821464Y-42512875D01*
X73052235Y-42517709D01*
X73279550Y-42477628D01*
X73494751Y-42394157D01*
X73689640Y-42270476D01*
X73856794Y-42111297D01*
X73989847Y-41922683D01*
X74083731Y-41711817D01*
X74134869Y-41486731D01*
X74135556Y-41437465D01*
X74322953Y-41437465D01*
X74364621Y-41664495D01*
X74449592Y-41879107D01*
X74574630Y-42073128D01*
X74734972Y-42239168D01*
X74924511Y-42370901D01*
X75136027Y-42463310D01*
X75361464Y-42512875D01*
X75592235Y-42517709D01*
X75819550Y-42477628D01*
X76034751Y-42394157D01*
X76062179Y-42376750D01*
X78724000Y-42376750D01*
X78724000Y-42501178D01*
X78750017Y-42631973D01*
X78801050Y-42755179D01*
X78875140Y-42866062D01*
X78969437Y-42960360D01*
X79080320Y-43034449D01*
X79203526Y-43085483D01*
X79334321Y-43111500D01*
X79508750Y-43111500D01*
X79678000Y-42942250D01*
X79678000Y-42207500D01*
X78893250Y-42207500D01*
X78724000Y-42376750D01*
X76062179Y-42376750D01*
X76229640Y-42270476D01*
X76396794Y-42111297D01*
X76529847Y-41922683D01*
X76623731Y-41711817D01*
X76634617Y-41663900D01*
X77011856Y-41663900D01*
X77013073Y-41667830D01*
X77079506Y-41768646D01*
X77171395Y-41846963D01*
X77281465Y-41896579D01*
X77401000Y-41913566D01*
X78301000Y-41913566D01*
X78368998Y-41908144D01*
X78484330Y-41872427D01*
X78585146Y-41805994D01*
X78663463Y-41714105D01*
X78713079Y-41604035D01*
X78730066Y-41484500D01*
X78730066Y-40684500D01*
X78724644Y-40616502D01*
X78688927Y-40501170D01*
X78622494Y-40400354D01*
X78530605Y-40322037D01*
X78420535Y-40272421D01*
X78301000Y-40255434D01*
X77401000Y-40255434D01*
X77333002Y-40260856D01*
X77217670Y-40296573D01*
X77116854Y-40363006D01*
X77038537Y-40454895D01*
X77015906Y-40505100D01*
X76332718Y-40505100D01*
X76255378Y-40427218D01*
X76064018Y-40298144D01*
X75851232Y-40208697D01*
X75625125Y-40162284D01*
X75394309Y-40160673D01*
X75167576Y-40203924D01*
X74953562Y-40290391D01*
X74760419Y-40416781D01*
X74595503Y-40578278D01*
X74465096Y-40768732D01*
X74374166Y-40980889D01*
X74326176Y-41206666D01*
X74322953Y-41437465D01*
X74135556Y-41437465D01*
X74138550Y-41223089D01*
X74097513Y-41015835D01*
X74103680Y-41008328D01*
X74138071Y-40967342D01*
X74139540Y-40964670D01*
X74141472Y-40962318D01*
X74166755Y-40915165D01*
X74192547Y-40868250D01*
X74193468Y-40865346D01*
X74194908Y-40862661D01*
X74210553Y-40811488D01*
X74226739Y-40760464D01*
X74227079Y-40757435D01*
X74227969Y-40754523D01*
X74233371Y-40701342D01*
X74239344Y-40648090D01*
X74239385Y-40642128D01*
X74239396Y-40642022D01*
X74239387Y-40641923D01*
X74239400Y-40640000D01*
X74239400Y-40518566D01*
X74310000Y-40518566D01*
X74377998Y-40513144D01*
X74493330Y-40477427D01*
X74594146Y-40410994D01*
X74672463Y-40319105D01*
X74722079Y-40209035D01*
X74739066Y-40089500D01*
X74739066Y-38589500D01*
X74733644Y-38521502D01*
X74697927Y-38406170D01*
X74631494Y-38305354D01*
X74539605Y-38227037D01*
X74429535Y-38177421D01*
X74310000Y-38160434D01*
X73010000Y-38160434D01*
X72942002Y-38165856D01*
X72826670Y-38201573D01*
X72725854Y-38268006D01*
X72707685Y-38289323D01*
X72634605Y-38227037D01*
X72524535Y-38177421D01*
X72405000Y-38160434D01*
X71105000Y-38160434D01*
X71037002Y-38165856D01*
X70921670Y-38201573D01*
X70820854Y-38268006D01*
X70742537Y-38359895D01*
X70692921Y-38469965D01*
X70675934Y-38589500D01*
X70675934Y-40089500D01*
X70681356Y-40157498D01*
X70692187Y-40192471D01*
X70545125Y-40162284D01*
X70314309Y-40160673D01*
X70087576Y-40203924D01*
X69873562Y-40290391D01*
X69780902Y-40351026D01*
X69780902Y-36445601D01*
X69775225Y-36387702D01*
X69770148Y-36329674D01*
X69769223Y-36326491D01*
X69768900Y-36323195D01*
X69752067Y-36267442D01*
X69735833Y-36211565D01*
X69734310Y-36208627D01*
X69733351Y-36205450D01*
X69706004Y-36154019D01*
X69679232Y-36102369D01*
X69677164Y-36099778D01*
X69675609Y-36096854D01*
X69638856Y-36051790D01*
X69602499Y-36006247D01*
X69597947Y-36001631D01*
X69597873Y-36001541D01*
X69597789Y-36001472D01*
X69596320Y-35999982D01*
X69098181Y-35501842D01*
X69053202Y-35464896D01*
X69008604Y-35427474D01*
X69005699Y-35425877D01*
X69003140Y-35423775D01*
X68951848Y-35396272D01*
X68900824Y-35368222D01*
X68897666Y-35367220D01*
X68894745Y-35365654D01*
X68839082Y-35348636D01*
X68783588Y-35331032D01*
X68780294Y-35330662D01*
X68777126Y-35329694D01*
X68719294Y-35323820D01*
X68661361Y-35317322D01*
X68654870Y-35317277D01*
X68654762Y-35317266D01*
X68654661Y-35317276D01*
X68652562Y-35317261D01*
X61808689Y-35317261D01*
X61750790Y-35322938D01*
X61692762Y-35328015D01*
X61689579Y-35328940D01*
X61686283Y-35329263D01*
X61630576Y-35346082D01*
X61574653Y-35362329D01*
X61571711Y-35363854D01*
X61568538Y-35364812D01*
X61517182Y-35392119D01*
X61465457Y-35418930D01*
X61462863Y-35421001D01*
X61459942Y-35422554D01*
X61414906Y-35459285D01*
X61369335Y-35495664D01*
X61364715Y-35500220D01*
X61364629Y-35500290D01*
X61364563Y-35500370D01*
X61363070Y-35501842D01*
X57193151Y-39671761D01*
X56300969Y-39671761D01*
X56310915Y-39660091D01*
X56367212Y-39553284D01*
X56391524Y-39435021D01*
X56381938Y-39314810D01*
X56472903Y-39352489D01*
X56603699Y-39378505D01*
X56737056Y-39378506D01*
X56867851Y-39352489D01*
X56991057Y-39301456D01*
X57101940Y-39227366D01*
X57437412Y-38891894D01*
X57437412Y-38652539D01*
X56758766Y-37973893D01*
X56744624Y-37988035D01*
X56499965Y-37743376D01*
X56514107Y-37729234D01*
X57003425Y-37729234D01*
X57682071Y-38407880D01*
X57921426Y-38407880D01*
X58256898Y-38072408D01*
X58330988Y-37961525D01*
X58382021Y-37838319D01*
X58408038Y-37707524D01*
X58408037Y-37574167D01*
X58382021Y-37443371D01*
X58330987Y-37320166D01*
X58256898Y-37209283D01*
X58009815Y-36962200D01*
X57770459Y-36962200D01*
X57003425Y-37729234D01*
X56514107Y-37729234D01*
X55835461Y-37050588D01*
X55596106Y-37050588D01*
X55523062Y-37123632D01*
X55523062Y-36947576D01*
X55583526Y-36907176D01*
X55608224Y-36882478D01*
X55608224Y-36643122D01*
X55372272Y-36407170D01*
X55351095Y-36351232D01*
X55278582Y-36254697D01*
X54147211Y-35123326D01*
X54095295Y-35079078D01*
X53988488Y-35022781D01*
X53987726Y-35022624D01*
X53758786Y-34793684D01*
X53519430Y-34793684D01*
X53494732Y-34818382D01*
X53420643Y-34929265D01*
X53369609Y-35052471D01*
X53343593Y-35183266D01*
X53343592Y-35315407D01*
X53211451Y-35315408D01*
X53080656Y-35341424D01*
X52957450Y-35392458D01*
X52846567Y-35466547D01*
X52821869Y-35491245D01*
X52821869Y-35730601D01*
X53057823Y-35966555D01*
X53078999Y-36022490D01*
X53151512Y-36119025D01*
X53853669Y-36821182D01*
X53717997Y-36956854D01*
X53015840Y-36254697D01*
X52963924Y-36210449D01*
X52857117Y-36154152D01*
X52856355Y-36153995D01*
X52627415Y-35925055D01*
X52581737Y-35925055D01*
X51753619Y-35096937D01*
X51708640Y-35059991D01*
X51664042Y-35022569D01*
X51661137Y-35020972D01*
X51658578Y-35018870D01*
X51607286Y-34991367D01*
X51556262Y-34963317D01*
X51553104Y-34962315D01*
X51550183Y-34960749D01*
X51494520Y-34943731D01*
X51439026Y-34926127D01*
X51435732Y-34925757D01*
X51432564Y-34924789D01*
X51374732Y-34918915D01*
X51316799Y-34912417D01*
X51310308Y-34912372D01*
X51310200Y-34912361D01*
X51310099Y-34912371D01*
X51308000Y-34912356D01*
X50437667Y-34912356D01*
X47822282Y-32296971D01*
X48136803Y-31982450D01*
X48181051Y-31930534D01*
X48206548Y-31882160D01*
X48217044Y-31878187D01*
X48313579Y-31805674D01*
X48506246Y-31613007D01*
X48509192Y-31613593D01*
X48642549Y-31613592D01*
X48773344Y-31587576D01*
X48896550Y-31536542D01*
X49007433Y-31462453D01*
X49032131Y-31437755D01*
X49032131Y-31198399D01*
X48796177Y-30962445D01*
X48775001Y-30906510D01*
X48702488Y-30809975D01*
X47571117Y-29678604D01*
X47519201Y-29634356D01*
X47412394Y-29578059D01*
X47411635Y-29577903D01*
X47182693Y-29348961D01*
X47166168Y-29348961D01*
X46654683Y-28837476D01*
X46640541Y-28851618D01*
X46395882Y-28606959D01*
X46410024Y-28592817D01*
X45731378Y-27914171D01*
X45492023Y-27914171D01*
X45156551Y-28249643D01*
X45141067Y-28272816D01*
X45142782Y-28150020D01*
X45096044Y-27913976D01*
X45004348Y-27691505D01*
X44871187Y-27491082D01*
X44701633Y-27320340D01*
X44502144Y-27185783D01*
X44280318Y-27092536D01*
X44044606Y-27044151D01*
X43803985Y-27042471D01*
X43567620Y-27087560D01*
X43556745Y-27091954D01*
X43525428Y-27060637D01*
X43525422Y-27060632D01*
X43423593Y-26958802D01*
X43382223Y-26924820D01*
X43341237Y-26890429D01*
X43338565Y-26888960D01*
X43336213Y-26887028D01*
X43289060Y-26861745D01*
X43242145Y-26835953D01*
X43239241Y-26835032D01*
X43236556Y-26833592D01*
X43185383Y-26817947D01*
X43134359Y-26801761D01*
X43131330Y-26801421D01*
X43128418Y-26800531D01*
X43075237Y-26795129D01*
X43021985Y-26789156D01*
X43016023Y-26789115D01*
X43015917Y-26789104D01*
X43015818Y-26789113D01*
X43013895Y-26789100D01*
X42608066Y-26789100D01*
X42608066Y-26618500D01*
X42602644Y-26550502D01*
X42566927Y-26435170D01*
X42500494Y-26334354D01*
X42408605Y-26256037D01*
X42298535Y-26206421D01*
X42179000Y-26189434D01*
X40879000Y-26189434D01*
X40811002Y-26194856D01*
X40695670Y-26230573D01*
X40594854Y-26297006D01*
X40516537Y-26388895D01*
X40466921Y-26498965D01*
X40449934Y-26618500D01*
X40449934Y-26793627D01*
X40442860Y-26794320D01*
X40389516Y-26798987D01*
X40386586Y-26799838D01*
X40383559Y-26800135D01*
X40332387Y-26815585D01*
X40280927Y-26830535D01*
X40278220Y-26831938D01*
X40275306Y-26832818D01*
X40228072Y-26857932D01*
X40180534Y-26882574D01*
X40178153Y-26884475D01*
X40175463Y-26885905D01*
X40134039Y-26919690D01*
X40092160Y-26953121D01*
X40087913Y-26957310D01*
X40087833Y-26957375D01*
X40087772Y-26957449D01*
X40086400Y-26958802D01*
X39485618Y-27559584D01*
X39451636Y-27600954D01*
X39417245Y-27641940D01*
X39415776Y-27644612D01*
X39413844Y-27646964D01*
X39388561Y-27694117D01*
X39362769Y-27741032D01*
X39361848Y-27743936D01*
X39360408Y-27746621D01*
X39344763Y-27797794D01*
X39328577Y-27848818D01*
X39328237Y-27851847D01*
X39327347Y-27854759D01*
X39321945Y-27907940D01*
X39315972Y-27961192D01*
X39315931Y-27967154D01*
X39315920Y-27967260D01*
X39315929Y-27967359D01*
X39315916Y-27969282D01*
X39315916Y-28275530D01*
X39167229Y-28133788D01*
X38914428Y-27973478D01*
X38635209Y-27865567D01*
X38400000Y-27989075D01*
X38400000Y-29164000D01*
X38420000Y-29164000D01*
X38420000Y-29510000D01*
X38400000Y-29510000D01*
X38400000Y-29530000D01*
X38054000Y-29530000D01*
X38054000Y-29510000D01*
X38034000Y-29510000D01*
X38034000Y-29164000D01*
X38054000Y-29164000D01*
X38054000Y-27989075D01*
X37818791Y-27865567D01*
X37539572Y-27973478D01*
X37286771Y-28133788D01*
X37070102Y-28340337D01*
X36897892Y-28585187D01*
X36822872Y-28754721D01*
X36761727Y-28637762D01*
X36605561Y-28443530D01*
X36414642Y-28283330D01*
X36196243Y-28163264D01*
X35958682Y-28087906D01*
X35711009Y-28060124D01*
X35693179Y-28060000D01*
X35680821Y-28060000D01*
X35432784Y-28084320D01*
X35194194Y-28156355D01*
X34974140Y-28273360D01*
X34781003Y-28430878D01*
X34622140Y-28622911D01*
X34503602Y-28842143D01*
X34429903Y-29080223D01*
X34403852Y-29328085D01*
X34426440Y-29576286D01*
X34496807Y-29815373D01*
X34612273Y-30036238D01*
X34659563Y-30095056D01*
X34656974Y-30096432D01*
X34609436Y-30121074D01*
X34607055Y-30122975D01*
X34604365Y-30124405D01*
X34562941Y-30158190D01*
X34521062Y-30191621D01*
X34516815Y-30195810D01*
X34516735Y-30195875D01*
X34516674Y-30195949D01*
X34515302Y-30197302D01*
X33834735Y-30877869D01*
X33800753Y-30919239D01*
X33766362Y-30960225D01*
X33764893Y-30962897D01*
X33762961Y-30965249D01*
X33737687Y-31012385D01*
X33711886Y-31059317D01*
X33710965Y-31062221D01*
X33709525Y-31064906D01*
X33693880Y-31116079D01*
X33677694Y-31167103D01*
X33677354Y-31170132D01*
X33676464Y-31173044D01*
X33671062Y-31226225D01*
X33665089Y-31279477D01*
X33665048Y-31285439D01*
X33665037Y-31285545D01*
X33665046Y-31285644D01*
X33665033Y-31287567D01*
X33665033Y-35286725D01*
X33670254Y-35339967D01*
X33674920Y-35393306D01*
X33675771Y-35396235D01*
X33676068Y-35399264D01*
X33691525Y-35450462D01*
X33706468Y-35501895D01*
X33707871Y-35504601D01*
X33708751Y-35507517D01*
X33733875Y-35554769D01*
X33758507Y-35602289D01*
X33760408Y-35604670D01*
X33761838Y-35607360D01*
X33795623Y-35648784D01*
X33829054Y-35690663D01*
X33833243Y-35694910D01*
X33833308Y-35694990D01*
X33833382Y-35695051D01*
X33834735Y-35696423D01*
X34441312Y-36303000D01*
X33210500Y-36303000D01*
X33018958Y-36339041D01*
X32843038Y-36452242D01*
X32725020Y-36624967D01*
X32683500Y-36830000D01*
X32683500Y-36973934D01*
X30762047Y-36973934D01*
X30694049Y-36979356D01*
X30578717Y-37015073D01*
X30477901Y-37081506D01*
X30399584Y-37173395D01*
X30349968Y-37283465D01*
X30332981Y-37403000D01*
X30332981Y-37421200D01*
X30143348Y-37421200D01*
X30076070Y-37427797D01*
X30008733Y-37433688D01*
X30005039Y-37434761D01*
X30001207Y-37435137D01*
X29936464Y-37454684D01*
X29871582Y-37473534D01*
X29868167Y-37475304D01*
X29864481Y-37476417D01*
X29804746Y-37508178D01*
X29744782Y-37539261D01*
X29741778Y-37541659D01*
X29738376Y-37543468D01*
X29685979Y-37586202D01*
X29633163Y-37628364D01*
X29627808Y-37633646D01*
X29627697Y-37633736D01*
X29627612Y-37633838D01*
X29625888Y-37635539D01*
X28565539Y-38695887D01*
X28522619Y-38748139D01*
X28479182Y-38799905D01*
X28477329Y-38803276D01*
X28474885Y-38806251D01*
X28442928Y-38865851D01*
X28410377Y-38925061D01*
X28409214Y-38928728D01*
X28407395Y-38932120D01*
X28387616Y-38996812D01*
X28367192Y-39061198D01*
X28366764Y-39065017D01*
X28365637Y-39068702D01*
X28361002Y-39114337D01*
X28274670Y-39141073D01*
X28173854Y-39207506D01*
X28095537Y-39299395D01*
X28045921Y-39409465D01*
X28028934Y-39529000D01*
X28028934Y-39547200D01*
X27602500Y-39547200D01*
X27535227Y-39553796D01*
X27467884Y-39559688D01*
X27464189Y-39560761D01*
X27460359Y-39561137D01*
X27395641Y-39580676D01*
X27330733Y-39599534D01*
X27327317Y-39601305D01*
X27323633Y-39602417D01*
X27263937Y-39634158D01*
X27203933Y-39665261D01*
X27200927Y-39667661D01*
X27197528Y-39669468D01*
X27145153Y-39712184D01*
X27092315Y-39754364D01*
X27086955Y-39759649D01*
X27086849Y-39759736D01*
X27086768Y-39759834D01*
X27085039Y-39761539D01*
X25894438Y-40952140D01*
X25094510Y-40952140D01*
X25068740Y-40902847D01*
X24894292Y-40685877D01*
X24681024Y-40506924D01*
X24437058Y-40372803D01*
X24171688Y-40288622D01*
X23895021Y-40257589D01*
X23875104Y-40257450D01*
X22352896Y-40257450D01*
X22075823Y-40284617D01*
X21809303Y-40365084D01*
X21563488Y-40495786D01*
X21347742Y-40671744D01*
X21170282Y-40886257D01*
X21037867Y-41131153D01*
X20955542Y-41397104D01*
X20926441Y-41673981D01*
X18536000Y-41673981D01*
X18536000Y-35456061D01*
X20926441Y-35456061D01*
X20951673Y-35733318D01*
X21030278Y-36000393D01*
X21159260Y-36247113D01*
X21333708Y-36464083D01*
X21546976Y-36643036D01*
X21790942Y-36777157D01*
X22056312Y-36861338D01*
X22332979Y-36892371D01*
X22352896Y-36892510D01*
X23875104Y-36892510D01*
X24152177Y-36865343D01*
X24418697Y-36784876D01*
X24664512Y-36654174D01*
X24880258Y-36478216D01*
X25057718Y-36263703D01*
X25148276Y-36096220D01*
X26347384Y-36096220D01*
X26574283Y-36323119D01*
X26619262Y-36360065D01*
X26663860Y-36397487D01*
X26666765Y-36399084D01*
X26669324Y-36401186D01*
X26720616Y-36428689D01*
X26771640Y-36456739D01*
X26774798Y-36457741D01*
X26777719Y-36459307D01*
X26833382Y-36476325D01*
X26888876Y-36493929D01*
X26892170Y-36494299D01*
X26895338Y-36495267D01*
X26953170Y-36501141D01*
X27011103Y-36507639D01*
X27017594Y-36507684D01*
X27017702Y-36507695D01*
X27017803Y-36507685D01*
X27019902Y-36507700D01*
X31155400Y-36507700D01*
X31213299Y-36502023D01*
X31271327Y-36496946D01*
X31274510Y-36496021D01*
X31277806Y-36495698D01*
X31333513Y-36478879D01*
X31389436Y-36462632D01*
X31392378Y-36461107D01*
X31395551Y-36460149D01*
X31446947Y-36432821D01*
X31498632Y-36406030D01*
X31501223Y-36403962D01*
X31504147Y-36402407D01*
X31549211Y-36365654D01*
X31594754Y-36329297D01*
X31599374Y-36324741D01*
X31599460Y-36324671D01*
X31599526Y-36324591D01*
X31601019Y-36323119D01*
X31941619Y-35982519D01*
X31978565Y-35937540D01*
X32015987Y-35892942D01*
X32017584Y-35890037D01*
X32019686Y-35887478D01*
X32047189Y-35836186D01*
X32075239Y-35785162D01*
X32076241Y-35782004D01*
X32077807Y-35779083D01*
X32094825Y-35723420D01*
X32112429Y-35667926D01*
X32112799Y-35664632D01*
X32113767Y-35661464D01*
X32119641Y-35603632D01*
X32124584Y-35559566D01*
X32246000Y-35559566D01*
X32313998Y-35554144D01*
X32429330Y-35518427D01*
X32530146Y-35451994D01*
X32608463Y-35360105D01*
X32658079Y-35250035D01*
X32675066Y-35130500D01*
X32675066Y-33830500D01*
X32669644Y-33762502D01*
X32633927Y-33647170D01*
X32567494Y-33546354D01*
X32546177Y-33528185D01*
X32608463Y-33455105D01*
X32658079Y-33345035D01*
X32675066Y-33225500D01*
X32675066Y-31925500D01*
X32669644Y-31857502D01*
X32633927Y-31742170D01*
X32567494Y-31641354D01*
X32546177Y-31623185D01*
X32608463Y-31550105D01*
X32658079Y-31440035D01*
X32675066Y-31320500D01*
X32675066Y-30020500D01*
X32669644Y-29952502D01*
X32633927Y-29837170D01*
X32567494Y-29736354D01*
X32538522Y-29711661D01*
X32548066Y-29644500D01*
X32548066Y-28394500D01*
X32542644Y-28326502D01*
X32506927Y-28211170D01*
X32440494Y-28110354D01*
X32348605Y-28032037D01*
X32238535Y-27982421D01*
X32119000Y-27965434D01*
X31999200Y-27965434D01*
X31999200Y-27820038D01*
X32068672Y-27750566D01*
X34706500Y-27750566D01*
X34774498Y-27745144D01*
X34889830Y-27709427D01*
X34990646Y-27642994D01*
X35068963Y-27551105D01*
X35118579Y-27441035D01*
X35135566Y-27321500D01*
X35135566Y-26601700D01*
X35583958Y-26601700D01*
X35641857Y-26596023D01*
X35699885Y-26590946D01*
X35703068Y-26590021D01*
X35706364Y-26589698D01*
X35762071Y-26572879D01*
X35817994Y-26556632D01*
X35820936Y-26555107D01*
X35824109Y-26554149D01*
X35875505Y-26526821D01*
X35927190Y-26500030D01*
X35929781Y-26497962D01*
X35932705Y-26496407D01*
X35977769Y-26459654D01*
X36023312Y-26423297D01*
X36027932Y-26418741D01*
X36028018Y-26418671D01*
X36028084Y-26418591D01*
X36029577Y-26417119D01*
X36641423Y-25805273D01*
X45204962Y-25805273D01*
X46421129Y-27021439D01*
X46311509Y-27094685D01*
X45976037Y-27430157D01*
X45976037Y-27669512D01*
X46654683Y-28348158D01*
X46668825Y-28334016D01*
X46913484Y-28578675D01*
X46899342Y-28592817D01*
X47377147Y-29070622D01*
X47377147Y-29154507D01*
X47613099Y-29390459D01*
X47634276Y-29446397D01*
X47706789Y-29542932D01*
X48838160Y-30674303D01*
X48890076Y-30718551D01*
X48996883Y-30774848D01*
X48997645Y-30775005D01*
X49226585Y-31003945D01*
X49465941Y-31003945D01*
X49490639Y-30979247D01*
X49564728Y-30868364D01*
X49615762Y-30745158D01*
X49641778Y-30614363D01*
X49641779Y-30481006D01*
X49641193Y-30478060D01*
X49833859Y-30285394D01*
X49878107Y-30233478D01*
X49903604Y-30185105D01*
X49914101Y-30181131D01*
X50010636Y-30108618D01*
X50399545Y-29719709D01*
X50443793Y-29667793D01*
X50469291Y-29619418D01*
X50479786Y-29615445D01*
X50576321Y-29542932D01*
X50927000Y-29192253D01*
X51277679Y-29542932D01*
X51329595Y-29587180D01*
X51377968Y-29612677D01*
X51381942Y-29623174D01*
X51454455Y-29719709D01*
X51843364Y-30108618D01*
X51895280Y-30152866D01*
X51943655Y-30178364D01*
X51947628Y-30188859D01*
X52020141Y-30285394D01*
X52409050Y-30674303D01*
X52460966Y-30718551D01*
X52509340Y-30744048D01*
X52513313Y-30754544D01*
X52585826Y-30851079D01*
X52974735Y-31239988D01*
X53026651Y-31284236D01*
X53075025Y-31309734D01*
X53078999Y-31320230D01*
X53151512Y-31416765D01*
X53540421Y-31805674D01*
X53592337Y-31849922D01*
X53640711Y-31875419D01*
X53644684Y-31885915D01*
X53717197Y-31982450D01*
X54106106Y-32371359D01*
X54158022Y-32415607D01*
X54206395Y-32441104D01*
X54210369Y-32451601D01*
X54282882Y-32548136D01*
X54671791Y-32937045D01*
X54723707Y-32981293D01*
X54772082Y-33006791D01*
X54776055Y-33017286D01*
X54848568Y-33113821D01*
X55199247Y-33464500D01*
X54848568Y-33815179D01*
X54804320Y-33867095D01*
X54778823Y-33915468D01*
X54768326Y-33919442D01*
X54671791Y-33991955D01*
X54479124Y-34184622D01*
X54476179Y-34184036D01*
X54342822Y-34184037D01*
X54212027Y-34210053D01*
X54088821Y-34261087D01*
X53977938Y-34335176D01*
X53953240Y-34359874D01*
X53953240Y-34599230D01*
X54189193Y-34835182D01*
X54210369Y-34891119D01*
X54282882Y-34987654D01*
X55414253Y-36119025D01*
X55466169Y-36163273D01*
X55572976Y-36219570D01*
X55573737Y-36219726D01*
X55802678Y-36448668D01*
X56042034Y-36448668D01*
X56066732Y-36423970D01*
X56140821Y-36313087D01*
X56158136Y-36271285D01*
X56375409Y-36271285D01*
X56080120Y-36566574D01*
X56080120Y-36805929D01*
X56758766Y-37484575D01*
X57525800Y-36717541D01*
X57525800Y-36478185D01*
X57318900Y-36271285D01*
X57970615Y-36271285D01*
X58023857Y-36266064D01*
X58077196Y-36261398D01*
X58080125Y-36260547D01*
X58083154Y-36260250D01*
X58134352Y-36244793D01*
X58185785Y-36229850D01*
X58188491Y-36228447D01*
X58191407Y-36227567D01*
X58238659Y-36202443D01*
X58286179Y-36177811D01*
X58288560Y-36175910D01*
X58291250Y-36174480D01*
X58332674Y-36140695D01*
X58374553Y-36107264D01*
X58378800Y-36103075D01*
X58378880Y-36103010D01*
X58378941Y-36102936D01*
X58380313Y-36101583D01*
X59396649Y-35085246D01*
X70778350Y-35085246D01*
X71153538Y-35460434D01*
X71105000Y-35460434D01*
X71037002Y-35465856D01*
X70921670Y-35501573D01*
X70820854Y-35568006D01*
X70742537Y-35659895D01*
X70692921Y-35769965D01*
X70675934Y-35889500D01*
X70675934Y-37389500D01*
X70681356Y-37457498D01*
X70717073Y-37572830D01*
X70783506Y-37673646D01*
X70875395Y-37751963D01*
X70985465Y-37801579D01*
X71105000Y-37818566D01*
X72405000Y-37818566D01*
X72472998Y-37813144D01*
X72588330Y-37777427D01*
X72689146Y-37710994D01*
X72707315Y-37689677D01*
X72780395Y-37751963D01*
X72890465Y-37801579D01*
X73010000Y-37818566D01*
X74310000Y-37818566D01*
X74377998Y-37813144D01*
X74493330Y-37777427D01*
X74594146Y-37710994D01*
X74672463Y-37619105D01*
X74722079Y-37509035D01*
X74739066Y-37389500D01*
X74739066Y-35889500D01*
X74733644Y-35821502D01*
X74697927Y-35706170D01*
X74648657Y-35631400D01*
X77406500Y-35631400D01*
X77459742Y-35626179D01*
X77513081Y-35621513D01*
X77516010Y-35620662D01*
X77519039Y-35620365D01*
X77570237Y-35604908D01*
X77621670Y-35589965D01*
X77624376Y-35588562D01*
X77627292Y-35587682D01*
X77674544Y-35562558D01*
X77722064Y-35537926D01*
X77724445Y-35536025D01*
X77727135Y-35534595D01*
X77768559Y-35500810D01*
X77810438Y-35467379D01*
X77814685Y-35463190D01*
X77814765Y-35463125D01*
X77814826Y-35463051D01*
X77816198Y-35461698D01*
X79149698Y-34128198D01*
X79183680Y-34086828D01*
X79218071Y-34045842D01*
X79219540Y-34043170D01*
X79221472Y-34040818D01*
X79246755Y-33993665D01*
X79272547Y-33946750D01*
X79273468Y-33943846D01*
X79274908Y-33941161D01*
X79290566Y-33889947D01*
X79306739Y-33838964D01*
X79307078Y-33835940D01*
X79307970Y-33833023D01*
X79313376Y-33779792D01*
X79319344Y-33726590D01*
X79319385Y-33720628D01*
X79319396Y-33720522D01*
X79319387Y-33720423D01*
X79319400Y-33718500D01*
X79319400Y-30706566D01*
X79390000Y-30706566D01*
X79457998Y-30701144D01*
X79573330Y-30665427D01*
X79674146Y-30598994D01*
X79752463Y-30507105D01*
X79802079Y-30397035D01*
X79819066Y-30277500D01*
X79819066Y-28777500D01*
X79813644Y-28709502D01*
X79777927Y-28594170D01*
X79711494Y-28493354D01*
X79619605Y-28415037D01*
X79509535Y-28365421D01*
X79390000Y-28348434D01*
X78090000Y-28348434D01*
X78022002Y-28353856D01*
X77906670Y-28389573D01*
X77805854Y-28456006D01*
X77727537Y-28547895D01*
X77677921Y-28657965D01*
X77660934Y-28777500D01*
X77660934Y-30277500D01*
X77666356Y-30345498D01*
X77702073Y-30460830D01*
X77768506Y-30561646D01*
X77860395Y-30639963D01*
X77970465Y-30689579D01*
X78090000Y-30706566D01*
X78160600Y-30706566D01*
X78160600Y-33478504D01*
X77166504Y-34472600D01*
X74344495Y-34472600D01*
X72833520Y-32961624D01*
X72811715Y-32943713D01*
X72843321Y-32950000D01*
X73317750Y-32950000D01*
X73487000Y-32780750D01*
X73487000Y-31796000D01*
X73833000Y-31796000D01*
X73833000Y-32780750D01*
X74002250Y-32950000D01*
X74476679Y-32950000D01*
X74607474Y-32923983D01*
X74730680Y-32872949D01*
X74841563Y-32798860D01*
X74935860Y-32704562D01*
X75009950Y-32593679D01*
X75060983Y-32470473D01*
X75087000Y-32339678D01*
X75087000Y-31965250D01*
X74917750Y-31796000D01*
X73833000Y-31796000D01*
X73487000Y-31796000D01*
X73467000Y-31796000D01*
X73467000Y-31450000D01*
X73487000Y-31450000D01*
X73487000Y-31430000D01*
X73833000Y-31430000D01*
X73833000Y-31450000D01*
X74917750Y-31450000D01*
X75087000Y-31280750D01*
X75087000Y-30906322D01*
X75060983Y-30775527D01*
X75009950Y-30652321D01*
X74993694Y-30627992D01*
X75054963Y-30556105D01*
X75085745Y-30487816D01*
X75290691Y-30692762D01*
X75247537Y-30743395D01*
X75197921Y-30853465D01*
X75180934Y-30973000D01*
X75180934Y-32273000D01*
X75186356Y-32340998D01*
X75222073Y-32456330D01*
X75288506Y-32557146D01*
X75380395Y-32635463D01*
X75490465Y-32685079D01*
X75610000Y-32702066D01*
X77110000Y-32702066D01*
X77177998Y-32696644D01*
X77293330Y-32660927D01*
X77394146Y-32594494D01*
X77472463Y-32502605D01*
X77522079Y-32392535D01*
X77539066Y-32273000D01*
X77539066Y-30973000D01*
X77533644Y-30905002D01*
X77497927Y-30789670D01*
X77431494Y-30688854D01*
X77339605Y-30610537D01*
X77229535Y-30560921D01*
X77110000Y-30543934D01*
X76779527Y-30543934D01*
X76775378Y-30538737D01*
X76771191Y-30534492D01*
X76771125Y-30534410D01*
X76771050Y-30534348D01*
X76769698Y-30532977D01*
X75703523Y-29466802D01*
X75662153Y-29432820D01*
X75621167Y-29398429D01*
X75618495Y-29396960D01*
X75616143Y-29395028D01*
X75568990Y-29369745D01*
X75522075Y-29343953D01*
X75519171Y-29343032D01*
X75516486Y-29341592D01*
X75465313Y-29325947D01*
X75414289Y-29309761D01*
X75411260Y-29309421D01*
X75408348Y-29308531D01*
X75355167Y-29303129D01*
X75301915Y-29297156D01*
X75295953Y-29297115D01*
X75295847Y-29297104D01*
X75295748Y-29297113D01*
X75293825Y-29297100D01*
X75097129Y-29297100D01*
X75080427Y-29243170D01*
X75013994Y-29142354D01*
X74922105Y-29064037D01*
X74812035Y-29014421D01*
X74692500Y-28997434D01*
X74282829Y-28997434D01*
X73970432Y-28685036D01*
X74026646Y-28647994D01*
X74104963Y-28556105D01*
X74154579Y-28446035D01*
X74171566Y-28326500D01*
X74171566Y-27426500D01*
X74166144Y-27358502D01*
X74130427Y-27243170D01*
X74063994Y-27142354D01*
X73972105Y-27064037D01*
X73921900Y-27041406D01*
X73921900Y-26779004D01*
X73989847Y-26682683D01*
X74083731Y-26471817D01*
X74134869Y-26246731D01*
X74135556Y-26197465D01*
X74322953Y-26197465D01*
X74364621Y-26424495D01*
X74449592Y-26639107D01*
X74574630Y-26833128D01*
X74734972Y-26999168D01*
X74924511Y-27130901D01*
X75136027Y-27223310D01*
X75361464Y-27272875D01*
X75592235Y-27277709D01*
X75819550Y-27237628D01*
X76034751Y-27154157D01*
X76229640Y-27030476D01*
X76396794Y-26871297D01*
X76468572Y-26769546D01*
X76918263Y-27219237D01*
X76957797Y-27251711D01*
X76997008Y-27284613D01*
X76999562Y-27286017D01*
X77001813Y-27287866D01*
X77046931Y-27312058D01*
X77091756Y-27336701D01*
X77094530Y-27337581D01*
X77097100Y-27338959D01*
X77146044Y-27353922D01*
X77194817Y-27369394D01*
X77197714Y-27369719D01*
X77200498Y-27370570D01*
X77251361Y-27375736D01*
X77302265Y-27381446D01*
X77307966Y-27381486D01*
X77308066Y-27381496D01*
X77308160Y-27381487D01*
X77310000Y-27381500D01*
X77660934Y-27381500D01*
X77660934Y-27577500D01*
X77666356Y-27645498D01*
X77702073Y-27760830D01*
X77768506Y-27861646D01*
X77860395Y-27939963D01*
X77970465Y-27989579D01*
X78090000Y-28006566D01*
X79390000Y-28006566D01*
X79457998Y-28001144D01*
X79573330Y-27965427D01*
X79674146Y-27898994D01*
X79752463Y-27807105D01*
X79802079Y-27697035D01*
X79819066Y-27577500D01*
X79819066Y-26077500D01*
X79813644Y-26009502D01*
X79777927Y-25894170D01*
X79711494Y-25793354D01*
X79619605Y-25715037D01*
X79509535Y-25665421D01*
X79390000Y-25648434D01*
X78090000Y-25648434D01*
X78022002Y-25653856D01*
X77906670Y-25689573D01*
X77805854Y-25756006D01*
X77727537Y-25847895D01*
X77677921Y-25957965D01*
X77660934Y-26077500D01*
X77660934Y-26273500D01*
X77539474Y-26273500D01*
X76972737Y-25706763D01*
X76933208Y-25674293D01*
X76893992Y-25641387D01*
X76891437Y-25639982D01*
X76889188Y-25638135D01*
X76844087Y-25613951D01*
X76799244Y-25589299D01*
X76796470Y-25588419D01*
X76793900Y-25587041D01*
X76744956Y-25572078D01*
X76696183Y-25556606D01*
X76693286Y-25556281D01*
X76690502Y-25555430D01*
X76639639Y-25550264D01*
X76588735Y-25544554D01*
X76583034Y-25544514D01*
X76582934Y-25544504D01*
X76582840Y-25544513D01*
X76581000Y-25544500D01*
X76546270Y-25544500D01*
X76545758Y-25543258D01*
X76418023Y-25351002D01*
X76255378Y-25187218D01*
X76064018Y-25058144D01*
X75851232Y-24968697D01*
X75625125Y-24922284D01*
X75394309Y-24920673D01*
X75167576Y-24963924D01*
X74953562Y-25050391D01*
X74760419Y-25176781D01*
X74595503Y-25338278D01*
X74465096Y-25528732D01*
X74374166Y-25740889D01*
X74326176Y-25966666D01*
X74322953Y-26197465D01*
X74135556Y-26197465D01*
X74138550Y-25983089D01*
X74093717Y-25756664D01*
X74005758Y-25543258D01*
X73878023Y-25351002D01*
X73715378Y-25187218D01*
X73524018Y-25058144D01*
X73311232Y-24968697D01*
X73085125Y-24922284D01*
X72854309Y-24920673D01*
X72627576Y-24963924D01*
X72413562Y-25050391D01*
X72242814Y-25162126D01*
X72240423Y-25137739D01*
X72235756Y-25084395D01*
X72234905Y-25081465D01*
X72234608Y-25078438D01*
X72219145Y-25027220D01*
X72204207Y-24975806D01*
X72202806Y-24973103D01*
X72201925Y-24970185D01*
X72176792Y-24922916D01*
X72152169Y-24875413D01*
X72150268Y-24873032D01*
X72148838Y-24870342D01*
X72115028Y-24828888D01*
X72081621Y-24787039D01*
X72077438Y-24782798D01*
X72077368Y-24782712D01*
X72077288Y-24782646D01*
X72075940Y-24781279D01*
X71850938Y-24556277D01*
X80315381Y-24556277D01*
X81081600Y-25322496D01*
X81081600Y-37873434D01*
X81011000Y-37873434D01*
X80943002Y-37878856D01*
X80827670Y-37914573D01*
X80726854Y-37981006D01*
X80648537Y-38072895D01*
X80598921Y-38182965D01*
X80581934Y-38302500D01*
X80581934Y-38473100D01*
X80567875Y-38473100D01*
X80514637Y-38478320D01*
X80461293Y-38482987D01*
X80458363Y-38483838D01*
X80455336Y-38484135D01*
X80404118Y-38499598D01*
X80352704Y-38514536D01*
X80350001Y-38515937D01*
X80347083Y-38516818D01*
X80299814Y-38541951D01*
X80252311Y-38566574D01*
X80249930Y-38568475D01*
X80247240Y-38569905D01*
X80205786Y-38603715D01*
X80163937Y-38637122D01*
X80159696Y-38641305D01*
X80159610Y-38641375D01*
X80159544Y-38641455D01*
X80158177Y-38642803D01*
X79495545Y-39305434D01*
X79401000Y-39305434D01*
X79333002Y-39310856D01*
X79217670Y-39346573D01*
X79116854Y-39413006D01*
X79038537Y-39504895D01*
X78988921Y-39614965D01*
X78971934Y-39734500D01*
X78971934Y-40534500D01*
X78977356Y-40602498D01*
X79013073Y-40717830D01*
X79079506Y-40818646D01*
X79171395Y-40896963D01*
X79281465Y-40946579D01*
X79358314Y-40957500D01*
X79334321Y-40957500D01*
X79203526Y-40983517D01*
X79080320Y-41034551D01*
X78969437Y-41108640D01*
X78875140Y-41202938D01*
X78801050Y-41313821D01*
X78750017Y-41437027D01*
X78724000Y-41567822D01*
X78724000Y-41692250D01*
X78893250Y-41861500D01*
X79678000Y-41861500D01*
X79678000Y-41841500D01*
X80024000Y-41841500D01*
X80024000Y-41861500D01*
X80044000Y-41861500D01*
X80044000Y-42207500D01*
X80024000Y-42207500D01*
X80024000Y-42942250D01*
X80193250Y-43111500D01*
X80367679Y-43111500D01*
X80498474Y-43085483D01*
X80601229Y-43042920D01*
X80690321Y-43102450D01*
X80813527Y-43153483D01*
X80944322Y-43179500D01*
X81318750Y-43179500D01*
X81488000Y-43010250D01*
X81488000Y-41925500D01*
X81834000Y-41925500D01*
X81834000Y-43010250D01*
X82003250Y-43179500D01*
X82377678Y-43179500D01*
X82508473Y-43153483D01*
X82631679Y-43102450D01*
X82742562Y-43028360D01*
X82836860Y-42934063D01*
X82910949Y-42823180D01*
X82961983Y-42699974D01*
X82988000Y-42569179D01*
X82988000Y-42094750D01*
X82818750Y-41925500D01*
X81834000Y-41925500D01*
X81488000Y-41925500D01*
X81468000Y-41925500D01*
X81468000Y-41579500D01*
X81488000Y-41579500D01*
X81488000Y-40494750D01*
X81834000Y-40494750D01*
X81834000Y-41579500D01*
X82818750Y-41579500D01*
X82988000Y-41410250D01*
X82988000Y-40935821D01*
X82961983Y-40805026D01*
X82910949Y-40681820D01*
X82836860Y-40570937D01*
X82742562Y-40476640D01*
X82631679Y-40402550D01*
X82508473Y-40351517D01*
X82377678Y-40325500D01*
X82003250Y-40325500D01*
X81834000Y-40494750D01*
X81488000Y-40494750D01*
X81318750Y-40325500D01*
X80944322Y-40325500D01*
X80813527Y-40351517D01*
X80730066Y-40386087D01*
X80730066Y-40121215D01*
X80781395Y-40164963D01*
X80891465Y-40214579D01*
X81011000Y-40231566D01*
X82311000Y-40231566D01*
X82378998Y-40226144D01*
X82494330Y-40190427D01*
X82595146Y-40123994D01*
X82673463Y-40032105D01*
X82723079Y-39922035D01*
X82740066Y-39802500D01*
X82740066Y-38302500D01*
X82734644Y-38234502D01*
X82698927Y-38119170D01*
X82632494Y-38018354D01*
X82540605Y-37940037D01*
X82430535Y-37890421D01*
X82311000Y-37873434D01*
X82240400Y-37873434D01*
X82240400Y-25082500D01*
X82235180Y-25029262D01*
X82230513Y-24975918D01*
X82229662Y-24972988D01*
X82229365Y-24969961D01*
X82213915Y-24918789D01*
X82198965Y-24867329D01*
X82197562Y-24864622D01*
X82196682Y-24861708D01*
X82171568Y-24814474D01*
X82146926Y-24766936D01*
X82145025Y-24764555D01*
X82143595Y-24761865D01*
X82109810Y-24720441D01*
X82076379Y-24678562D01*
X82072190Y-24674315D01*
X82072125Y-24674235D01*
X82072051Y-24674174D01*
X82070698Y-24672802D01*
X80965075Y-23567179D01*
X80923705Y-23533197D01*
X80882719Y-23498806D01*
X80880047Y-23497337D01*
X80877695Y-23495405D01*
X80830542Y-23470122D01*
X80783627Y-23444330D01*
X80780723Y-23443409D01*
X80778038Y-23441969D01*
X80726865Y-23426324D01*
X80675841Y-23410138D01*
X80672812Y-23409798D01*
X80669900Y-23408908D01*
X80616719Y-23403506D01*
X80563467Y-23397533D01*
X80557505Y-23397492D01*
X80557399Y-23397481D01*
X80557300Y-23397490D01*
X80555377Y-23397477D01*
X71410575Y-23397477D01*
X71193165Y-23180067D01*
X71151795Y-23146085D01*
X71110809Y-23111694D01*
X71108137Y-23110225D01*
X71105785Y-23108293D01*
X71058632Y-23083010D01*
X71011717Y-23057218D01*
X71008813Y-23056297D01*
X71006128Y-23054857D01*
X70954955Y-23039212D01*
X70903931Y-23023026D01*
X70900902Y-23022686D01*
X70897990Y-23021796D01*
X70844809Y-23016394D01*
X70791557Y-23010421D01*
X70785595Y-23010380D01*
X70785489Y-23010369D01*
X70785390Y-23010378D01*
X70783467Y-23010365D01*
X56841937Y-23010365D01*
X56788695Y-23015586D01*
X56735356Y-23020252D01*
X56732427Y-23021103D01*
X56729398Y-23021400D01*
X56678200Y-23036857D01*
X56626767Y-23051800D01*
X56624061Y-23053203D01*
X56621145Y-23054083D01*
X56573893Y-23079207D01*
X56526373Y-23103839D01*
X56523992Y-23105740D01*
X56521302Y-23107170D01*
X56479854Y-23140975D01*
X56438000Y-23174386D01*
X56433754Y-23178574D01*
X56433672Y-23178640D01*
X56433610Y-23178715D01*
X56432239Y-23180067D01*
X52318819Y-27293487D01*
X52301504Y-27294868D01*
X52305477Y-27290895D01*
X52349725Y-27238979D01*
X52406022Y-27132172D01*
X52430334Y-27013909D01*
X52420737Y-26893555D01*
X52377990Y-26780640D01*
X52305477Y-26684105D01*
X51103395Y-25482023D01*
X51051479Y-25437775D01*
X50944672Y-25381478D01*
X50826409Y-25357166D01*
X50706055Y-25366763D01*
X50593140Y-25409510D01*
X50496605Y-25482023D01*
X49294523Y-26684105D01*
X49250275Y-26736021D01*
X49193978Y-26842828D01*
X49169666Y-26961091D01*
X49179263Y-27081445D01*
X49222010Y-27194360D01*
X49294523Y-27290895D01*
X49340558Y-27336930D01*
X49323604Y-27343349D01*
X49227069Y-27415862D01*
X48912548Y-27730383D01*
X45911619Y-24729454D01*
X45866640Y-24692508D01*
X45822042Y-24655086D01*
X45819137Y-24653489D01*
X45816578Y-24651387D01*
X45765286Y-24623884D01*
X45714262Y-24595834D01*
X45711104Y-24594832D01*
X45708183Y-24593266D01*
X45652520Y-24576248D01*
X45597026Y-24558644D01*
X45593732Y-24558274D01*
X45590564Y-24557306D01*
X45532732Y-24551432D01*
X45474799Y-24544934D01*
X45468308Y-24544889D01*
X45468200Y-24544878D01*
X45468099Y-24544888D01*
X45466000Y-24544873D01*
X36380385Y-24544873D01*
X36322483Y-24550550D01*
X36264458Y-24555627D01*
X36261275Y-24556552D01*
X36257979Y-24556875D01*
X36202272Y-24573694D01*
X36146349Y-24589941D01*
X36143407Y-24591466D01*
X36140234Y-24592424D01*
X36088878Y-24619731D01*
X36037153Y-24646542D01*
X36034559Y-24648613D01*
X36031638Y-24650166D01*
X35986602Y-24686897D01*
X35941031Y-24723276D01*
X35936411Y-24727832D01*
X35936325Y-24727902D01*
X35936259Y-24727982D01*
X35934766Y-24729454D01*
X35322920Y-25341300D01*
X35135566Y-25341300D01*
X35135566Y-24621500D01*
X35130144Y-24553502D01*
X35094427Y-24438170D01*
X35027994Y-24337354D01*
X34936105Y-24259037D01*
X34826035Y-24209421D01*
X34706500Y-24192434D01*
X31206500Y-24192434D01*
X31138502Y-24197856D01*
X31023170Y-24233573D01*
X30922354Y-24300006D01*
X30844037Y-24391895D01*
X30794421Y-24501965D01*
X30777434Y-24621500D01*
X30777434Y-27321500D01*
X30779157Y-27343103D01*
X30770175Y-27372480D01*
X30752571Y-27427974D01*
X30752201Y-27431268D01*
X30751233Y-27434436D01*
X30745359Y-27492268D01*
X30738861Y-27550201D01*
X30738816Y-27556692D01*
X30738805Y-27556800D01*
X30738815Y-27556901D01*
X30738800Y-27559000D01*
X30738800Y-27965434D01*
X30619000Y-27965434D01*
X30551002Y-27970856D01*
X30435670Y-28006573D01*
X30334854Y-28073006D01*
X30256629Y-28164787D01*
X30218950Y-28073821D01*
X30144860Y-27962938D01*
X30050563Y-27868640D01*
X29939680Y-27794551D01*
X29816474Y-27743517D01*
X29685679Y-27717500D01*
X29211250Y-27717500D01*
X29042000Y-27886750D01*
X29042000Y-28846500D01*
X29062000Y-28846500D01*
X29062000Y-29192500D01*
X29042000Y-29192500D01*
X29042000Y-29439750D01*
X28969000Y-29512750D01*
X28969000Y-30497500D01*
X30053750Y-30497500D01*
X30223000Y-30328250D01*
X30223000Y-29955401D01*
X30258562Y-29869546D01*
X30297506Y-29928646D01*
X30326478Y-29953339D01*
X30316934Y-30020500D01*
X30316934Y-31320500D01*
X30322356Y-31388498D01*
X30358073Y-31503830D01*
X30424506Y-31604646D01*
X30445823Y-31622815D01*
X30383537Y-31695895D01*
X30333921Y-31805965D01*
X30316934Y-31925500D01*
X30316934Y-33225500D01*
X30322356Y-33293498D01*
X30358073Y-33408830D01*
X30424506Y-33509646D01*
X30445823Y-33527815D01*
X30383537Y-33600895D01*
X30333921Y-33710965D01*
X30316934Y-33830500D01*
X30316934Y-35130500D01*
X30322356Y-35198498D01*
X30337469Y-35247300D01*
X29958468Y-35247300D01*
X29975066Y-35130500D01*
X29975066Y-33830500D01*
X29969644Y-33762502D01*
X29933927Y-33647170D01*
X29867494Y-33546354D01*
X29846177Y-33528185D01*
X29908463Y-33455105D01*
X29958079Y-33345035D01*
X29975066Y-33225500D01*
X29975066Y-31925500D01*
X29969644Y-31857502D01*
X29968143Y-31852654D01*
X29977563Y-31846360D01*
X30071860Y-31752062D01*
X30145950Y-31641179D01*
X30196983Y-31517973D01*
X30223000Y-31387178D01*
X30223000Y-31012750D01*
X30053750Y-30843500D01*
X28969000Y-30843500D01*
X28969000Y-30863500D01*
X28623000Y-30863500D01*
X28623000Y-30843500D01*
X27538250Y-30843500D01*
X27369000Y-31012750D01*
X27369000Y-31387178D01*
X27395017Y-31517973D01*
X27446050Y-31641179D01*
X27520140Y-31752062D01*
X27614437Y-31846360D01*
X27626989Y-31854747D01*
X27616934Y-31925500D01*
X27616934Y-33225500D01*
X27622356Y-33293498D01*
X27658073Y-33408830D01*
X27724506Y-33509646D01*
X27745823Y-33527815D01*
X27683537Y-33600895D01*
X27633921Y-33710965D01*
X27616934Y-33830500D01*
X27616934Y-35130500D01*
X27622356Y-35198498D01*
X27637469Y-35247300D01*
X27280940Y-35247300D01*
X27047980Y-35014340D01*
X27002167Y-34976709D01*
X26956586Y-34938733D01*
X26954647Y-34937676D01*
X26952939Y-34936273D01*
X26900671Y-34908247D01*
X26848600Y-34879857D01*
X26846491Y-34879196D01*
X26844544Y-34878152D01*
X26787810Y-34860807D01*
X26731235Y-34843077D01*
X26729040Y-34842838D01*
X26726925Y-34842192D01*
X26668023Y-34836210D01*
X26608961Y-34829793D01*
X26606751Y-34829986D01*
X26604561Y-34829764D01*
X26545677Y-34835330D01*
X26540074Y-34835820D01*
X25147625Y-34835820D01*
X25068740Y-34684927D01*
X24894292Y-34467957D01*
X24681024Y-34289004D01*
X24437058Y-34154883D01*
X24171688Y-34070702D01*
X23895021Y-34039669D01*
X23875104Y-34039530D01*
X22352896Y-34039530D01*
X22075823Y-34066697D01*
X21809303Y-34147164D01*
X21563488Y-34277866D01*
X21347742Y-34453824D01*
X21170282Y-34668337D01*
X21037867Y-34913233D01*
X20955542Y-35179184D01*
X20926441Y-35456061D01*
X18536000Y-35456061D01*
X18536000Y-32397631D01*
X20743483Y-32397631D01*
X20748351Y-32447633D01*
X20873366Y-32753463D01*
X21055643Y-33029027D01*
X21288178Y-33263736D01*
X21562034Y-33448570D01*
X21866687Y-33576426D01*
X22190430Y-33642390D01*
X22941000Y-33642390D01*
X22941000Y-32138900D01*
X23287000Y-32138900D01*
X23287000Y-33642390D01*
X24037570Y-33642390D01*
X24361313Y-33576426D01*
X24665966Y-33448570D01*
X24939822Y-33263736D01*
X25172357Y-33029027D01*
X25354634Y-32753463D01*
X25479649Y-32447633D01*
X25484517Y-32397631D01*
X25361849Y-32138900D01*
X23287000Y-32138900D01*
X22941000Y-32138900D01*
X20866151Y-32138900D01*
X20743483Y-32397631D01*
X18536000Y-32397631D01*
X18536000Y-31534169D01*
X20743483Y-31534169D01*
X20866151Y-31792900D01*
X22941000Y-31792900D01*
X22941000Y-30289410D01*
X23287000Y-30289410D01*
X23287000Y-31792900D01*
X25361849Y-31792900D01*
X25484517Y-31534169D01*
X25479649Y-31484167D01*
X25354634Y-31178337D01*
X25172357Y-30902773D01*
X24939822Y-30668064D01*
X24665966Y-30483230D01*
X24361313Y-30355374D01*
X24037570Y-30289410D01*
X23287000Y-30289410D01*
X22941000Y-30289410D01*
X22190430Y-30289410D01*
X21866687Y-30355374D01*
X21562034Y-30483230D01*
X21288178Y-30668064D01*
X21055643Y-30902773D01*
X20873366Y-31178337D01*
X20748351Y-31484167D01*
X20743483Y-31534169D01*
X18536000Y-31534169D01*
X18536000Y-29953822D01*
X27369000Y-29953822D01*
X27369000Y-30328250D01*
X27538250Y-30497500D01*
X28623000Y-30497500D01*
X28623000Y-30225250D01*
X28696000Y-30152250D01*
X28696000Y-29192500D01*
X27611250Y-29192500D01*
X27442000Y-29361750D01*
X27442000Y-29709599D01*
X27395017Y-29823027D01*
X27369000Y-29953822D01*
X18536000Y-29953822D01*
X18536000Y-28593323D01*
X19593836Y-28593323D01*
X19815680Y-28969467D01*
X20292276Y-29209495D01*
X20806542Y-29351932D01*
X21338714Y-29391303D01*
X21868341Y-29326096D01*
X22375071Y-29158817D01*
X22729320Y-28969467D01*
X22951164Y-28593323D01*
X21272500Y-26914659D01*
X19593836Y-28593323D01*
X18536000Y-28593323D01*
X18536000Y-26736214D01*
X18551197Y-26736214D01*
X18616404Y-27265841D01*
X18783683Y-27772571D01*
X18973033Y-28126820D01*
X19349177Y-28348664D01*
X21027841Y-26670000D01*
X21517159Y-26670000D01*
X23195823Y-28348664D01*
X23571967Y-28126820D01*
X23811965Y-27650283D01*
X23880640Y-27753062D01*
X23974937Y-27847360D01*
X24085820Y-27921449D01*
X24209026Y-27972483D01*
X24339821Y-27998500D01*
X25814250Y-27998500D01*
X25983500Y-27829250D01*
X25983500Y-26144500D01*
X26329500Y-26144500D01*
X26329500Y-27829250D01*
X26498750Y-27998500D01*
X27569378Y-27998500D01*
X27519050Y-28073821D01*
X27468017Y-28197027D01*
X27442000Y-28327822D01*
X27442000Y-28677250D01*
X27611250Y-28846500D01*
X28696000Y-28846500D01*
X28696000Y-27886750D01*
X28526750Y-27717500D01*
X28456122Y-27717500D01*
X28506450Y-27642179D01*
X28557483Y-27518973D01*
X28583500Y-27388178D01*
X28583500Y-26313750D01*
X28414250Y-26144500D01*
X26329500Y-26144500D01*
X25983500Y-26144500D01*
X25963500Y-26144500D01*
X25963500Y-25798500D01*
X25983500Y-25798500D01*
X25983500Y-24113750D01*
X26329500Y-24113750D01*
X26329500Y-25798500D01*
X28414250Y-25798500D01*
X28583500Y-25629250D01*
X28583500Y-24554822D01*
X28557483Y-24424027D01*
X28506450Y-24300821D01*
X28432360Y-24189938D01*
X28338063Y-24095640D01*
X28227180Y-24021551D01*
X28103974Y-23970517D01*
X27973179Y-23944500D01*
X26498750Y-23944500D01*
X26329500Y-24113750D01*
X25983500Y-24113750D01*
X25814250Y-23944500D01*
X24339821Y-23944500D01*
X24209026Y-23970517D01*
X24085820Y-24021551D01*
X23974937Y-24095640D01*
X23880640Y-24189938D01*
X23806550Y-24300821D01*
X23755517Y-24424027D01*
X23729500Y-24554822D01*
X23729500Y-25507904D01*
X23571967Y-25213180D01*
X23195823Y-24991336D01*
X21517159Y-26670000D01*
X21027841Y-26670000D01*
X19349177Y-24991336D01*
X18973033Y-25213180D01*
X18733005Y-25689776D01*
X18590568Y-26204042D01*
X18551197Y-26736214D01*
X18536000Y-26736214D01*
X18536000Y-24746677D01*
X19593836Y-24746677D01*
X21272500Y-26425341D01*
X22951164Y-24746677D01*
X22729320Y-24370533D01*
X22252724Y-24130505D01*
X21738458Y-23988068D01*
X21206286Y-23948697D01*
X20676659Y-24013904D01*
X20169929Y-24181183D01*
X19815680Y-24370533D01*
X19593836Y-24746677D01*
X18536000Y-24746677D01*
X18536000Y-22854000D01*
X94240000Y-22854000D01*
X94240000Y-44983008D01*
G36*
X68882500Y-29703500D02*
X68902500Y-29703500D01*
X68902500Y-30049500D01*
X68882500Y-30049500D01*
X68882500Y-30834250D01*
X69007000Y-30958750D01*
X69007000Y-31450000D01*
X70091750Y-31450000D01*
X70261000Y-31280750D01*
X70261000Y-30906322D01*
X70234983Y-30775527D01*
X70226715Y-30755566D01*
X70416051Y-30755566D01*
X70371921Y-30853465D01*
X70354934Y-30973000D01*
X70354934Y-32273000D01*
X70360356Y-32340998D01*
X70396073Y-32456330D01*
X70462506Y-32557146D01*
X70554395Y-32635463D01*
X70664465Y-32685079D01*
X70784000Y-32702066D01*
X72284000Y-32702066D01*
X72351998Y-32696644D01*
X72374246Y-32689754D01*
X72384140Y-32704562D01*
X72476564Y-32796987D01*
X72431912Y-32791978D01*
X72425950Y-32791937D01*
X72425844Y-32791926D01*
X72425745Y-32791935D01*
X72423822Y-32791922D01*
X70022501Y-32791922D01*
X70109860Y-32704562D01*
X70183950Y-32593679D01*
X70234983Y-32470473D01*
X70261000Y-32339678D01*
X70261000Y-31965250D01*
X70091750Y-31796000D01*
X69007000Y-31796000D01*
X69007000Y-31816000D01*
X68661000Y-31816000D01*
X68661000Y-31796000D01*
X68641000Y-31796000D01*
X68641000Y-31450000D01*
X68661000Y-31450000D01*
X68661000Y-30465250D01*
X68536500Y-30340750D01*
X68536500Y-30049500D01*
X68516500Y-30049500D01*
X68516500Y-29703500D01*
X68536500Y-29703500D01*
X68536500Y-29683500D01*
X68882500Y-29683500D01*
X68882500Y-29703500D01*
X68882500Y-29703500D01*
G37*
X68882500Y-29703500D02*
X68902500Y-29703500D01*
X68902500Y-30049500D01*
X68882500Y-30049500D01*
X68882500Y-30834250D01*
X69007000Y-30958750D01*
X69007000Y-31450000D01*
X70091750Y-31450000D01*
X70261000Y-31280750D01*
X70261000Y-30906322D01*
X70234983Y-30775527D01*
X70226715Y-30755566D01*
X70416051Y-30755566D01*
X70371921Y-30853465D01*
X70354934Y-30973000D01*
X70354934Y-32273000D01*
X70360356Y-32340998D01*
X70396073Y-32456330D01*
X70462506Y-32557146D01*
X70554395Y-32635463D01*
X70664465Y-32685079D01*
X70784000Y-32702066D01*
X72284000Y-32702066D01*
X72351998Y-32696644D01*
X72374246Y-32689754D01*
X72384140Y-32704562D01*
X72476564Y-32796987D01*
X72431912Y-32791978D01*
X72425950Y-32791937D01*
X72425844Y-32791926D01*
X72425745Y-32791935D01*
X72423822Y-32791922D01*
X70022501Y-32791922D01*
X70109860Y-32704562D01*
X70183950Y-32593679D01*
X70234983Y-32470473D01*
X70261000Y-32339678D01*
X70261000Y-31965250D01*
X70091750Y-31796000D01*
X69007000Y-31796000D01*
X69007000Y-31816000D01*
X68661000Y-31816000D01*
X68661000Y-31796000D01*
X68641000Y-31796000D01*
X68641000Y-31450000D01*
X68661000Y-31450000D01*
X68661000Y-30465250D01*
X68536500Y-30340750D01*
X68536500Y-30049500D01*
X68516500Y-30049500D01*
X68516500Y-29703500D01*
X68536500Y-29703500D01*
X68536500Y-29683500D01*
X68882500Y-29683500D01*
X68882500Y-29703500D01*
G36*
X61895503Y-25338278D02*
X61765096Y-25528732D01*
X61674166Y-25740889D01*
X61626176Y-25966666D01*
X61622953Y-26197465D01*
X61664621Y-26424495D01*
X61749592Y-26639107D01*
X61874630Y-26833128D01*
X62034972Y-26999168D01*
X62222100Y-27129225D01*
X62222100Y-27682434D01*
X62034000Y-27682434D01*
X61966002Y-27687856D01*
X61850670Y-27723573D01*
X61749854Y-27790006D01*
X61671537Y-27881895D01*
X61621921Y-27991965D01*
X61604934Y-28111500D01*
X61604934Y-28911500D01*
X61610356Y-28979498D01*
X61646073Y-29094830D01*
X61712506Y-29195646D01*
X61804395Y-29273963D01*
X61914465Y-29323579D01*
X62034000Y-29340566D01*
X62934000Y-29340566D01*
X63001998Y-29335144D01*
X63117330Y-29299427D01*
X63218146Y-29232994D01*
X63296463Y-29141105D01*
X63346079Y-29031035D01*
X63363066Y-28911500D01*
X63363066Y-28330771D01*
X63368239Y-28314464D01*
X63368578Y-28311440D01*
X63369470Y-28308523D01*
X63374876Y-28255292D01*
X63380844Y-28202090D01*
X63380885Y-28196128D01*
X63380896Y-28196022D01*
X63380887Y-28195923D01*
X63380900Y-28194000D01*
X63380900Y-27124870D01*
X63529640Y-27030476D01*
X63696794Y-26871297D01*
X63829847Y-26682683D01*
X63923731Y-26471817D01*
X63974869Y-26246731D01*
X63978550Y-25983089D01*
X63933717Y-25756664D01*
X63845758Y-25543258D01*
X63718023Y-25351002D01*
X63672802Y-25305464D01*
X64469012Y-25305464D01*
X64435503Y-25338278D01*
X64305096Y-25528732D01*
X64214166Y-25740889D01*
X64166176Y-25966666D01*
X64162953Y-26197465D01*
X64204621Y-26424495D01*
X64289592Y-26639107D01*
X64343000Y-26721980D01*
X64343000Y-26951434D01*
X64247000Y-26951434D01*
X64179002Y-26956856D01*
X64063670Y-26992573D01*
X63962854Y-27059006D01*
X63884537Y-27150895D01*
X63834921Y-27260965D01*
X63817934Y-27380500D01*
X63817934Y-28880500D01*
X63823356Y-28948498D01*
X63859073Y-29063830D01*
X63925506Y-29164646D01*
X64017395Y-29242963D01*
X64127465Y-29292579D01*
X64247000Y-29309566D01*
X65547000Y-29309566D01*
X65614998Y-29304144D01*
X65730330Y-29268427D01*
X65831146Y-29201994D01*
X65880477Y-29144114D01*
X65894006Y-29164646D01*
X65985895Y-29242963D01*
X66095965Y-29292579D01*
X66215500Y-29309566D01*
X67515500Y-29309566D01*
X67583498Y-29304144D01*
X67647519Y-29284318D01*
X67632500Y-29359821D01*
X67632500Y-29534250D01*
X67801748Y-29703498D01*
X67712851Y-29703498D01*
X67635035Y-29668421D01*
X67515500Y-29651434D01*
X66215500Y-29651434D01*
X66147502Y-29656856D01*
X66032170Y-29692573D01*
X65931354Y-29759006D01*
X65882023Y-29816886D01*
X65868494Y-29796354D01*
X65776605Y-29718037D01*
X65666535Y-29668421D01*
X65547000Y-29651434D01*
X64247000Y-29651434D01*
X64179002Y-29656856D01*
X64063670Y-29692573D01*
X63962854Y-29759006D01*
X63884537Y-29850895D01*
X63834921Y-29960965D01*
X63817934Y-30080500D01*
X63817934Y-30265676D01*
X63778463Y-30277592D01*
X63727030Y-30292535D01*
X63724324Y-30293938D01*
X63721408Y-30294818D01*
X63674156Y-30319942D01*
X63626636Y-30344574D01*
X63624255Y-30346475D01*
X63621565Y-30347905D01*
X63580141Y-30381690D01*
X63538262Y-30415121D01*
X63534015Y-30419310D01*
X63533935Y-30419375D01*
X63533874Y-30419449D01*
X63532502Y-30420802D01*
X62345177Y-31608127D01*
X60987483Y-31608127D01*
X59745363Y-30366006D01*
X59813463Y-30286105D01*
X59835213Y-30237855D01*
X59914465Y-30273579D01*
X60034000Y-30290566D01*
X60934000Y-30290566D01*
X61001998Y-30285144D01*
X61117330Y-30249427D01*
X61218146Y-30182994D01*
X61296463Y-30091105D01*
X61346079Y-29981035D01*
X61363066Y-29861500D01*
X61363066Y-29061500D01*
X61357644Y-28993502D01*
X61321927Y-28878170D01*
X61255494Y-28777354D01*
X61163605Y-28699037D01*
X61053535Y-28649421D01*
X60976686Y-28638500D01*
X61000679Y-28638500D01*
X61131474Y-28612483D01*
X61254680Y-28561449D01*
X61365563Y-28487360D01*
X61459860Y-28393062D01*
X61533950Y-28282179D01*
X61584983Y-28158973D01*
X61611000Y-28028178D01*
X61611000Y-27903750D01*
X61441750Y-27734500D01*
X60657000Y-27734500D01*
X60657000Y-27754500D01*
X60311000Y-27754500D01*
X60311000Y-27734500D01*
X60291000Y-27734500D01*
X60291000Y-27388500D01*
X60311000Y-27388500D01*
X60311000Y-26653750D01*
X60657000Y-26653750D01*
X60657000Y-27388500D01*
X61441750Y-27388500D01*
X61611000Y-27219250D01*
X61611000Y-27094822D01*
X61584983Y-26964027D01*
X61533950Y-26840821D01*
X61459860Y-26729938D01*
X61365563Y-26635640D01*
X61254680Y-26561551D01*
X61131474Y-26510517D01*
X61000679Y-26484500D01*
X60826250Y-26484500D01*
X60657000Y-26653750D01*
X60311000Y-26653750D01*
X60141750Y-26484500D01*
X60128000Y-26484500D01*
X60128000Y-26433498D01*
X59958752Y-26433498D01*
X60128000Y-26264250D01*
X60128000Y-25789821D01*
X60101983Y-25659026D01*
X60050949Y-25535820D01*
X59976860Y-25424937D01*
X59882562Y-25330640D01*
X59844884Y-25305464D01*
X61929012Y-25305464D01*
X61895503Y-25338278D01*
X61895503Y-25338278D01*
G37*
X61895503Y-25338278D02*
X61765096Y-25528732D01*
X61674166Y-25740889D01*
X61626176Y-25966666D01*
X61622953Y-26197465D01*
X61664621Y-26424495D01*
X61749592Y-26639107D01*
X61874630Y-26833128D01*
X62034972Y-26999168D01*
X62222100Y-27129225D01*
X62222100Y-27682434D01*
X62034000Y-27682434D01*
X61966002Y-27687856D01*
X61850670Y-27723573D01*
X61749854Y-27790006D01*
X61671537Y-27881895D01*
X61621921Y-27991965D01*
X61604934Y-28111500D01*
X61604934Y-28911500D01*
X61610356Y-28979498D01*
X61646073Y-29094830D01*
X61712506Y-29195646D01*
X61804395Y-29273963D01*
X61914465Y-29323579D01*
X62034000Y-29340566D01*
X62934000Y-29340566D01*
X63001998Y-29335144D01*
X63117330Y-29299427D01*
X63218146Y-29232994D01*
X63296463Y-29141105D01*
X63346079Y-29031035D01*
X63363066Y-28911500D01*
X63363066Y-28330771D01*
X63368239Y-28314464D01*
X63368578Y-28311440D01*
X63369470Y-28308523D01*
X63374876Y-28255292D01*
X63380844Y-28202090D01*
X63380885Y-28196128D01*
X63380896Y-28196022D01*
X63380887Y-28195923D01*
X63380900Y-28194000D01*
X63380900Y-27124870D01*
X63529640Y-27030476D01*
X63696794Y-26871297D01*
X63829847Y-26682683D01*
X63923731Y-26471817D01*
X63974869Y-26246731D01*
X63978550Y-25983089D01*
X63933717Y-25756664D01*
X63845758Y-25543258D01*
X63718023Y-25351002D01*
X63672802Y-25305464D01*
X64469012Y-25305464D01*
X64435503Y-25338278D01*
X64305096Y-25528732D01*
X64214166Y-25740889D01*
X64166176Y-25966666D01*
X64162953Y-26197465D01*
X64204621Y-26424495D01*
X64289592Y-26639107D01*
X64343000Y-26721980D01*
X64343000Y-26951434D01*
X64247000Y-26951434D01*
X64179002Y-26956856D01*
X64063670Y-26992573D01*
X63962854Y-27059006D01*
X63884537Y-27150895D01*
X63834921Y-27260965D01*
X63817934Y-27380500D01*
X63817934Y-28880500D01*
X63823356Y-28948498D01*
X63859073Y-29063830D01*
X63925506Y-29164646D01*
X64017395Y-29242963D01*
X64127465Y-29292579D01*
X64247000Y-29309566D01*
X65547000Y-29309566D01*
X65614998Y-29304144D01*
X65730330Y-29268427D01*
X65831146Y-29201994D01*
X65880477Y-29144114D01*
X65894006Y-29164646D01*
X65985895Y-29242963D01*
X66095965Y-29292579D01*
X66215500Y-29309566D01*
X67515500Y-29309566D01*
X67583498Y-29304144D01*
X67647519Y-29284318D01*
X67632500Y-29359821D01*
X67632500Y-29534250D01*
X67801748Y-29703498D01*
X67712851Y-29703498D01*
X67635035Y-29668421D01*
X67515500Y-29651434D01*
X66215500Y-29651434D01*
X66147502Y-29656856D01*
X66032170Y-29692573D01*
X65931354Y-29759006D01*
X65882023Y-29816886D01*
X65868494Y-29796354D01*
X65776605Y-29718037D01*
X65666535Y-29668421D01*
X65547000Y-29651434D01*
X64247000Y-29651434D01*
X64179002Y-29656856D01*
X64063670Y-29692573D01*
X63962854Y-29759006D01*
X63884537Y-29850895D01*
X63834921Y-29960965D01*
X63817934Y-30080500D01*
X63817934Y-30265676D01*
X63778463Y-30277592D01*
X63727030Y-30292535D01*
X63724324Y-30293938D01*
X63721408Y-30294818D01*
X63674156Y-30319942D01*
X63626636Y-30344574D01*
X63624255Y-30346475D01*
X63621565Y-30347905D01*
X63580141Y-30381690D01*
X63538262Y-30415121D01*
X63534015Y-30419310D01*
X63533935Y-30419375D01*
X63533874Y-30419449D01*
X63532502Y-30420802D01*
X62345177Y-31608127D01*
X60987483Y-31608127D01*
X59745363Y-30366006D01*
X59813463Y-30286105D01*
X59835213Y-30237855D01*
X59914465Y-30273579D01*
X60034000Y-30290566D01*
X60934000Y-30290566D01*
X61001998Y-30285144D01*
X61117330Y-30249427D01*
X61218146Y-30182994D01*
X61296463Y-30091105D01*
X61346079Y-29981035D01*
X61363066Y-29861500D01*
X61363066Y-29061500D01*
X61357644Y-28993502D01*
X61321927Y-28878170D01*
X61255494Y-28777354D01*
X61163605Y-28699037D01*
X61053535Y-28649421D01*
X60976686Y-28638500D01*
X61000679Y-28638500D01*
X61131474Y-28612483D01*
X61254680Y-28561449D01*
X61365563Y-28487360D01*
X61459860Y-28393062D01*
X61533950Y-28282179D01*
X61584983Y-28158973D01*
X61611000Y-28028178D01*
X61611000Y-27903750D01*
X61441750Y-27734500D01*
X60657000Y-27734500D01*
X60657000Y-27754500D01*
X60311000Y-27754500D01*
X60311000Y-27734500D01*
X60291000Y-27734500D01*
X60291000Y-27388500D01*
X60311000Y-27388500D01*
X60311000Y-26653750D01*
X60657000Y-26653750D01*
X60657000Y-27388500D01*
X61441750Y-27388500D01*
X61611000Y-27219250D01*
X61611000Y-27094822D01*
X61584983Y-26964027D01*
X61533950Y-26840821D01*
X61459860Y-26729938D01*
X61365563Y-26635640D01*
X61254680Y-26561551D01*
X61131474Y-26510517D01*
X61000679Y-26484500D01*
X60826250Y-26484500D01*
X60657000Y-26653750D01*
X60311000Y-26653750D01*
X60141750Y-26484500D01*
X60128000Y-26484500D01*
X60128000Y-26433498D01*
X59958752Y-26433498D01*
X60128000Y-26264250D01*
X60128000Y-25789821D01*
X60101983Y-25659026D01*
X60050949Y-25535820D01*
X59976860Y-25424937D01*
X59882562Y-25330640D01*
X59844884Y-25305464D01*
X61929012Y-25305464D01*
X61895503Y-25338278D01*
G36*
X72565500Y-29703500D02*
X72585500Y-29703500D01*
X72585500Y-30049500D01*
X72565500Y-30049500D01*
X72565500Y-30069500D01*
X72219500Y-30069500D01*
X72219500Y-30049500D01*
X72199500Y-30049500D01*
X72199500Y-29703500D01*
X72219500Y-29703500D01*
X72219500Y-29683500D01*
X72565500Y-29683500D01*
X72565500Y-29703500D01*
X72565500Y-29703500D01*
G37*
X72565500Y-29703500D02*
X72585500Y-29703500D01*
X72585500Y-30049500D01*
X72565500Y-30049500D01*
X72565500Y-30069500D01*
X72219500Y-30069500D01*
X72219500Y-30049500D01*
X72199500Y-30049500D01*
X72199500Y-29703500D01*
X72219500Y-29703500D01*
X72219500Y-29683500D01*
X72565500Y-29683500D01*
X72565500Y-29703500D01*
G36*
X57474000Y-26264250D02*
X57643250Y-26433500D01*
X58628000Y-26433500D01*
X58628000Y-26413500D01*
X58974000Y-26413500D01*
X58974000Y-26433500D01*
X58994000Y-26433500D01*
X58994000Y-26779500D01*
X58974000Y-26779500D01*
X58974000Y-27864250D01*
X59143250Y-28033500D01*
X59358059Y-28033500D01*
X59376743Y-28127434D01*
X58819061Y-28127434D01*
X58591939Y-27900312D01*
X58628000Y-27864250D01*
X58628000Y-26779500D01*
X57643250Y-26779500D01*
X57474000Y-26948750D01*
X57474000Y-27250846D01*
X56262993Y-27250846D01*
X57474000Y-26039839D01*
X57474000Y-26264250D01*
X57474000Y-26264250D01*
G37*
X57474000Y-26264250D02*
X57643250Y-26433500D01*
X58628000Y-26433500D01*
X58628000Y-26413500D01*
X58974000Y-26413500D01*
X58974000Y-26433500D01*
X58994000Y-26433500D01*
X58994000Y-26779500D01*
X58974000Y-26779500D01*
X58974000Y-27864250D01*
X59143250Y-28033500D01*
X59358059Y-28033500D01*
X59376743Y-28127434D01*
X58819061Y-28127434D01*
X58591939Y-27900312D01*
X58628000Y-27864250D01*
X58628000Y-26779500D01*
X57643250Y-26779500D01*
X57474000Y-26948750D01*
X57474000Y-27250846D01*
X56262993Y-27250846D01*
X57474000Y-26039839D01*
X57474000Y-26264250D01*
G36*
X35688168Y-37691276D02*
X35908581Y-37838552D01*
X36168576Y-37890268D01*
X38902004Y-37890268D01*
X39161999Y-37838552D01*
X39382412Y-37691276D01*
X40116689Y-36957000D01*
X40205176Y-36957000D01*
X40205176Y-37870500D01*
X40241923Y-38065794D01*
X40357342Y-38245160D01*
X40533451Y-38365490D01*
X40742500Y-38407824D01*
X42442500Y-38407824D01*
X42637794Y-38371077D01*
X42672000Y-38349066D01*
X42672000Y-38862000D01*
X42682006Y-38911410D01*
X42708346Y-38950943D01*
X42993560Y-39241642D01*
X43087842Y-39388160D01*
X43237928Y-39490709D01*
X45065153Y-41353073D01*
X45067923Y-41367794D01*
X45183342Y-41547160D01*
X45359451Y-41667490D01*
X45377155Y-41671075D01*
X46010346Y-42316443D01*
X46052092Y-42344705D01*
X46101000Y-42354500D01*
X47263485Y-42354500D01*
X47263485Y-44975660D01*
X47315201Y-45235655D01*
X47434500Y-45414198D01*
X47434500Y-45720000D01*
X41144423Y-45720000D01*
X41029549Y-45641510D01*
X40820500Y-45599176D01*
X39570500Y-45599176D01*
X39375206Y-45635923D01*
X39244547Y-45720000D01*
X35369500Y-45720000D01*
X35369500Y-43942000D01*
X35359494Y-43892590D01*
X35331053Y-43850965D01*
X35288659Y-43823685D01*
X35238653Y-43815058D01*
X33274000Y-43874593D01*
X33274000Y-43628284D01*
X33299371Y-43503000D01*
X33299371Y-42003000D01*
X33274000Y-41868164D01*
X33274000Y-41338500D01*
X33263994Y-41289090D01*
X33235553Y-41247465D01*
X33193159Y-41220185D01*
X33147000Y-41211500D01*
X30734000Y-41211500D01*
X30734000Y-39434644D01*
X30762047Y-39440324D01*
X32762047Y-39440324D01*
X32957341Y-39403577D01*
X33136707Y-39288158D01*
X33211022Y-39179394D01*
X33259910Y-39169494D01*
X33301535Y-39141053D01*
X33328815Y-39098659D01*
X33337500Y-39052500D01*
X33337500Y-36957000D01*
X34953892Y-36957000D01*
X35688168Y-37691276D01*
X35688168Y-37691276D01*
G37*
X35688168Y-37691276D02*
X35908581Y-37838552D01*
X36168576Y-37890268D01*
X38902004Y-37890268D01*
X39161999Y-37838552D01*
X39382412Y-37691276D01*
X40116689Y-36957000D01*
X40205176Y-36957000D01*
X40205176Y-37870500D01*
X40241923Y-38065794D01*
X40357342Y-38245160D01*
X40533451Y-38365490D01*
X40742500Y-38407824D01*
X42442500Y-38407824D01*
X42637794Y-38371077D01*
X42672000Y-38349066D01*
X42672000Y-38862000D01*
X42682006Y-38911410D01*
X42708346Y-38950943D01*
X42993560Y-39241642D01*
X43087842Y-39388160D01*
X43237928Y-39490709D01*
X45065153Y-41353073D01*
X45067923Y-41367794D01*
X45183342Y-41547160D01*
X45359451Y-41667490D01*
X45377155Y-41671075D01*
X46010346Y-42316443D01*
X46052092Y-42344705D01*
X46101000Y-42354500D01*
X47263485Y-42354500D01*
X47263485Y-44975660D01*
X47315201Y-45235655D01*
X47434500Y-45414198D01*
X47434500Y-45720000D01*
X41144423Y-45720000D01*
X41029549Y-45641510D01*
X40820500Y-45599176D01*
X39570500Y-45599176D01*
X39375206Y-45635923D01*
X39244547Y-45720000D01*
X35369500Y-45720000D01*
X35369500Y-43942000D01*
X35359494Y-43892590D01*
X35331053Y-43850965D01*
X35288659Y-43823685D01*
X35238653Y-43815058D01*
X33274000Y-43874593D01*
X33274000Y-43628284D01*
X33299371Y-43503000D01*
X33299371Y-42003000D01*
X33274000Y-41868164D01*
X33274000Y-41338500D01*
X33263994Y-41289090D01*
X33235553Y-41247465D01*
X33193159Y-41220185D01*
X33147000Y-41211500D01*
X30734000Y-41211500D01*
X30734000Y-39434644D01*
X30762047Y-39440324D01*
X32762047Y-39440324D01*
X32957341Y-39403577D01*
X33136707Y-39288158D01*
X33211022Y-39179394D01*
X33259910Y-39169494D01*
X33301535Y-39141053D01*
X33328815Y-39098659D01*
X33337500Y-39052500D01*
X33337500Y-36957000D01*
X34953892Y-36957000D01*
X35688168Y-37691276D01*
M02*
