G04 #@! TF.FileFunction,Other,User*
%FSLAX46Y46*%
G04 Gerber Fmt 4.6, Leading zero omitted, Abs format (unit mm)*
G04 Created by KiCad (PCBNEW 4.0.7) date 11/22/17 14:23:38*
%MOMM*%
%LPD*%
G01*
G04 APERTURE LIST*
%ADD10C,0.100000*%
%ADD11C,0.150000*%
%ADD12C,0.050000*%
G04 APERTURE END LIST*
D10*
D11*
X18034000Y-22352000D02*
X18542000Y-22352000D01*
X18034000Y-23431500D02*
X18034000Y-22352000D01*
X94742000Y-22352000D02*
X94742000Y-23431500D01*
X18034000Y-48831500D02*
X18034000Y-23431500D01*
X39878000Y-48831500D02*
X18034000Y-48831500D01*
X94742000Y-48831500D02*
X39878000Y-48831500D01*
X94742000Y-47307500D02*
X94742000Y-48831500D01*
X94742000Y-23431500D02*
X94742000Y-47307500D01*
X18542000Y-22352000D02*
X94742000Y-22352000D01*
D12*
X58422332Y-33464500D02*
X50927000Y-40959832D01*
X50927000Y-25969168D02*
X43431668Y-33464500D01*
X58422332Y-33464500D02*
X50927000Y-25969168D01*
X50927000Y-40959832D02*
X43431668Y-33464500D01*
X28203000Y-39279000D02*
X28203000Y-43779000D01*
X28203000Y-39279000D02*
X29953000Y-39279000D01*
X29953000Y-43779000D02*
X28203000Y-43779000D01*
X29953000Y-43779000D02*
X29953000Y-39279000D01*
X39315500Y-43386500D02*
X39315500Y-47886500D01*
X39315500Y-43386500D02*
X41065500Y-43386500D01*
X41065500Y-47886500D02*
X39315500Y-47886500D01*
X41065500Y-47886500D02*
X41065500Y-43386500D01*
X44802064Y-31689944D02*
X47984044Y-28507964D01*
X44802064Y-31689944D02*
X43564627Y-30452507D01*
X46746607Y-27270527D02*
X47984044Y-28507964D01*
X46746607Y-27270527D02*
X43564627Y-30452507D01*
X32369000Y-28139500D02*
X27869000Y-28139500D01*
X32369000Y-28139500D02*
X32369000Y-29889500D01*
X27869000Y-29889500D02*
X27869000Y-28139500D01*
X27869000Y-29889500D02*
X32369000Y-29889500D01*
X33887000Y-36217000D02*
X33887000Y-27567000D01*
X33887000Y-27567000D02*
X40037000Y-27567000D01*
X40037000Y-27567000D02*
X40037000Y-36217000D01*
X40037000Y-36217000D02*
X33887000Y-36217000D01*
X31728000Y-47774000D02*
X31728000Y-44174000D01*
X31728000Y-44174000D02*
X35328000Y-44174000D01*
X35328000Y-44174000D02*
X35328000Y-47774000D01*
X35328000Y-47774000D02*
X31728000Y-47774000D01*
X28045000Y-47774000D02*
X28045000Y-44174000D01*
X28045000Y-44174000D02*
X31645000Y-44174000D01*
X31645000Y-44174000D02*
X31645000Y-47774000D01*
X31645000Y-47774000D02*
X28045000Y-47774000D01*
X35411000Y-47774000D02*
X35411000Y-44174000D01*
X35411000Y-44174000D02*
X39011000Y-44174000D01*
X39011000Y-44174000D02*
X39011000Y-47774000D01*
X39011000Y-47774000D02*
X35411000Y-47774000D01*
X44618500Y-42122500D02*
X44618500Y-38522500D01*
X44618500Y-38522500D02*
X48218500Y-38522500D01*
X48218500Y-38522500D02*
X48218500Y-42122500D01*
X48218500Y-42122500D02*
X44618500Y-42122500D01*
X42523000Y-39963500D02*
X42523000Y-36363500D01*
X42523000Y-36363500D02*
X46123000Y-36363500D01*
X46123000Y-36363500D02*
X46123000Y-39963500D01*
X46123000Y-39963500D02*
X42523000Y-39963500D01*
X39792500Y-38820500D02*
X39792500Y-35220500D01*
X39792500Y-35220500D02*
X43392500Y-35220500D01*
X43392500Y-35220500D02*
X43392500Y-38820500D01*
X43392500Y-38820500D02*
X39792500Y-38820500D01*
X48254416Y-26987500D02*
X50800000Y-24441916D01*
X50800000Y-24441916D02*
X53345584Y-26987500D01*
X53345584Y-26987500D02*
X50800000Y-29533084D01*
X50800000Y-29533084D02*
X48254416Y-26987500D01*
X42429000Y-31068500D02*
X42429000Y-26368500D01*
X42429000Y-31068500D02*
X40629000Y-31068500D01*
X40629000Y-26368500D02*
X42429000Y-26368500D01*
X40629000Y-26368500D02*
X40629000Y-31068500D01*
X32496000Y-29770500D02*
X27796000Y-29770500D01*
X32496000Y-29770500D02*
X32496000Y-31570500D01*
X27796000Y-31570500D02*
X27796000Y-29770500D01*
X27796000Y-31570500D02*
X32496000Y-31570500D01*
X32496000Y-31675500D02*
X27796000Y-31675500D01*
X32496000Y-31675500D02*
X32496000Y-33475500D01*
X27796000Y-33475500D02*
X27796000Y-31675500D01*
X27796000Y-33475500D02*
X32496000Y-33475500D01*
X32496000Y-33580500D02*
X27796000Y-33580500D01*
X32496000Y-33580500D02*
X32496000Y-35380500D01*
X27796000Y-35380500D02*
X27796000Y-33580500D01*
X27796000Y-35380500D02*
X32496000Y-35380500D01*
X39312047Y-44053000D02*
X30512047Y-44053000D01*
X39312047Y-36853000D02*
X39312047Y-44053000D01*
X30512047Y-36853000D02*
X39312047Y-36853000D01*
X30512047Y-44053000D02*
X30512047Y-36853000D01*
X59253000Y-41205500D02*
X59253000Y-46805500D01*
X59253000Y-46805500D02*
X47353000Y-46805500D01*
X47353000Y-46805500D02*
X47353000Y-41205500D01*
X47353000Y-41205500D02*
X59253000Y-41205500D01*
X54906147Y-40826361D02*
X58088127Y-37644381D01*
X54906147Y-40826361D02*
X53668710Y-39588924D01*
X56850690Y-36406944D02*
X58088127Y-37644381D01*
X56850690Y-36406944D02*
X53668710Y-39588924D01*
X80551000Y-39334500D02*
X77151000Y-39334500D01*
X77151000Y-39334500D02*
X77151000Y-42834500D01*
X77151000Y-42834500D02*
X80551000Y-42834500D01*
X80551000Y-42834500D02*
X80551000Y-39334500D01*
X75092500Y-30576500D02*
X75092500Y-27176500D01*
X75092500Y-27176500D02*
X71592500Y-27176500D01*
X71592500Y-27176500D02*
X71592500Y-30576500D01*
X71592500Y-30576500D02*
X75092500Y-30576500D01*
X71409500Y-30576500D02*
X71409500Y-27176500D01*
X71409500Y-27176500D02*
X67909500Y-27176500D01*
X67909500Y-27176500D02*
X67909500Y-30576500D01*
X67909500Y-30576500D02*
X71409500Y-30576500D01*
X59784000Y-30261500D02*
X63184000Y-30261500D01*
X63184000Y-30261500D02*
X63184000Y-26761500D01*
X63184000Y-26761500D02*
X59784000Y-26761500D01*
X59784000Y-26761500D02*
X59784000Y-30261500D01*
X80761000Y-38052500D02*
X80761000Y-42752500D01*
X80761000Y-38052500D02*
X82561000Y-38052500D01*
X82561000Y-42752500D02*
X80761000Y-42752500D01*
X82561000Y-42752500D02*
X82561000Y-38052500D01*
X63997000Y-27130500D02*
X63997000Y-31830500D01*
X63997000Y-27130500D02*
X65797000Y-27130500D01*
X65797000Y-31830500D02*
X63997000Y-31830500D01*
X65797000Y-31830500D02*
X65797000Y-27130500D01*
X65965500Y-27130500D02*
X65965500Y-31830500D01*
X65965500Y-27130500D02*
X67765500Y-27130500D01*
X67765500Y-31830500D02*
X65965500Y-31830500D01*
X67765500Y-31830500D02*
X67765500Y-27130500D01*
X77840000Y-25827500D02*
X77840000Y-30527500D01*
X77840000Y-25827500D02*
X79640000Y-25827500D01*
X79640000Y-30527500D02*
X77840000Y-30527500D01*
X79640000Y-30527500D02*
X79640000Y-25827500D01*
X74560000Y-40339500D02*
X74560000Y-35639500D01*
X74560000Y-40339500D02*
X72760000Y-40339500D01*
X72760000Y-35639500D02*
X74560000Y-35639500D01*
X72760000Y-35639500D02*
X72760000Y-40339500D01*
X72655000Y-40339500D02*
X72655000Y-35639500D01*
X72655000Y-40339500D02*
X70855000Y-40339500D01*
X70855000Y-35639500D02*
X72655000Y-35639500D01*
X70855000Y-35639500D02*
X70855000Y-40339500D01*
X68183000Y-36374500D02*
X63483000Y-36374500D01*
X68183000Y-36374500D02*
X68183000Y-38174500D01*
X63483000Y-38174500D02*
X63483000Y-36374500D01*
X63483000Y-38174500D02*
X68183000Y-38174500D01*
X65960500Y-38343000D02*
X61260500Y-38343000D01*
X65960500Y-38343000D02*
X65960500Y-40143000D01*
X61260500Y-40143000D02*
X61260500Y-38343000D01*
X61260500Y-40143000D02*
X65960500Y-40143000D01*
X64754000Y-42597500D02*
X60054000Y-42597500D01*
X64754000Y-42597500D02*
X64754000Y-44397500D01*
X60054000Y-44397500D02*
X60054000Y-42597500D01*
X60054000Y-44397500D02*
X64754000Y-44397500D01*
X77360000Y-30723000D02*
X72660000Y-30723000D01*
X77360000Y-30723000D02*
X77360000Y-32523000D01*
X72660000Y-32523000D02*
X72660000Y-30723000D01*
X72660000Y-32523000D02*
X77360000Y-32523000D01*
X72534000Y-30723000D02*
X67834000Y-30723000D01*
X72534000Y-30723000D02*
X72534000Y-32523000D01*
X67834000Y-32523000D02*
X67834000Y-30723000D01*
X67834000Y-32523000D02*
X72534000Y-32523000D01*
X59701000Y-30306500D02*
X59701000Y-25606500D01*
X59701000Y-30306500D02*
X57901000Y-30306500D01*
X57901000Y-25606500D02*
X59701000Y-25606500D01*
X57901000Y-25606500D02*
X57901000Y-30306500D01*
X34956500Y-24371500D02*
X24156500Y-24371500D01*
X24156500Y-24371500D02*
X24156500Y-27571500D01*
X24156500Y-27571500D02*
X34956500Y-27571500D01*
X34956500Y-27571500D02*
X34956500Y-24371500D01*
X23872500Y-26670000D02*
G75*
G03X23872500Y-26670000I-2600000J0D01*
G01*
X94230500Y-45720000D02*
G75*
G03X94230500Y-45720000I-2600000J0D01*
G01*
M02*
