M48
;DRILL file {KiCad 4.0.7} date 11/22/17 14:25:18
;FORMAT={3:3/ absolute / metric / suppress leading zeros}
FMAT,2
METRIC,TZ
T1C0.800
T2C1.000
T3C1.199
T4C3.048
%
G90
G05
M71
T1
X43916Y-28270
X50853Y-44005
X55753Y-44005
X56747Y-29094
T2
X29845Y-45974
X33528Y-45974
X35687Y-29337
X35687Y-31877
X35687Y-34417
X37211Y-45974
X38227Y-29337
X38227Y-31877
X38227Y-34417
X41593Y-37021
X44323Y-38164
X46418Y-40322
X50800Y-26988
X62802Y-26098
X62802Y-41339
X65342Y-26098
X65342Y-41339
X67882Y-26098
X67882Y-41339
X70422Y-26098
X70422Y-41339
X72962Y-26098
X72962Y-41339
X75501Y-26098
X75501Y-41339
T3
X23114Y-31966
X23114Y-35466
X23114Y-41684
X23114Y-45184
T4
X21272Y-26670
X91631Y-45720
T0
M30
