G04 #@! TF.FileFunction,Legend,Bot*
%FSLAX46Y46*%
G04 Gerber Fmt 4.6, Leading zero omitted, Abs format (unit mm)*
G04 Created by KiCad (PCBNEW 4.0.7) date 11/22/17 14:23:38*
%MOMM*%
%LPD*%
G01*
G04 APERTURE LIST*
%ADD10C,0.100000*%
%ADD11C,0.150000*%
%ADD12C,0.120000*%
G04 APERTURE END LIST*
D10*
D11*
X18034000Y-22352000D02*
X18542000Y-22352000D01*
X18034000Y-23431500D02*
X18034000Y-22352000D01*
X94742000Y-22352000D02*
X94742000Y-23431500D01*
X18034000Y-48831500D02*
X18034000Y-23431500D01*
X39878000Y-48831500D02*
X18034000Y-48831500D01*
X94742000Y-48831500D02*
X39878000Y-48831500D01*
X94742000Y-47307500D02*
X94742000Y-48831500D01*
X94742000Y-23431500D02*
X94742000Y-47307500D01*
X18542000Y-22352000D02*
X94742000Y-22352000D01*
X56053524Y-33464500D02*
X55894425Y-33623599D01*
X50927000Y-28337976D02*
X50697190Y-28567786D01*
X45800476Y-33464500D02*
X46030286Y-33234690D01*
X50927000Y-38591024D02*
X51156810Y-38361214D01*
X56053524Y-33464500D02*
X55823714Y-33234690D01*
X50927000Y-38591024D02*
X50697190Y-38361214D01*
X45800476Y-33464500D02*
X46030286Y-33694310D01*
X50927000Y-28337976D02*
X51156810Y-28567786D01*
X55894425Y-33623599D02*
X56902052Y-34631226D01*
D12*
X28233000Y-42029000D02*
X28233000Y-41029000D01*
X29933000Y-41029000D02*
X29933000Y-42029000D01*
X39345500Y-46136500D02*
X39345500Y-45136500D01*
X41045500Y-45136500D02*
X41045500Y-46136500D01*
X46725394Y-29724187D02*
X46018287Y-30431294D01*
X44816206Y-29229213D02*
X45523313Y-28522106D01*
X29619000Y-28169500D02*
X30619000Y-28169500D01*
X30619000Y-29869500D02*
X29619000Y-29869500D01*
X34357000Y-28007000D02*
X39557000Y-28007000D01*
X34357000Y-33147000D02*
X34357000Y-28007000D01*
X39557000Y-35747000D02*
X39557000Y-28007000D01*
X34357000Y-33147000D02*
X36957000Y-33147000D01*
X36957000Y-33147000D02*
X36957000Y-35747000D01*
X36957000Y-35747000D02*
X39557000Y-35747000D01*
X34357000Y-34417000D02*
X34357000Y-35747000D01*
X34357000Y-35747000D02*
X35687000Y-35747000D01*
X32198000Y-44644000D02*
X34858000Y-44644000D01*
X32198000Y-44704000D02*
X32198000Y-44644000D01*
X34858000Y-44704000D02*
X34858000Y-44644000D01*
X32198000Y-44704000D02*
X34858000Y-44704000D01*
X32198000Y-45974000D02*
X32198000Y-47304000D01*
X32198000Y-47304000D02*
X33528000Y-47304000D01*
X28515000Y-44644000D02*
X31175000Y-44644000D01*
X28515000Y-44704000D02*
X28515000Y-44644000D01*
X31175000Y-44704000D02*
X31175000Y-44644000D01*
X28515000Y-44704000D02*
X31175000Y-44704000D01*
X28515000Y-45974000D02*
X28515000Y-47304000D01*
X28515000Y-47304000D02*
X29845000Y-47304000D01*
X35881000Y-44644000D02*
X38541000Y-44644000D01*
X35881000Y-44704000D02*
X35881000Y-44644000D01*
X38541000Y-44704000D02*
X38541000Y-44644000D01*
X35881000Y-44704000D02*
X38541000Y-44704000D01*
X35881000Y-45974000D02*
X35881000Y-47304000D01*
X35881000Y-47304000D02*
X37211000Y-47304000D01*
X45088500Y-38992500D02*
X47748500Y-38992500D01*
X45088500Y-39052500D02*
X45088500Y-38992500D01*
X47748500Y-39052500D02*
X47748500Y-38992500D01*
X45088500Y-39052500D02*
X47748500Y-39052500D01*
X45088500Y-40322500D02*
X45088500Y-41652500D01*
X45088500Y-41652500D02*
X46418500Y-41652500D01*
X42993000Y-36833500D02*
X45653000Y-36833500D01*
X42993000Y-36893500D02*
X42993000Y-36833500D01*
X45653000Y-36893500D02*
X45653000Y-36833500D01*
X42993000Y-36893500D02*
X45653000Y-36893500D01*
X42993000Y-38163500D02*
X42993000Y-39493500D01*
X42993000Y-39493500D02*
X44323000Y-39493500D01*
X40262500Y-35690500D02*
X42922500Y-35690500D01*
X40262500Y-35750500D02*
X40262500Y-35690500D01*
X42922500Y-35750500D02*
X42922500Y-35690500D01*
X40262500Y-35750500D02*
X42922500Y-35750500D01*
X40262500Y-37020500D02*
X40262500Y-38350500D01*
X40262500Y-38350500D02*
X41592500Y-38350500D01*
X50800000Y-25106596D02*
X52680904Y-26987500D01*
X50757574Y-25149022D02*
X50800000Y-25106596D01*
X52638478Y-27029926D02*
X52680904Y-26987500D01*
X50757574Y-25149022D02*
X52638478Y-27029926D01*
X49859548Y-26047048D02*
X48919096Y-26987500D01*
X48919096Y-26987500D02*
X49859548Y-27927952D01*
X40649000Y-28118500D02*
X40649000Y-29318500D01*
X42409000Y-29318500D02*
X42409000Y-28118500D01*
X29546000Y-31550500D02*
X30746000Y-31550500D01*
X30746000Y-29790500D02*
X29546000Y-29790500D01*
X29546000Y-33455500D02*
X30746000Y-33455500D01*
X30746000Y-31695500D02*
X29546000Y-31695500D01*
X29546000Y-35360500D02*
X30746000Y-35360500D01*
X30746000Y-33600500D02*
X29546000Y-33600500D01*
X36822047Y-37043000D02*
X36822047Y-38303000D01*
X36822047Y-43863000D02*
X36822047Y-42603000D01*
X33062047Y-37043000D02*
X36822047Y-37043000D01*
X30812047Y-43863000D02*
X36822047Y-43863000D01*
X56428000Y-41480500D02*
X50178000Y-41480500D01*
X56428000Y-46530500D02*
X50178000Y-46530500D01*
X56428000Y-46530500D02*
G75*
G03X56428000Y-41480500I0J2525000D01*
G01*
X50178000Y-46530500D02*
G75*
G02X50178000Y-41480500I0J2525000D01*
G01*
X56829477Y-38860604D02*
X56122370Y-39567711D01*
X54920289Y-38365630D02*
X55627396Y-37658523D01*
X78091000Y-42664500D02*
X78091000Y-41734500D01*
X78091000Y-39504500D02*
X78091000Y-40434500D01*
X78091000Y-39504500D02*
X80251000Y-39504500D01*
X78091000Y-42664500D02*
X79551000Y-42664500D01*
X71762500Y-28116500D02*
X72692500Y-28116500D01*
X74922500Y-28116500D02*
X73992500Y-28116500D01*
X74922500Y-28116500D02*
X74922500Y-30276500D01*
X71762500Y-28116500D02*
X71762500Y-29576500D01*
X68079500Y-28116500D02*
X69009500Y-28116500D01*
X71239500Y-28116500D02*
X70309500Y-28116500D01*
X71239500Y-28116500D02*
X71239500Y-30276500D01*
X68079500Y-28116500D02*
X68079500Y-29576500D01*
X62244000Y-26931500D02*
X62244000Y-27861500D01*
X62244000Y-30091500D02*
X62244000Y-29161500D01*
X62244000Y-30091500D02*
X60084000Y-30091500D01*
X62244000Y-26931500D02*
X60784000Y-26931500D01*
X82541000Y-41002500D02*
X82541000Y-39802500D01*
X80781000Y-39802500D02*
X80781000Y-41002500D01*
X65777000Y-30080500D02*
X65777000Y-28880500D01*
X64017000Y-28880500D02*
X64017000Y-30080500D01*
X67745500Y-30080500D02*
X67745500Y-28880500D01*
X65985500Y-28880500D02*
X65985500Y-30080500D01*
X79620000Y-28777500D02*
X79620000Y-27577500D01*
X77860000Y-27577500D02*
X77860000Y-28777500D01*
X72780000Y-37389500D02*
X72780000Y-38589500D01*
X74540000Y-38589500D02*
X74540000Y-37389500D01*
X70875000Y-37389500D02*
X70875000Y-38589500D01*
X72635000Y-38589500D02*
X72635000Y-37389500D01*
X65233000Y-38154500D02*
X66433000Y-38154500D01*
X66433000Y-36394500D02*
X65233000Y-36394500D01*
X63010500Y-40123000D02*
X64210500Y-40123000D01*
X64210500Y-38363000D02*
X63010500Y-38363000D01*
X61804000Y-44377500D02*
X63004000Y-44377500D01*
X63004000Y-42617500D02*
X61804000Y-42617500D01*
X74410000Y-32503000D02*
X75610000Y-32503000D01*
X75610000Y-30743000D02*
X74410000Y-30743000D01*
X69584000Y-32503000D02*
X70784000Y-32503000D01*
X70784000Y-30743000D02*
X69584000Y-30743000D01*
X57921000Y-27356500D02*
X57921000Y-28556500D01*
X59681000Y-28556500D02*
X59681000Y-27356500D01*
X26156500Y-24471500D02*
X34856500Y-24471500D01*
X34856500Y-24471500D02*
X34856500Y-27471500D01*
X34856500Y-27471500D02*
X26156500Y-27471500D01*
X23558500Y-26670000D02*
G75*
G03X23558500Y-26670000I-2286000J0D01*
G01*
X93916500Y-45720000D02*
G75*
G03X93916500Y-45720000I-2286000J0D01*
G01*
M02*
