G04 #@! TF.FileFunction,Soldermask,Top*
%FSLAX46Y46*%
G04 Gerber Fmt 4.6, Leading zero omitted, Abs format (unit mm)*
G04 Created by KiCad (PCBNEW 4.0.7) date 11/22/17 14:23:38*
%MOMM*%
%LPD*%
G01*
G04 APERTURE LIST*
%ADD10C,0.100000*%
%ADD11C,0.150000*%
%ADD12R,1.900000X1.900000*%
%ADD13C,1.900000*%
%ADD14R,2.100000X2.100000*%
%ADD15O,2.100000X2.100000*%
%ADD16O,3.900120X2.398980*%
%ADD17C,4.464000*%
G04 APERTURE END LIST*
D10*
D11*
X18034000Y-22352000D02*
X18542000Y-22352000D01*
X18034000Y-23431500D02*
X18034000Y-22352000D01*
X94742000Y-22352000D02*
X94742000Y-23431500D01*
X18034000Y-48831500D02*
X18034000Y-23431500D01*
X39878000Y-48831500D02*
X18034000Y-48831500D01*
X94742000Y-48831500D02*
X39878000Y-48831500D01*
X94742000Y-47307500D02*
X94742000Y-48831500D01*
X94742000Y-23431500D02*
X94742000Y-47307500D01*
X18542000Y-22352000D02*
X94742000Y-22352000D01*
D12*
X62801500Y-41338500D03*
D13*
X65341500Y-41338500D03*
X67881500Y-41338500D03*
X70421500Y-41338500D03*
X72961500Y-41338500D03*
X75501500Y-41338500D03*
X75501500Y-26098500D03*
X72961500Y-26098500D03*
X70421500Y-26098500D03*
X67881500Y-26098500D03*
X65341500Y-26098500D03*
X62801500Y-26098500D03*
D14*
X35687000Y-34417000D03*
D15*
X38227000Y-34417000D03*
X35687000Y-31877000D03*
X38227000Y-31877000D03*
X35687000Y-29337000D03*
X38227000Y-29337000D03*
D16*
X23114000Y-41683940D03*
X23114000Y-45184060D03*
X23114000Y-31965900D03*
X23114000Y-35466020D03*
D14*
X33528000Y-45974000D03*
X29845000Y-45974000D03*
X37211000Y-45974000D03*
X46418500Y-40322500D03*
X44323000Y-38163500D03*
X41592500Y-37020500D03*
D10*
G36*
X49315076Y-26987500D02*
X50800000Y-25502576D01*
X52284924Y-26987500D01*
X50800000Y-28472424D01*
X49315076Y-26987500D01*
X49315076Y-26987500D01*
G37*
D13*
X55753000Y-44005500D03*
X50853000Y-44005500D03*
D17*
X21272500Y-26670000D03*
X91630500Y-45720000D03*
M02*
