<?xml version="1.0" standalone="no"?>
 <!DOCTYPE svg PUBLIC "-//W3C//DTD SVG 1.1//EN" 
 "http://www.w3.org/Graphics/SVG/1.1/DTD/svg11.dtd"> 
<svg xmlns="http://www.w3.org/2000/svg" version="1.1" 
    width="29.7002cm" height="21.0007cm" viewBox="0 0 116930 82680 ">
<title>SVG Picture created as voltmeter-B.Cu.svg date 2017/11/22 14:02:24 </title>
  <desc>Picture generated by PCBNEW </desc>
<g style="fill:#000000; fill-opacity:1;stroke:#000000; stroke-opacity:1;
stroke-linecap:round; stroke-linejoin:round; "
 transform="translate(0 0) scale(1 1)">
</g>
<g style="fill:#000000; fill-opacity:0.0; 
stroke:#000000; stroke-width:-0.000393701; stroke-opacity:1; 
stroke-linecap:round; stroke-linejoin:round;">
</g>
<g style="fill:#000000; fill-opacity:0.0; 
stroke:#000000; stroke-width:59.0551; stroke-opacity:1; 
stroke-linecap:round; stroke-linejoin:round;">
<path d="M7100 8800
L7300 8800
" />
<path d="M7100 9225
L7100 8800
" />
<path d="M37300 8800
L37300 9225
" />
<path d="M7100 19225
L7100 9225
" />
<path d="M15700 19225
L7100 19225
" />
<path d="M37300 19225
L15700 19225
" />
<path d="M37300 18625
L37300 19225
" />
<path d="M37300 9225
L37300 18625
" />
<path d="M7300 8800
L37300 8800
" />
</g>
<g style="fill:#000000; fill-opacity:0.0; 
stroke:#000000; stroke-width:0; stroke-opacity:1; 
stroke-linecap:round; stroke-linejoin:round;">
</g>
<g style="fill:#000000; fill-opacity:1.0; 
stroke:#000000; stroke-width:0; stroke-opacity:1; 
stroke-linecap:round; stroke-linejoin:round;">
<polyline style="fill-rule:evenodd;"
points="25020,16570
24429,16570
24429,15979
25020,15979
25020,16570
" /> 
<circle cx="25725" cy="16275" r="295.276" /> 
</g>
<g style="fill:#000000; fill-opacity:1.0; 
stroke:#000000; stroke-width:39.3701; stroke-opacity:1; 
stroke-linecap:round; stroke-linejoin:round;">
</g>
<g style="fill:#000000; fill-opacity:1.0; 
stroke:#000000; stroke-width:0; stroke-opacity:1; 
stroke-linecap:round; stroke-linejoin:round;">
<circle cx="26725" cy="16275" r="295.276" /> 
</g>
<g style="fill:#000000; fill-opacity:1.0; 
stroke:#000000; stroke-width:39.3701; stroke-opacity:1; 
stroke-linecap:round; stroke-linejoin:round;">
</g>
<g style="fill:#000000; fill-opacity:1.0; 
stroke:#000000; stroke-width:0; stroke-opacity:1; 
stroke-linecap:round; stroke-linejoin:round;">
<circle cx="27725" cy="16275" r="295.276" /> 
</g>
<g style="fill:#000000; fill-opacity:1.0; 
stroke:#000000; stroke-width:39.3701; stroke-opacity:1; 
stroke-linecap:round; stroke-linejoin:round;">
</g>
<g style="fill:#000000; fill-opacity:1.0; 
stroke:#000000; stroke-width:0; stroke-opacity:1; 
stroke-linecap:round; stroke-linejoin:round;">
<circle cx="28725" cy="16275" r="295.276" /> 
</g>
<g style="fill:#000000; fill-opacity:1.0; 
stroke:#000000; stroke-width:39.3701; stroke-opacity:1; 
stroke-linecap:round; stroke-linejoin:round;">
</g>
<g style="fill:#000000; fill-opacity:1.0; 
stroke:#000000; stroke-width:0; stroke-opacity:1; 
stroke-linecap:round; stroke-linejoin:round;">
<circle cx="29725" cy="16275" r="295.276" /> 
</g>
<g style="fill:#000000; fill-opacity:1.0; 
stroke:#000000; stroke-width:39.3701; stroke-opacity:1; 
stroke-linecap:round; stroke-linejoin:round;">
</g>
<g style="fill:#000000; fill-opacity:1.0; 
stroke:#000000; stroke-width:0; stroke-opacity:1; 
stroke-linecap:round; stroke-linejoin:round;">
<circle cx="29725" cy="10275" r="295.276" /> 
</g>
<g style="fill:#000000; fill-opacity:1.0; 
stroke:#000000; stroke-width:39.3701; stroke-opacity:1; 
stroke-linecap:round; stroke-linejoin:round;">
</g>
<g style="fill:#000000; fill-opacity:1.0; 
stroke:#000000; stroke-width:0; stroke-opacity:1; 
stroke-linecap:round; stroke-linejoin:round;">
<circle cx="28725" cy="10275" r="295.276" /> 
</g>
<g style="fill:#000000; fill-opacity:1.0; 
stroke:#000000; stroke-width:39.3701; stroke-opacity:1; 
stroke-linecap:round; stroke-linejoin:round;">
</g>
<g style="fill:#000000; fill-opacity:1.0; 
stroke:#000000; stroke-width:0; stroke-opacity:1; 
stroke-linecap:round; stroke-linejoin:round;">
<circle cx="27725" cy="10275" r="295.276" /> 
</g>
<g style="fill:#000000; fill-opacity:1.0; 
stroke:#000000; stroke-width:39.3701; stroke-opacity:1; 
stroke-linecap:round; stroke-linejoin:round;">
</g>
<g style="fill:#000000; fill-opacity:1.0; 
stroke:#000000; stroke-width:0; stroke-opacity:1; 
stroke-linecap:round; stroke-linejoin:round;">
<circle cx="26725" cy="10275" r="295.276" /> 
</g>
<g style="fill:#000000; fill-opacity:1.0; 
stroke:#000000; stroke-width:39.3701; stroke-opacity:1; 
stroke-linecap:round; stroke-linejoin:round;">
</g>
<g style="fill:#000000; fill-opacity:1.0; 
stroke:#000000; stroke-width:0; stroke-opacity:1; 
stroke-linecap:round; stroke-linejoin:round;">
<circle cx="25725" cy="10275" r="295.276" /> 
</g>
<g style="fill:#000000; fill-opacity:1.0; 
stroke:#000000; stroke-width:39.3701; stroke-opacity:1; 
stroke-linecap:round; stroke-linejoin:round;">
</g>
<g style="fill:#000000; fill-opacity:1.0; 
stroke:#000000; stroke-width:0; stroke-opacity:1; 
stroke-linecap:round; stroke-linejoin:round;">
<circle cx="24725" cy="10275" r="295.276" /> 
</g>
<g style="fill:#000000; fill-opacity:1.0; 
stroke:#000000; stroke-width:39.3701; stroke-opacity:1; 
stroke-linecap:round; stroke-linejoin:round;">
</g>
<g style="fill:#000000; fill-opacity:1.0; 
stroke:#000000; stroke-width:0; stroke-opacity:1; 
stroke-linecap:round; stroke-linejoin:round;">
<polyline style="fill-rule:evenodd;"
points="22311,13724
22158,13877
21713,13432
21866,13279
22311,13724
" /> 
<polyline style="fill-rule:evenodd;"
points="22089,13947
21936,14100
21490,13655
21643,13502
22089,13947
" /> 
<polyline style="fill-rule:evenodd;"
points="21866,14170
21713,14323
21267,13877
21421,13724
21866,14170
" /> 
<polyline style="fill-rule:evenodd;"
points="21643,14392
21490,14546
21045,14100
21198,13947
21643,14392
" /> 
<polyline style="fill-rule:evenodd;"
points="21421,14615
21267,14768
20822,14323
20975,14170
21421,14615
" /> 
<polyline style="fill-rule:evenodd;"
points="21198,14838
21045,14991
20599,14546
20752,14392
21198,14838
" /> 
<polyline style="fill-rule:evenodd;"
points="20975,15061
20822,15214
20377,14768
20530,14615
20975,15061
" /> 
<polyline style="fill-rule:evenodd;"
points="20752,15283
20599,15436
20154,14991
20307,14838
20752,15283
" /> 
<polyline style="fill-rule:evenodd;"
points="19500,15436
19347,15283
19792,14838
19945,14991
19500,15436
" /> 
<polyline style="fill-rule:evenodd;"
points="19277,15214
19124,15061
19569,14615
19722,14768
19277,15214
" /> 
<polyline style="fill-rule:evenodd;"
points="19054,14991
18901,14838
19347,14392
19500,14546
19054,14991
" /> 
<polyline style="fill-rule:evenodd;"
points="18832,14768
18678,14615
19124,14170
19277,14323
18832,14768
" /> 
<polyline style="fill-rule:evenodd;"
points="18609,14546
18456,14392
18901,13947
19054,14100
18609,14546
" /> 
<polyline style="fill-rule:evenodd;"
points="18386,14323
18233,14170
18678,13724
18832,13877
18386,14323
" /> 
<polyline style="fill-rule:evenodd;"
points="18163,14100
18010,13947
18456,13502
18609,13655
18163,14100
" /> 
<polyline style="fill-rule:evenodd;"
points="17941,13877
17788,13724
18233,13279
18386,13432
17941,13877
" /> 
<polyline style="fill-rule:evenodd;"
points="18386,12917
18233,13070
17788,12625
17941,12472
18386,12917
" /> 
<polyline style="fill-rule:evenodd;"
points="18609,12694
18456,12847
18010,12402
18163,12249
18609,12694
" /> 
<polyline style="fill-rule:evenodd;"
points="18832,12472
18678,12625
18233,12179
18386,12026
18832,12472
" /> 
<polyline style="fill-rule:evenodd;"
points="19054,12249
18901,12402
18456,11957
18609,11803
19054,12249
" /> 
<polyline style="fill-rule:evenodd;"
points="19277,12026
19124,12179
18678,11734
18832,11581
19277,12026
" /> 
<polyline style="fill-rule:evenodd;"
points="19500,11803
19347,11957
18901,11511
19054,11358
19500,11803
" /> 
<polyline style="fill-rule:evenodd;"
points="19722,11581
19569,11734
19124,11288
19277,11135
19722,11581
" /> 
<polyline style="fill-rule:evenodd;"
points="19945,11358
19792,11511
19347,11066
19500,10913
19945,11358
" /> 
<polyline style="fill-rule:evenodd;"
points="20307,11511
20154,11358
20599,10913
20752,11066
20307,11511
" /> 
<polyline style="fill-rule:evenodd;"
points="20530,11734
20377,11581
20822,11135
20975,11288
20530,11734
" /> 
<polyline style="fill-rule:evenodd;"
points="20752,11957
20599,11803
21045,11358
21198,11511
20752,11957
" /> 
<polyline style="fill-rule:evenodd;"
points="20975,12179
20822,12026
21267,11581
21421,11734
20975,12179
" /> 
<polyline style="fill-rule:evenodd;"
points="21198,12402
21045,12249
21490,11803
21643,11957
21198,12402
" /> 
<polyline style="fill-rule:evenodd;"
points="21421,12625
21267,12472
21713,12026
21866,12179
21421,12625
" /> 
<polyline style="fill-rule:evenodd;"
points="21643,12847
21490,12694
21936,12249
22089,12402
21643,12847
" /> 
<polyline style="fill-rule:evenodd;"
points="21866,13070
21713,12917
22158,12472
22311,12625
21866,13070
" /> 
<polyline style="fill-rule:evenodd;"
points="11203,15562
11696,15562
11696,16153
11203,16153
11203,15562
" /> 
<polyline style="fill-rule:evenodd;"
points="11203,16546
11696,16546
11696,17137
11203,17137
11203,16546
" /> 
<polyline style="fill-rule:evenodd;"
points="15578,17179
16071,17179
16071,17770
15578,17770
15578,17179
" /> 
<polyline style="fill-rule:evenodd;"
points="15578,18163
16071,18163
16071,18754
15578,18754
15578,18163
" /> 
<polyline style="fill-rule:evenodd;"
points="17637,12335
17289,11987
17706,11570
18054,11918
17637,12335
" /> 
<polyline style="fill-rule:evenodd;"
points="18333,11639
17985,11291
18402,10874
18750,11222
18333,11639
" /> 
<polyline style="fill-rule:evenodd;"
points="12645,11178
12645,11671
12054,11671
12054,11178
12645,11178
" /> 
<polyline style="fill-rule:evenodd;"
points="11661,11178
11661,11671
11070,11671
11070,11178
11661,11178
" /> 
<polyline style="fill-rule:evenodd;"
points="13715,13884
13715,13215
14384,13215
14384,13884
13715,13884
" /> 
</g>
<g style="fill:#000000; fill-opacity:1.0; 
stroke:#000000; stroke-width:669.291; stroke-opacity:1; 
stroke-linecap:round; stroke-linejoin:round;">
</g>
<g style="fill:#000000; fill-opacity:0.0; 
stroke:#000000; stroke-width:669.291; stroke-opacity:1; 
stroke-linecap:round; stroke-linejoin:round;">
<path d="M15050 13550
L15050 13550
" />
<path d="M14050 12550
L14050 12550
" />
<path d="M15050 12550
L15050 12550
" />
<path d="M14050 11550
L14050 11550
" />
<path d="M15050 11550
L15050 11550
" />
</g>
<g style="fill:#000000; fill-opacity:0.0; 
stroke:#000000; stroke-width:787; stroke-opacity:1; 
stroke-linecap:round; stroke-linejoin:round;">
<path d="M8804 16411
L9395 16411
" />
<path d="M8804 17789
L9395 17789
" />
<path d="M8804 12585
L9395 12585
" />
<path d="M8804 13963
L9395 13963
" />
</g>
<g style="fill:#000000; fill-opacity:0.0; 
stroke:#000000; stroke-width:0; stroke-opacity:1; 
stroke-linecap:round; stroke-linejoin:round;">
</g>
<g style="fill:#000000; fill-opacity:1.0; 
stroke:#000000; stroke-width:0; stroke-opacity:1; 
stroke-linecap:round; stroke-linejoin:round;">
<polyline style="fill-rule:evenodd;"
points="12865,18434
12865,17765
13534,17765
13534,18434
12865,18434
" /> 
<polyline style="fill-rule:evenodd;"
points="11415,18434
11415,17765
12084,17765
12084,18434
11415,18434
" /> 
<polyline style="fill-rule:evenodd;"
points="14315,18434
14315,17765
14984,17765
14984,18434
14315,18434
" /> 
<polyline style="fill-rule:evenodd;"
points="17940,16209
17940,15540
18609,15540
18609,16209
17940,16209
" /> 
<polyline style="fill-rule:evenodd;"
points="17115,15359
17115,14690
17784,14690
17784,15359
17115,15359
" /> 
<polyline style="fill-rule:evenodd;"
points="16040,14909
16040,14240
16709,14240
16709,14909
16040,14909
" /> 
<polyline style="fill-rule:evenodd;"
points="19526,10625
20000,10151
20473,10625
20000,11098
19526,10625
" /> 
<polyline style="fill-rule:evenodd;"
points="16605,12133
16094,12133
16094,11542
16605,11542
16605,12133
" /> 
<polyline style="fill-rule:evenodd;"
points="16605,11070
16094,11070
16094,10479
16605,10479
16605,11070
" /> 
<polyline style="fill-rule:evenodd;"
points="12695,11819
12695,12330
12104,12330
12104,11819
12695,11819
" /> 
<polyline style="fill-rule:evenodd;"
points="11632,11819
11632,12330
11041,12330
11041,11819
11632,11819
" /> 
<polyline style="fill-rule:evenodd;"
points="12695,12569
12695,13080
12104,13080
12104,12569
12695,12569
" /> 
<polyline style="fill-rule:evenodd;"
points="11632,12569
11632,13080
11041,13080
11041,12569
11632,12569
" /> 
<polyline style="fill-rule:evenodd;"
points="12695,13319
12695,13830
12104,13830
12104,13319
12695,13319
" /> 
<polyline style="fill-rule:evenodd;"
points="11632,13319
11632,13830
11041,13830
11041,13319
11632,13319
" /> 
<polyline style="fill-rule:evenodd;"
points="14591,16674
14591,15178
15378,15178
15378,16674
14591,16674
" /> 
<polyline style="fill-rule:evenodd;"
points="12111,16221
12111,15631
12898,15631
12898,16221
12111,16221
" /> 
<polyline style="fill-rule:evenodd;"
points="12111,15316
12111,14725
12898,14725
12898,15316
12111,15316
" /> 
<polyline style="fill-rule:evenodd;"
points="12111,17127
12111,16536
12898,16536
12898,17127
12111,17127
" /> 
<circle cx="21950" cy="17325" r="295.276" /> 
</g>
<g style="fill:#000000; fill-opacity:1.0; 
stroke:#000000; stroke-width:39.3701; stroke-opacity:1; 
stroke-linecap:round; stroke-linejoin:round;">
</g>
<g style="fill:#000000; fill-opacity:1.0; 
stroke:#000000; stroke-width:0; stroke-opacity:1; 
stroke-linecap:round; stroke-linejoin:round;">
<circle cx="20020.9" cy="17325" r="295.276" /> 
</g>
<g style="fill:#000000; fill-opacity:1.0; 
stroke:#000000; stroke-width:39.3701; stroke-opacity:1; 
stroke-linecap:round; stroke-linejoin:round;">
</g>
<g style="fill:#000000; fill-opacity:1.0; 
stroke:#000000; stroke-width:0; stroke-opacity:1; 
stroke-linecap:round; stroke-linejoin:round;">
<polyline style="fill-rule:evenodd;"
points="21615,15932
21267,15584
21684,15167
22032,15515
21615,15932
" /> 
<polyline style="fill-rule:evenodd;"
points="22311,15236
21963,14888
22380,14471
22728,14819
22311,15236
" /> 
<polyline style="fill-rule:evenodd;"
points="31614,15643
31614,15958
31260,15958
31260,15643
31614,15643
" /> 
<polyline style="fill-rule:evenodd;"
points="31614,16391
31614,16706
31260,16706
31260,16391
31614,16391
" /> 
<polyline style="fill-rule:evenodd;"
points="30827,16017
30827,16332
30472,16332
30472,16017
30827,16017
" /> 
<polyline style="fill-rule:evenodd;"
points="29406,11939
29091,11939
29091,11585
29406,11585
29406,11939
" /> 
<polyline style="fill-rule:evenodd;"
points="28658,11939
28343,11939
28343,11585
28658,11585
28658,11939
" /> 
<polyline style="fill-rule:evenodd;"
points="29032,11152
28717,11152
28717,10797
29032,10797
29032,11152
" /> 
<polyline style="fill-rule:evenodd;"
points="27956,11939
27641,11939
27641,11585
27956,11585
27956,11939
" /> 
<polyline style="fill-rule:evenodd;"
points="27208,11939
26893,11939
26893,11585
27208,11585
27208,11939
" /> 
<polyline style="fill-rule:evenodd;"
points="27582,11152
27267,11152
27267,10797
27582,10797
27582,11152
" /> 
<polyline style="fill-rule:evenodd;"
points="23635,11756
23635,11441
23989,11441
23989,11756
23635,11756
" /> 
<polyline style="fill-rule:evenodd;"
points="23635,11008
23635,10693
23989,10693
23989,11008
23635,11008
" /> 
<polyline style="fill-rule:evenodd;"
points="24422,11382
24422,11067
24777,11067
24777,11382
24422,11382
" /> 
<polyline style="fill-rule:evenodd;"
points="31894,15079
32405,15079
32405,15670
31894,15670
31894,15079
" /> 
<polyline style="fill-rule:evenodd;"
points="31894,16142
32405,16142
32405,16733
31894,16733
31894,16142
" /> 
<polyline style="fill-rule:evenodd;"
points="25294,10779
25805,10779
25805,11370
25294,11370
25294,10779
" /> 
<polyline style="fill-rule:evenodd;"
points="25294,11842
25805,11842
25805,12433
25294,12433
25294,11842
" /> 
<polyline style="fill-rule:evenodd;"
points="26069,10779
26580,10779
26580,11370
26069,11370
26069,10779
" /> 
<polyline style="fill-rule:evenodd;"
points="26069,11842
26580,11842
26580,12433
26069,12433
26069,11842
" /> 
<polyline style="fill-rule:evenodd;"
points="30744,10266
31255,10266
31255,10857
30744,10857
30744,10266
" /> 
<polyline style="fill-rule:evenodd;"
points="30744,11329
31255,11329
31255,11920
30744,11920
30744,11329
" /> 
<polyline style="fill-rule:evenodd;"
points="29255,15783
28744,15783
28744,15192
29255,15192
29255,15783
" /> 
<polyline style="fill-rule:evenodd;"
points="29255,14720
28744,14720
28744,14129
29255,14129
29255,14720
" /> 
<polyline style="fill-rule:evenodd;"
points="28505,15783
27994,15783
27994,15192
28505,15192
28505,15783
" /> 
<polyline style="fill-rule:evenodd;"
points="28505,14720
27994,14720
27994,14129
28505,14129
28505,14720
" /> 
<polyline style="fill-rule:evenodd;"
points="26745,14419
26745,14930
26154,14930
26154,14419
26745,14419
" /> 
<polyline style="fill-rule:evenodd;"
points="25682,14419
25682,14930
25091,14930
25091,14419
25682,14419
" /> 
<polyline style="fill-rule:evenodd;"
points="25870,15194
25870,15705
25279,15705
25279,15194
25870,15194
" /> 
<polyline style="fill-rule:evenodd;"
points="24807,15194
24807,15705
24216,15705
24216,15194
24807,15194
" /> 
<polyline style="fill-rule:evenodd;"
points="25395,16869
25395,17380
24804,17380
24804,16869
25395,16869
" /> 
<polyline style="fill-rule:evenodd;"
points="24332,16869
24332,17380
23741,17380
23741,16869
24332,16869
" /> 
<polyline style="fill-rule:evenodd;"
points="30358,12194
30358,12705
29767,12705
29767,12194
30358,12194
" /> 
<polyline style="fill-rule:evenodd;"
points="29295,12194
29295,12705
28704,12705
28704,12194
29295,12194
" /> 
<polyline style="fill-rule:evenodd;"
points="28458,12194
28458,12705
27867,12705
27867,12194
28458,12194
" /> 
<polyline style="fill-rule:evenodd;"
points="27395,12194
27395,12705
26804,12705
26804,12194
27395,12194
" /> 
<polyline style="fill-rule:evenodd;"
points="23405,11833
22894,11833
22894,11242
23405,11242
23405,11833
" /> 
<polyline style="fill-rule:evenodd;"
points="23405,10770
22894,10770
22894,10179
23405,10179
23405,10770
" /> 
<polyline style="fill-rule:evenodd;"
points="13663,9693
13663,10756
12286,10756
12286,9693
13663,9693
" /> 
<polyline style="fill-rule:evenodd;"
points="10986,9693
10986,10756
9608,10756
9608,9693
10986,9693
" /> 
<circle cx="8375" cy="10500" r="800" /> 
</g>
<g style="fill:#000000; fill-opacity:1.0; 
stroke:#000000; stroke-width:39.3701; stroke-opacity:1; 
stroke-linecap:round; stroke-linejoin:round;">
</g>
<g style="fill:#000000; fill-opacity:1.0; 
stroke:#000000; stroke-width:0; stroke-opacity:1; 
stroke-linecap:round; stroke-linejoin:round;">
<circle cx="36075" cy="18000" r="800" /> 
</g>
<g style="fill:#000000; fill-opacity:1.0; 
stroke:#000000; stroke-width:39.3701; stroke-opacity:1; 
stroke-linecap:round; stroke-linejoin:round;">
</g>
<g style="fill:#000000; fill-opacity:1.0; 
stroke:#000000; stroke-width:0; stroke-opacity:1; 
stroke-linecap:round; stroke-linejoin:round;">
<circle cx="17289.7" cy="11130.1" r="314.961" /> 
</g>
<g style="fill:#000000; fill-opacity:1.0; 
stroke:#000000; stroke-width:39.3701; stroke-opacity:1; 
stroke-linecap:round; stroke-linejoin:round;">
</g>
<g style="fill:#000000; fill-opacity:1.0; 
stroke:#000000; stroke-width:0; stroke-opacity:1; 
stroke-linecap:round; stroke-linejoin:round;">
<circle cx="22341.5" cy="11454.5" r="314.961" /> 
</g>
<g style="fill:#000000; fill-opacity:1.0; 
stroke:#000000; stroke-width:39.3701; stroke-opacity:1; 
stroke-linecap:round; stroke-linejoin:round;">
</g>
<g style="fill:#000000; fill-opacity:1.0; 
stroke:#000000; stroke-width:240; stroke-opacity:1; 
stroke-linecap:round; stroke-linejoin:round;">
</g>
<g style="fill:#000000; fill-opacity:0.0; 
stroke:#000000; stroke-width:240; stroke-opacity:1; 
stroke-linecap:round; stroke-linejoin:round;">
<path d="M12504 15020
L11867 15020
" />
<path d="M11867 15020
L11450 15438
" />
<path d="M11450 15438
L11450 15857
" />
<path d="M10314 16411
L10867 15857
" />
<path d="M10867 15857
L11450 15857
" />
<path d="M9100 16411
L10314 16411
" />
</g>
<g style="fill:#000000; fill-opacity:0.0; 
stroke:#000000; stroke-width:160; stroke-opacity:1; 
stroke-linecap:round; stroke-linejoin:round;">
<path d="M17325 10175
L15375 10175
" />
<path d="M15050 11550
L15050 10500
" />
<path d="M15050 10500
L15375 10175
" />
</g>
<g style="fill:#000000; fill-opacity:0.0; 
stroke:#000000; stroke-width:120; stroke-opacity:1; 
stroke-linecap:round; stroke-linejoin:round;">
<path d="M26550 11625
L24413 11625
" />
</g>
<g style="fill:#000000; fill-opacity:0.0; 
stroke:#000000; stroke-width:160; stroke-opacity:1; 
stroke-linecap:round; stroke-linejoin:round;">
<path d="M27037 11762
L26900 11625
" />
<path d="M26900 11625
L26550 11625
" />
<path d="M27050 11762
L27037 11762
" />
</g>
<g style="fill:#000000; fill-opacity:0.0; 
stroke:#000000; stroke-width:120; stroke-opacity:1; 
stroke-linecap:round; stroke-linejoin:round;">
<path d="M28500 11762
L28500 11830
" />
<path d="M28500 11830
L29000 12329
" />
<path d="M29000 12329
L29000 12450
" />
<path d="M23476 10514
L23812 10850
" />
<path d="M27139 12450
L27100 12450
" />
<path d="M27608 12918
L27139 12450
" />
<path d="M28907 12918
L27608 12918
" />
<path d="M29000 12825
L28907 12918
" />
<path d="M29000 12825
L29092 12918
" />
<path d="M24413 11625
L24109 11321
" />
<path d="M24109 11321
L24109 11128
" />
<path d="M24109 11128
L23832 10850
" />
<path d="M23832 10850
L23812 10850
" />
<path d="M29000 12450
L29000 12825
" />
</g>
<g style="fill:#000000; fill-opacity:0.0; 
stroke:#000000; stroke-width:240; stroke-opacity:1; 
stroke-linecap:round; stroke-linejoin:round;">
<path d="M11750 18100
L13200 18100
" />
<path d="M11450 16842
L12494 16842
" />
<path d="M12494 16842
L12504 16831
" />
<path d="M12504 16831
L12504 17404
" />
<path d="M11450 16842
L11450 17800
" />
<path d="M11450 17800
L11750 18100
" />
<path d="M10550 17268
L10550 17256
" />
<path d="M10550 17256
L10963 16842
" />
<path d="M10963 16842
L11450 16842
" />
<path d="M9100 17789
L10029 17789
" />
<path d="M10029 17789
L10550 17268
" />
</g>
<g style="fill:#000000; fill-opacity:0.0; 
stroke:#000000; stroke-width:160; stroke-opacity:1; 
stroke-linecap:round; stroke-linejoin:round;">
<path d="M18250 11100
L17325 10175
" />
<path d="M18250 11100
L18250 11152
" />
<path d="M18250 11152
L18978 11880
" />
</g>
<g style="fill:#000000; fill-opacity:0.0; 
stroke:#000000; stroke-width:120; stroke-opacity:1; 
stroke-linecap:round; stroke-linejoin:round;">
<path d="M23150 10675
L23310 10514
" />
<path d="M23310 10514
L23476 10514
" />
</g>
<g style="fill:#000000; fill-opacity:0.0; 
stroke:#000000; stroke-width:160; stroke-opacity:1; 
stroke-linecap:round; stroke-linejoin:round;">
<path d="M18978 11880
L20846 13748
" />
<path d="M20846 13748
L20871 13748
" />
<path d="M20871 13748
L20800 13820
" />
<path d="M20800 13820
L20800 13825
" />
<path d="M21000 13625
L21168 13625
" />
<path d="M21168 13625
L21567 14024
" />
<path d="M20800 13825
L21000 13625
" />
<path d="M20800 14147
L20800 13825
" />
<path d="M21121 14469
L20800 14147
" />
<path d="M21567 14024
L21567 14075
" />
<path d="M21567 14075
L22345 14854
" />
</g>
<g style="fill:#000000; fill-opacity:0.0; 
stroke:#000000; stroke-width:120; stroke-opacity:1; 
stroke-linecap:round; stroke-linejoin:round;">
<path d="M27050 11762
L27050 12400
" />
<path d="M27050 12400
L27100 12450
" />
<path d="M16350 12250
L16350 11837
" />
<path d="M15050 13550
L16350 12250
" />
</g>
<g style="fill:#000000; fill-opacity:0.0; 
stroke:#000000; stroke-width:160; stroke-opacity:1; 
stroke-linecap:round; stroke-linejoin:round;">
<path d="M21650 15550
L21966 15866
" />
<path d="M22619 15866
L24334 14152
" />
<path d="M21966 15866
L22619 15866
" />
<path d="M24334 14152
L27028 14152
" />
<path d="M22477 18597
L19158 18597
" />
<path d="M27028 14152
L27224 14348
" />
<path d="M27224 14348
L27224 17082
" />
<path d="M19158 18597
L18529 17968
" />
<path d="M27224 17082
L26546 17760
" />
<path d="M16366 17968
L16156 17757
" />
<path d="M26546 17760
L23314 17760
" />
<path d="M23314 17760
L22477 18597
" />
<path d="M18529 17968
L16366 17968
" />
<path d="M16156 17757
L15750 17757
" />
<path d="M16350 11837
L16904 11837
" />
<path d="M17019 11952
L17672 11952
" />
<path d="M16904 11837
L17019 11952
" />
<path d="M17672 11952
L17714 11952
" />
<path d="M17714 11952
L18310 12548
" />
<path d="M18310 12548
L18267 12548
" />
<path d="M21611 14513
L21344 14246
" />
<path d="M21611 15213
L21611 14513
" />
<path d="M21581 15243
L21611 15213
" />
<path d="M21450 15243
L21581 15243
" />
</g>
<g style="fill:#000000; fill-opacity:0.0; 
stroke:#000000; stroke-width:240; stroke-opacity:1; 
stroke-linecap:round; stroke-linejoin:round;">
<path d="M14985 15926
L14985 17764
" />
<path d="M12504 15926
L13138 15926
" />
<path d="M13138 15926
L14985 15926
" />
<path d="M15750 17757
L14992 17757
" />
</g>
<g style="fill:#000000; fill-opacity:0.0; 
stroke:#000000; stroke-width:160; stroke-opacity:1; 
stroke-linecap:round; stroke-linejoin:round;">
<path d="M20899 14692
L20200 13993
" />
<path d="M20200 13993
L19754 13993
" />
<path d="M19754 13993
L18560 12799
" />
<path d="M18560 12799
L18310 12548
" />
<path d="M21450 15243
L20899 14692
" />
<path d="M21650 15443
L21450 15243
" />
<path d="M21650 15550
L21650 15443
" />
<path d="M12350 10850
L12975 10225
" />
<path d="M12350 11425
L12350 10850
" />
<path d="M19423 11435
L17900 9911
" />
<path d="M17900 9911
L14322 9911
" />
<path d="M14322 9911
L14009 10225
" />
<path d="M14009 10225
L12975 10225
" />
<path d="M12400 12825
L12400 12075
" />
<path d="M12400 12075
L12400 11475
" />
<path d="M12400 11475
L12350 11425
" />
</g>
<g style="fill:#000000; fill-opacity:0.0; 
stroke:#000000; stroke-width:120; stroke-opacity:1; 
stroke-linecap:round; stroke-linejoin:round;">
<path d="M18087 13578
L17863 13802
" />
<path d="M14050 14004
L14050 13550
" />
<path d="M17863 13802
L15880 13802
" />
<path d="M15880 13802
L15282 14400
" />
<path d="M15282 14400
L14445 14400
" />
<path d="M14445 14400
L14050 14004
" />
<path d="M14050 12550
L14552 13052
" />
<path d="M14552 13052
L14552 13850
" />
<path d="M14552 13850
L14801 14100
" />
<path d="M14801 14100
L15275 14100
" />
<path d="M15275 14100
L16875 12500
" />
<path d="M16875 12500
L17816 12500
" />
<path d="M17816 12500
L17836 12520
" />
<path d="M17836 12520
L18087 12771
" />
<path d="M18087 12771
L17877 12561
" />
<path d="M18310 13801
L18059 14051
" />
<path d="M18059 14051
L15913 14051
" />
<path d="M13482 12317
L13750 12050
" />
<path d="M15913 14051
L15315 14649
" />
<path d="M15315 14649
L14239 14649
" />
<path d="M14357 12050
L14857 12550
" />
<path d="M14239 14649
L13482 13892
" />
<path d="M13482 13892
L13482 12317
" />
<path d="M13750 12050
L14357 12050
" />
<path d="M14857 12550
L15050 12550
" />
<path d="M14050 11550
L14246 11550
" />
<path d="M14246 11550
L14742 12046
" />
<path d="M14742 12046
L15453 12046
" />
<path d="M15943 10775
L16350 10775
" />
<path d="M15453 12046
L15706 11793
" />
<path d="M15706 11793
L15706 11011
" />
<path d="M15706 11011
L15943 10775
" />
<path d="M16974 10815
L17289 11130
" />
<path d="M16350 10775
L16934 10775
" />
<path d="M16934 10775
L16974 10815
" />
</g>
<g style="fill:#000000; fill-opacity:0.0; 
stroke:#000000; stroke-width:100; stroke-opacity:1; 
stroke-linecap:round; stroke-linejoin:round;">
<path d="M21993 11454
L22341 11454
" />
<path d="M21344 12103
L21993 11454
" />
</g>
<g style="fill:#000000; fill-opacity:0.0; 
stroke:#000000; stroke-width:160; stroke-opacity:1; 
stroke-linecap:round; stroke-linejoin:round;">
<path d="M12400 13575
L12400 13990
" />
<path d="M12400 13990
L12265 14125
" />
<path d="M12265 14125
L10637 14125
" />
<path d="M10637 14125
L10473 13960
" />
<path d="M10470 13963
L9100 13963
" />
<path d="M10473 13960
L10470 13963
" />
</g>
<g style="fill:#000000; fill-opacity:0.0; 
stroke:#000000; stroke-width:120; stroke-opacity:1; 
stroke-linecap:round; stroke-linejoin:round;">
<path d="M18275 15425
L18275 15875
" />
<path d="M18978 14469
L18275 15172
" />
<path d="M18275 15172
L18275 15425
" />
<path d="M18755 14246
L17977 15025
" />
<path d="M17977 15025
L17450 15025
" />
<path d="M16375 14575
L16829 14575
" />
<path d="M16829 14575
L17008 14396
" />
<path d="M17008 14396
L18160 14396
" />
<path d="M18160 14396
L18532 14024
" />
<path d="M20000 10625
L20000 10858
" />
<path d="M20000 10858
L19646 11212
" />
<path d="M20453 11212
L22378 9287
" />
<path d="M22378 9287
L27867 9287
" />
<path d="M27867 9287
L28019 9439
" />
<path d="M28019 9439
L31714 9439
" />
<path d="M31714 9439
L32150 9875
" />
<path d="M32150 9875
L32150 14959
" />
<path d="M32150 14959
L32150 15375
" />
<path d="M32150 15375
L31719 15375
" />
<path d="M31719 15375
L31437 15657
" />
<path d="M31437 15657
L31437 15800
" />
<path d="M29249 11742
L28862 11355
" />
<path d="M28215 11090
L28215 9917
" />
<path d="M29249 11762
L29249 11742
" />
<path d="M28862 11355
L28480 11355
" />
<path d="M28480 11355
L28215 11090
" />
<path d="M28215 9917
L27832 9534
" />
<path d="M27832 9534
L22576 9534
" />
<path d="M22576 9534
L20926 11184
" />
<path d="M20926 11184
L20676 11435
" />
<path d="M29249 11762
L29643 11762
" />
<path d="M29643 11762
L30062 12182
" />
<path d="M30062 12182
L30062 12450
" />
<path d="M26974 9734
L27245 10005
" />
<path d="M27245 10005
L27245 10567
" />
<path d="M27050 10763
L27050 11228
" />
<path d="M27219 11398
L27654 11398
" />
<path d="M20899 11657
L22822 9734
" />
<path d="M22822 9734
L26974 9734
" />
<path d="M27245 10567
L27050 10763
" />
<path d="M27050 11228
L27219 11398
" />
<path d="M27654 11398
L27799 11542
" />
<path d="M27799 11542
L27799 11762
" />
<path d="M28162 12450
L28162 12126
" />
<path d="M28162 12126
L27799 11762
" />
<path d="M22717 10956
L22045 10956
" />
<path d="M23110 11537
L23110 11349
" />
<path d="M23110 11349
L22717 10956
" />
<path d="M21372 11629
L21121 11880
" />
<path d="M22045 10956
L21372 11629
" />
<path d="M23150 11537
L23751 11537
" />
<path d="M23751 11537
L23812 11599
" />
<path d="M25550 12137
L25174 12137
" />
<path d="M23319 12075
L21817 12075
" />
<path d="M25174 12137
L24639 12672
" />
<path d="M24639 12672
L23916 12672
" />
<path d="M23916 12672
L23319 12075
" />
<path d="M21817 12075
L21567 12325
" />
</g>
<g style="fill:#000000; fill-opacity:0.0; 
stroke:#000000; stroke-width:160; stroke-opacity:1; 
stroke-linecap:round; stroke-linejoin:round;">
<path d="M11337 13575
L11337 12825
" />
</g>
<g style="fill:#000000; fill-opacity:0.0; 
stroke:#000000; stroke-width:120; stroke-opacity:1; 
stroke-linecap:round; stroke-linejoin:round;">
<path d="M21789 12548
L22045 12293
" />
<path d="M22045 12293
L23208 12293
" />
<path d="M23208 12293
L23836 12920
" />
<path d="M23836 12920
L25581 12920
" />
<path d="M25581 12920
L26325 12177
" />
<path d="M26325 12177
L26325 12137
" />
<path d="M28513 13138
L29175 13800
" />
<path d="M23661 13138
L28513 13138
" />
<path d="M31000 12040
L31000 11625
" />
<path d="M22012 12771
L22290 12493
" />
<path d="M22290 12493
L23016 12493
" />
<path d="M23016 12493
L23661 13138
" />
<path d="M29175 13800
L30475 13800
" />
<path d="M30475 13800
L31000 13275
" />
<path d="M31000 13275
L31000 12040
" />
<path d="M21950 17325
L21950 16907
" />
<path d="M21950 16907
L21100 16057
" />
<path d="M21100 16057
L21100 15338
" />
<path d="M21100 15338
L20676 14914
" />
<path d="M20020 17325
L20020 16933
" />
<path d="M20020 16933
L20750 16204
" />
<path d="M20750 16204
L20750 15433
" />
<path d="M20750 15433
L20453 15137
" />
<path d="M30650 16175
L29825 16175
" />
<path d="M29825 16175
L29725 16275
" />
<path d="M29825 16174
L29725 16275
" />
<path d="M28875 10975
L28875 10425
" />
<path d="M28875 10425
L28725 10275
" />
<path d="M27425 10975
L27594 10975
" />
<path d="M27594 10975
L27721 10847
" />
<path d="M27721 10847
L27721 10278
" />
<path d="M27721 10278
L27725 10275
" />
<path d="M24725 10275
L24725 11100
" />
<path d="M24725 11100
L24600 11225
" />
</g>
<g style="fill:#000000; fill-opacity:0.0; 
stroke:#000000; stroke-width:100; stroke-opacity:1; 
stroke-linecap:round; stroke-linejoin:round;">
<path d="M25550 11075
L25550 10450
" />
<path d="M25550 10450
L25725 10275
" />
</g>
<g style="fill:#000000; fill-opacity:0.0; 
stroke:#000000; stroke-width:120; stroke-opacity:1; 
stroke-linecap:round; stroke-linejoin:round;">
<path d="M26325 11075
L26325 10735
" />
<path d="M26325 10735
L26725 10335
" />
<path d="M26725 10335
L26725 10275
" />
</g>
<g style="fill:#000000; fill-opacity:0.0; 
stroke:#000000; stroke-width:100; stroke-opacity:1; 
stroke-linecap:round; stroke-linejoin:round;">
<path d="M30150 10275
L30437 10562
" />
<path d="M30437 10562
L31000 10562
" />
<path d="M29725 10275
L30150 10275
" />
</g>
<g style="fill:#000000; fill-opacity:0.0; 
stroke:#000000; stroke-width:120; stroke-opacity:1; 
stroke-linecap:round; stroke-linejoin:round;">
<path d="M29000 15487
L29000 16000
" />
<path d="M29000 16000
L28725 16275
" />
<path d="M28725 16275
L28725 16200
" />
<path d="M23214 13338
L28363 13338
" />
<path d="M22722 13830
L23214 13338
" />
<path d="M22012 13578
L22264 13830
" />
<path d="M22264 13830
L22722 13830
" />
<path d="M28363 13338
L29000 13975
" />
<path d="M29000 13975
L29000 14425
" />
<path d="M29000 14425
L29000 14385
" />
<path d="M28250 15487
L28250 15750
" />
<path d="M28250 15750
L27725 16275
" />
<path d="M27725 16275
L27725 16262
" />
<path d="M21789 13801
L22040 14051
" />
<path d="M22040 14051
L22823 14051
" />
<path d="M22823 14051
L23290 13584
" />
<path d="M23290 13584
L27959 13584
" />
<path d="M27959 13584
L28250 13875
" />
<path d="M28250 13875
L28250 14009
" />
<path d="M28250 14009
L28250 14425
" />
<path d="M26725 15575
L26450 15300
" />
<path d="M26450 15300
L26450 14675
" />
<path d="M26725 16275
L26725 15575
" />
</g>
<g style="fill:#000000; fill-opacity:0.0; 
stroke:#000000; stroke-width:100; stroke-opacity:1; 
stroke-linecap:round; stroke-linejoin:round;">
<path d="M26750 16250
L26725 16275
" />
</g>
<g style="fill:#000000; fill-opacity:0.0; 
stroke:#000000; stroke-width:120; stroke-opacity:1; 
stroke-linecap:round; stroke-linejoin:round;">
<path d="M19395 17370
L19395 15388
" />
<path d="M19395 15388
L19646 15137
" />
<path d="M22985 15939
L24250 14675
" />
<path d="M24250 14675
L25387 14675
" />
<path d="M22985 17004
L22985 15939
" />
<path d="M22181 17808
L19833 17808
" />
<path d="M22985 17004
L22181 17808
" />
<path d="M19833 17808
L19395 17370
" />
<path d="M25725 16275
L25725 15600
" />
<path d="M25725 15600
L25575 15450
" />
<path d="M19134 17515
L19134 15204
" />
<path d="M24512 15450
L24096 15450
" />
<path d="M19134 15204
L19423 14914
" />
<path d="M24096 15450
L23325 16221
" />
<path d="M23325 16221
L23325 16983
" />
<path d="M23325 16983
L22235 18073
" />
<path d="M22235 18073
L19692 18073
" />
<path d="M19692 18073
L19134 17515
" />
<path d="M24725 16275
L24725 16750
" />
<path d="M24725 16750
L25100 17125
" />
<path d="M24725 16275
L24733 16275
" />
<path d="M18875 17706
L18875 15017
" />
<path d="M19200 14692
L18875 15017
" />
<path d="M23550 17125
L24037 17125
" />
<path d="M18875 17706
L19472 18304
" />
<path d="M19472 18304
L22370 18304
" />
<path d="M22370 18304
L23550 17125
" />
</g>
<g style="fill:#000000; fill-opacity:1.0; 
stroke:#000000; stroke-width:100; stroke-opacity:1; 
stroke-linecap:round; stroke-linejoin:round;">
<polyline style="fill-rule:evenodd;"
points="37102,17709
37054,17565
36980,17426
36832,17339
36171,18000
36832,18660
36980,18573
37074,18385
37102,18286
37102,19027
36365,19027
36509,18979
36648,18905
36735,18757
36075,18096
35414,18757
35501,18905
35689,18999
35788,19027
7297,19027
7297,17958
8166,17958
8168,17978
8217,18099
8289,18207
8381,18299
8488,18372
8608,18423
8736,18449
9031,18449
9031,17857
9168,17857
9168,18449
9463,18449
9591,18423
9711,18372
9818,18299
9883,18234
11148,18234
11148,18460
11159,18512
11179,18560
11208,18604
11245,18641
11289,18670
11337,18690
11389,18701
11615,18701
11681,18634
11681,18168
11818,18168
11818,18634
11884,18701
12110,18701
12162,18690
12210,18670
12254,18641
12291,18604
12320,18560
12340,18512
12351,18460
12351,18234
12598,18234
12598,18460
12609,18512
12629,18560
12658,18604
12695,18641
12739,18670
12787,18690
12839,18701
13065,18701
13131,18634
13131,18168
12665,18168
12598,18234
12351,18234
12284,18168
11818,18168
11681,18168
11215,18168
11148,18234
9883,18234
9910,18207
9982,18099
10031,17978
10033,17958
9984,17857
9168,17857
9031,17857
8215,17857
8166,17958
7297,17958
7297,17739
11148,17739
11148,17965
11215,18031
11681,18031
11681,17565
11818,17565
11818,18031
12284,18031
12351,17965
12351,17739
12340,17687
12320,17639
12291,17595
12254,17558
12210,17529
12162,17509
12110,17498
11884,17498
11818,17565
11681,17565
11615,17498
11389,17498
11337,17509
11289,17529
11245,17558
11208,17595
11179,17639
11159,17687
11148,17739
7297,17739
7297,17619
8166,17619
8215,17720
9031,17720
9031,17128
9168,17128
9168,17720
9984,17720
10033,17619
10031,17599
9982,17478
9910,17370
9818,17278
9711,17205
9591,17154
9463,17128
9168,17128
9031,17128
8736,17128
8608,17154
8488,17205
8381,17278
8289,17370
8217,17478
8168,17599
8166,17619
7297,17619
7297,16976
10937,16976
10937,17163
10947,17215
10967,17263
10996,17307
11034,17344
11077,17373
11126,17393
11177,17403
11315,17403
11381,17337
11381,16910
11518,16910
11518,17337
11584,17403
11722,17403
11773,17393
11822,17373
11865,17344
11903,17307
11907,17300
11941,17334
11984,17363
12033,17383
12084,17393
12369,17393
12436,17327
12436,16900
11911,16900
11898,16912
11895,16910
11518,16910
11381,16910
11004,16910
10937,16976
7297,16976
7297,16407
8238,16407
8248,16516
8279,16621
8330,16718
8399,16803
8483,16874
8579,16927
8683,16960
8792,16972
8800,16972
9399,16972
9508,16961
9613,16930
9710,16878
9795,16809
9865,16725
9879,16699
10314,16699
10340,16696
10366,16694
10368,16693
10369,16693
10395,16685
10420,16678
10422,16677
10423,16677
10447,16664
10470,16652
10472,16651
10473,16650
10494,16634
10514,16617
10516,16615
10517,16615
10517,16615
10517,16614
10986,16145
11035,16145
11035,16153
11037,16179
11051,16225
11077,16265
11113,16295
11077,16310
11034,16339
10996,16376
10967,16420
10947,16469
10937,16520
10937,16707
11004,16774
11381,16774
11381,16766
11518,16766
11518,16774
11895,16774
11908,16761
11911,16763
12436,16763
12436,16755
12572,16755
12572,16763
12580,16763
12580,16900
12572,16900
12572,17327
12639,17393
12856,17393
12859,17406
12905,17474
12944,17498
12839,17498
12787,17509
12739,17529
12695,17558
12658,17595
12629,17639
12609,17687
12598,17739
12598,17965
12665,18031
13131,18031
13131,18024
13268,18024
13268,18031
13275,18031
13275,18168
13268,18168
13268,18634
13334,18701
13560,18701
13612,18690
13660,18670
13704,18641
13741,18604
13770,18560
13790,18512
13801,18460
13801,18242
13875,18257
14146,18257
14146,18434
14148,18461
14162,18506
14188,18546
14224,18577
14268,18596
14315,18603
14984,18603
15011,18601
15035,18593
15312,18593
15312,18780
15322,18832
15342,18880
15371,18924
15409,18961
15452,18990
15501,19010
15552,19021
15690,19021
15756,18954
15756,18527
15893,18527
15893,18954
15959,19021
16097,19021
16148,19010
16197,18990
16240,18961
16278,18924
16307,18880
16327,18832
16337,18780
16337,18593
16270,18527
15893,18527
15756,18527
15379,18527
15312,18593
15035,18593
15056,18587
15096,18561
15127,18525
15146,18481
15153,18434
15153,18257
15312,18257
15312,18324
15379,18391
15756,18391
15756,18383
15893,18383
15893,18391
16270,18391
16337,18324
16337,18257
18467,18257
18983,18773
19001,18787
19018,18802
19019,18803
19020,18803
19040,18814
19061,18825
19062,18826
19063,18826
19085,18833
19107,18840
19108,18840
19109,18840
19132,18843
19155,18845
19157,18845
19157,18845
19157,18845
19158,18845
22477,18845
22500,18843
22523,18841
22524,18841
22525,18841
22547,18834
22569,18828
22571,18827
22572,18827
22592,18816
22612,18805
22613,18805
22615,18804
22632,18789
22650,18775
22652,18773
22652,18773
22652,18773
22653,18773
23400,18026
35003,18026
35029,18234
35095,18434
35169,18573
35317,18660
35978,18000
35317,17339
35169,17426
35075,17614
35019,17816
35003,18026
23400,18026
23417,18008
26546,18008
26569,18006
26592,18004
26593,18004
26594,18004
26616,17997
26638,17991
26639,17990
26641,17990
26661,17979
26681,17968
26682,17967
26683,17967
26701,17952
26719,17938
26721,17936
26721,17936
26721,17936
26722,17936
27400,17258
27412,17242
35414,17242
36075,17903
36735,17242
36648,17094
36460,17000
36258,16944
36048,16928
35840,16954
35640,17020
35501,17094
35414,17242
27412,17242
27414,17240
27429,17222
27430,17221
27430,17220
27441,17200
27452,17180
27453,17179
27453,17177
27460,17156
27467,17134
27467,17132
27467,17131
27470,17108
27472,17086
27472,17083
27472,17083
27472,17083
27472,17082
27472,16664
27497,16681
27581,16717
27669,16737
27760,16739
27850,16723
27934,16690
28011,16641
28077,16579
28129,16504
28166,16421
28186,16333
28188,16229
28172,16149
28370,15952
28392,15952
28368,15975
28316,16050
28281,16134
28262,16223
28261,16313
28277,16403
28310,16487
28360,16564
28423,16629
28497,16681
28581,16717
28669,16737
28760,16739
28850,16723
28934,16690
29011,16641
29077,16579
29129,16504
29166,16421
29186,16333
29187,16313
29261,16313
29277,16403
29310,16487
29360,16564
29423,16629
29497,16681
29581,16717
29669,16737
29760,16739
29850,16723
29934,16690
29945,16683
30993,16683
30993,16732
31003,16784
31024,16832
31053,16876
31090,16913
31133,16942
31182,16962
31233,16973
31302,16973
31369,16906
31369,16617
31060,16617
30993,16683
29945,16683
30011,16641
30077,16579
30129,16504
30166,16421
30171,16403
30319,16403
30320,16404
30346,16444
30382,16475
30425,16494
30472,16501
30827,16501
30853,16499
30899,16485
30939,16459
30969,16422
30989,16379
30996,16332
30996,16017
30993,15990
30979,15945
30953,15905
30917,15874
30874,15855
30827,15848
30472,15848
30446,15850
30400,15864
30360,15890
30330,15927
30321,15946
30052,15946
30021,15916
29946,15865
29862,15830
29773,15811
29682,15811
29593,15828
29509,15862
29433,15912
29368,15975
29316,16050
29281,16134
29262,16223
29261,16313
29187,16313
29188,16229
29172,16147
29174,16145
29188,16128
29188,16127
29189,16126
29199,16108
29209,16089
29210,16088
29210,16087
29216,16067
29223,16047
29223,16046
29223,16045
29225,16024
29228,16003
29228,16000
29228,16000
29228,16000
29228,16000
29228,15952
29255,15952
29282,15950
29328,15935
29367,15909
29398,15873
29418,15830
29424,15783
29424,15192
29422,15165
29408,15120
29382,15080
29346,15050
29302,15030
29255,15023
28744,15023
28717,15025
28671,15039
28632,15066
28625,15074
28596,15050
28552,15030
28505,15023
27994,15023
27967,15025
27921,15039
27882,15066
27851,15102
27831,15145
27825,15192
27825,15783
27827,15810
27831,15823
27773,15811
27682,15811
27593,15828
27509,15862
27472,15886
27472,14348
27470,14325
27468,14303
27468,14301
27468,14300
27461,14278
27455,14256
27454,14255
27454,14254
27443,14233
27432,14213
27431,14212
27431,14211
27416,14193
27402,14175
27400,14173
27400,14173
27400,14173
27400,14173
27204,13977
27186,13962
27168,13947
27167,13947
27166,13946
27146,13935
27126,13924
27125,13924
27123,13923
27102,13916
27080,13909
27078,13909
27077,13909
27054,13907
27032,13904
27029,13904
27029,13904
27029,13904
27028,13904
24334,13904
24311,13906
24288,13908
24287,13909
24285,13909
24264,13915
24241,13922
24240,13922
24239,13923
24219,13933
24198,13944
24197,13945
24196,13945
24179,13960
24161,13974
24159,13976
24159,13976
24159,13976
24158,13977
22516,15618
22165,15618
22169,15614
22191,15572
22201,15525
22197,15478
22233,15493
22284,15503
22337,15503
22388,15493
22437,15473
22481,15443
22613,15311
22613,15217
22345,14950
22340,14955
22244,14859
22249,14854
22442,14854
22709,15121
22803,15121
22935,14989
22964,14945
22985,14896
22995,14845
22995,14792
22985,14741
22964,14692
22935,14649
22838,14552
22744,14552
22442,14854
22249,14854
21982,14586
21888,14586
21859,14615
21859,14546
21883,14530
21893,14520
21893,14426
21800,14333
21791,14311
21763,14273
21317,13828
21297,13810
21255,13788
21255,13788
21164,13698
21070,13698
21060,13708
21031,13751
21011,13800
21001,13851
21001,13903
20949,13903
20897,13913
20849,13934
20805,13963
20796,13972
20796,14067
20888,14160
20897,14182
20925,14220
21202,14496
21148,14549
20872,14273
20851,14256
20809,14233
20809,14233
20719,14143
20701,14143
20375,13817
20357,13803
20340,13788
20339,13787
20338,13786
20317,13776
20297,13765
20296,13764
20295,13764
20273,13757
20251,13750
20250,13750
20249,13749
20226,13747
20203,13745
20200,13745
20200,13745
20200,13745
20200,13745
19857,13745
18827,12715
18951,12591
18968,12571
18978,12552
18983,12550
19021,12521
19096,12446
19098,12446
19150,12446
19202,12436
19250,12415
19294,12386
19303,12377
19303,12282
19211,12189
19202,12167
19174,12129
18728,11684
18708,11667
18666,11644
18665,11644
18575,11554
18569,11554
18367,11353
18362,11358
18266,11262
18271,11257
18004,10989
17910,10989
17778,11121
17772,11131
17772,11082
17754,10989
17718,10902
17665,10823
17599,10756
17520,10703
17433,10666
17340,10647
17245,10646
17152,10664
17148,10666
17135,10653
17135,10653
17095,10613
17079,10600
17063,10586
17062,10586
17061,10585
17042,10575
17024,10565
17023,10564
17022,10564
17002,10558
16982,10551
16980,10551
16979,10551
16958,10549
16937,10546
16935,10546
16935,10546
16935,10546
16934,10546
16774,10546
16774,10479
16772,10452
16758,10407
16732,10367
16696,10337
16652,10317
16605,10310
16094,10310
16067,10312
16021,10326
15982,10353
15951,10389
15931,10432
15925,10479
15925,10548
15922,10548
15901,10550
15900,10551
15899,10551
15878,10557
15858,10563
15857,10563
15856,10564
15837,10573
15819,10583
15818,10584
15817,10585
15800,10598
15784,10611
15782,10613
15782,10613
15782,10613
15782,10613
15545,10850
15532,10866
15518,10882
15518,10883
15517,10884
15507,10903
15497,10921
15496,10922
15496,10923
15490,10944
15483,10964
15483,10965
15483,10966
15481,10987
15478,11008
15478,11010
15478,11010
15478,11010
15478,11011
15478,11132
15420,11076
15320,11013
15210,10970
15118,11019
15118,11481
15125,11481
15125,11618
15118,11618
15118,11625
14981,11625
14981,11618
14974,11618
14974,11481
14981,11481
14981,11019
14889,10970
14779,11013
14679,11076
14594,11157
14526,11254
14497,11320
14473,11274
14411,11198
14336,11135
14250,11087
14156,11058
14059,11047
14052,11047
14047,11047
13949,11056
13855,11085
13769,11131
13693,11193
13630,11268
13584,11355
13555,11448
13544,11546
13553,11644
13581,11738
13626,11825
13645,11848
13644,11848
13625,11858
13624,11859
13623,11860
13607,11873
13590,11886
13589,11888
13589,11888
13589,11888
13588,11888
13320,12156
13307,12172
13293,12189
13293,12190
13292,12191
13282,12209
13272,12228
13272,12229
13271,12230
13265,12250
13258,12270
13258,12271
13258,12272
13256,12293
13253,12314
13253,12317
13253,12317
13253,12317
13253,12317
13253,13892
13256,13913
13257,13934
13258,13935
13258,13936
13264,13956
13270,13977
13270,13978
13271,13979
13281,13997
13290,14016
13291,14017
13292,14018
13305,14034
13318,14051
13320,14053
13320,14053
13320,14053
13320,14053
13559,14292
13075,14292
12999,14306
12930,14351
12883,14419
12867,14500
12867,14556
12111,14556
12084,14558
12038,14572
11999,14599
11968,14635
11948,14678
11942,14725
11942,14732
11867,14732
11840,14735
11814,14737
11813,14738
11811,14738
11786,14745
11760,14753
11759,14754
11757,14754
11734,14766
11710,14779
11709,14780
11708,14780
11687,14797
11666,14814
11664,14816
11664,14816
11664,14816
11663,14817
11246,15234
11229,15255
11212,15275
11211,15276
11210,15278
11198,15301
11185,15324
11184,15326
11184,15327
11176,15353
11168,15378
11168,15379
11167,15381
11165,15399
11131,15409
11092,15436
11061,15472
11041,15515
11035,15562
11035,15569
10867,15569
10840,15572
10814,15574
10812,15575
10811,15575
10785,15582
10760,15590
10758,15591
10757,15591
10733,15603
10710,15616
10709,15617
10707,15617
10687,15634
10666,15651
10664,15653
10664,15653
10664,15653
10663,15654
10194,16122
9879,16122
9869,16103
9800,16018
9716,15947
9620,15894
9516,15861
9407,15849
9399,15849
8800,15849
8691,15860
8586,15891
8489,15943
8404,16012
8334,16096
8282,16193
8250,16298
8238,16407
7297,16407
7297,13959
8238,13959
8248,14068
8279,14173
8330,14270
8399,14355
8483,14426
8579,14479
8683,14512
8792,14524
8800,14524
9399,14524
9508,14513
9613,14482
9710,14430
9795,14361
9865,14277
9900,14211
10372,14211
10462,14300
10480,14314
10497,14329
10498,14330
10499,14331
10519,14342
10540,14353
10541,14353
10542,14354
10564,14360
10586,14367
10587,14367
10588,14368
10611,14370
10634,14373
10636,14373
10636,14373
10636,14373
10637,14373
12265,14373
12288,14370
12311,14368
12312,14368
12314,14368
12336,14361
12358,14355
12359,14354
12360,14354
12380,14343
12401,14333
12402,14332
12403,14331
12420,14317
12438,14302
12440,14301
12440,14301
12440,14301
12441,14300
12575,14166
12589,14148
12604,14131
12605,14129
12606,14128
12617,14108
12628,14088
12628,14087
12629,14086
12635,14064
12642,14042
12642,14041
12643,14039
12645,14017
12647,13999
12695,13999
12722,13997
12767,13983
12807,13957
12837,13921
12857,13877
12864,13830
12864,13319
12862,13292
12848,13246
12821,13207
12813,13200
12837,13171
12857,13127
12864,13080
12864,12569
12862,12542
12848,12496
12821,12457
12813,12450
12837,12421
12857,12377
12864,12330
12864,11819
12862,11792
12848,11746
12821,11707
12810,11697
12814,11671
12814,11178
12812,11152
12798,11106
12771,11067
12735,11036
12692,11016
12645,11010
12598,11010
12598,10952
12625,10925
13663,10925
13690,10923
13736,10909
13775,10883
13806,10846
13826,10803
13832,10756
13832,10473
14009,10473
14032,10470
14055,10468
14056,10468
14057,10468
14079,10461
14101,10455
14102,10454
14103,10454
14124,10443
14144,10433
14145,10432
14146,10431
14164,10417
14182,10402
14184,10401
14184,10401
14184,10401
14184,10400
14425,10159
17797,10159
18276,10638
18232,10667
18100,10799
18100,10893
18367,11160
18373,11155
18469,11251
18464,11257
18652,11445
18652,11478
18745,11571
18753,11593
18782,11631
19227,12076
19248,12093
19290,12116
19290,12116
19380,12206
19474,12206
19484,12196
19513,12152
19533,12104
19544,12052
19544,12000
19543,11999
19619,11923
19637,11902
19647,11883
19651,11882
19689,11853
19842,11700
19859,11680
19869,11661
19873,11659
19911,11631
20050,11493
20188,11631
20208,11648
20227,11658
20229,11662
20257,11700
20410,11853
20431,11871
20450,11881
20451,11885
20480,11923
20633,12076
20653,12093
20672,12103
20674,12108
20703,12146
20856,12299
20876,12316
20895,12326
20897,12330
20925,12368
21078,12521
21099,12539
21118,12549
21119,12553
21148,12591
21301,12744
21322,12762
21341,12772
21342,12776
21371,12814
21524,12967
21544,12984
21563,12994
21565,12998
21593,13036
21731,13175
21593,13313
21576,13333
21566,13352
21562,13354
21524,13382
21448,13458
21447,13458
21394,13458
21343,13468
21294,13488
21251,13517
21241,13527
21241,13621
21334,13714
21342,13736
21371,13774
21816,14220
21837,14237
21879,14259
21879,14259
21969,14349
22063,14349
22073,14340
22102,14296
22109,14280
22195,14280
22078,14396
22078,14490
22345,14757
22647,14455
22647,14361
22566,14280
22823,14280
22844,14277
22865,14276
22866,14275
22867,14275
22887,14269
22907,14263
22908,14263
22910,14262
22928,14252
22947,14243
22948,14242
22949,14241
22965,14228
22982,14215
22983,14213
22983,14213
22983,14213
22984,14213
23384,13813
27865,13813
28013,13960
27994,13960
27967,13962
27921,13976
27882,14003
27851,14039
27831,14082
27825,14129
27825,14720
27827,14747
27841,14792
27867,14832
27903,14862
27947,14882
27994,14889
28505,14889
28532,14887
28578,14873
28617,14846
28624,14838
28653,14862
28697,14882
28744,14889
29255,14889
29282,14887
29328,14873
29367,14846
29398,14810
29418,14767
29424,14720
29424,14129
29422,14102
29408,14057
29389,14028
30475,14028
30495,14026
30516,14024
30518,14023
30519,14023
30539,14017
30559,14011
30560,14011
30561,14010
30580,14001
30599,13991
30600,13990
30601,13989
30617,13976
30634,13963
30635,13961
30635,13961
30635,13961
30636,13961
31161,13436
31174,13420
31188,13403
31188,13402
31189,13401
31199,13383
31209,13364
31210,13363
31210,13362
31216,13342
31223,13322
31223,13321
31223,13320
31225,13299
31228,13278
31228,13275
31228,13275
31228,13275
31228,13275
31228,12089
31255,12089
31282,12087
31328,12073
31367,12046
31398,12010
31418,11967
31424,11920
31424,11329
31422,11302
31408,11257
31382,11217
31346,11187
31302,11167
31255,11160
30744,11160
30717,11162
30671,11176
30632,11203
30601,11239
30581,11282
30575,11329
30575,11920
30577,11947
30591,11992
30617,12032
30653,12062
30697,12082
30744,12089
30771,12089
30771,13180
30380,13571
29269,13571
28674,12977
28666,12969
28678,12972
28865,12972
28931,12905
28931,12518
29068,12518
29068,12905
29134,12972
29321,12972
29373,12962
29421,12942
29465,12912
29502,12875
29531,12832
29551,12783
29561,12732
29561,12584
29495,12518
29068,12518
28931,12518
28924,12518
28924,12381
28931,12381
28931,12374
29068,12374
29068,12381
29495,12381
29561,12315
29561,12167
29551,12116
29531,12067
29525,12058
29549,12029
29561,12003
29642,12083
29625,12103
29605,12147
29598,12194
29598,12705
29600,12732
29614,12778
29641,12817
29677,12848
29720,12868
29767,12874
30358,12874
30385,12872
30430,12858
30470,12832
30500,12796
30520,12752
30527,12705
30527,12194
30525,12167
30510,12121
30484,12082
30448,12051
30405,12031
30358,12025
30228,12025
30226,12023
30224,12021
30224,12021
30224,12021
30224,12020
29804,11601
29788,11587
29772,11574
29771,11573
29770,11572
29751,11562
29733,11552
29731,11552
29730,11551
29710,11545
29690,11539
29689,11539
29688,11538
29667,11536
29646,11534
29644,11534
29644,11534
29643,11534
29643,11534
29565,11534
29559,11513
29533,11473
29496,11442
29453,11423
29406,11416
29245,11416
29122,11293
29144,11278
29175,11242
29194,11199
29201,11152
29201,10797
29199,10771
29185,10725
29159,10685
29122,10655
29103,10646
29103,10542
29129,10504
29166,10421
29186,10333
29187,10313
29261,10313
29277,10403
29310,10487
29360,10564
29423,10629
29497,10681
29581,10717
29669,10737
29760,10739
29850,10723
29934,10690
30011,10641
30077,10579
30105,10539
30282,10716
30298,10729
30313,10741
30314,10742
30315,10743
30333,10752
30351,10762
30352,10762
30353,10763
30372,10769
30391,10775
30392,10775
30393,10775
30413,10777
30433,10780
30436,10780
30436,10780
30436,10780
30437,10780
30575,10780
30575,10857
30577,10884
30591,10929
30617,10969
30653,10999
30697,11019
30744,11026
31255,11026
31282,11024
31328,11010
31367,10983
31398,10947
31418,10904
31424,10857
31424,10266
31422,10239
31408,10194
31382,10154
31346,10124
31302,10104
31255,10097
30744,10097
30717,10099
30671,10114
30632,10140
30601,10176
30581,10219
30575,10266
30575,10343
30527,10343
30304,10120
30288,10107
30273,10095
30272,10094
30271,10093
30253,10084
30235,10074
30234,10074
30233,10073
30214,10067
30195,10061
30194,10061
30193,10061
30173,10059
30153,10056
30150,10056
30150,10056
30150,10056
30150,10056
30136,10056
30136,10056
30085,9980
30021,9916
29946,9865
29862,9830
29773,9811
29682,9811
29593,9828
29509,9862
29433,9912
29368,9975
29316,10050
29281,10134
29262,10223
29261,10313
29187,10313
29188,10229
29170,10140
29136,10056
29085,9980
29021,9916
28946,9865
28862,9830
28773,9811
28682,9811
28593,9828
28509,9862
28442,9906
28441,9896
28439,9875
28438,9874
28438,9873
28432,9853
28426,9832
28426,9831
28425,9830
28416,9812
28406,9793
28405,9792
28405,9791
28391,9775
28378,9758
28376,9757
28376,9756
28376,9756
28376,9756
28287,9667
31620,9667
31921,9969
31921,14910
31894,14910
31867,14912
31821,14926
31782,14953
31751,14989
31731,15032
31725,15079
31725,15146
31719,15146
31698,15148
31677,15150
31676,15151
31675,15151
31655,15157
31634,15163
31633,15163
31632,15164
31614,15173
31595,15183
31594,15184
31593,15185
31577,15198
31560,15211
31558,15213
31558,15213
31558,15213
31558,15213
31297,15474
31260,15474
31233,15476
31188,15490
31148,15516
31117,15553
31098,15596
31091,15643
31091,15958
31093,15985
31107,16030
31133,16070
31169,16101
31213,16120
31243,16125
31233,16125
31182,16135
31133,16155
31090,16184
31053,16221
31024,16265
31003,16313
30993,16365
30993,16414
31060,16480
31369,16480
31369,16473
31505,16473
31505,16480
31513,16480
31513,16617
31505,16617
31505,16906
31572,16973
31640,16973
31692,16962
31732,16946
31767,16969
31816,16989
31867,16999
32015,16999
32081,16933
32081,16506
32218,16506
32218,16933
32284,16999
32432,16999
32483,16989
32532,16969
32575,16940
32612,16903
32642,16859
32662,16811
32672,16759
32672,16572
32605,16506
32218,16506
32081,16506
32074,16506
32074,16369
32081,16369
32081,15942
32218,15942
32218,16369
32605,16369
32672,16303
32672,16116
32662,16064
32642,16016
32612,15972
32575,15935
32532,15906
32483,15886
32432,15876
32284,15876
32218,15942
32081,15942
32015,15876
31867,15876
31816,15886
31783,15900
31783,15795
31803,15812
31847,15832
31894,15839
32405,15839
32432,15837
32478,15823
32517,15796
32548,15760
32568,15717
32574,15670
32574,15079
32572,15052
32558,15007
32532,14967
32496,14937
32452,14917
32405,14910
32378,14910
32378,9875
32376,9854
32374,9833
32373,9831
32373,9830
32367,9810
32361,9790
32361,9789
32360,9788
32351,9769
32341,9750
32340,9749
32339,9748
32326,9732
32313,9715
32311,9714
32311,9714
32311,9714
32311,9713
31876,9278
31859,9265
31843,9251
31842,9250
31841,9250
31823,9240
31804,9230
31803,9229
31802,9229
31782,9222
31762,9216
31760,9216
31759,9216
31738,9213
31717,9211
31715,9211
31715,9211
31715,9211
31714,9211
28114,9211
28028,9126
28012,9112
27996,9099
27995,9098
27994,9097
27975,9087
27957,9077
27956,9077
27955,9076
27935,9070
27914,9064
27913,9064
27912,9063
27891,9061
27870,9059
27868,9059
27868,9059
27868,9059
27867,9059
22378,9059
22357,9061
22336,9063
22335,9063
22334,9063
22314,9069
22294,9075
22292,9076
22291,9076
22273,9086
22254,9095
22253,9096
22252,9097
22236,9110
22219,9123
22218,9125
22217,9125
22217,9125
22217,9126
20597,10745
20591,10746
20592,10744
20610,10724
20632,10681
20641,10635
20638,10588
20621,10543
20592,10505
20119,10032
20099,10014
20056,9992
20010,9983
19963,9986
19918,10003
19880,10032
19407,10505
19389,10525
19367,10568
19358,10614
19361,10661
19378,10706
19407,10744
19425,10762
19418,10765
19380,10793
19256,10917
18075,9736
18057,9721
18040,9706
18039,9706
18038,9705
18017,9694
17997,9683
17996,9683
17995,9682
17973,9675
17951,9668
17950,9668
17949,9668
17926,9665
17903,9663
17900,9663
17900,9663
17900,9663
17900,9663
14322,9663
14300,9665
14277,9667
14276,9667
14274,9668
14252,9674
14230,9681
14229,9681
14228,9682
14208,9692
14187,9703
14186,9704
14185,9704
14167,9719
14150,9733
14148,9735
14148,9735
14148,9735
14147,9736
13906,9976
13832,9976
13832,9693
13830,9666
13816,9621
13790,9581
13754,9550
13711,9531
13663,9524
12286,9524
12259,9526
12213,9540
12174,9566
12143,9603
12123,9646
12117,9693
12117,10756
12117,10765
12114,10776
12107,10798
12107,10799
12106,10800
12104,10823
12101,10846
12101,10849
12101,10849
12101,10849
12101,10850
12101,11010
12054,11010
12027,11012
11982,11026
11942,11052
11912,11088
11897,11052
11868,11009
11830,10971
11787,10942
11738,10922
11687,10912
11500,10912
11433,10979
11433,11356
11441,11356
11441,11493
11433,11493
11433,11590
11405,11619
11405,12006
11832,12006
11898,11940
11898,11793
11912,11759
11928,11782
11939,11792
11935,11819
11935,12330
11937,12357
11951,12403
11978,12442
11986,12449
11962,12478
11942,12522
11935,12569
11935,13080
11937,13107
11951,13153
11978,13192
11986,13199
11962,13228
11942,13272
11935,13319
11935,13830
11937,13857
11943,13876
11794,13876
11801,13830
11801,13319
11799,13292
11785,13246
11758,13207
11750,13200
11774,13171
11794,13127
11801,13080
11801,12569
11799,12542
11798,12540
11802,12537
11839,12500
11868,12457
11888,12408
11898,12357
11898,12209
11832,12143
11405,12143
11405,12150
11268,12150
11268,12143
10841,12143
10775,12209
10775,12357
10785,12408
10805,12457
10834,12500
10871,12537
10876,12541
10872,12569
10872,13080
10874,13107
10889,13153
10915,13192
10923,13199
10899,13228
10879,13272
10872,13319
10872,13830
10874,13857
10880,13876
10740,13876
10648,13785
10630,13770
10612,13755
10612,13754
10611,13754
10590,13743
10570,13732
10569,13731
10568,13731
10546,13724
10524,13717
10523,13717
10522,13717
10499,13715
10475,13712
10475,13712
10474,13712
10451,13714
10448,13714
9900,13714
9869,13655
9800,13570
9716,13499
9620,13446
9516,13413
9407,13401
9399,13401
8800,13401
8691,13412
8586,13443
8489,13495
8404,13564
8334,13648
8282,13745
8250,13850
8238,13959
7297,13959
7297,12754
8166,12754
8168,12774
8217,12895
8289,13003
8381,13095
8488,13168
8608,13219
8736,13245
9031,13245
9031,12653
9168,12653
9168,13245
9463,13245
9591,13219
9711,13168
9818,13095
9910,13003
9982,12895
10031,12774
10033,12754
9984,12653
9168,12653
9031,12653
8215,12653
8166,12754
7297,12754
7297,12415
8166,12415
8215,12516
9031,12516
9031,11924
9168,11924
9168,12516
9984,12516
10033,12415
10031,12395
9982,12274
9910,12166
9818,12074
9711,12001
9591,11950
9463,11924
9168,11924
9031,11924
8736,11924
8608,11950
8488,12001
8381,12074
8289,12166
8217,12274
8168,12395
8166,12415
7297,12415
7297,11792
10775,11792
10775,11940
10841,12006
11268,12006
11268,11899
11297,11870
11297,11493
10870,11493
10803,11559
10803,11696
10785,11741
10775,11792
7297,11792
7297,11257
7714,11257
7801,11405
7989,11499
8191,11555
8401,11571
8609,11545
8809,11479
8948,11405
9035,11257
8375,10596
7714,11257
7297,11257
7297,10526
7303,10526
7329,10734
7395,10934
7469,11073
7617,11160
8278,10500
8471,10500
9132,11160
9280,11073
9374,10885
9401,10926
9438,10963
9482,10992
9531,11012
9582,11023
10163,11023
10229,10956
10229,10293
10365,10293
10365,10956
10432,11023
10854,11023
10834,11052
10814,11101
10803,11152
10803,11290
10870,11356
11297,11356
11297,10979
11231,10912
11203,10912
11223,10882
11243,10834
11253,10782
11253,10359
11186,10293
10365,10293
10229,10293
10221,10293
10221,10156
10229,10156
10229,9493
10365,9493
10365,10156
11186,10156
11253,10090
11253,9667
11243,9615
11223,9567
11193,9523
11156,9486
11113,9457
11064,9437
11013,9426
10432,9426
10365,9493
10229,9493
10163,9426
9582,9426
9531,9437
9482,9457
9438,9486
9401,9523
9372,9567
9352,9615
9342,9667
9342,10042
9280,9926
9132,9839
8471,10500
8278,10500
7617,9839
7469,9926
7375,10114
7319,10316
7303,10526
7297,10526
7297,9742
7714,9742
8375,10403
9035,9742
8948,9594
8760,9500
8558,9444
8348,9428
8140,9454
7940,9520
7801,9594
7714,9742
7297,9742
7297,8997
37102,8997
37102,17709
" /> 
<polyline style="fill-rule:evenodd;"
points="27119,11694
27126,11694
27126,11830
27119,11830
27119,12139
27168,12188
27168,12381
27595,12381
27661,12315
27661,12167
27651,12116
27648,12108
27722,12108
27705,12147
27698,12194
27698,12705
27700,12732
27714,12778
27741,12817
27777,12848
27820,12868
27867,12874
28458,12874
28485,12872
28493,12869
28497,12875
28534,12912
28516,12910
28514,12910
28514,12910
28514,12910
28513,12910
27567,12910
27602,12875
27631,12832
27651,12783
27661,12732
27661,12584
27595,12518
27168,12518
27168,12525
27031,12525
27031,12518
27024,12518
27024,12381
27031,12381
27031,11994
26982,11945
26982,11830
26975,11830
26975,11694
26982,11694
26982,11686
27119,11686
27119,11694
" /> 
<polyline style="fill-rule:evenodd;"
points="24368,9975
24316,10050
24281,10134
24262,10223
24261,10313
24277,10403
24310,10487
24360,10564
24423,10629
24496,10680
24496,10898
24422,10898
24396,10900
24350,10914
24310,10940
24280,10977
24260,11020
24253,11067
24253,11382
24256,11409
24270,11454
24296,11494
24332,11525
24375,11544
24422,11551
24777,11551
24803,11549
24849,11535
24889,11509
24919,11472
24939,11429
24946,11382
24946,11153
24948,11147
24948,11146
24948,11145
24950,11124
24953,11103
24953,11100
24953,11100
24953,11100
24953,11100
24953,10679
25011,10641
25077,10579
25129,10504
25166,10421
25186,10333
25188,10229
25170,10140
25136,10056
25085,9980
25068,9962
25381,9962
25368,9975
25316,10050
25281,10134
25262,10223
25261,10313
25277,10403
25310,10487
25331,10520
25331,10610
25294,10610
25267,10612
25221,10626
25182,10653
25151,10689
25131,10732
25125,10779
25125,11370
25127,11397
25141,11442
25167,11482
25203,11512
25247,11532
25294,11539
25805,11539
25832,11537
25878,11523
25917,11496
25937,11474
25942,11482
25978,11512
26022,11532
26069,11539
26580,11539
26607,11537
26632,11529
26626,11558
26626,11627
26693,11694
26658,11694
26627,11680
26580,11673
26069,11673
26042,11675
25996,11689
25957,11716
25937,11738
25932,11730
25896,11700
25852,11680
25805,11673
25294,11673
25267,11675
25221,11689
25182,11716
25151,11752
25131,11795
25125,11842
25125,11915
25109,11920
25089,11926
25088,11926
25087,11927
25068,11936
25049,11946
25048,11947
25047,11947
25031,11961
25015,11974
25013,11976
25013,11976
25013,11976
25012,11976
24545,12444
24010,12444
23521,11955
23548,11923
23557,11904
23588,11918
23635,11925
23989,11925
24016,11923
24061,11909
24101,11883
24132,11846
24151,11803
24158,11756
24158,11441
24156,11414
24142,11369
24116,11329
24080,11298
24036,11279
24006,11275
24016,11275
24067,11264
24116,11244
24159,11215
24196,11178
24225,11134
24246,11086
24256,11034
24256,10985
24189,10919
23880,10919
23880,10926
23744,10926
23744,10919
23736,10919
23736,10782
23744,10782
23744,10493
23880,10493
23880,10782
24189,10782
24256,10716
24256,10667
24246,10615
24225,10567
24196,10523
24159,10486
24116,10457
24067,10437
24016,10426
23947,10426
23880,10493
23744,10493
23677,10426
23672,10426
23672,10406
23605,10406
23672,10340
23672,10153
23662,10101
23642,10053
23612,10009
23575,9972
23560,9962
24381,9962
24368,9975
" /> 
<polyline style="fill-rule:evenodd;"
points="28569,11694
28576,11694
28576,11830
28569,11830
28569,11838
28432,11838
28432,11830
28425,11830
28425,11694
28432,11694
28432,11686
28569,11686
28569,11694
" /> 
<polyline style="fill-rule:evenodd;"
points="22627,10340
22694,10406
23081,10406
23081,10399
23218,10399
23218,10406
23225,10406
23225,10543
23218,10543
23218,10970
23284,11036
23369,11036
23376,11073
23157,11073
23067,10984
23081,10970
23081,10543
22694,10543
22627,10609
22627,10728
22150,10728
22627,10251
22627,10340
" /> 
<polyline style="fill-rule:evenodd;"
points="14050,14839
14137,14897
14239,14917
15315,14917
15418,14897
15504,14839
15793,14550
15828,14550
15828,14909
15843,14986
15888,15057
15958,15104
16040,15121
16709,15121
16786,15106
16800,15098
16800,15300
16803,15319
16814,15335
16926,15449
16963,15507
17022,15547
17742,16280
17743,16286
17788,16357
17858,16404
17865,16405
18114,16660
18130,16671
18150,16675
18607,16675
18607,17706
18628,17809
18675,17879
18675,18000
16198,18000
16153,17969
16071,17952
15578,17952
15502,17966
15450,18000
13925,18000
13925,17300
13921,17280
13909,17264
13893,17253
13873,17250
13100,17273
13100,17176
13109,17127
13109,16536
13100,16483
13100,16275
13096,16255
13084,16239
13068,16228
13050,16225
12100,16225
12100,15525
12111,15527
12898,15527
12975,15513
13045,15467
13075,15424
13094,15421
13110,15409
13121,15393
13125,15375
13125,14550
13761,14550
14050,14839
" /> 
</g>
<g style="fill:#FFFFFF; fill-opacity:1.0; 
stroke:#FFFFFF; stroke-width:100; stroke-opacity:1; 
stroke-linecap:round; stroke-linejoin:round;">
</g>
<g style="fill:#FFFFFF; fill-opacity:1.0; 
stroke:#FFFFFF; stroke-width:0; stroke-opacity:1; 
stroke-linecap:round; stroke-linejoin:round;">
<circle cx="17289.7" cy="11130.1" r="157.48" /> 
</g>
<g style="fill:#FFFFFF; fill-opacity:1.0; 
stroke:#FFFFFF; stroke-width:39.3701; stroke-opacity:1; 
stroke-linecap:round; stroke-linejoin:round;">
</g>
<g style="fill:#FFFFFF; fill-opacity:1.0; 
stroke:#FFFFFF; stroke-width:0; stroke-opacity:1; 
stroke-linecap:round; stroke-linejoin:round;">
<circle cx="22341.5" cy="11454.5" r="157.48" /> 
</g>
<g style="fill:#FFFFFF; fill-opacity:1.0; 
stroke:#FFFFFF; stroke-width:39.3701; stroke-opacity:1; 
stroke-linecap:round; stroke-linejoin:round;">
</g>
<g style="fill:#FFFFFF; fill-opacity:1.0; 
stroke:#FFFFFF; stroke-width:0; stroke-opacity:1; 
stroke-linecap:round; stroke-linejoin:round;">
<circle cx="24725" cy="16275" r="196.85" /> 
</g>
<g style="fill:#FFFFFF; fill-opacity:1.0; 
stroke:#FFFFFF; stroke-width:39.3701; stroke-opacity:1; 
stroke-linecap:round; stroke-linejoin:round;">
</g>
<g style="fill:#FFFFFF; fill-opacity:1.0; 
stroke:#FFFFFF; stroke-width:0; stroke-opacity:1; 
stroke-linecap:round; stroke-linejoin:round;">
<circle cx="25725" cy="16275" r="196.85" /> 
</g>
<g style="fill:#FFFFFF; fill-opacity:1.0; 
stroke:#FFFFFF; stroke-width:39.3701; stroke-opacity:1; 
stroke-linecap:round; stroke-linejoin:round;">
</g>
<g style="fill:#FFFFFF; fill-opacity:1.0; 
stroke:#FFFFFF; stroke-width:0; stroke-opacity:1; 
stroke-linecap:round; stroke-linejoin:round;">
<circle cx="26725" cy="16275" r="196.85" /> 
</g>
<g style="fill:#FFFFFF; fill-opacity:1.0; 
stroke:#FFFFFF; stroke-width:39.3701; stroke-opacity:1; 
stroke-linecap:round; stroke-linejoin:round;">
</g>
<g style="fill:#FFFFFF; fill-opacity:1.0; 
stroke:#FFFFFF; stroke-width:0; stroke-opacity:1; 
stroke-linecap:round; stroke-linejoin:round;">
<circle cx="27725" cy="16275" r="196.85" /> 
</g>
<g style="fill:#FFFFFF; fill-opacity:1.0; 
stroke:#FFFFFF; stroke-width:39.3701; stroke-opacity:1; 
stroke-linecap:round; stroke-linejoin:round;">
</g>
<g style="fill:#FFFFFF; fill-opacity:1.0; 
stroke:#FFFFFF; stroke-width:0; stroke-opacity:1; 
stroke-linecap:round; stroke-linejoin:round;">
<circle cx="28725" cy="16275" r="196.85" /> 
</g>
<g style="fill:#FFFFFF; fill-opacity:1.0; 
stroke:#FFFFFF; stroke-width:39.3701; stroke-opacity:1; 
stroke-linecap:round; stroke-linejoin:round;">
</g>
<g style="fill:#FFFFFF; fill-opacity:1.0; 
stroke:#FFFFFF; stroke-width:0; stroke-opacity:1; 
stroke-linecap:round; stroke-linejoin:round;">
<circle cx="29725" cy="16275" r="196.85" /> 
</g>
<g style="fill:#FFFFFF; fill-opacity:1.0; 
stroke:#FFFFFF; stroke-width:39.3701; stroke-opacity:1; 
stroke-linecap:round; stroke-linejoin:round;">
</g>
<g style="fill:#FFFFFF; fill-opacity:1.0; 
stroke:#FFFFFF; stroke-width:0; stroke-opacity:1; 
stroke-linecap:round; stroke-linejoin:round;">
<circle cx="29725" cy="10275" r="196.85" /> 
</g>
<g style="fill:#FFFFFF; fill-opacity:1.0; 
stroke:#FFFFFF; stroke-width:39.3701; stroke-opacity:1; 
stroke-linecap:round; stroke-linejoin:round;">
</g>
<g style="fill:#FFFFFF; fill-opacity:1.0; 
stroke:#FFFFFF; stroke-width:0; stroke-opacity:1; 
stroke-linecap:round; stroke-linejoin:round;">
<circle cx="28725" cy="10275" r="196.85" /> 
</g>
<g style="fill:#FFFFFF; fill-opacity:1.0; 
stroke:#FFFFFF; stroke-width:39.3701; stroke-opacity:1; 
stroke-linecap:round; stroke-linejoin:round;">
</g>
<g style="fill:#FFFFFF; fill-opacity:1.0; 
stroke:#FFFFFF; stroke-width:0; stroke-opacity:1; 
stroke-linecap:round; stroke-linejoin:round;">
<circle cx="27725" cy="10275" r="196.85" /> 
</g>
<g style="fill:#FFFFFF; fill-opacity:1.0; 
stroke:#FFFFFF; stroke-width:39.3701; stroke-opacity:1; 
stroke-linecap:round; stroke-linejoin:round;">
</g>
<g style="fill:#FFFFFF; fill-opacity:1.0; 
stroke:#FFFFFF; stroke-width:0; stroke-opacity:1; 
stroke-linecap:round; stroke-linejoin:round;">
<circle cx="26725" cy="10275" r="196.85" /> 
</g>
<g style="fill:#FFFFFF; fill-opacity:1.0; 
stroke:#FFFFFF; stroke-width:39.3701; stroke-opacity:1; 
stroke-linecap:round; stroke-linejoin:round;">
</g>
<g style="fill:#FFFFFF; fill-opacity:1.0; 
stroke:#FFFFFF; stroke-width:0; stroke-opacity:1; 
stroke-linecap:round; stroke-linejoin:round;">
<circle cx="25725" cy="10275" r="196.85" /> 
</g>
<g style="fill:#FFFFFF; fill-opacity:1.0; 
stroke:#FFFFFF; stroke-width:39.3701; stroke-opacity:1; 
stroke-linecap:round; stroke-linejoin:round;">
</g>
<g style="fill:#FFFFFF; fill-opacity:1.0; 
stroke:#FFFFFF; stroke-width:0; stroke-opacity:1; 
stroke-linecap:round; stroke-linejoin:round;">
<circle cx="24725" cy="10275" r="196.85" /> 
</g>
<g style="fill:#FFFFFF; fill-opacity:1.0; 
stroke:#FFFFFF; stroke-width:39.3701; stroke-opacity:1; 
stroke-linecap:round; stroke-linejoin:round;">
</g>
<g style="fill:#FFFFFF; fill-opacity:1.0; 
stroke:#FFFFFF; stroke-width:0; stroke-opacity:1; 
stroke-linecap:round; stroke-linejoin:round;">
<circle cx="14050" cy="13550" r="196.85" /> 
</g>
<g style="fill:#FFFFFF; fill-opacity:1.0; 
stroke:#FFFFFF; stroke-width:39.3701; stroke-opacity:1; 
stroke-linecap:round; stroke-linejoin:round;">
</g>
<g style="fill:#FFFFFF; fill-opacity:1.0; 
stroke:#FFFFFF; stroke-width:0; stroke-opacity:1; 
stroke-linecap:round; stroke-linejoin:round;">
<circle cx="15050" cy="13550" r="196.85" /> 
</g>
<g style="fill:#FFFFFF; fill-opacity:1.0; 
stroke:#FFFFFF; stroke-width:39.3701; stroke-opacity:1; 
stroke-linecap:round; stroke-linejoin:round;">
</g>
<g style="fill:#FFFFFF; fill-opacity:1.0; 
stroke:#FFFFFF; stroke-width:0; stroke-opacity:1; 
stroke-linecap:round; stroke-linejoin:round;">
<circle cx="14050" cy="12550" r="196.85" /> 
</g>
<g style="fill:#FFFFFF; fill-opacity:1.0; 
stroke:#FFFFFF; stroke-width:39.3701; stroke-opacity:1; 
stroke-linecap:round; stroke-linejoin:round;">
</g>
<g style="fill:#FFFFFF; fill-opacity:1.0; 
stroke:#FFFFFF; stroke-width:0; stroke-opacity:1; 
stroke-linecap:round; stroke-linejoin:round;">
<circle cx="15050" cy="12550" r="196.85" /> 
</g>
<g style="fill:#FFFFFF; fill-opacity:1.0; 
stroke:#FFFFFF; stroke-width:39.3701; stroke-opacity:1; 
stroke-linecap:round; stroke-linejoin:round;">
</g>
<g style="fill:#FFFFFF; fill-opacity:1.0; 
stroke:#FFFFFF; stroke-width:0; stroke-opacity:1; 
stroke-linecap:round; stroke-linejoin:round;">
<circle cx="14050" cy="11550" r="196.85" /> 
</g>
<g style="fill:#FFFFFF; fill-opacity:1.0; 
stroke:#FFFFFF; stroke-width:39.3701; stroke-opacity:1; 
stroke-linecap:round; stroke-linejoin:round;">
</g>
<g style="fill:#FFFFFF; fill-opacity:1.0; 
stroke:#FFFFFF; stroke-width:0; stroke-opacity:1; 
stroke-linecap:round; stroke-linejoin:round;">
<circle cx="15050" cy="11550" r="196.85" /> 
</g>
<g style="fill:#FFFFFF; fill-opacity:1.0; 
stroke:#FFFFFF; stroke-width:39.3701; stroke-opacity:1; 
stroke-linecap:round; stroke-linejoin:round;">
</g>
<g style="fill:#FFFFFF; fill-opacity:1.0; 
stroke:#FFFFFF; stroke-width:0; stroke-opacity:1; 
stroke-linecap:round; stroke-linejoin:round;">
<circle cx="9100" cy="16411" r="236" /> 
</g>
<g style="fill:#FFFFFF; fill-opacity:1.0; 
stroke:#FFFFFF; stroke-width:39.3701; stroke-opacity:1; 
stroke-linecap:round; stroke-linejoin:round;">
</g>
<g style="fill:#FFFFFF; fill-opacity:1.0; 
stroke:#FFFFFF; stroke-width:0; stroke-opacity:1; 
stroke-linecap:round; stroke-linejoin:round;">
<circle cx="9100" cy="17789" r="236" /> 
</g>
<g style="fill:#FFFFFF; fill-opacity:1.0; 
stroke:#FFFFFF; stroke-width:39.3701; stroke-opacity:1; 
stroke-linecap:round; stroke-linejoin:round;">
</g>
<g style="fill:#FFFFFF; fill-opacity:1.0; 
stroke:#FFFFFF; stroke-width:0; stroke-opacity:1; 
stroke-linecap:round; stroke-linejoin:round;">
<circle cx="9100" cy="12585" r="236" /> 
</g>
<g style="fill:#FFFFFF; fill-opacity:1.0; 
stroke:#FFFFFF; stroke-width:39.3701; stroke-opacity:1; 
stroke-linecap:round; stroke-linejoin:round;">
</g>
<g style="fill:#FFFFFF; fill-opacity:1.0; 
stroke:#FFFFFF; stroke-width:0; stroke-opacity:1; 
stroke-linecap:round; stroke-linejoin:round;">
<circle cx="9100" cy="13963" r="236" /> 
</g>
<g style="fill:#FFFFFF; fill-opacity:1.0; 
stroke:#FFFFFF; stroke-width:39.3701; stroke-opacity:1; 
stroke-linecap:round; stroke-linejoin:round;">
</g>
<g style="fill:#FFFFFF; fill-opacity:1.0; 
stroke:#FFFFFF; stroke-width:0; stroke-opacity:1; 
stroke-linecap:round; stroke-linejoin:round;">
<circle cx="13200" cy="18100" r="196.85" /> 
</g>
<g style="fill:#FFFFFF; fill-opacity:1.0; 
stroke:#FFFFFF; stroke-width:39.3701; stroke-opacity:1; 
stroke-linecap:round; stroke-linejoin:round;">
</g>
<g style="fill:#FFFFFF; fill-opacity:1.0; 
stroke:#FFFFFF; stroke-width:0; stroke-opacity:1; 
stroke-linecap:round; stroke-linejoin:round;">
<circle cx="11750" cy="18100" r="196.85" /> 
</g>
<g style="fill:#FFFFFF; fill-opacity:1.0; 
stroke:#FFFFFF; stroke-width:39.3701; stroke-opacity:1; 
stroke-linecap:round; stroke-linejoin:round;">
</g>
<g style="fill:#FFFFFF; fill-opacity:1.0; 
stroke:#FFFFFF; stroke-width:0; stroke-opacity:1; 
stroke-linecap:round; stroke-linejoin:round;">
<circle cx="14650" cy="18100" r="196.85" /> 
</g>
<g style="fill:#FFFFFF; fill-opacity:1.0; 
stroke:#FFFFFF; stroke-width:39.3701; stroke-opacity:1; 
stroke-linecap:round; stroke-linejoin:round;">
</g>
<g style="fill:#FFFFFF; fill-opacity:1.0; 
stroke:#FFFFFF; stroke-width:0; stroke-opacity:1; 
stroke-linecap:round; stroke-linejoin:round;">
<circle cx="18275" cy="15875" r="196.85" /> 
</g>
<g style="fill:#FFFFFF; fill-opacity:1.0; 
stroke:#FFFFFF; stroke-width:39.3701; stroke-opacity:1; 
stroke-linecap:round; stroke-linejoin:round;">
</g>
<g style="fill:#FFFFFF; fill-opacity:1.0; 
stroke:#FFFFFF; stroke-width:0; stroke-opacity:1; 
stroke-linecap:round; stroke-linejoin:round;">
<circle cx="17450" cy="15025" r="196.85" /> 
</g>
<g style="fill:#FFFFFF; fill-opacity:1.0; 
stroke:#FFFFFF; stroke-width:39.3701; stroke-opacity:1; 
stroke-linecap:round; stroke-linejoin:round;">
</g>
<g style="fill:#FFFFFF; fill-opacity:1.0; 
stroke:#FFFFFF; stroke-width:0; stroke-opacity:1; 
stroke-linecap:round; stroke-linejoin:round;">
<circle cx="16375" cy="14575" r="196.85" /> 
</g>
<g style="fill:#FFFFFF; fill-opacity:1.0; 
stroke:#FFFFFF; stroke-width:39.3701; stroke-opacity:1; 
stroke-linecap:round; stroke-linejoin:round;">
</g>
<g style="fill:#FFFFFF; fill-opacity:1.0; 
stroke:#FFFFFF; stroke-width:0; stroke-opacity:1; 
stroke-linecap:round; stroke-linejoin:round;">
<circle cx="20000" cy="10625" r="196.85" /> 
</g>
<g style="fill:#FFFFFF; fill-opacity:1.0; 
stroke:#FFFFFF; stroke-width:39.3701; stroke-opacity:1; 
stroke-linecap:round; stroke-linejoin:round;">
</g>
<g style="fill:#FFFFFF; fill-opacity:1.0; 
stroke:#FFFFFF; stroke-width:0; stroke-opacity:1; 
stroke-linecap:round; stroke-linejoin:round;">
<circle cx="21950" cy="17325" r="157.48" /> 
</g>
<g style="fill:#FFFFFF; fill-opacity:1.0; 
stroke:#FFFFFF; stroke-width:39.3701; stroke-opacity:1; 
stroke-linecap:round; stroke-linejoin:round;">
</g>
<g style="fill:#FFFFFF; fill-opacity:1.0; 
stroke:#FFFFFF; stroke-width:0; stroke-opacity:1; 
stroke-linecap:round; stroke-linejoin:round;">
<circle cx="20020.9" cy="17325" r="157.48" /> 
</g>
<g style="fill:#FFFFFF; fill-opacity:1.0; 
stroke:#FFFFFF; stroke-width:39.3701; stroke-opacity:1; 
stroke-linecap:round; stroke-linejoin:round;">
</g>
<g style="fill:#FFFFFF; fill-opacity:1.0; 
stroke:#FFFFFF; stroke-width:0; stroke-opacity:1; 
stroke-linecap:round; stroke-linejoin:round;">
<circle cx="8375" cy="10500" r="600" /> 
</g>
<g style="fill:#FFFFFF; fill-opacity:1.0; 
stroke:#FFFFFF; stroke-width:39.3701; stroke-opacity:1; 
stroke-linecap:round; stroke-linejoin:round;">
</g>
<g style="fill:#FFFFFF; fill-opacity:1.0; 
stroke:#FFFFFF; stroke-width:0; stroke-opacity:1; 
stroke-linecap:round; stroke-linejoin:round;">
<circle cx="36075" cy="18000" r="600" /> 
</g>
<g style="fill:#FFFFFF; fill-opacity:1.0; 
stroke:#FFFFFF; stroke-width:39.3701; stroke-opacity:1; 
stroke-linecap:round; stroke-linejoin:round;">
</g>
<g style="fill:#000000; fill-opacity:1.0; 
stroke:#000000; stroke-width:39.3701; stroke-opacity:1; 
stroke-linecap:round; stroke-linejoin:round;">
</g> 
</svg>
