G04 #@! TF.FileFunction,Legend,Top*
%FSLAX46Y46*%
G04 Gerber Fmt 4.6, Leading zero omitted, Abs format (unit mm)*
G04 Created by KiCad (PCBNEW 4.0.7) date 11/22/17 14:23:38*
%MOMM*%
%LPD*%
G01*
G04 APERTURE LIST*
%ADD10C,0.100000*%
%ADD11C,0.150000*%
%ADD12C,0.120000*%
G04 APERTURE END LIST*
D10*
D11*
X18034000Y-22352000D02*
X18542000Y-22352000D01*
X18034000Y-23431500D02*
X18034000Y-22352000D01*
X94742000Y-22352000D02*
X94742000Y-23431500D01*
X18034000Y-48831500D02*
X18034000Y-23431500D01*
X39878000Y-48831500D02*
X18034000Y-48831500D01*
X94742000Y-48831500D02*
X39878000Y-48831500D01*
X94742000Y-47307500D02*
X94742000Y-48831500D01*
X94742000Y-23431500D02*
X94742000Y-47307500D01*
X18542000Y-22352000D02*
X94742000Y-22352000D01*
D12*
X43881500Y-43338500D02*
X43881500Y-24098500D01*
X43881500Y-43338500D02*
X94421500Y-43338500D01*
X94421500Y-43338500D02*
X94421500Y-24098500D01*
X94421500Y-24098500D02*
X43881500Y-24098500D01*
X61801500Y-43718500D02*
X63801500Y-43718500D01*
D11*
X20863560Y-48183800D02*
X20863560Y-38684200D01*
X27363420Y-43185080D02*
X25364440Y-43185080D01*
X25364440Y-43185080D02*
X25364440Y-41683940D01*
X25364440Y-41683940D02*
X27363420Y-41683940D01*
X25364440Y-48183800D02*
X25364440Y-45184060D01*
X25364440Y-45184060D02*
X27315160Y-45184060D01*
X27363420Y-38684200D02*
X18864580Y-38684200D01*
X18864580Y-38684200D02*
X18864580Y-48183800D01*
X18864580Y-48183800D02*
X27363420Y-48183800D01*
X27363420Y-48183800D02*
X27363420Y-38684200D01*
X20863560Y-38465760D02*
X20863560Y-28966160D01*
X27363420Y-33467040D02*
X25364440Y-33467040D01*
X25364440Y-33467040D02*
X25364440Y-31965900D01*
X25364440Y-31965900D02*
X27363420Y-31965900D01*
X25364440Y-38465760D02*
X25364440Y-35466020D01*
X25364440Y-35466020D02*
X27315160Y-35466020D01*
X27363420Y-28966160D02*
X18864580Y-28966160D01*
X18864580Y-28966160D02*
X18864580Y-38465760D01*
X18864580Y-38465760D02*
X27363420Y-38465760D01*
X27363420Y-38465760D02*
X27363420Y-28966160D01*
M02*
